<svg width="43" height="40" viewBox="0 0 43 40" fill="none" xmlns="http://www.w3.org/2000/svg">
<g clip-path="url(#clip0_619_8)">
<path d="M11.8072 35.9935C9.80205 35.7706 7.9081 35.1778 6.19473 34.2858C7.29658 35.8509 8.74711 37.2082 10.5128 38.2284L10.5115 38.2304C12.2782 39.2506 14.1793 39.8287 16.087 39.9997C14.461 38.9621 13.0029 37.6181 11.8072 35.9935ZM28.4467 6.38243C26.7006 6.38243 25.0313 6.71183 23.4975 7.31162C24.0162 7.7173 24.5094 8.15405 24.9744 8.61935C25.5407 9.18615 26.0649 9.79542 26.542 10.4413C27.3378 10.5318 28.1251 10.6812 28.8969 10.8883C29.5336 11.059 30.1597 11.2689 30.7716 11.5165C30.5247 9.88499 29.9757 8.27203 29.1028 6.7575L29.1007 6.75877C29.0286 6.63402 28.9549 6.51104 28.8796 6.38933C28.7359 6.38499 28.5916 6.38243 28.4467 6.38243ZM21.0257 8.58479C20.2313 9.10308 19.4944 9.70226 18.8266 10.3706L18.7919 10.4058C19.5385 10.4745 20.2841 10.596 21.0235 10.7721C21.7641 10.5957 22.5111 10.4741 23.2588 10.4053L23.2245 10.3706C22.5569 9.70226 21.8199 9.10321 21.0257 8.58479ZM17.0769 8.61935C17.5418 8.15405 18.0352 7.7174 18.5537 7.31162C17.02 6.71169 15.3507 6.38243 13.6047 6.38243C13.4587 6.38243 13.3135 6.38499 13.1687 6.38957C13.0946 6.5095 13.0217 6.6308 12.9509 6.75378C12.0767 8.26923 11.5269 9.88369 11.2799 11.5165C11.892 11.2688 12.5181 11.0587 13.1548 10.888C13.9267 10.6811 14.7139 10.5316 15.5095 10.4412C15.9864 9.79528 16.5106 9.18615 17.0769 8.61935ZM21.0257 5.71877C22.8347 4.77497 24.8455 4.16533 26.9761 3.97197C25.3038 2.28351 23.2431 1.09377 21.0252 0.465176C18.8055 1.09454 16.7441 2.28415 15.0721 3.97169C17.204 4.16496 19.2158 4.7746 21.0257 5.71877ZM13.0366 15.3901C13.2546 14.6589 13.5234 13.9496 13.8383 13.2662L13.7927 13.2781C12.8802 13.5229 11.9932 13.8619 11.1475 14.2909C11.1991 15.2396 11.3492 16.1787 11.5938 17.0927L11.6067 17.1395C12.0386 16.5275 12.5157 15.9424 13.0366 15.3901ZM18.7928 29.5938L18.8267 29.6281C19.4945 30.2965 20.2315 30.8955 21.0258 31.4139C21.8201 30.8955 22.5572 30.2965 23.2247 29.6281L23.2587 29.5938C22.5119 29.5248 21.766 29.4034 21.0262 29.2271C20.2862 29.4034 19.5398 29.5251 18.7928 29.5938ZM17.0769 31.3794C16.5109 30.8127 15.987 30.2038 15.5102 29.5582C14.7144 29.468 13.9269 29.3185 13.155 29.1116C12.5186 28.9409 11.8928 28.7309 11.2812 28.4835C11.5285 30.1144 12.0777 31.7271 12.9511 33.241L12.9537 33.2502C13.0236 33.3714 13.0952 33.4909 13.1683 33.6091C13.3133 33.6136 13.4587 33.6162 13.6047 33.6162C15.3508 33.6162 17.02 33.287 18.5537 32.6871C18.0352 32.2812 17.5418 31.8445 17.0769 31.3794ZM13.8387 26.7334C13.5238 26.0503 13.2553 25.3412 13.0372 24.6106C12.516 24.058 12.0389 23.4728 11.6067 22.8607L11.5939 22.9069C11.3493 23.8208 11.1994 24.7598 11.148 25.7083C11.9937 26.1375 12.8807 26.4769 13.7929 26.7214L13.8387 26.7334ZM23.4975 32.6871C25.0313 33.287 26.7006 33.6162 28.4467 33.6162C28.5927 33.6162 28.7379 33.6137 28.8829 33.6091C28.9571 33.4895 29.0296 33.3684 29.1003 33.2457L29.1004 33.2454C29.9744 31.73 30.5242 30.1157 30.7711 28.483C30.1592 28.7306 29.5331 28.9406 28.8964 29.1114C28.1245 29.3183 27.3372 29.4677 26.5411 29.5579C26.0644 30.2038 25.5403 30.8127 24.9743 31.3792C24.5094 31.8445 24.0162 32.2812 23.4975 32.6871ZM26.9796 36.027C25.3073 37.7152 23.2455 38.905 21.0252 39.5344C18.8052 38.905 16.7436 37.7152 15.0715 36.027C17.2036 35.8342 19.2157 35.2243 21.0256 34.28C22.8356 35.2243 24.8477 35.8338 26.9796 36.027ZM31.9129 33.1702C34.2126 32.5653 36.2749 31.3733 37.9292 29.7635C38.4933 27.525 38.494 25.1432 37.8691 22.8498C36.6356 24.6022 35.1019 26.0421 33.3793 27.1394C33.2908 29.1784 32.8119 31.2262 31.9129 33.1702ZM35.8571 34.2855C34.1437 35.1778 32.2495 35.7706 30.2441 35.9935C29.0481 37.6181 27.5898 38.9621 25.9636 40C27.8716 39.8294 29.7731 39.2509 31.54 38.2308L31.5387 38.2287C33.3044 37.2082 34.7552 35.8513 35.8571 34.2855ZM40.8 25.7111C41.6031 23.9741 42.0513 22.039 42.0513 19.9993C42.0513 17.9593 41.6027 16.0243 40.7997 14.287C40.7142 16.2156 40.28 18.1511 39.4711 19.9994C40.28 21.8476 40.7142 23.7828 40.8 25.7111ZM37.9282 10.2344C36.2742 8.62499 34.2123 7.4332 31.9127 6.82865C32.8121 8.77306 33.291 10.8207 33.3796 12.8604C35.1022 13.9575 36.6359 15.3971 37.8687 17.1494C38.494 14.8554 38.493 12.4732 37.9282 10.2344ZM30.2473 4.00537C29.0518 2.38116 27.5934 1.03772 25.9664 0C27.8748 0.171225 29.7764 0.749908 31.5432 1.77099C33.3074 2.7904 34.7569 4.14728 35.8581 5.71364C34.1452 4.82168 32.2519 4.22906 30.2473 4.00537ZM9.20598 17.7312C9.03542 17.0942 8.9041 16.4468 8.81258 15.7929C7.52417 16.8225 6.40314 18.1051 5.52974 19.619C5.45699 19.7452 5.38667 19.8721 5.31839 19.9996C5.38605 20.126 5.45586 20.2519 5.52797 20.3771L5.53002 20.3758C6.40403 21.891 7.52506 23.1744 8.81296 24.2047C8.90448 23.5514 9.03579 22.9045 9.20622 22.2683C9.41337 21.4945 9.67815 20.7359 9.99843 19.9999C9.67802 19.2639 9.41309 18.5052 9.20598 17.7312ZM8.67179 12.8613C6.95036 13.9588 5.41685 15.3991 4.18332 17.1524C3.55757 14.8575 3.55795 12.4741 4.12321 10.2341C5.77726 8.62486 7.83894 7.4332 10.1386 6.82865C9.23908 8.77316 8.76027 10.8215 8.67179 12.8613ZM28.2127 26.7331L28.2585 26.7211C29.1709 26.4767 30.0578 26.1369 30.9036 25.7078C30.852 24.7596 30.7019 23.8205 30.4573 22.9067L30.4443 22.8589C30.0127 23.47 29.536 24.0544 29.0154 24.6063C28.7972 25.3385 28.5281 26.0489 28.2127 26.7331ZM33.2385 24.2045C33.1469 23.5511 33.0157 22.9044 32.8454 22.2682C32.6382 21.4941 32.3734 20.7358 32.0534 19.9998C32.3736 19.2636 32.6386 18.5054 32.8457 17.7315C33.016 17.0952 33.1472 16.4485 33.2387 15.7952C34.5265 16.8255 35.6479 18.1089 36.5217 19.624L36.5241 19.6228C36.5959 19.7476 36.6653 19.8734 36.733 19.9996C36.6656 20.1258 36.5959 20.2517 36.5238 20.3768L36.5214 20.3755C35.6475 21.8907 34.5265 23.1743 33.2385 24.2045ZM11.8076 4.00499C9.80191 4.22827 7.90749 4.82092 6.19371 5.7135C7.2948 4.14742 8.74431 2.79079 10.5082 1.7715C12.2757 0.750298 14.1778 0.171352 16.0865 0.000382725C14.4609 1.03772 13.0031 2.38103 11.8076 4.00499ZM8.67155 27.139C8.75962 29.1784 9.23795 31.2257 10.136 33.1694C7.83716 32.5645 5.776 31.3729 4.12256 29.764C3.55809 27.5253 3.55757 25.1436 4.18239 22.8501C5.41545 24.6024 6.9492 26.0421 8.67155 27.139ZM30.445 17.1394L30.4577 17.093C30.7025 16.1791 30.8524 15.2402 30.9041 14.2918C30.0582 13.8625 29.1712 13.5229 28.2587 13.2783L28.2131 13.2662C28.5279 13.9495 28.7966 14.6584 29.0145 15.3893C29.5357 15.9418 30.0129 16.527 30.445 17.1394ZM2.57999 19.9996C1.77131 18.1511 1.33686 16.2153 1.25158 14.2868C0.44826 16.024 0 17.9592 0 19.9993C0 22.0391 0.44826 23.9743 1.25145 25.7114C1.33698 23.783 1.77131 21.8478 2.57999 19.9996Z" fill="#FF5135"/>
</g>
<defs>
<clipPath id="clip0_619_8">
<rect width="42.0513" height="40" fill="white"/>
</clipPath>
</defs>
</svg>
