<svg width="28" height="25" viewBox="0 0 28 25" fill="none" xmlns="http://www.w3.org/2000/svg">
<g clip-path="url(#clip0_3435_68516)">
<path d="M12.0829 23.972C11.8242 23.9242 11.5682 23.8655 11.3159 23.7976C11.2223 23.7719 11.1296 23.7462 11.0378 23.7178C10.97 23.6976 10.903 23.6765 10.8351 23.6545C10.7874 23.6389 10.7387 23.6223 10.691 23.6058C10.6167 23.5801 10.5433 23.5545 10.4699 23.5269C10.391 23.4976 10.313 23.4682 10.2359 23.437L10.0781 20.5431L10.4176 18.9117L12.0627 23.9114L12.0829 23.972Z" fill="url(#paint0_linear_3435_68516)"/>
<path d="M17.7434 20.543L17.5755 23.4204C17.4966 23.4525 17.4176 23.4828 17.3388 23.5131C17.2598 23.5434 17.18 23.5718 17.1002 23.5993C17.0607 23.6131 17.0204 23.6268 16.98 23.6397C16.9121 23.6627 16.8433 23.6838 16.7745 23.7049C16.4251 23.8119 16.0701 23.8995 15.711 23.9673L15.7165 23.9489L15.7184 23.9415L17.3837 18.8364L17.7434 20.543Z" fill="url(#paint1_linear_3435_68516)"/>
<path d="M16.0692 22.6228L15.1792 24.0524L15.1343 24.0579C15.1177 24.0597 15.1012 24.0625 15.0847 24.0643C15.071 24.0661 15.0563 24.068 15.0425 24.0689L14.9498 24.0799C14.8838 24.0872 14.8186 24.0937 14.7526 24.0992C14.4712 24.1239 14.1874 24.1368 13.9011 24.1377H13.8846C13.601 24.1377 13.3185 24.1258 13.0386 24.101C12.9771 24.0955 12.9157 24.09 12.8542 24.0836C12.8267 24.0808 12.7982 24.0781 12.7707 24.0744L12.7258 24.0689L12.6826 24.0634L12.6349 24.0579L11.7467 22.6219L11.5504 19.116L12.4853 21.6549L13.5974 21.8558L14.3021 21.8539L15.3572 21.6466L16.1601 19.2106L16.0692 22.6228Z" fill="url(#paint2_linear_3435_68516)"/>
<path d="M15.1928 12.728L16.6132 13.5455L16.6168 14.485L15.1928 12.728Z" fill="url(#paint3_linear_3435_68516)"/>
<path d="M20.1664 13.1335L21.15 12.8931L20.6858 14.4602L20.1664 13.1335Z" fill="url(#paint4_linear_3435_68516)"/>
<path d="M16.6169 14.485L16.7618 16.0108L17.4573 14.9979L18.273 13.7097L16.6169 14.485Z" fill="url(#paint5_linear_3435_68516)"/>
<path d="M20.1665 13.1335L18.9994 13.4418L18.2727 13.7098L17.457 14.998L16.7615 16.0109L17.7222 16.0605L19.5278 15.721L20.6858 14.4603L20.1665 13.1335Z" fill="url(#paint6_linear_3435_68516)"/>
<path d="M16.0709 16.5923L16.7618 16.0106L16.9627 16.5932L16.0709 16.5923Z" fill="url(#paint7_linear_3435_68516)"/>
<path d="M16.7615 16.0106L17.7222 16.0601L16.9624 16.5932L16.7615 16.0106Z" fill="url(#paint8_linear_3435_68516)"/>
<path d="M16.0703 16.5928L16.9622 16.5937L16.007 17.2855L16.0703 16.5928Z" fill="url(#paint9_linear_3435_68516)"/>
<path d="M15.1928 12.728L16.6168 14.485L15.7406 15.3439L15.1928 12.728Z" fill="url(#paint10_linear_3435_68516)"/>
<path d="M16.0703 16.5928L16.7612 16.0111L15.74 15.3441L16.0703 16.5928Z" fill="url(#paint11_linear_3435_68516)"/>
<path d="M16.6162 14.4853L16.7612 16.0111L15.74 15.3441L16.6162 14.4853Z" fill="url(#paint12_linear_3435_68516)"/>
<path d="M15.7405 15.3441L14.8908 17.8884L16.0075 17.2856L16.0708 16.5928L15.7405 15.3441Z" fill="url(#paint13_linear_3435_68516)"/>
<path d="M15.812 18.1363L16.0075 17.2858L14.8908 17.8886L15.3763 19.2576L16.0983 19.4181L15.812 18.1363Z" fill="url(#paint14_linear_3435_68516)"/>
<path d="M15.1954 20.2243L14.4825 21.2721L14.3027 21.8539L15.3579 21.6465L15.1954 20.2243Z" fill="url(#paint15_linear_3435_68516)"/>
<path d="M11.1738 14.4942L11.1665 13.5546L12.5776 12.7316L11.1738 14.4942Z" fill="url(#paint16_linear_3435_68516)"/>
<path d="M7.09168 14.4838L6.60448 12.9148L7.5963 13.1524L7.09168 14.4838Z" fill="url(#paint17_linear_3435_68516)"/>
<path d="M11.1737 14.4943L11.0195 16.0219L10.3378 15.0099L9.50378 13.7235L11.1737 14.4943Z" fill="url(#paint18_linear_3435_68516)"/>
<path d="M7.59664 13.1522L8.77201 13.4578L9.50416 13.7239L10.3382 15.0102L11.0199 16.0223L10.0859 16.0755L8.26917 15.7424L7.09201 14.4836L7.59664 13.1522Z" fill="url(#paint19_linear_3435_68516)"/>
<path d="M10.8525 16.6071L11.0195 16.0226L11.7462 16.6016L10.8525 16.6071Z" fill="url(#paint20_linear_3435_68516)"/>
<path d="M10.8524 16.6071L10.0854 16.0759L11.0194 16.0226L10.8524 16.6071Z" fill="url(#paint21_linear_3435_68516)"/>
<path d="M11.8187 17.2948L10.8525 16.6067L11.7462 16.6012L11.8187 17.2948Z" fill="url(#paint22_linear_3435_68516)"/>
<path d="M12.0619 15.3511L11.1737 14.4942L12.5775 12.7316L12.0619 15.3511Z" fill="url(#paint23_linear_3435_68516)"/>
<path d="M12.0617 15.3513L11.0194 16.022L11.7461 16.601L12.0617 15.3513Z" fill="url(#paint24_linear_3435_68516)"/>
<path d="M12.0617 15.3519L11.0194 16.0226L11.1735 14.4949L12.0617 15.3519Z" fill="url(#paint25_linear_3435_68516)"/>
<path d="M12.0612 15.3513L12.8861 17.88L11.8181 17.2946L11.7456 16.601L12.0612 15.3513Z" fill="url(#paint26_linear_3435_68516)"/>
<path d="M12.6675 20.232L12.4748 19.2649L13.9337 19.3796L12.6675 20.232Z" fill="url(#paint27_linear_3435_68516)"/>
<path d="M11.8187 17.2948L12.0527 18.1004L11.6444 19.4538L12.4747 19.2648L12.8867 17.8802L11.8187 17.2948Z" fill="url(#paint28_linear_3435_68516)"/>
<path d="M12.6673 20.2321L13.3573 21.2754L13.5977 21.8571L12.4857 21.6552L12.6673 20.2321Z" fill="url(#paint29_linear_3435_68516)"/>
<path d="M14.4826 21.2723L13.9275 21.2163V21.2144L13.9201 21.2154L13.9128 21.2144V21.2163L13.3577 21.275L13.5981 21.8568L14.3028 21.854L14.4826 21.2723Z" fill="url(#paint30_linear_3435_68516)"/>
<path d="M15.1955 20.2244L13.9339 19.3895V19.3794L13.9266 19.384L13.9192 19.3794V19.3895L12.6677 20.2318L13.3577 21.275L13.9201 21.2154L14.4826 21.2723L15.1955 20.2244Z" fill="url(#paint31_linear_3435_68516)"/>
<path d="M14.8908 17.8884L15.7404 15.3441L13.9026 15.4578L12.062 15.3514L12.8869 17.8801L12.4749 19.2647L13.9191 19.3785V19.3794L13.9264 19.3785L13.9338 19.3794V19.3785L15.3761 19.2573L14.8908 17.8884Z" fill="url(#paint32_linear_3435_68516)"/>
<path d="M13.9099 15.4576L15.7404 15.3439L15.1927 12.728L13.8806 13.0335L12.5776 12.7316L12.062 15.3512L13.8952 15.4576V15.4586L13.9026 15.4576L13.9099 15.4586V15.4576Z" fill="url(#paint33_linear_3435_68516)"/>
<path d="M15.376 19.257L15.1952 20.2242L15.3576 21.6463L16.0981 19.4176L15.376 19.257Z" fill="url(#paint34_linear_3435_68516)"/>
<path d="M12.4747 19.2649L11.6444 19.4539L12.4857 21.655L12.6674 20.232L12.4747 19.2649Z" fill="url(#paint35_linear_3435_68516)"/>
<path d="M12.4747 19.2647L11.6443 19.4537L10.8525 16.6066L11.8187 17.2948L12.4509 18.104L12.4747 19.2647Z" fill="url(#paint36_linear_3435_68516)"/>
<path d="M15.376 19.2569L16.0981 19.4175L16.9624 16.5933L16.0072 17.2852L15.4007 18.2174L15.376 19.2569Z" fill="url(#paint37_linear_3435_68516)"/>
<path d="M13.9188 19.3791L15.3758 19.257L15.1951 20.2242L13.9188 19.3791Z" fill="url(#paint38_linear_3435_68516)"/>
<path d="M13.3173 19.7804H14.6157L13.9192 19.3794L13.3173 19.7804Z" fill="url(#paint39_linear_3435_68516)"/>
<path d="M24.0711 11.0031L23.5196 11.2168L23.3838 11.0875L23.4269 10.7517L25.874 8.03668L27.7696 4.16193L27.4026 4.06743L25.8281 7.13474L25.8722 6.64662L26.4199 3.17559L26.0125 0.0972585L25.6731 0L25.8199 2.6847L24.8528 7.26503L23.6096 8.94595L23.4673 7.82016L24.272 5.8199L24.439 3.09851L24.1555 3.08658L23.9499 5.0455L23.1976 6.8907L22.8939 7.17234L22.6948 6.83287L22.6599 4.85834L22.3626 4.88677L22.281 7.35864L22.3635 9.43865L21.4662 10.2121L19.7614 10.9756L18.5163 11.1297L19.8963 9.30377L19.8063 8.27067L19.6816 8.28443L19.5806 8.74136L17.6208 11.3426L16.5876 11.6197L15.1994 12.7409L16.6124 13.5456L17.2492 12.7831L17.9089 12.6014L19.3127 12.3509L20.1523 12.2014L21.7001 12.1105L23.4425 12.0087L26.2768 9.91026L26.0529 9.56345L24.0711 11.0031Z" fill="url(#paint40_linear_3435_68516)"/>
<path d="M10.1149 11.3533L8.14588 8.75661L8.04218 8.30151L7.9183 8.28776L7.83575 9.31724L9.22122 11.1395L7.98072 10.9844L6.28238 10.2219L5.38594 9.45029L5.45382 7.37848L5.35654 4.91675L5.0611 4.88923L5.04 6.85551L4.8455 7.19315L4.54179 6.91329L3.78391 5.07823L3.56737 3.12755L3.28661 3.1404L3.47011 5.84804L4.28121 7.83816L4.14634 8.95942L2.90491 7.28584L1.91765 2.7321L2.04427 0.0620728L1.71028 0.160249L1.32676 3.22206L1.89196 6.67201L1.93783 7.15738L0.362426 4.11023L0 4.20474L1.8993 8.05381L4.33902 10.7569L4.38398 11.0908L4.25094 11.2193L3.70317 11.0064L1.73138 9.57233L1.51301 9.91731L4.33259 12.0075L6.06214 12.113L7.59992 12.2056L8.43582 12.357L9.83597 12.6094L10.4947 12.7919L11.1664 13.5544L12.5776 12.7314L11.1462 11.6312L10.1149 11.3533Z" fill="url(#paint41_linear_3435_68516)"/>
<path d="M12.6831 24.0643L12.6354 24.0588C12.5097 24.0423 12.3849 24.0239 12.261 24.0037C12.2427 24.001 12.2243 23.9973 12.206 23.9946L12.0839 23.9725C11.8252 23.9248 11.5692 23.8661 11.3169 23.7982C11.2233 23.7725 11.1306 23.7469 11.0389 23.7184C10.971 23.6982 10.904 23.6771 10.8361 23.6551L10.5535 22.2439L10.4186 18.9133L10.8535 16.6084L11.6453 19.4555L11.7481 22.6247L12.6831 24.0643Z" fill="url(#paint42_linear_3435_68516)"/>
<path d="M17.3979 18.911L17.2631 22.2417L17.2575 22.2472L16.9786 23.6382C16.9107 23.6611 16.8419 23.6822 16.7731 23.7033C16.4237 23.8104 16.0687 23.898 15.7096 23.9657C15.6684 23.9731 15.6271 23.9813 15.5858 23.9887L15.5564 23.9942C15.5546 23.9942 15.5537 23.9951 15.5518 23.9951C15.428 24.0162 15.3032 24.0355 15.1775 24.052L15.1325 24.0575L16.0666 22.6215L16.095 19.4166L16.9603 16.5933L17.3823 18.8367L17.3979 18.911Z" fill="url(#paint43_linear_3435_68516)"/>
</g>
<defs>
<linearGradient id="paint0_linear_3435_68516" x1="11.0805" y1="10.3589" x2="11.0805" y2="26.0245" gradientUnits="userSpaceOnUse">
<stop stop-color="#00E0A4"/>
<stop offset="1" stop-color="#00182E"/>
</linearGradient>
<linearGradient id="paint1_linear_3435_68516" x1="4913.13" y1="-10060.2" x2="4913.13" y2="-1300" gradientUnits="userSpaceOnUse">
<stop stop-color="#00E0A4"/>
<stop offset="1" stop-color="#00182E"/>
</linearGradient>
<linearGradient id="paint2_linear_3435_68516" x1="13.8552" y1="26.7668" x2="13.8552" y2="15.5855" gradientUnits="userSpaceOnUse">
<stop stop-color="#00E0B5"/>
<stop offset="1" stop-color="#000B08"/>
</linearGradient>
<linearGradient id="paint3_linear_3435_68516" x1="15.4565" y1="12.5589" x2="16.9328" y2="14.2709" gradientUnits="userSpaceOnUse">
<stop stop-color="#00917B"/>
<stop offset="1" stop-color="#00BD86"/>
</linearGradient>
<linearGradient id="paint4_linear_3435_68516" x1="20.3977" y1="12.5238" x2="21.7584" y2="13.5067" gradientUnits="userSpaceOnUse">
<stop stop-color="#004F75"/>
<stop offset="1" stop-color="#006186"/>
</linearGradient>
<linearGradient id="paint5_linear_3435_68516" x1="16.3621" y1="15.5556" x2="19.3593" y2="13.1083" gradientUnits="userSpaceOnUse">
<stop stop-color="#00E0A3"/>
<stop offset="1" stop-color="#00298F"/>
</linearGradient>
<linearGradient id="paint6_linear_3435_68516" x1="17.706" y1="15.7373" x2="22.7696" y2="11.6028" gradientUnits="userSpaceOnUse">
<stop stop-color="#00E094"/>
<stop offset="1" stop-color="#000051"/>
</linearGradient>
<linearGradient id="paint7_linear_3435_68516" x1="17.0256" y1="16.2556" x2="16.1425" y2="16.5059" gradientUnits="userSpaceOnUse">
<stop stop-color="#005773"/>
<stop offset="1" stop-color="#003B1B"/>
</linearGradient>
<linearGradient id="paint8_linear_3435_68516" x1="24272.4" y1="-19015.6" x2="24300.1" y2="-18950.6" gradientUnits="userSpaceOnUse">
<stop stop-color="#00E094"/>
<stop offset="1" stop-color="#000051"/>
</linearGradient>
<linearGradient id="paint9_linear_3435_68516" x1="16.1891" y1="16.614" x2="16.891" y2="17.5741" gradientUnits="userSpaceOnUse">
<stop stop-color="#000700"/>
<stop offset="1" stop-color="#002B16"/>
</linearGradient>
<linearGradient id="paint10_linear_3435_68516" x1="15.1773" y1="12.7851" x2="17.3291" y2="14.3914" gradientUnits="userSpaceOnUse">
<stop stop-color="#00ABB5"/>
<stop offset="1" stop-color="#00AD95"/>
</linearGradient>
<linearGradient id="paint11_linear_3435_68516" x1="15.7713" y1="15.3754" x2="16.9283" y2="16.5897" gradientUnits="userSpaceOnUse">
<stop stop-color="#00C77A"/>
<stop offset="1" stop-color="#00C797"/>
</linearGradient>
<linearGradient id="paint12_linear_3435_68516" x1="15.7814" y1="14.3444" x2="17.1114" y2="15.7403" gradientUnits="userSpaceOnUse">
<stop stop-color="#00D4B0"/>
<stop offset="1" stop-color="#00A1B5"/>
</linearGradient>
<linearGradient id="paint13_linear_3435_68516" x1="12.5417" y1="19.078" x2="16.4925" y2="15.8523" gradientUnits="userSpaceOnUse">
<stop stop-color="#00E088"/>
<stop offset="1" stop-color="#00E0B5"/>
</linearGradient>
<linearGradient id="paint14_linear_3435_68516" x1="14.582" y1="19.4957" x2="16.9359" y2="17.3229" gradientUnits="userSpaceOnUse">
<stop stop-color="#00E094"/>
<stop offset="1" stop-color="#00E0B5"/>
</linearGradient>
<linearGradient id="paint15_linear_3435_68516" x1="2131.84" y1="-455.514" x2="2453.69" y2="-620.606" gradientUnits="userSpaceOnUse">
<stop stop-color="#00C77A"/>
<stop offset="1" stop-color="#00C797"/>
</linearGradient>
<linearGradient id="paint16_linear_3435_68516" x1="-72835.7" y1="-116485" x2="-73112.4" y2="-116225" gradientUnits="userSpaceOnUse">
<stop stop-color="#00917B"/>
<stop offset="1" stop-color="#00BD86"/>
</linearGradient>
<linearGradient id="paint17_linear_3435_68516" x1="-39197.1" y1="-106483" x2="-39373.2" y2="-106396" gradientUnits="userSpaceOnUse">
<stop stop-color="#004F75"/>
<stop offset="1" stop-color="#006186"/>
</linearGradient>
<linearGradient id="paint18_linear_3435_68516" x1="-11656.8" y1="-2612.74" x2="-12354.5" y2="-3013.8" gradientUnits="userSpaceOnUse">
<stop stop-color="#00E0A3"/>
<stop offset="1" stop-color="#00298F"/>
</linearGradient>
<linearGradient id="paint19_linear_3435_68516" x1="-27558.2" y1="-1909.76" x2="-29166" y2="-3647.94" gradientUnits="userSpaceOnUse">
<stop stop-color="#00E094"/>
<stop offset="1" stop-color="#000051"/>
</linearGradient>
<linearGradient id="paint20_linear_3435_68516" x1="1519.77" y1="-706.069" x2="1583.97" y2="-661.781" gradientUnits="userSpaceOnUse">
<stop stop-color="#005773"/>
<stop offset="1" stop-color="#003B1B"/>
</linearGradient>
<linearGradient id="paint21_linear_3435_68516" x1="-27947.6" y1="-18843.5" x2="-27985.5" y2="-18756.3" gradientUnits="userSpaceOnUse">
<stop stop-color="#00E094"/>
<stop offset="1" stop-color="#000051"/>
</linearGradient>
<linearGradient id="paint22_linear_3435_68516" x1="-26857.6" y1="-20547.8" x2="-26903.3" y2="-20457.2" gradientUnits="userSpaceOnUse">
<stop stop-color="#000700"/>
<stop offset="1" stop-color="#002B16"/>
</linearGradient>
<linearGradient id="paint23_linear_3435_68516" x1="-89947.1" y1="-279802" x2="-90362.2" y2="-279618" gradientUnits="userSpaceOnUse">
<stop stop-color="#00ABB5"/>
<stop offset="1" stop-color="#00AD95"/>
</linearGradient>
<linearGradient id="paint24_linear_3435_68516" x1="-37617" y1="-61052.1" x2="-37771.4" y2="-60914.5" gradientUnits="userSpaceOnUse">
<stop stop-color="#00C77A"/>
<stop offset="1" stop-color="#00C797"/>
</linearGradient>
<linearGradient id="paint25_linear_3435_68516" x1="-39159.7" y1="-75572.5" x2="-39362.1" y2="-75422.9" gradientUnits="userSpaceOnUse">
<stop stop-color="#00D4B0"/>
<stop offset="1" stop-color="#00A1B5"/>
</linearGradient>
<linearGradient id="paint26_linear_3435_68516" x1="-7580.37" y1="-2375.74" x2="-8344.1" y2="-2626.33" gradientUnits="userSpaceOnUse">
<stop stop-color="#00E088"/>
<stop offset="1" stop-color="#00E0B5"/>
</linearGradient>
<linearGradient id="paint27_linear_3435_68516" x1="-59574.3" y1="-33129" x2="-59634.2" y2="-32949.7" gradientUnits="userSpaceOnUse">
<stop stop-color="#00E094"/>
<stop offset="1" stop-color="#00E0B5"/>
</linearGradient>
<linearGradient id="paint28_linear_3435_68516" x1="2116.57" y1="-1851.71" x2="2622.6" y2="-2142.9" gradientUnits="userSpaceOnUse">
<stop stop-color="#00E094"/>
<stop offset="1" stop-color="#00E0B5"/>
</linearGradient>
<linearGradient id="paint29_linear_3435_68516" x1="-7359.95" y1="-649.127" x2="-7694.21" y2="-828.906" gradientUnits="userSpaceOnUse">
<stop stop-color="#00C77A"/>
<stop offset="1" stop-color="#00C797"/>
</linearGradient>
<linearGradient id="paint30_linear_3435_68516" x1="2367.35" y1="-424.931" x2="2413.27" y2="-505.347" gradientUnits="userSpaceOnUse">
<stop stop-color="#00C77A"/>
<stop offset="1" stop-color="#00C797"/>
</linearGradient>
<linearGradient id="paint31_linear_3435_68516" x1="15.1148" y1="20.3272" x2="12.7833" y2="20.3272" gradientUnits="userSpaceOnUse">
<stop stop-color="#004D45"/>
<stop offset="0.11" stop-color="#003630"/>
<stop offset="0.24" stop-color="#00221E"/>
<stop offset="0.37" stop-color="#001613"/>
<stop offset="0.5" stop-color="#00120F"/>
<stop offset="0.67" stop-color="#001512"/>
<stop offset="0.78" stop-color="#001E1A"/>
<stop offset="0.88" stop-color="#002D28"/>
<stop offset="0.97" stop-color="#00423B"/>
<stop offset="1" stop-color="#004D45"/>
</linearGradient>
<linearGradient id="paint32_linear_3435_68516" x1="13.9012" y1="19.2322" x2="13.9012" y2="15.4193" gradientUnits="userSpaceOnUse">
<stop stop-color="#00C584"/>
<stop offset="1" stop-color="#00E0A9"/>
</linearGradient>
<linearGradient id="paint33_linear_3435_68516" x1="13.8851" y1="15.7501" x2="14.0398" y2="11.8821" gradientUnits="userSpaceOnUse">
<stop stop-color="#00C7B5"/>
<stop offset="1" stop-color="#00ABB5"/>
</linearGradient>
<linearGradient id="paint34_linear_3435_68516" x1="15.6466" y1="21.7381" x2="15.6466" y2="19.1229" gradientUnits="userSpaceOnUse">
<stop stop-color="#007F9B"/>
<stop offset="1" stop-color="#00C693"/>
</linearGradient>
<linearGradient id="paint35_linear_3435_68516" x1="1967.26" y1="-1754.46" x2="1967.26" y2="-2398.49" gradientUnits="userSpaceOnUse">
<stop stop-color="#007F9B"/>
<stop offset="1" stop-color="#00C693"/>
</linearGradient>
<linearGradient id="paint36_linear_3435_68516" x1="13.575" y1="19.8614" x2="9.52323" y2="16.5932" gradientUnits="userSpaceOnUse">
<stop stop-color="#00C696"/>
<stop offset="1" stop-color="#00959B"/>
</linearGradient>
<linearGradient id="paint37_linear_3435_68516" x1="3379.73" y1="-1666.26" x2="4390.84" y2="-2107.08" gradientUnits="userSpaceOnUse">
<stop stop-color="#00C696"/>
<stop offset="1" stop-color="#00959B"/>
</linearGradient>
<linearGradient id="paint38_linear_3435_68516" x1="52687.7" y1="-33666.4" x2="52748.6" y2="-33487.2" gradientUnits="userSpaceOnUse">
<stop stop-color="#00E094"/>
<stop offset="1" stop-color="#00E0B5"/>
</linearGradient>
<linearGradient id="paint39_linear_3435_68516" x1="2658.72" y1="-961.768" x2="2664.61" y2="-920.908" gradientUnits="userSpaceOnUse">
<stop stop-color="#00E094"/>
<stop offset="1" stop-color="#00E0B5"/>
</linearGradient>
<linearGradient id="paint40_linear_3435_68516" x1="36819.9" y1="-21596.3" x2="36819.9" y2="-48669.3" gradientUnits="userSpaceOnUse">
<stop stop-color="#00E094"/>
<stop offset="1" stop-color="#000051"/>
</linearGradient>
<linearGradient id="paint41_linear_3435_68516" x1="15995.3" y1="-21511.3" x2="15995.3" y2="-48477.7" gradientUnits="userSpaceOnUse">
<stop stop-color="#00E094"/>
<stop offset="1" stop-color="#000051"/>
</linearGradient>
<linearGradient id="paint42_linear_3435_68516" x1="11.5509" y1="24.7889" x2="11.5509" y2="16.8974" gradientUnits="userSpaceOnUse">
<stop stop-color="#00E0AB"/>
<stop offset="1" stop-color="#00182E"/>
</linearGradient>
<linearGradient id="paint43_linear_3435_68516" x1="5360.21" y1="-2910.99" x2="5360.21" y2="-9336.22" gradientUnits="userSpaceOnUse">
<stop stop-color="#00E0AB"/>
<stop offset="1" stop-color="#00182E"/>
</linearGradient>
<clipPath id="clip0_3435_68516">
<rect width="28" height="24.1379" fill="white"/>
</clipPath>
</defs>
</svg>
