<svg width="16" height="17" viewBox="0 0 16 17" fill="none" xmlns="http://www.w3.org/2000/svg">
<path fill-rule="evenodd" clip-rule="evenodd" d="M7.5556 10.2982H10.265V11.5572H5.73505V10.4128L7.51762 8.4395L5.74361 6.59082V5.44332H10.265V6.70217H7.61329L9.25741 8.42395L7.5556 10.2982Z" fill="currentColor"/>
<path d="M7.99997 2.77376L12.049 4.45094L13.7262 8.5L12.049 12.5491L7.99997 14.2262L3.95091 12.5491L2.27373 8.5L3.95091 4.45094L7.99997 2.77376ZM7.99997 1.5C7.92867 1.5 7.85737 1.51387 7.79022 1.54174L3.22808 3.43139C3.09378 3.487 2.98697 3.59382 2.93136 3.72812L1.04171 8.29026C0.986097 8.42455 0.986097 8.57558 1.04171 8.70987L2.93136 13.2719C2.98697 13.4062 3.09378 13.513 3.22808 13.5686L7.79022 15.4583C7.85737 15.4861 7.92867 15.5 7.99997 15.5C8.07127 15.5 8.14256 15.4861 8.20971 15.4583L12.7719 13.5686C12.9062 13.513 13.013 13.4062 13.0686 13.2719L14.9582 8.70974C15.0138 8.57545 15.0138 8.42442 14.9582 8.29013L13.0686 3.72812C13.013 3.59382 12.9062 3.487 12.7719 3.43139L8.20984 1.54174C8.14256 1.51387 8.07127 1.5 7.99997 1.5Z" fill="currentColor"/>
</svg>
