<svg width="20" height="22" viewBox="0 0 20 22" fill="none" xmlns="http://www.w3.org/2000/svg">
<path d="M19.6758 13.6635L18.1406 12.351C18.2133 11.9057 18.2508 11.451 18.2508 10.9963C18.2508 10.5416 18.2133 10.0869 18.1406 9.6416L19.6758 8.3291C19.7916 8.22998 19.8745 8.09795 19.9134 7.95058C19.9523 7.80321 19.9455 7.64748 19.8938 7.5041L19.8727 7.44316C19.45 6.26198 18.8172 5.167 18.0047 4.21113L17.9625 4.16191C17.8639 4.04602 17.7326 3.96271 17.5857 3.92296C17.4389 3.88322 17.2834 3.8889 17.1398 3.93926L15.2344 4.6166C14.5313 4.04004 13.7461 3.58535 12.8977 3.2666L12.5297 1.27441C12.5019 1.12451 12.4292 0.986607 12.3212 0.879018C12.2132 0.771429 12.075 0.69925 11.925 0.67207L11.8617 0.660352C10.6406 0.440039 9.35625 0.440039 8.13516 0.660352L8.07188 0.67207C7.92187 0.69925 7.78368 0.771429 7.67568 0.879018C7.56767 0.986607 7.49495 1.12451 7.46719 1.27441L7.09688 3.27598C6.25521 3.59479 5.47141 4.04924 4.77657 4.62129L2.85704 3.93926C2.71352 3.8885 2.55795 3.88261 2.41101 3.92238C2.26407 3.96215 2.1327 4.0457 2.03438 4.16191L1.99219 4.21113C1.18066 5.16767 0.547917 6.26247 0.124224 7.44316L0.10313 7.5041C-0.00233904 7.79707 0.0843798 8.1252 0.321099 8.3291L1.875 9.65566C1.80235 10.0963 1.76719 10.5463 1.76719 10.9939C1.76719 11.4439 1.80235 11.8939 1.875 12.3322L0.321099 13.6588C0.205307 13.7579 0.122434 13.8899 0.0834984 14.0373C0.044563 14.1847 0.0514102 14.3404 0.10313 14.4838L0.124224 14.5447C0.548442 15.726 1.17657 16.8158 1.99219 17.7768L2.03438 17.826C2.13294 17.9419 2.26431 18.0252 2.41117 18.0649C2.55802 18.1047 2.71347 18.099 2.85704 18.0486L4.77657 17.3666C5.47501 17.9408 6.25547 18.3955 7.09688 18.7119L7.46719 20.7135C7.49495 20.8634 7.56767 21.0013 7.67568 21.1089C7.78368 21.2165 7.92187 21.2886 8.07188 21.3158L8.13516 21.3275C9.36747 21.549 10.6294 21.549 11.8617 21.3275L11.925 21.3158C12.075 21.2886 12.2132 21.2165 12.3212 21.1089C12.4292 21.0013 12.5019 20.8634 12.5297 20.7135L12.8977 18.7213C13.7458 18.4034 14.5353 17.9472 15.2344 17.3713L17.1398 18.0486C17.2834 18.0994 17.4389 18.1053 17.5859 18.0655C17.7328 18.0257 17.8642 17.9422 17.9625 17.826L18.0047 17.7768C18.8203 16.8135 19.4484 15.726 19.8727 14.5447L19.8938 14.4838C19.9992 14.1955 19.9125 13.8674 19.6758 13.6635ZM16.4766 9.91816C16.5352 10.2721 16.5656 10.6354 16.5656 10.9986C16.5656 11.3619 16.5352 11.7252 16.4766 12.0791L16.3219 13.0189L18.0727 14.5166C17.8072 15.1281 17.4722 15.7069 17.0742 16.2416L14.8992 15.4705L14.1633 16.0752C13.6031 16.5346 12.9797 16.8955 12.3047 17.1486L11.4117 17.4838L10.9922 19.7572C10.3302 19.8322 9.66195 19.8322 9 19.7572L8.58047 17.4791L7.69454 17.1393C7.02657 16.8861 6.40547 16.5252 5.85 16.0682L5.11407 15.4611L2.925 16.2393C2.52657 15.7025 2.19375 15.1236 1.92657 14.5143L3.6961 13.0025L3.54376 12.065C3.4875 11.7158 3.45704 11.3549 3.45704 10.9986C3.45704 10.64 3.48516 10.2814 3.54376 9.93223L3.6961 8.99473L1.92657 7.48301C2.19141 6.87129 2.52657 6.29473 2.925 5.75801L5.11407 6.53613L5.85 5.9291C6.40547 5.47207 7.02657 5.11113 7.69454 4.85801L8.58282 4.52285L9.00235 2.24473C9.66094 2.16973 10.3336 2.16973 10.9945 2.24473L11.4141 4.51816L12.307 4.85332C12.9797 5.10645 13.6055 5.46738 14.1656 5.92676L14.9016 6.53145L17.0766 5.76035C17.475 6.29707 17.8078 6.87598 18.075 7.48535L16.3242 8.98301L16.4766 9.91816ZM10.0008 6.63926C7.72266 6.63926 5.87579 8.48613 5.87579 10.7643C5.87579 13.0424 7.72266 14.8893 10.0008 14.8893C12.2789 14.8893 14.1258 13.0424 14.1258 10.7643C14.1258 8.48613 12.2789 6.63926 10.0008 6.63926ZM11.857 12.6205C11.6136 12.8647 11.3242 13.0583 11.0057 13.1902C10.6871 13.3222 10.3456 13.3898 10.0008 13.3893C9.3 13.3893 8.64141 13.115 8.14454 12.6205C7.90037 12.377 7.70676 12.0877 7.57482 11.7691C7.44289 11.4506 7.37525 11.1091 7.37579 10.7643C7.37579 10.0635 7.65 9.40488 8.14454 8.90801C8.64141 8.41113 9.3 8.13926 10.0008 8.13926C10.7016 8.13926 11.3602 8.41113 11.857 8.90801C12.1012 9.15147 12.2948 9.44081 12.4267 9.75938C12.5587 10.0779 12.6263 10.4195 12.6258 10.7643C12.6258 11.465 12.3516 12.1236 11.857 12.6205Z" fill="#DBDBDB"/>
</svg>
