<svg width="34" height="31" viewBox="0 0 34 31" fill="none" xmlns="http://www.w3.org/2000/svg">
<path d="M9.31867 27.895C7.73609 27.7221 6.24135 27.2628 4.88908 26.5714C5.75871 27.7846 6.90354 28.8362 8.29705 29.627L8.29604 29.6286C9.6904 30.4193 11.1908 30.8673 12.6964 30.9998C11.4131 30.1955 10.2623 29.1541 9.31867 27.895ZM22.4511 4.94637C21.073 4.94637 19.7556 5.20164 18.5451 5.66652C18.9544 5.98089 19.3437 6.31939 19.7106 6.67998C20.1576 7.11927 20.5713 7.59146 20.9479 8.09199C21.576 8.1621 22.1973 8.27795 22.8064 8.4384C23.3089 8.57071 23.8031 8.73338 24.286 8.9253C24.0912 7.66085 23.6579 6.41084 22.969 5.23705L22.9673 5.23805C22.9103 5.14135 22.8522 5.04604 22.7928 4.95173C22.6794 4.94836 22.5654 4.94637 22.4511 4.94637ZM16.5942 6.65324C15.9673 7.05488 15.3856 7.51925 14.8586 8.03723L14.8312 8.06453C15.4205 8.11779 16.0089 8.2119 16.5925 8.34838C17.177 8.2117 17.7666 8.11739 18.3567 8.06413L18.3296 8.03723C17.8027 7.51925 17.221 7.055 16.5942 6.65324ZM13.4777 6.67998C13.8446 6.31939 14.234 5.98101 14.6433 5.66652C13.4328 5.20156 12.1153 4.94637 10.7373 4.94637C10.6221 4.94637 10.5075 4.94836 10.3932 4.95193C10.3347 5.04485 10.2772 5.13889 10.2212 5.23419C9.53137 6.40865 9.09747 7.65986 8.90249 8.9253C9.38554 8.73326 9.87971 8.57051 10.3822 8.4382C10.9914 8.27783 11.6127 8.16202 12.2406 8.09188C12.617 7.59134 13.0307 7.11927 13.4777 6.67998ZM16.5942 4.43205C18.0219 3.70061 19.6089 3.22813 21.2905 3.07827C19.9706 1.76972 18.3443 0.847671 16.5938 0.360511C14.8419 0.848267 13.215 1.77022 11.8954 3.07807C13.578 3.22783 15.1658 3.70031 16.5942 4.43205ZM10.289 11.9273C10.461 11.3607 10.6731 10.8109 10.9217 10.2813L10.8857 10.2906C10.1655 10.4803 9.46548 10.743 8.79794 11.0754C8.83874 11.8106 8.95722 12.5385 9.15025 13.2468L9.16041 13.2831C9.5013 12.8088 9.87777 12.3553 10.289 11.9273ZM14.832 22.9352L14.8587 22.9618C15.3857 23.4798 15.9674 23.944 16.5943 24.3458C17.2212 23.944 17.8029 23.4798 18.3297 22.9618L18.3566 22.9352C17.7672 22.8817 17.1785 22.7876 16.5946 22.651C16.0106 22.7876 15.4215 22.8819 14.832 22.9352ZM13.4777 24.319C13.0309 23.8799 12.6175 23.408 12.2411 22.9076C11.6131 22.8377 10.9916 22.7218 10.3824 22.5615C9.88012 22.4292 9.38614 22.2664 8.90351 22.0747C9.09868 23.3386 9.53218 24.5885 10.2215 25.7618L10.2235 25.7689C10.2787 25.8628 10.3352 25.9554 10.3929 26.0471C10.5073 26.0505 10.6221 26.0525 10.7373 26.0525C12.1154 26.0525 13.4328 25.7974 14.6433 25.3325C14.234 25.0179 13.8446 24.6795 13.4777 24.319ZM10.922 20.7184C10.6734 20.1889 10.4615 19.6394 10.2894 19.0732C9.87809 18.645 9.5015 18.1914 9.16041 17.7171L9.15033 17.7529C8.9573 18.4611 8.83895 19.1888 8.79835 19.924C9.46588 20.2566 10.1659 20.5196 10.8859 20.709L10.922 20.7184ZM18.5451 25.3325C19.7556 25.7974 21.073 26.0525 22.4511 26.0525C22.5664 26.0525 22.681 26.0507 22.7954 26.0471C22.8539 25.9544 22.9111 25.8605 22.967 25.7654L22.9671 25.7652C23.6569 24.5907 24.0908 23.3396 24.2856 22.0743C23.8027 22.2662 23.3085 22.429 22.806 22.5613C22.1968 22.7216 21.5754 22.8375 20.9472 22.9074C20.5709 23.408 20.1573 23.8799 19.7106 24.3189C19.3437 24.6795 18.9544 25.0179 18.5451 25.3325ZM21.2932 27.9209C19.9734 29.2294 18.3462 30.1514 16.5938 30.6392C14.8417 30.1514 13.2146 29.2292 11.8949 27.9209C13.5777 27.7714 15.1657 27.2988 16.5941 26.567C18.0227 27.2988 19.6107 27.7713 21.2932 27.9209ZM25.1868 25.7069C27.0019 25.2381 28.6294 24.3143 29.935 23.0667C30.3804 21.3319 30.3808 19.486 29.8875 17.7086C28.9142 19.0667 27.7036 20.1826 26.3441 21.0331C26.2742 22.6133 25.8963 24.2003 25.1868 25.7069ZM28.2997 26.5712C26.9474 27.2628 25.4524 27.7221 23.8697 27.895C22.9258 29.1541 21.7748 30.1957 20.4914 31C21.9972 30.8677 23.4979 30.4194 24.8925 29.6288L24.8915 29.6272C26.285 28.8364 27.43 27.7847 28.2997 26.5712ZM32.2008 19.9261C32.8345 18.5799 33.1883 17.0802 33.1883 15.4994C33.1883 13.9185 32.8343 12.4188 32.2005 11.0725C32.1331 12.5671 31.7904 14.0671 31.152 15.4996C31.7904 16.9319 32.1331 18.4316 32.2008 19.9261ZM29.9344 7.93163C28.6288 6.68436 27.0017 5.76071 25.1866 5.29222C25.8964 6.7991 26.2744 8.38606 26.3443 9.96686C27.7038 10.8171 28.9143 11.9327 29.8874 13.2908C30.3808 11.5129 30.38 9.66671 29.9344 7.93163ZM23.8722 3.10416C22.9287 1.84539 21.7776 0.804231 20.4936 0C21.9997 0.132699 23.5006 0.581178 24.895 1.37252C26.2873 2.16256 27.4314 3.21414 28.3005 4.42807C26.9486 3.73681 25.4543 3.27752 23.8722 3.10416ZM7.26568 13.7417C7.13105 13.248 7.02743 12.7463 6.95518 12.2395C5.93834 13.0375 5.05357 14.0314 4.36426 15.2047C4.30687 15.3025 4.25134 15.4009 4.19746 15.4996C4.25085 15.5977 4.30594 15.6952 4.36285 15.7922L4.36447 15.7912C5.05426 16.9655 5.93903 17.9601 6.95547 18.7586C7.02772 18.2523 7.13138 17.751 7.26588 17.258C7.42936 16.6582 7.63834 16.0703 7.89112 15.5C7.63822 14.9295 7.42916 14.3416 7.26568 13.7417ZM6.84408 9.96753C5.48545 10.8181 4.27518 11.9343 3.30161 13.2932C2.80776 11.5146 2.80807 9.66743 3.25418 7.93143C4.55964 6.68428 6.18679 5.76071 8.0017 5.29222C7.29183 6.79921 6.9139 8.38665 6.84408 9.96753ZM22.2664 20.7182L22.3026 20.7088C23.0227 20.5194 23.7226 20.2561 24.3901 19.9236C24.3495 19.1886 24.231 18.4609 24.038 17.7527L24.0277 17.7157C23.687 18.1893 23.3108 18.6422 22.9 19.0698C22.7277 19.6373 22.5154 20.1879 22.2664 20.7182ZM26.2329 18.7585C26.1607 18.2521 26.0572 17.7509 25.9228 17.2579C25.7592 16.6579 25.5502 16.0702 25.2976 15.4998C25.5504 14.9293 25.7595 14.3417 25.9229 13.7419C26.0574 13.2488 26.1609 12.7476 26.2331 12.2413C27.2496 13.0398 28.1345 14.0344 28.8243 15.2086L28.826 15.2077C28.8827 15.3044 28.9376 15.4019 28.9909 15.4996C28.9377 15.5975 28.8827 15.695 28.8258 15.792L28.8241 15.791C28.1341 16.9653 27.2494 17.96 26.2329 18.7585ZM9.31895 3.10386C7.73601 3.27692 6.24086 3.73622 4.88827 4.42799C5.75729 3.21424 6.90131 2.16286 8.29341 1.37291C9.68838 0.581481 11.1896 0.132798 12.696 0.000296612C11.413 0.804227 10.2625 1.84529 9.31895 3.10386ZM6.84388 21.0327C6.91341 22.6133 7.29089 24.1999 7.99967 25.7063C6.18537 25.2375 4.55863 24.3139 3.25367 23.0671C2.80817 21.3321 2.80776 19.4863 3.3009 17.7088C4.27404 19.0669 5.48456 20.1826 6.84388 21.0327ZM24.0282 13.283L24.0383 13.247C24.2314 12.5388 24.3498 11.8112 24.3906 11.0761C23.723 10.7434 23.023 10.4803 22.3028 10.2906L22.2668 10.2813C22.5152 10.8109 22.7273 11.3603 22.8992 11.9267C23.3106 12.3549 23.6872 12.8085 24.0282 13.283ZM2.03622 15.4996C1.39798 14.0671 1.05509 12.5669 0.987789 11.0723C0.353783 12.4186 0 13.9184 0 15.4994C0 17.0803 0.353783 18.5801 0.987688 19.9263C1.05519 18.4318 1.39798 16.9321 2.03622 15.4996Z" fill="url(#paint0_linear)"/>
<defs>
<linearGradient id="paint0_linear" x1="0" y1="0" x2="0" y2="31" gradientUnits="userSpaceOnUse">
<stop stop-color="#FF8C00"/>
<stop offset="0.0001" stop-color="#FF8C00"/>
<stop offset="1" stop-color="#FF0080"/>
</linearGradient>
</defs>
</svg>
