<svg width="368" height="78" viewBox="0 0 368 78" fill="none" xmlns="http://www.w3.org/2000/svg">
<path d="M97 57.2642V20.8409H121.512V27.7261H105.171V34.8741H119.678V41.6017H105.171V50.379H122.716V57.2642H97Z" fill="#300606"/>
<path d="M139.395 20.4205C144.842 20.4205 149.014 21.4016 151.913 23.3638C154.811 25.2909 156.26 28.3043 156.26 32.4039C156.26 34.9617 155.666 37.0466 154.479 38.6584C153.327 40.2351 151.651 41.479 149.451 42.39C150.184 43.3011 150.952 44.3522 151.755 45.5436C152.559 46.6999 153.344 47.9262 154.112 49.2227C154.915 50.4841 155.684 51.8156 156.417 53.2172C157.15 54.5837 157.831 55.9327 158.459 57.2642H149.294C148.63 56.0728 147.949 54.864 147.251 53.6376C146.588 52.4113 145.889 51.2199 145.156 50.0636C144.458 48.9073 143.759 47.8211 143.061 46.805C142.363 45.7538 141.664 44.8077 140.966 43.9668H136.933V57.2642H128.763V21.3665C130.543 21.0161 132.377 20.7709 134.262 20.6307C136.183 20.4905 137.893 20.4205 139.395 20.4205ZM139.866 27.4108C139.273 27.4108 138.731 27.4283 138.243 27.4633C137.789 27.4984 137.352 27.5334 136.933 27.5685V37.4495H139.238C142.31 37.4495 144.51 37.0641 145.837 36.2932C147.164 35.5224 147.827 34.2084 147.827 32.3513C147.827 30.5643 147.146 29.3029 145.785 28.5671C144.458 27.7962 142.485 27.4108 139.866 27.4108Z" fill="#300606"/>
<path d="M180.479 27.148C176.673 27.148 173.914 28.2167 172.203 30.3541C170.527 32.4564 169.689 35.3472 169.689 39.0263C169.689 40.8133 169.899 42.4426 170.318 43.9142C170.737 45.3509 171.365 46.5947 172.203 47.6459C173.041 48.6971 174.089 49.5205 175.346 50.1162C176.603 50.6768 178.069 50.9571 179.745 50.9571C180.653 50.9571 181.421 50.9396 182.05 50.9046C182.713 50.8695 183.29 50.7994 183.778 50.6943V38.0277H191.949V56.0553C190.971 56.4408 189.4 56.8437 187.235 57.2642C185.07 57.7197 182.399 57.9474 179.222 57.9474C176.498 57.9474 174.019 57.527 171.784 56.686C169.585 55.8451 167.699 54.6187 166.128 53.0069C164.557 51.3951 163.335 49.4154 162.462 47.0678C161.624 44.7202 161.205 42.0397 161.205 39.0263C161.205 35.9779 161.676 33.2799 162.619 30.9322C163.562 28.5846 164.853 26.6049 166.495 24.9931C168.136 23.3462 170.056 22.1024 172.256 21.2614C174.491 20.4205 176.865 20 179.379 20C181.09 20 182.626 20.1226 183.988 20.3679C185.385 20.5781 186.572 20.8409 187.549 21.1563C188.562 21.4366 189.383 21.7344 190.011 22.0498C190.674 22.3651 191.146 22.6104 191.425 22.7856L189.068 29.3555C187.951 28.7598 186.659 28.2517 185.192 27.8313C183.761 27.3758 182.19 27.148 180.479 27.148Z" fill="#300606"/>
<path d="M206.412 39.0263C206.412 40.8133 206.622 42.4251 207.041 43.8617C207.495 45.2983 208.123 46.5422 208.926 47.5934C209.764 48.6095 210.777 49.3979 211.964 49.9585C213.151 50.5191 214.513 50.7995 216.049 50.7995C217.551 50.7995 218.895 50.5191 220.082 49.9585C221.304 49.3979 222.317 48.6095 223.12 47.5934C223.958 46.5422 224.586 45.2983 225.005 43.8617C225.459 42.4251 225.686 40.8133 225.686 39.0263C225.686 37.2393 225.459 35.6275 225.005 34.1909C224.586 32.7192 223.958 31.4753 223.12 30.4592C222.317 29.408 221.304 28.6021 220.082 28.0415C218.895 27.4809 217.551 27.2006 216.049 27.2006C214.513 27.2006 213.151 27.4984 211.964 28.0941C210.777 28.6547 209.764 29.4606 208.926 30.5118C208.123 31.5279 207.495 32.7718 207.041 34.2434C206.622 35.68 206.412 37.2743 206.412 39.0263ZM234.119 39.0263C234.119 42.1448 233.647 44.8953 232.705 47.278C231.797 49.6256 230.54 51.6054 228.934 53.2172C227.327 54.7939 225.407 55.9852 223.172 56.7911C220.973 57.5971 218.598 58 216.049 58C213.57 58 211.231 57.5971 209.031 56.7911C206.831 55.9852 204.911 54.7939 203.27 53.2172C201.629 51.6054 200.337 49.6256 199.394 47.278C198.451 44.8953 197.98 42.1448 197.98 39.0263C197.98 35.9078 198.469 33.1747 199.446 30.8271C200.424 28.4444 201.733 26.4472 203.374 24.8354C205.05 23.2236 206.971 22.0148 209.136 21.2089C211.336 20.4029 213.64 20 216.049 20C218.528 20 220.868 20.4029 223.068 21.2089C225.267 22.0148 227.188 23.2236 228.829 24.8354C230.47 26.4472 231.762 28.4444 232.705 30.8271C233.647 33.1747 234.119 35.9078 234.119 39.0263Z" fill="#300606"/>
<path d="M271.045 39.0263C271.045 42.1798 270.556 44.9304 269.579 47.278C268.601 49.5906 267.222 51.5178 265.441 53.0595C263.66 54.5662 261.53 55.7049 259.051 56.4758C256.572 57.2116 253.849 57.5795 250.881 57.5795C249.414 57.5795 247.791 57.5095 246.01 57.3693C244.264 57.2642 242.675 57.0364 241.244 56.686V21.3665C242.675 21.0161 244.264 20.7884 246.01 20.6833C247.791 20.5431 249.414 20.473 250.881 20.473C253.849 20.473 256.572 20.8585 259.051 21.6293C261.53 22.3651 263.66 23.5039 265.441 25.0456C267.222 26.5523 268.601 28.4795 269.579 30.8271C270.556 33.1397 271.045 35.8728 271.045 39.0263ZM251.3 53.112C256.118 53.112 259.715 51.8857 262.089 49.4329C264.463 46.9451 265.651 43.4763 265.651 39.0263C265.651 34.5763 264.463 31.1249 262.089 28.6722C259.715 26.1844 256.118 24.9405 251.3 24.9405C249.868 24.9405 248.751 24.958 247.948 24.9931C247.18 25.0281 246.638 25.0632 246.324 25.0982V52.9544C246.638 52.9894 247.18 53.0244 247.948 53.0595C248.751 53.0945 249.868 53.112 251.3 53.112Z" fill="#300606"/>
<path d="M278.582 57.2642V20.8409H300.736V25.2033H283.662V36.0304H298.851V40.2877H283.662V52.9018H302.046V57.2642H278.582Z" fill="#300606"/>
<path d="M330.291 57.2642C329.767 56.213 329.139 55.0567 328.406 53.7953C327.672 52.4989 326.869 51.1674 325.996 49.8008C325.123 48.3993 324.216 47.0152 323.273 45.6487C322.33 44.2471 321.422 42.9332 320.549 41.7068C319.676 42.9332 318.769 44.2471 317.826 45.6487C316.883 47.0152 315.975 48.3993 315.102 49.8008C314.264 51.1674 313.461 52.4989 312.693 53.7953C311.96 55.0567 311.331 56.213 310.807 57.2642H305.203C306.775 54.1807 308.59 51.0447 310.65 47.8562C312.745 44.6676 314.963 41.3914 317.302 38.0277L305.675 20.8409H311.541L320.497 34.4011L329.348 20.8409H335.162L323.744 37.8174C326.119 41.2162 328.353 44.5274 330.448 47.751C332.543 50.9746 334.394 54.1457 336 57.2642H330.291Z" fill="#300606"/>
<path d="M23.0226 70.1875C19.1127 69.7523 15.4198 68.5967 12.0789 66.8571C14.2274 69.9096 17.0558 72.5557 20.4986 74.5453L20.4961 74.5493C23.941 76.5389 27.6479 77.6661 31.3677 77.9995C28.1971 75.9757 25.354 73.3555 23.0226 70.1875ZM55.4675 12.4457C52.0628 12.4457 48.8079 13.088 45.8172 14.2577C46.8286 15.0487 47.7902 15.9004 48.6969 16.8077C49.8011 17.913 50.8232 19.1011 51.7536 20.3605C53.3053 20.5369 54.8405 20.8284 56.3453 21.2321C57.5868 21.565 58.8076 21.9743 60.0008 22.4572C59.5194 19.2757 58.4489 16.1305 56.7469 13.1771L56.7427 13.1796C56.602 12.9363 56.4584 12.6965 56.3116 12.4592C56.0314 12.4507 55.7499 12.4457 55.4675 12.4457ZM40.9975 16.7404C39.4486 17.751 38.0116 18.9194 36.7095 20.2227L36.6419 20.2914C38.0976 20.4254 39.5515 20.6622 40.9932 21.0056C42.4372 20.6617 43.8939 20.4244 45.3518 20.2904L45.285 20.2227C43.9831 18.9194 42.5461 17.7513 40.9975 16.7404ZM33.2978 16.8077C34.2043 15.9004 35.1663 15.049 36.1775 14.2577C33.1868 13.0878 29.932 12.4457 26.5275 12.4457C26.2428 12.4457 25.9596 12.4507 25.6774 12.4597C25.5328 12.6935 25.3907 12.9301 25.2525 13.1699C23.5481 16.125 22.4761 19.2732 21.9944 22.4572C23.1878 21.974 24.4087 21.5645 25.6502 21.2316C27.1552 20.8281 28.6902 20.5367 30.2416 20.3602C31.1715 19.1008 32.1936 17.913 33.2978 16.8077ZM40.9975 11.1516C44.5248 9.31121 48.4456 8.12238 52.6 7.74532C49.3391 4.45285 45.3211 2.13285 40.9965 0.907092C36.6683 2.13435 32.6488 4.4541 29.3887 7.74483C33.5456 8.12164 37.4684 9.31047 40.9975 11.1516ZM25.4198 30.0106C25.8449 28.5849 26.3689 27.2017 26.983 25.8692L26.894 25.8924C25.1147 26.3697 23.3853 27.0308 21.7361 27.8672C21.8369 29.7171 22.1296 31.5485 22.6065 33.3307L22.6316 33.4221C23.4738 32.2285 24.4039 31.0876 25.4198 30.0106ZM36.6437 57.7079L36.7097 57.7748C38.0118 59.0781 39.4488 60.2462 40.9977 61.2571C42.5464 60.2462 43.9836 59.0781 45.2852 57.7748L45.3515 57.7079C43.8954 57.5734 42.4409 57.3366 40.9985 56.9929C39.5555 57.3366 38.1001 57.5739 36.6437 57.7079ZM33.2978 61.1898C32.1941 60.0848 31.1727 58.8975 30.2428 57.6385C28.6912 57.4626 27.1557 57.1711 25.6507 56.7676C24.4097 56.4347 23.1893 56.0252 21.9969 55.5429C22.4791 58.723 23.5501 61.8678 25.253 64.8199L25.258 64.8378C25.3944 65.0742 25.534 65.3072 25.6766 65.5378C25.9593 65.5465 26.2428 65.5515 26.5275 65.5515C29.9322 65.5515 33.1868 64.9097 36.1775 63.7398C35.1663 62.9483 34.2043 62.0969 33.2978 61.1898ZM26.9837 52.1301C26.3697 50.798 25.8461 49.4153 25.4208 47.9907C24.4047 46.9131 23.4743 45.772 22.6316 44.5784L22.6067 44.6685C22.1298 46.4505 21.8374 48.2816 21.7371 50.1313C23.3863 50.9682 25.1157 51.63 26.8945 52.1066L26.9837 52.1301ZM45.8172 63.7398C48.8079 64.9097 52.0628 65.5515 55.4675 65.5515C55.7522 65.5515 56.0354 65.5468 56.3181 65.5378C56.4627 65.3045 56.604 65.0684 56.7419 64.8291L56.7422 64.8286C58.4464 61.8735 59.5184 58.7255 59.9998 55.5419C58.8066 56.0247 57.5858 56.4342 56.3443 56.7671C54.8392 57.1706 53.304 57.4621 51.7519 57.638C50.8222 58.8975 49.8003 60.0848 48.6967 61.1895C47.7902 62.0969 46.8286 62.9483 45.8172 63.7398ZM52.6067 70.2527C49.3461 73.5449 45.3259 75.8649 40.9965 77.0922C36.6678 75.8649 32.6479 73.5444 29.3875 70.2527C33.5448 69.8764 37.4681 68.6873 40.9972 66.8459C44.5266 68.6873 48.4499 69.8761 52.6067 70.2527ZM62.2261 64.6819C66.7105 63.5023 70.7315 61.178 73.957 58.0388C75.0574 53.6738 75.0584 49.0293 73.8398 44.5572C71.435 47.9742 68.4441 50.7821 65.0855 52.9219C64.9128 56.8979 63.9791 60.8911 62.2261 64.6819ZM69.9168 66.8566C66.5759 68.5967 62.8825 69.7523 58.9722 70.1875C56.6402 73.3555 53.7966 75.9762 50.6258 78C54.3461 77.6671 58.0537 76.5392 61.4991 74.5498L61.4966 74.5458C64.9394 72.5562 67.7683 69.91 69.9168 66.8566ZM79.5548 50.1367C81.1206 46.7494 81.9947 42.9761 81.9947 38.9986C81.9947 35.0207 81.1201 31.2473 79.5543 27.8598C79.3877 31.6204 78.5409 35.3947 76.9638 38.9989C78.5409 42.6028 79.3877 46.3764 79.5548 50.1367ZM73.9555 19.957C70.73 16.8187 66.71 14.4947 62.2258 13.3159C63.9794 17.1074 64.9133 21.1004 65.086 25.0779C68.4446 27.2172 71.4353 30.0243 73.8395 33.4413C75.0584 28.968 75.0566 24.3227 73.9555 19.957ZM58.9784 7.81046C56.6474 4.64325 53.8036 2.02355 50.6313 0C54.3523 0.333889 58.0602 1.46232 61.5053 3.45343C64.9452 5.44129 67.7718 8.0872 69.9188 11.1416C66.5789 9.40229 62.8872 8.24666 58.9784 7.81046ZM17.9505 34.576C17.6179 33.3337 17.3619 32.0713 17.1834 30.7961C14.6712 32.804 12.4853 35.3049 10.7823 38.257C10.6405 38.503 10.5033 38.7506 10.3702 38.9991C10.5021 39.2457 10.6382 39.4912 10.7788 39.7353L10.7828 39.7328C12.487 42.6874 14.6729 45.19 17.1841 47.1991C17.3626 45.9252 17.6187 44.6638 17.951 43.4233C18.3549 41.9143 18.8712 40.435 19.4957 38.9999C18.8709 37.5645 18.3544 36.0852 17.9505 34.576ZM16.9089 25.0796C13.5523 27.2197 10.5622 30.0283 8.15691 33.4473C6.93683 28.9722 6.93758 24.3245 8.03974 19.9565C11.265 16.8185 15.285 14.4947 19.7689 13.3159C18.0151 17.1077 17.0814 21.1019 16.9089 25.0796ZM55.0112 52.1296L55.1005 52.1061C56.8795 51.6295 58.6089 50.967 60.258 50.1303C60.1576 48.2811 59.8649 46.45 59.388 44.668L59.3626 44.5749C58.5209 45.7665 57.5915 46.9062 56.5764 47.9822C56.1508 49.4101 55.6263 50.7953 55.0112 52.1296ZM64.8108 47.1989C64.6323 45.9247 64.3765 44.6635 64.0445 43.423C63.6403 41.9135 63.124 40.4348 62.5 38.9996C63.1245 37.564 63.6411 36.0855 64.0449 34.5765C64.377 33.3357 64.6328 32.0746 64.8113 30.8006C67.3225 32.8097 69.5087 35.3124 71.2129 38.2667L71.2171 38.2645C71.3572 38.5078 71.4929 38.7531 71.6247 38.9991C71.4931 39.2454 71.3572 39.4907 71.2166 39.7348L71.2124 39.7323C69.5079 42.6869 67.322 45.1898 64.8108 47.1989ZM23.0233 7.8097C19.1125 8.24516 15.4186 9.4008 12.0769 11.1414C14.2239 8.08745 17.0503 5.44204 20.4896 3.45443C23.936 1.46308 27.6449 0.334136 31.3667 0.000746315C28.1968 2.02354 25.3545 4.643 23.0233 7.8097ZM16.9084 52.9211C17.0802 56.8979 18.0128 60.8901 19.7639 64.6804C15.2815 63.5008 11.2625 61.177 8.03849 58.0398C6.93782 53.6743 6.93683 49.03 8.15517 44.5577C10.5594 47.9747 13.5501 50.7821 16.9084 52.9211ZM59.3638 33.4218L59.3887 33.3312C59.8659 31.5493 60.1583 29.7184 60.2591 27.869C58.6097 27.0318 56.8803 26.3697 55.101 25.8926L55.012 25.8692C55.6258 27.2015 56.1498 28.5839 56.5746 30.0091C57.5908 31.0866 58.5214 32.2278 59.3638 33.4218ZM5.03066 38.9991C3.45383 35.3947 2.6067 31.6199 2.44042 27.8593C0.874053 31.2468 0 35.0204 0 38.9986C0 42.9763 0.874052 46.7499 2.44017 50.1372C2.60695 46.3769 3.45383 42.6033 5.03066 38.9991Z" fill="url(#paint0_linear)"/>
<path d="M344.732 30.108C344.276 30.108 343.82 30.092 343.364 30.06C342.916 30.036 342.448 29.972 341.96 29.868V21.804C342.344 21.732 342.764 21.68 343.22 21.648C343.676 21.608 344.1 21.588 344.492 21.588C345.02 21.588 345.504 21.628 345.944 21.708C346.392 21.78 346.776 21.908 347.096 22.092C347.416 22.276 347.664 22.52 347.84 22.824C348.024 23.12 348.116 23.488 348.116 23.928C348.116 24.592 347.796 25.116 347.156 25.5C347.684 25.7 348.044 25.972 348.236 26.316C348.428 26.66 348.524 27.048 348.524 27.48C348.524 28.352 348.204 29.008 347.564 29.448C346.932 29.888 345.988 30.108 344.732 30.108ZM343.784 26.376V28.524C343.92 28.54 344.068 28.552 344.228 28.56C344.388 28.568 344.564 28.572 344.756 28.572C345.316 28.572 345.768 28.492 346.112 28.332C346.456 28.172 346.628 27.876 346.628 27.444C346.628 27.06 346.484 26.788 346.196 26.628C345.908 26.46 345.496 26.376 344.96 26.376H343.784ZM343.784 24.948H344.696C345.272 24.948 345.684 24.876 345.932 24.732C346.18 24.58 346.304 24.34 346.304 24.012C346.304 23.676 346.176 23.44 345.92 23.304C345.664 23.168 345.288 23.1 344.792 23.1C344.632 23.1 344.46 23.104 344.276 23.112C344.092 23.112 343.928 23.12 343.784 23.136V24.948ZM349.603 26.892C349.603 26.332 349.687 25.844 349.854 25.428C350.031 25.004 350.259 24.652 350.539 24.372C350.819 24.092 351.139 23.88 351.499 23.736C351.867 23.592 352.243 23.52 352.627 23.52C353.523 23.52 354.231 23.796 354.751 24.348C355.271 24.892 355.531 25.696 355.531 26.76C355.531 26.864 355.527 26.98 355.519 27.108C355.511 27.228 355.503 27.336 355.495 27.432H351.439C351.479 27.8 351.651 28.092 351.955 28.308C352.259 28.524 352.667 28.632 353.179 28.632C353.507 28.632 353.827 28.604 354.139 28.548C354.459 28.484 354.719 28.408 354.919 28.32L355.159 29.772C355.063 29.82 354.935 29.868 354.775 29.916C354.615 29.964 354.435 30.004 354.235 30.036C354.043 30.076 353.835 30.108 353.611 30.132C353.387 30.156 353.163 30.168 352.939 30.168C352.371 30.168 351.875 30.084 351.451 29.916C351.035 29.748 350.687 29.52 350.407 29.232C350.135 28.936 349.931 28.588 349.795 28.188C349.667 27.788 349.603 27.356 349.603 26.892ZM353.803 26.208C353.795 26.056 353.767 25.908 353.719 25.764C353.679 25.62 353.611 25.492 353.515 25.38C353.427 25.268 353.311 25.176 353.167 25.104C353.031 25.032 352.859 24.996 352.651 24.996C352.451 24.996 352.279 25.032 352.135 25.104C351.991 25.168 351.871 25.256 351.775 25.368C351.679 25.48 351.603 25.612 351.547 25.764C351.499 25.908 351.463 26.056 351.439 26.208H353.803ZM356.85 22.116L358.638 21.828V23.688H360.786V25.176H358.638V27.396C358.638 27.772 358.702 28.072 358.83 28.296C358.966 28.52 359.234 28.632 359.634 28.632C359.826 28.632 360.022 28.616 360.222 28.584C360.43 28.544 360.618 28.492 360.786 28.428L361.038 29.82C360.822 29.908 360.582 29.984 360.318 30.048C360.054 30.112 359.73 30.144 359.346 30.144C358.858 30.144 358.454 30.08 358.134 29.952C357.814 29.816 357.558 29.632 357.366 29.4C357.174 29.16 357.038 28.872 356.958 28.536C356.886 28.2 356.85 27.828 356.85 27.42V22.116ZM364.42 28.752C364.596 28.752 364.764 28.748 364.924 28.74C365.084 28.732 365.212 28.72 365.308 28.704V27.348C365.236 27.332 365.128 27.316 364.984 27.3C364.84 27.284 364.708 27.276 364.588 27.276C364.42 27.276 364.26 27.288 364.108 27.312C363.964 27.328 363.836 27.364 363.724 27.42C363.612 27.476 363.524 27.552 363.46 27.648C363.396 27.744 363.364 27.864 363.364 28.008C363.364 28.288 363.456 28.484 363.64 28.596C363.832 28.7 364.092 28.752 364.42 28.752ZM364.276 23.52C364.804 23.52 365.244 23.58 365.596 23.7C365.948 23.82 366.228 23.992 366.436 24.216C366.652 24.44 366.804 24.712 366.892 25.032C366.98 25.352 367.024 25.708 367.024 26.1V29.82C366.768 29.876 366.412 29.94 365.956 30.012C365.5 30.092 364.948 30.132 364.3 30.132C363.892 30.132 363.52 30.096 363.184 30.024C362.856 29.952 362.572 29.836 362.332 29.676C362.092 29.508 361.908 29.292 361.78 29.028C361.652 28.764 361.588 28.44 361.588 28.056C361.588 27.688 361.66 27.376 361.804 27.12C361.956 26.864 362.156 26.66 362.404 26.508C362.652 26.356 362.936 26.248 363.256 26.184C363.576 26.112 363.908 26.076 364.252 26.076C364.484 26.076 364.688 26.088 364.864 26.112C365.048 26.128 365.196 26.152 365.308 26.184V26.016C365.308 25.712 365.216 25.468 365.032 25.284C364.848 25.1 364.528 25.008 364.072 25.008C363.768 25.008 363.468 25.032 363.172 25.08C362.876 25.12 362.62 25.18 362.404 25.26L362.176 23.82C362.28 23.788 362.408 23.756 362.56 23.724C362.72 23.684 362.892 23.652 363.076 23.628C363.26 23.596 363.452 23.572 363.652 23.556C363.86 23.532 364.068 23.52 364.276 23.52Z" fill="#300606"/>
<defs>
<linearGradient id="paint0_linear" x1="0" y1="0" x2="0" y2="78" gradientUnits="userSpaceOnUse">
<stop stop-color="#FF8C00"/>
<stop offset="0.0001" stop-color="#FF8C00"/>
<stop offset="1" stop-color="#FF0080"/>
</linearGradient>
</defs>
</svg>
