<svg width="34" height="32" viewBox="0 0 34 32" fill="none" xmlns="http://www.w3.org/2000/svg">
<path d="M9.31867 28.395C7.73609 28.2221 6.24135 27.7628 4.88908 27.0714C5.75871 28.2846 6.90354 29.3362 8.29705 30.127L8.29604 30.1286C9.6904 30.9193 11.1908 31.3673 12.6964 31.4998C11.4131 30.6955 10.2623 29.6541 9.31867 28.395ZM22.4511 5.44637C21.073 5.44637 19.7556 5.70164 18.5451 6.16652C18.9544 6.48089 19.3437 6.81939 19.7106 7.17998C20.1576 7.61927 20.5713 8.09146 20.9479 8.59199C21.576 8.6621 22.1973 8.77795 22.8064 8.9384C23.3089 9.07071 23.8031 9.23338 24.286 9.4253C24.0912 8.16085 23.6579 6.91084 22.969 5.73705L22.9673 5.73805C22.9103 5.64135 22.8522 5.54604 22.7928 5.45173C22.6794 5.44836 22.5654 5.44637 22.4511 5.44637ZM16.5942 7.15324C15.9673 7.55488 15.3856 8.01925 14.8586 8.53723L14.8312 8.56453C15.4205 8.61779 16.0089 8.7119 16.5925 8.84838C17.177 8.7117 17.7666 8.61739 18.3567 8.56413L18.3296 8.53723C17.8027 8.01925 17.221 7.555 16.5942 7.15324ZM13.4777 7.17998C13.8446 6.81939 14.234 6.48101 14.6433 6.16652C13.4328 5.70156 12.1153 5.44637 10.7373 5.44637C10.6221 5.44637 10.5075 5.44836 10.3932 5.45193C10.3347 5.54485 10.2772 5.63889 10.2212 5.73419C9.53137 6.90865 9.09747 8.15986 8.90249 9.4253C9.38554 9.23326 9.87971 9.07051 10.3822 8.9382C10.9914 8.77783 11.6127 8.66202 12.2406 8.59187C12.617 8.09134 13.0307 7.61927 13.4777 7.17998ZM16.5942 4.93205C18.0219 4.20061 19.6089 3.72813 21.2905 3.57827C19.9706 2.26972 18.3443 1.34767 16.5938 0.860511C14.8419 1.34827 13.215 2.27022 11.8954 3.57807C13.578 3.72783 15.1658 4.20032 16.5942 4.93205ZM10.289 12.4273C10.461 11.8607 10.6731 11.3109 10.9217 10.7813L10.8857 10.7906C10.1655 10.9803 9.46548 11.243 8.79794 11.5754C8.83874 12.3106 8.95722 13.0385 9.15025 13.7468L9.16041 13.7831C9.5013 13.3088 9.87777 12.8553 10.289 12.4273ZM14.832 23.4352L14.8587 23.4618C15.3857 23.9798 15.9674 24.444 16.5943 24.8458C17.2212 24.444 17.8029 23.9798 18.3297 23.4618L18.3566 23.4352C17.7672 23.3817 17.1785 23.2876 16.5946 23.151C16.0106 23.2876 15.4215 23.3819 14.832 23.4352ZM13.4777 24.819C13.0309 24.3799 12.6175 23.908 12.2411 23.4076C11.6131 23.3377 10.9916 23.2218 10.3824 23.0615C9.88012 22.9292 9.38614 22.7664 8.90351 22.5747C9.09868 23.8386 9.53218 25.0885 10.2215 26.2618L10.2235 26.2689C10.2787 26.3628 10.3352 26.4554 10.3929 26.5471C10.5073 26.5505 10.6221 26.5525 10.7373 26.5525C12.1154 26.5525 13.4328 26.2974 14.6433 25.8325C14.234 25.5179 13.8446 25.1795 13.4777 24.819ZM10.922 21.2184C10.6734 20.6889 10.4615 20.1394 10.2894 19.5732C9.87809 19.145 9.5015 18.6914 9.16041 18.2171L9.15033 18.2529C8.9573 18.9611 8.83895 19.6888 8.79835 20.424C9.46588 20.7566 10.1659 21.0196 10.8859 21.209L10.922 21.2184ZM18.5451 25.8325C19.7556 26.2974 21.073 26.5525 22.4511 26.5525C22.5664 26.5525 22.681 26.5507 22.7954 26.5471C22.8539 26.4544 22.9111 26.3605 22.967 26.2654L22.9671 26.2652C23.6569 25.0907 24.0908 23.8396 24.2856 22.5743C23.8027 22.7662 23.3085 22.929 22.806 23.0613C22.1968 23.2216 21.5754 23.3375 20.9472 23.4074C20.5709 23.908 20.1573 24.3799 19.7106 24.8189C19.3437 25.1795 18.9544 25.5179 18.5451 25.8325ZM21.2932 28.4209C19.9734 29.7294 18.3462 30.6514 16.5938 31.1392C14.8417 30.6514 13.2146 29.7292 11.8949 28.4209C13.5777 28.2714 15.1657 27.7988 16.5941 27.067C18.0227 27.7988 19.6107 28.2713 21.2932 28.4209ZM25.1868 26.2069C27.0019 25.7381 28.6294 24.8143 29.935 23.5667C30.3804 21.8319 30.3808 19.986 29.8875 18.2086C28.9142 19.5667 27.7036 20.6826 26.3441 21.5331C26.2742 23.1133 25.8963 24.7003 25.1868 26.2069ZM28.2997 27.0712C26.9474 27.7628 25.4524 28.2221 23.8697 28.395C22.9258 29.6541 21.7748 30.6957 20.4914 31.5C21.9972 31.3677 23.4979 30.9194 24.8925 30.1288L24.8915 30.1272C26.285 29.3364 27.43 28.2847 28.2997 27.0712ZM32.2008 20.4261C32.8345 19.0799 33.1883 17.5802 33.1883 15.9994C33.1883 14.4185 32.8343 12.9188 32.2005 11.5725C32.1331 13.0671 31.7904 14.5671 31.152 15.9996C31.7904 17.4319 32.1331 18.9316 32.2008 20.4261ZM29.9344 8.43163C28.6288 7.18436 27.0017 6.26071 25.1866 5.79222C25.8964 7.29909 26.2744 8.88606 26.3443 10.4669C27.7038 11.3171 28.9143 12.4327 29.8874 13.7908C30.3808 12.0129 30.38 10.1667 29.9344 8.43163ZM23.8722 3.60416C22.9287 2.34539 21.7776 1.30423 20.4936 0.5C21.9997 0.632699 23.5006 1.08118 24.895 1.87252C26.2873 2.66256 27.4314 3.71414 28.3005 4.92807C26.9486 4.23681 25.4543 3.77752 23.8722 3.60416ZM7.26568 14.2417C7.13105 13.748 7.02743 13.2463 6.95518 12.7395C5.93834 13.5375 5.05357 14.5314 4.36426 15.7047C4.30687 15.8025 4.25134 15.9009 4.19746 15.9996C4.25085 16.0977 4.30594 16.1952 4.36285 16.2922L4.36447 16.2912C5.05426 17.4655 5.93903 18.4601 6.95547 19.2586C7.02772 18.7523 7.13138 18.251 7.26588 17.758C7.42936 17.1582 7.63834 16.5703 7.89112 16C7.63822 15.4295 7.42916 14.8416 7.26568 14.2417ZM6.84408 10.4675C5.48545 11.3181 4.27518 12.4343 3.30161 13.7932C2.80776 12.0146 2.80807 10.1674 3.25418 8.43143C4.55964 7.18428 6.18679 6.26071 8.0017 5.79222C7.29183 7.29921 6.9139 8.88665 6.84408 10.4675ZM22.2664 21.2182L22.3026 21.2088C23.0227 21.0194 23.7226 20.7561 24.3901 20.4236C24.3495 19.6886 24.231 18.9609 24.038 18.2527L24.0277 18.2157C23.687 18.6893 23.3108 19.1422 22.9 19.5698C22.7277 20.1373 22.5154 20.6879 22.2664 21.2182ZM26.2329 19.2585C26.1607 18.7521 26.0572 18.2509 25.9228 17.7579C25.7592 17.1579 25.5502 16.5702 25.2976 15.9998C25.5504 15.4293 25.7595 14.8417 25.9229 14.2419C26.0574 13.7488 26.1609 13.2476 26.2331 12.7413C27.2496 13.5398 28.1345 14.5344 28.8243 15.7086L28.826 15.7077C28.8827 15.8044 28.9376 15.9019 28.9909 15.9996C28.9377 16.0975 28.8827 16.195 28.8258 16.292L28.8241 16.291C28.1341 17.4653 27.2494 18.46 26.2329 19.2585ZM9.31895 3.60386C7.73601 3.77692 6.24086 4.23622 4.88827 4.92799C5.75729 3.71424 6.90131 2.66286 8.29341 1.87291C9.68838 1.08148 11.1896 0.632798 12.696 0.500297C11.413 1.30423 10.2625 2.34529 9.31895 3.60386ZM6.84388 21.5327C6.91341 23.1133 7.2909 24.6999 7.99967 26.2063C6.18537 25.7375 4.55863 24.8139 3.25367 23.5671C2.80817 21.8321 2.80776 19.9863 3.3009 18.2088C4.27404 19.5669 5.48456 20.6826 6.84388 21.5327ZM24.0282 13.783L24.0383 13.747C24.2314 13.0388 24.3498 12.3112 24.3906 11.5761C23.723 11.2434 23.023 10.9803 22.3028 10.7906L22.2668 10.7813C22.5152 11.3109 22.7273 11.8603 22.8992 12.4267C23.3106 12.8549 23.6872 13.3085 24.0282 13.783ZM2.03622 15.9996C1.39798 14.5671 1.05509 13.0669 0.987789 11.5723C0.353783 12.9186 0 14.4184 0 15.9994C0 17.5803 0.353783 19.0801 0.987688 20.4263C1.05519 18.9318 1.39798 17.4321 2.03622 15.9996Z" fill="url(#paint0_linear_1971_202405)"/>
<defs>
<linearGradient id="paint0_linear_1971_202405" x1="0" y1="0.5" x2="0" y2="31.5" gradientUnits="userSpaceOnUse">
<stop stop-color="#FF8C00"/>
<stop offset="0.0001" stop-color="#FF8C00"/>
<stop offset="1" stop-color="#FF0080"/>
</linearGradient>
</defs>
</svg>
