<svg width="69" height="64" viewBox="0 0 69 64" fill="none" xmlns="http://www.w3.org/2000/svg">
<path d="M10.9915 25.9338C10.9915 25.9338 18.9134 14.9353 30.1113 12.2392C31.0094 11.9662 39.3733 9.09824 48.5378 16.2105C48.894 16.5883 52.8977 18.9942 52.8634 28.3283C52.7745 29.3305 52.7964 30.676 52.9568 33.2494C52.96 35.3989 52.5502 41.5113 51.508 42.7007C50.5173 43.3261 48.7354 43.1793 48.0363 42.5524C47.832 41.6718 46.6965 39.1595 46.5413 36.7312C46.3862 34.303 46.9759 33.4448 46.4628 32.2482C45.9497 31.0515 45.8912 29.5346 46.0884 28.5028C46.2758 28.1806 45.8267 27.8752 45.1873 28.513C44.5479 29.1509 42.5232 30.5899 42.7207 31.4432C42.9182 32.2965 43.1254 34.4425 43.1635 35.6084C43.2017 36.7744 43.6497 41.4707 42.2544 43.8689C41.448 43.4069 22.6851 30.7 10.9915 25.9338Z" fill="url(#paint0_linear_2082_193031)"/>
<path style="mix-blend-mode:color-burn" d="M40.0238 41.9404C39.8861 41.8134 40.0228 43.2926 40.7788 38.1199C41.5347 32.9472 41.6067 33.7715 41.169 31.5585C40.7314 29.3454 43.6615 36.1159 41.2182 42.7848C40.2588 42.7221 40.1641 42.0689 40.0238 41.9404Z" fill="url(#paint1_linear_2082_193031)"/>
<path style="mix-blend-mode:color-burn" d="M14.7056 25.8173C14.7056 25.8173 21.2868 15.7157 30.41 14.2232C27.3331 15.819 19.1281 20.9837 14.7056 25.8173Z" fill="url(#paint2_linear_2082_193031)"/>
<path style="mix-blend-mode:color-burn" d="M51.0386 41.5065C51.0386 41.5065 53.2825 32.6125 51.2476 23.8418C51.0666 27.0757 51.9692 33.6006 51.0386 41.5065Z" fill="url(#paint3_linear_2082_193031)"/>
<path d="M51.7225 42.9309L51.7326 42.9292C51.8001 42.8994 51.8562 42.8461 51.8906 42.779C52.1053 42.4101 52.2381 41.5181 52.3467 41.1117C52.6724 39.8931 52.8208 38.631 52.9477 37.3888C53.0721 36.1738 53.1539 34.9547 53.186 33.7395C53.2235 32.3513 53.0574 30.9744 53.0506 29.5872C53.0469 29.1081 53.0609 28.6302 53.1026 28.1509C53.1443 27.6716 53.0956 27.1691 53.0738 26.697C53.052 26.2249 53.0174 25.7334 52.9709 25.2539C52.7261 22.7299 52.0861 20.1886 50.7155 18.1179C50.1368 17.2554 49.4242 16.5002 48.6037 15.8797C46.2334 14.0628 43.5439 12.6597 40.6376 11.8867C37.4412 11.0333 34.4514 10.8406 30.4954 11.7793C29.6717 11.9764 28.8557 12.2164 28.0509 12.4985C26.6568 12.9786 25.0914 13.6283 23.7795 14.3299C21.3536 15.63 19.2891 17.107 17.1826 18.9233C14.8449 20.938 12.5536 23.1592 10.8009 26.0237L10.794 26.0355C10.7835 26.0468 10.7753 26.06 10.7699 26.0743C10.7644 26.0887 10.7619 26.1039 10.7624 26.119C10.7572 26.128 10.7539 26.1336 10.7586 26.1364C15.6243 28.1236 20.2423 30.6904 24.7752 33.3175C29.0518 35.7954 33.2573 38.4027 37.4132 41.0808C38.4796 41.7669 39.5431 42.4575 40.6039 43.1525C41.0737 43.46 41.5351 43.7906 42.0212 44.0713C42.1473 44.1435 42.4264 43.8228 42.4814 43.7257C43.168 42.5214 43.3606 41.0874 43.4527 39.7509C43.539 38.502 43.4983 37.2556 43.4321 36.0164C43.3686 34.7908 43.2966 33.5678 43.1411 32.3534C43.1049 32.0747 43.0636 31.7975 43.0138 31.5215C42.9688 31.27 42.9149 31.0752 43.0217 30.8212C43.2552 30.2682 43.8127 29.8256 44.2476 29.4422C44.4655 29.2496 44.688 29.0626 44.9072 28.8715C45.1158 28.6901 45.3443 28.3871 45.6218 28.3519C45.7948 28.33 45.9543 28.4672 45.8626 28.6479C45.8017 28.7695 45.8049 28.9593 45.7885 29.0906C45.7626 29.3014 45.7553 29.5116 45.7472 29.7198C45.7262 30.5304 45.841 31.33 46.0866 32.0837C46.1808 32.3708 46.313 32.6361 46.3803 32.9342C46.4324 33.2006 46.4493 33.4751 46.4306 33.7506C46.4033 34.3969 46.3035 35.0415 46.2804 35.688C46.2536 36.5454 46.318 37.3974 46.4723 38.229C46.7276 39.6405 47.2281 40.9608 47.6711 42.3046C47.7294 42.4884 47.7492 42.7164 47.8975 42.8315C48.125 43.0084 48.4111 43.1099 48.6866 43.1873C48.7872 43.2168 48.8923 43.2312 48.9986 43.2299C49.7651 43.2823 51.2282 43.0269 51.63 42.9539C51.6615 42.9516 51.6928 42.9438 51.7225 42.9309V42.9309ZM51.4844 42.5914C51.4965 42.5803 51.4964 42.5818 51.4844 42.5914V42.5914ZM48.7105 42.627C48.4891 42.5318 48.2941 42.4313 48.227 42.1913C48.1598 41.9512 48.0767 41.7215 47.9989 41.4912C47.7757 40.8435 47.5518 40.197 47.3552 39.5375C46.8745 37.9126 46.6579 36.2586 46.8065 34.5241C46.8543 33.9663 46.9468 33.4009 46.898 32.8464C46.8416 32.1996 46.5086 31.6289 46.3711 31.0025C46.2013 30.2105 46.1722 29.3848 46.2853 28.5644C46.3085 28.3911 46.4251 28.1833 46.3201 28.0277C46.2151 27.872 45.9387 27.937 45.7873 28.0007C45.2835 28.2078 44.8599 28.715 44.444 29.0718C43.9519 29.4954 43.4596 29.9265 43.0337 30.4219C42.7701 30.7282 42.4336 31.1537 42.4753 31.577C42.4996 31.8241 42.5712 32.0698 42.6104 32.3156C42.6617 32.6459 42.7007 32.9819 42.738 33.3169C42.8591 34.4033 42.9107 35.4965 42.9682 36.5916C43.0301 37.7884 43.0551 38.9905 42.9712 40.1964C42.8944 41.3063 42.7383 42.4918 42.2705 43.5387C41.6685 43.1742 41.0906 42.7612 40.5031 42.3756C38.9898 41.3908 37.4733 40.4129 35.9537 39.442C31.5541 36.6453 27.1016 33.9274 22.553 31.3771C18.8877 29.3216 15.365 27.4237 11.465 25.8287C13.144 23.4573 15.0927 21.2935 17.2655 19.3875C19.3888 17.5447 21.6934 15.9194 24.1596 14.6365C25.5098 13.9327 26.9099 13.3475 28.344 12.8876C29.0275 12.6691 29.7214 12.498 30.4095 12.2995C33.8741 11.3012 37.5659 11.4997 40.8852 12.4949C42.2757 12.9183 43.6157 13.4795 44.8871 14.1709C46.0954 14.8218 47.3226 15.5662 48.3662 16.465C49.2277 17.2121 49.9662 18.0105 50.5559 19.0111C51.9544 21.3784 52.4663 24.2502 52.5958 27.0489C52.6556 28.3416 52.5515 29.6405 52.5935 30.9358C52.6205 31.7787 52.7185 32.6246 52.7184 33.4693C52.7208 33.9506 52.7013 34.4306 52.6792 34.9114C52.6207 36.2048 52.5144 37.5001 52.3523 38.7906C52.21 39.9186 52.0566 41.108 51.6418 42.1874C51.5867 42.3376 51.5181 42.4829 51.4367 42.6213C51.4154 42.6353 51.3933 42.6478 51.3705 42.6586C51.3025 42.6896 51.2329 42.7161 51.1621 42.7378C51.1231 42.7478 51.0812 42.7554 51.0412 42.7648C50.8973 42.703 50.7364 42.6869 50.5782 42.7184C50.4515 42.7528 50.3265 42.795 50.2039 42.8448C49.8383 42.8557 49.5193 42.8421 49.4096 42.8365C49.1695 42.7927 48.9361 42.723 48.7131 42.6285L48.7105 42.627Z" fill="black"/>
<path d="M52.6244 43.3004C51.2567 42.7161 49.6766 42.3026 50.1163 42.6906C50.556 43.0785 48.4694 42.1981 48.5607 42.5918C48.652 42.9854 46.5197 42.836 46.8138 43.2571C47.1079 43.6782 44.8651 45.0564 45.41 45.0986C45.9548 45.1408 44.07 46.5865 44.1064 48.8343C44.1428 51.0821 44.3082 50.9047 44.9221 52.2338C45.2744 52.9928 47.2529 54.5345 49.3622 54.755C50.7198 54.8959 52.9856 54.8437 54.3808 51.9025C55.776 48.9614 55.7369 47.9187 55.2514 46.4549C54.6428 44.6206 53.9065 44.2319 52.6717 43.3282" fill="white"/>
<path d="M54.5822 52.1124C55.1747 50.9278 55.778 49.572 55.8216 48.2466C55.8586 47.14 55.4464 45.9505 54.8905 45.0576C54.3792 44.2384 53.3884 43.5956 52.6713 43.1848C52.3056 42.9753 51.2419 42.6095 50.4697 42.4498C50.3015 42.4151 50.0963 42.3299 49.9246 42.4164C49.8558 42.4528 49.8023 42.5148 49.7755 42.5889C49.6379 42.5537 49.5021 42.5142 49.3649 42.4785C49.1102 42.4115 48.6026 42.2192 48.3588 42.4465C48.3136 42.489 48.2964 42.4483 48.2927 42.5093C48.2918 42.5193 48.2919 42.5276 48.2918 42.5351C48.1375 42.6219 47.917 42.6287 47.751 42.6531C47.4228 42.7005 46.8882 42.6806 46.6164 42.9331C46.5647 42.9822 46.5312 43.0481 46.5223 43.1181C46.5135 43.1882 46.5298 43.2576 46.5682 43.3131C46.5781 43.33 46.5795 43.3082 46.547 43.3761C46.5015 43.4602 46.4442 43.5374 46.3771 43.6051C46.0686 43.9546 45.6946 44.2336 45.3589 44.551C45.1517 44.7458 44.9143 45.064 45.192 45.2478L45.1539 45.3133C45.0191 45.545 44.8607 45.7626 44.7185 45.9901C44.3083 46.6453 44.0055 47.356 43.8827 48.1142C43.763 48.8547 43.83 49.6892 43.9325 50.4178C43.9916 50.8389 44.1437 51.2155 44.3293 51.5865C44.5499 52.0249 44.7325 52.4701 45.0629 52.8338C46.0055 53.8723 47.3915 54.5791 48.7526 54.8837C49.7173 55.0996 50.8073 55.1 51.7806 54.7734C53.0546 54.3461 53.9791 53.3187 54.5822 52.1124ZM52.7839 53.6264C51.9509 54.3522 50.887 54.5907 49.8573 54.5595C48.4319 54.5158 47.0958 53.9376 46.0016 53.0761C45.5938 52.7693 45.2644 52.3673 45.0381 51.9001C44.8532 51.5205 44.63 51.1535 44.5235 50.7361C44.3576 50.0862 44.3572 49.3409 44.3744 48.6651C44.3959 47.8458 44.7169 47.0636 45.1354 46.3553C45.2719 46.1207 45.4263 45.8979 45.5741 45.6705C45.6556 45.545 45.7728 45.3836 45.774 45.2287C45.7746 45.1833 45.7662 45.1388 45.7493 45.0979C45.7325 45.057 45.7076 45.0205 45.6761 44.9906C45.7123 44.9527 45.7502 44.9166 45.7879 44.881C46.0969 44.5828 46.4355 44.3197 46.736 44.0107C46.9276 43.8137 47.0965 43.4834 47.0034 43.209C47.1065 43.1792 47.2109 43.1561 47.316 43.14C47.5253 43.0968 47.6876 43.0822 47.8981 43.0539C48.1338 43.0213 48.3738 42.9047 48.7099 42.7055C48.8116 42.6059 49.1618 42.7862 49.3206 42.8298C49.6159 42.9057 49.9454 43.0524 50.2608 43.0113C50.3096 43.0051 50.3553 42.9801 50.3888 42.9415C50.4223 42.9028 50.441 42.8535 50.4411 42.8033C52.6736 43.2184 53.6176 44.2472 54.0617 44.7392C54.5484 45.2744 54.8389 45.9709 55.0556 46.6695C55.3501 47.6186 55.3382 48.5486 55.0431 49.5374C54.8134 50.3081 54.4769 51.0551 54.132 51.786C53.8039 52.4822 53.3652 53.1196 52.7834 53.6261L52.7839 53.6264Z" fill="black"/>
<path d="M11.0558 25.8148C10.7864 25.7778 7.93012 25.1798 5.8582 27.9912C3.78629 30.8027 4.46559 29.5949 3.92773 30.5195L3.14919 31.8578C2.5148 32.9484 2.71445 32.1815 2.33009 33.459C1.94572 34.7364 1.66949 35.0207 1.69932 35.6978C1.72915 36.375 1.64294 37.4944 3.31146 38.318C4.97999 39.1417 15.8822 44.5099 20.0661 46.9073C24.2499 49.3048 32.6669 54.06 35.5369 56.6303C36.1921 57.0057 37.5858 57.6718 39.355 55.6126C39.9608 54.5712 40.1297 54.8005 40.3172 54.4781C40.5047 54.1558 40.793 53.8921 41.0958 53.3716C41.3985 52.8512 41.8325 52.7401 41.8457 52.0824C41.859 51.4246 42.1123 51.277 42.8946 49.4125C43.677 47.5479 44.0131 45.4488 42.3308 43.7578C41.3987 42.9866 41.1467 43.0168 40.1651 42.2797C39.1836 41.5427 37.7655 40.7632 36.9788 40.2642C36.192 39.7652 33.9832 38.2994 33.4999 38.1105C33.2912 38.0285 32.6925 37.4115 30.2899 36.0348C27.8873 34.658 28.053 34.6597 26.0203 33.525C24.3118 32.5708 24.4695 32.6167 22.3382 31.4279C20.207 30.239 20.5299 30.138 19.4628 29.7727C18.3956 29.4073 18.1243 28.7581 16.5569 28.2122C14.9895 27.6663 11.433 25.8232 11.0558 25.8148Z" fill="white"/>
<path d="M41.9566 52.5009C41.9967 52.3252 41.9755 52.1407 42.0112 51.9639C42.0449 51.8162 42.095 51.6718 42.1603 51.5339C42.394 51.0107 42.6518 50.4984 42.8797 49.972C43.3953 48.7833 43.7913 47.5283 43.6389 46.2157C43.5565 45.5692 43.3447 44.9553 43.0166 44.4118C42.6438 43.7805 42.1187 43.3148 41.5043 42.9191C40.2503 42.1102 39.0275 41.262 37.7444 40.4959C36.7178 39.8836 35.7279 39.2155 34.7159 38.5792C34.1682 38.2352 33.5797 37.9612 33.0815 37.5914C32.0809 36.8495 31.0095 36.2145 29.9301 35.5922C28.9698 35.042 28.0334 34.4519 27.0787 33.8921C26.1002 33.3186 25.1037 32.7747 24.1232 32.2046C22.9799 31.5404 21.7928 30.9392 20.7007 30.1968C20.4565 30.0182 20.2003 29.8568 19.9337 29.7136C19.4942 29.4979 19.0306 29.382 18.6135 29.1144C18.3086 28.9186 18.0224 28.6967 17.7118 28.5096C17.2973 28.2672 16.8593 28.0666 16.4035 27.9105C15.7022 27.6592 15.0216 27.3407 14.3436 27.0312C13.6348 26.7056 12.9299 26.3717 12.2234 26.0421C11.9632 25.9224 11.7026 25.8046 11.4375 25.6934C11.3014 25.6372 11.1442 25.5554 10.9945 25.5456C9.3286 25.3075 7.73864 25.7414 6.4994 26.8835C5.63898 27.6767 5.06857 28.7361 4.29512 29.6092C4.11899 29.8012 3.9632 30.0116 3.83067 30.2365C3.41727 30.9471 3.03257 31.6825 2.53102 32.3359C2.44355 32.4498 2.40147 32.6011 2.35675 32.735C2.22758 33.1246 2.11739 33.5228 1.9776 33.9161C1.81007 34.3898 1.58797 34.8481 1.5625 35.3581C1.51527 36.2891 1.73006 37.231 2.40052 37.9238C2.91627 38.4564 3.67951 38.7432 4.34105 39.0628C8.46928 41.0581 12.6033 43.0446 16.6809 45.1403C21.0668 47.3954 25.3138 49.9403 29.4738 52.5792C31.4953 53.8617 33.5609 55.1597 35.3789 56.7208C35.6413 56.9475 35.9489 57.1145 36.2833 57.2117C36.6176 57.3089 36.9718 57.3342 37.3246 57.2863C37.8599 57.2062 38.3325 56.917 38.745 56.5867C39.0266 56.3612 39.3434 56.0837 39.5271 55.7727C39.6701 55.5104 39.8523 55.2711 40.0664 55.0642C40.1526 54.9864 40.2574 54.9313 40.3419 54.8518C40.5137 54.6898 40.6334 54.4393 40.7791 54.2518C41.0114 53.9545 41.1854 53.6154 41.4272 53.3272C41.6504 53.06 41.8772 52.8535 41.9566 52.5009ZM41.0878 52.9551C40.8623 53.2481 40.6817 53.5744 40.4517 53.8701C40.3246 54.0328 40.2337 54.2449 40.0734 54.3796C39.9765 54.4625 39.8673 54.5264 39.774 54.6152C39.524 54.8543 39.3966 55.1801 39.1732 55.4367C38.7357 55.9386 38.2102 56.3856 37.5771 56.6241C37.1678 56.775 36.7323 56.8051 36.3218 56.7109C36.0511 56.6506 35.6839 56.5351 35.4741 56.3471C33.7239 54.7873 31.6813 53.519 29.7076 52.2586C27.3388 50.7462 24.9302 49.302 22.5023 47.8815C20.6686 46.8089 18.8235 45.7667 16.9362 44.7899C14.6796 43.6225 12.4017 42.4963 10.1197 41.3799C8.23165 40.4553 6.33897 39.5423 4.44641 38.628C3.82008 38.3255 3.12561 38.054 2.57614 37.6255C1.84255 37.0546 1.6676 36.037 1.93262 35.1856C2.13645 34.5317 2.38802 33.8916 2.59495 33.2373C2.70583 32.8876 2.91854 32.6701 3.11414 32.363C3.50897 31.7425 3.83943 31.0822 4.23088 30.459C4.39487 30.1977 4.65072 29.9801 4.84081 29.7383C5.70189 28.6648 6.40188 27.459 7.61237 26.7257C8.66991 26.0854 9.90064 25.9145 11.1167 26.0883C11.3829 26.1054 11.6776 26.2847 11.9159 26.3897C12.4212 26.6138 12.9224 26.8521 13.4234 27.0872C14.4738 27.5784 15.5243 28.1022 16.6209 28.4874C17.3126 28.7332 17.9041 29.0932 18.503 29.5072C18.9388 29.8081 19.3954 29.9809 19.8815 30.1797C20.1513 30.2999 20.4069 30.4489 20.6441 30.6242C21.1159 30.9495 21.6039 31.2494 22.1018 31.5347C24.1204 32.6914 26.1722 33.7994 28.157 35.0127C29.3805 35.7612 30.6435 36.4443 31.8549 37.216C32.2618 37.4757 32.6602 37.7479 33.0501 38.0326C33.209 38.1492 33.3642 38.2878 33.542 38.3769C34.4566 38.8392 35.309 39.4232 36.1688 39.9799C37.2921 40.7064 38.4613 41.3613 39.5762 42.101C40.182 42.5031 40.7571 42.9372 41.3814 43.3137C42.0285 43.7042 42.5334 44.1778 42.9201 44.8314C43.6086 45.9959 43.4108 47.4066 42.993 48.6069C42.7587 49.2802 42.4524 49.9295 42.1454 50.5725C41.9979 50.8808 41.827 51.1916 41.7515 51.5277C41.7119 51.7051 41.7214 51.8867 41.6975 52.0649C41.6468 52.4325 41.3019 52.6782 41.0878 52.9551V52.9551Z" fill="black"/>
<defs>
<linearGradient id="paint0_linear_2082_193031" x1="42.4508" y1="12.6253" x2="29.9481" y2="37.7428" gradientUnits="userSpaceOnUse">
<stop offset="0.08" stop-color="#C4000C"/>
<stop offset="0.52" stop-color="#E31C0F"/>
<stop offset="1" stop-color="#DF1F13"/>
</linearGradient>
<linearGradient id="paint1_linear_2082_193031" x1="49.1068" y1="37.8383" x2="17.5533" y2="32.4373" gradientUnits="userSpaceOnUse">
<stop offset="0.08" stop-color="#940C0C"/>
<stop offset="0.52" stop-color="#E31C0F"/>
<stop offset="1" stop-color="#DF1F13"/>
</linearGradient>
<linearGradient id="paint2_linear_2082_193031" x1="-1713" y1="5248.6" x2="3729.99" y2="3894.79" gradientUnits="userSpaceOnUse">
<stop offset="0.08" stop-color="#940C0C"/>
<stop offset="0.52" stop-color="#E31C0F"/>
<stop offset="1" stop-color="#DF1F13"/>
</linearGradient>
<linearGradient id="paint3_linear_2082_193031" x1="4176.01" y1="5744.59" x2="2360.49" y2="5145.67" gradientUnits="userSpaceOnUse">
<stop offset="0.08" stop-color="#940C0C"/>
<stop offset="0.52" stop-color="#E31C0F"/>
<stop offset="1" stop-color="#DF1F13"/>
</linearGradient>
</defs>
</svg>
