<svg width="165" height="164" viewBox="0 0 165 164" xmlns="http://www.w3.org/2000/svg">
<path fill="currentColor" fill-rule="evenodd" clip-rule="evenodd" d="M117.5 8H47.5C43.0817 8 39.5 11.5817 39.5 16V148C39.5 152.418 43.0817 156 47.5 156H117.5C121.918 156 125.5 152.418 125.5 148V16C125.5 11.5817 121.918 8 117.5 8ZM47.5 0C38.6634 0 31.5 7.16345 31.5 16V148C31.5 156.837 38.6634 164 47.5 164H117.5C126.337 164 133.5 156.837 133.5 148V16C133.5 7.16344 126.337 0 117.5 0H47.5Z" />
<path fill="currentColor" fill-rule="evenodd" clip-rule="evenodd" d="M59.5 23C59.5 20.7909 61.2909 19 63.5 19H101.5C103.709 19 105.5 20.7909 105.5 23C105.5 25.2091 103.709 27 101.5 27H63.5C61.2909 27 59.5 25.2091 59.5 23Z" />
<path fill="currentColor" fill-rule="evenodd" clip-rule="evenodd" d="M73.5 140C73.5 137.791 75.2909 136 77.5 136L87.5 136C89.7091 136 91.5 137.791 91.5 140C91.5 142.209 89.7091 144 87.5 144L77.5 144C75.2909 144 73.5 142.209 73.5 140Z" />
<path fill="currentColor" fill-rule="evenodd" clip-rule="evenodd" d="M66.6716 66.1716C68.2337 64.6095 70.7663 64.6095 72.3284 66.1716L82.25 76.0931L92.1716 66.1716C93.7337 64.6095 96.2663 64.6095 97.8284 66.1716C99.3905 67.7337 99.3905 70.2663 97.8284 71.8284L87.9069 81.75L97.8284 91.6716C99.3905 93.2337 99.3905 95.7663 97.8284 97.3284C96.2663 98.8905 93.7337 98.8905 92.1716 97.3284L82.25 87.4069L72.3284 97.3284C70.7663 98.8905 68.2337 98.8905 66.6716 97.3284C65.1095 95.7663 65.1095 93.2337 66.6716 91.6716L76.5931 81.75L66.6716 71.8284C65.1095 70.2663 65.1095 67.7337 66.6716 66.1716Z" />
</svg>
