<svg width="18" height="24" viewBox="0 0 18 24" fill="none" xmlns="http://www.w3.org/2000/svg">
<path d="M6.4225 2.25513C6.4225 1.8475 6.75924 1.46645 7.43271 1.11199C8.10619 0.739802 8.99235 0.553711 10.0912 0.553711C10.9419 0.553711 11.4913 0.73094 11.7394 1.0854C11.9167 1.33352 12.0053 1.56393 12.0053 1.7766V2.57415C14.008 2.78682 15.3993 3.159 16.179 3.69069C16.498 3.90337 16.6576 4.10719 16.6576 4.30215C16.6576 5.22375 16.4361 6.21624 15.993 7.27962C15.5676 8.343 15.151 8.87469 14.7435 8.87469C14.6726 8.87469 14.4422 8.79495 14.0523 8.63544C12.8826 8.12146 11.9078 7.86448 11.128 7.86448C10.3659 7.86448 9.84306 7.93537 9.55948 8.07715C9.29364 8.21895 9.16072 8.44048 9.16072 8.74177C9.16072 9.02535 9.35568 9.24688 9.74557 9.40639C10.1355 9.5659 10.614 9.70768 11.1811 9.83173C11.766 9.93808 12.3952 10.1242 13.0687 10.39C13.7599 10.6559 14.3979 10.9749 14.9827 11.3471C15.5676 11.7192 16.0549 12.2775 16.4449 13.0219C16.8348 13.7485 17.0298 14.4929 17.0298 15.2551C17.0298 16.0171 16.9588 16.6463 16.8171 17.1425C16.6753 17.6387 16.4272 18.1528 16.0726 18.6844C15.736 19.2161 15.2131 19.6946 14.5042 20.12C13.813 20.5276 12.98 20.8289 12.0053 21.0239V21.4492C12.0053 21.8569 11.6685 22.2379 10.9951 22.5923C10.3216 22.9646 9.43542 23.1506 8.33659 23.1506C7.48588 23.1506 6.93646 22.9735 6.68835 22.619C6.51112 22.3708 6.4225 22.1404 6.4225 21.9278V21.1303C5.2705 21.0239 4.26915 20.8555 3.41844 20.6251C1.78792 20.182 0.972656 19.7035 0.972656 19.1896C0.972656 18.197 1.11444 17.1691 1.39801 16.1057C1.68157 15.0247 2.01832 14.484 2.40822 14.484C2.47912 14.484 3.21462 14.7233 4.61475 15.2018C6.01486 15.6803 7.06939 15.9196 7.77832 15.9196C8.48724 15.9196 8.94804 15.8488 9.16072 15.707C9.37339 15.5474 9.47973 15.3259 9.47973 15.0424C9.47973 14.7588 9.28477 14.5195 8.89486 14.3245C8.50497 14.1119 8.01757 13.9435 7.43271 13.8194C6.84786 13.6954 6.20982 13.5004 5.51862 13.2346C4.84515 12.9687 4.21597 12.6586 3.63112 12.3041C3.04626 11.9496 2.55886 11.4268 2.16897 10.7356C1.77906 10.0444 1.5841 9.23802 1.5841 8.31642C1.5841 5.05537 3.1969 3.15015 6.4225 2.60073V2.25513Z" fill="#0CD15B"/>
</svg>
