<svg width="12" height="13" viewBox="0 0 12 13" fill="currentColor" xmlns="http://www.w3.org/2000/svg">
<path d="M4.24667 2.17333C4.12667 2.6 4.06667 3.04667 4.06667 3.5C4.06667 6.22 6.28 8.43333 9 8.43333C9.45333 8.43333 9.9 8.37333 10.3267 8.25333C9.63333 9.96 7.95333 11.1667 6 11.1667C3.42667 11.1667 1.33333 9.07333 1.33333 6.5C1.33333 4.54667 2.54 2.86667 4.24667 2.17333ZM6 0.5C2.68667 0.5 0 3.18667 0 6.5C0 9.81333 2.68667 12.5 6 12.5C9.31333 12.5 12 9.81333 12 6.5C12 6.19333 11.9733 5.88667 11.9333 5.59333C11.28 6.50667 10.2133 7.1 9 7.1C7.01333 7.1 5.4 5.48667 5.4 3.5C5.4 2.29333 5.99333 1.22 6.90667 0.566667C6.61333 0.526667 6.30667 0.5 6 0.5Z" fill="currentColor"/>
</svg>
