<svg width="46" height="30" viewBox="0 0 46 30" fill="none" xmlns="http://www.w3.org/2000/svg">
<g clip-path="url(#clip0_1878:34651)">
<path d="M23 29.6255C35.7025 29.6255 46 27.3897 46 24.6316C46 21.8735 35.7025 19.6377 23 19.6377C10.2975 19.6377 0 21.8735 0 24.6316C0 27.3897 10.2975 29.6255 23 29.6255Z" fill="#5A5A5A"/>
<path d="M39.5312 10.192L32.2388 1.98634C31.8888 1.42703 31.3778 1.08887 30.8394 1.08887H15.1606C14.6223 1.08887 14.1112 1.42703 13.7612 1.98563L6.46875 10.1928V16.784H39.5312V10.192Z" stroke="#5A5A5A"/>
<path d="M29.9093 12.4543C29.9093 11.3093 30.6238 10.364 31.51 10.3633H39.5312V23.3025C39.5312 24.8171 38.5825 26.0584 37.4109 26.0584H8.58906C7.4175 26.0584 6.46875 24.8163 6.46875 23.3025V10.3633H14.49C15.3762 10.3633 16.0907 11.3071 16.0907 12.4522V12.4679C16.0907 13.6129 16.813 14.5375 17.6985 14.5375H28.3015C29.187 14.5375 29.9093 13.6043 29.9093 12.4593V12.4543Z" fill="#262626" stroke="#5A5A5A"/>
</g>
<defs>
<clipPath id="clip0_1878:34651">
<rect width="46" height="29.25" fill="white" transform="translate(0 0.375)"/>
</clipPath>
</defs>
</svg>
