<svg width="12" height="12" viewBox="0 0 12 12" fill="currentColor" xmlns="http://www.w3.org/2000/svg">
<path d="M7.63211 9.72896C8.60661 9.56096 9.41911 9.28196 9.84211 8.92446C9.90761 9.31196 9.79711 10.004 9.60011 10.3365C9.78261 10.5405 10.2366 10.7505 10.5006 10.7475C9.88061 11.3115 8.76211 11.6555 7.67161 11.837C7.50611 11.28 7.45611 10.3345 7.63211 9.72896V9.72896ZM6.88561 6.11496C6.66411 6.11496 6.48511 6.36346 6.48511 6.66996C6.48511 6.97646 6.66361 7.22496 6.88561 7.22496C7.10611 7.22496 7.28511 6.97646 7.28511 6.66996C7.28511 6.36346 7.10661 6.11496 6.88561 6.11496ZM2.60261 0.661956C3.85911 -0.240044 7.38011 -0.201044 8.66811 0.661956C8.28261 1.62996 8.20211 2.56496 8.41211 3.33246C6.93861 2.65196 4.19911 2.65796 2.75011 3.35796C2.95061 2.50196 2.96861 1.74146 2.60261 0.661956ZM3.41261 0.812956C3.62911 1.37996 3.67461 1.98846 3.58611 2.60546L4.07761 2.49246C4.14261 1.97896 4.13611 1.38996 3.88461 0.688956C3.73761 0.716956 3.56211 0.758956 3.41261 0.812956V0.812956ZM5.30661 7.46996L3.82911 8.73596C3.62361 8.92946 3.76361 9.23096 4.06461 9.14246L5.85211 8.56546C6.76061 8.27296 6.18461 6.66996 5.30661 7.46996ZM2.29961 8.97146C2.56561 9.07896 2.86711 9.17046 3.19761 9.24446C2.82811 8.74896 2.60911 8.13446 2.60911 7.47046C2.60911 5.83096 3.94261 4.49696 5.58261 4.49696C7.22211 4.49696 8.55611 5.83096 8.55611 7.47046C8.55611 8.12096 8.34611 8.72296 7.99061 9.21296C8.31961 9.14096 8.61661 9.05546 8.87161 8.95996C9.07761 8.50596 9.19211 8.00146 9.19211 7.47046C9.19211 6.79646 9.00761 6.16546 8.68511 5.62596C8.95261 5.42246 9.11111 5.17546 9.11111 4.88496C9.11111 2.82946 2.10811 2.82896 2.10811 4.88496C2.10811 5.16246 2.25161 5.39996 2.49711 5.59796C2.16511 6.14396 1.97361 6.78496 1.97361 7.47096C1.97311 8.00596 2.09011 8.51396 2.29961 8.97146V8.97146ZM3.73061 9.78646C3.10861 9.69396 2.41311 9.49646 1.92761 9.28746C1.66411 9.17446 1.50861 9.60346 1.50011 10.1055C1.49161 10.621 1.63811 11.2135 1.92711 11.375C2.26061 11.561 2.96011 11.7685 3.67411 11.871C3.56511 11.241 3.55561 10.418 3.73061 9.78646V9.78646ZM7.07261 9.81096C6.17511 9.92096 5.18661 9.94096 4.25861 9.85096C4.06611 10.4575 4.09311 11.3435 4.22211 11.936C5.12061 12.0225 6.15811 12.0275 7.14811 11.911C6.99211 11.3305 6.93961 10.479 7.07261 9.81096V9.81096ZM4.73261 6.66996C4.73261 6.36346 4.55361 6.11496 4.33261 6.11496C4.11161 6.11496 3.93261 6.36346 3.93261 6.66996C3.93261 6.97646 4.11161 7.22496 4.33261 7.22496C4.55361 7.22496 4.73261 6.97646 4.73261 6.66996Z" fill="currentColor"/>
</svg>
