<svg width="19" height="35" viewBox="0 0 19 35" fill="none" xmlns="http://www.w3.org/2000/svg">
<path d="M0 0H18.1487V13.8132C18.1487 14.519 17.947 15.1827 17.5437 15.8045C17.1404 16.4262 16.6027 16.9388 15.9305 17.3421L9.276 21.3751L10.7884 26.2148H16.0313L11.6958 29.2396L13.4099 34.5833L9.07434 31.2561L4.73882 34.5833L6.45287 29.2396L2.11735 26.2148H7.3603L8.87269 21.3751L2.11735 17.4429C1.44517 17.0732 0.924239 16.5607 0.554543 15.9053C0.184848 15.2499 0 14.5526 0 13.8132V0ZM1.41156 1.41156V13.8132C1.41156 14.3173 1.5376 14.7794 1.78966 15.1995C2.04173 15.6196 2.38622 15.9641 2.82313 16.233L8.36856 19.4594V1.41156H1.41156ZM16.7371 1.41156H9.78013V19.4594L15.3256 16.233C15.7625 15.9641 16.107 15.6196 16.359 15.1995C16.6111 14.7794 16.7371 14.3173 16.7371 13.8132V1.41156Z" fill="#268AFF"/>
</svg>
