<svg width="29" height="29" viewBox="0 0 29 29" fill="none" xmlns="http://www.w3.org/2000/svg">
<path fill-rule="evenodd" clip-rule="evenodd" d="M19.9376 1.75702C20.0543 1.81133 20.17 1.86707 20.2859 1.92296C21.2438 2.39333 22.12 2.95527 22.9919 3.5679L23.0972 3.64274C23.183 3.7029 23.2506 3.75722 23.331 3.82385C23.4834 3.95711 23.6284 4.10127 23.773 4.24306C23.6163 4.31064 23.4732 4.364 23.3209 4.445C23.0354 4.62879 23.0214 4.70442 23.0234 4.86548L23.1024 5.0949C23.6779 5.16184 23.3445 5.27632 23.642 5.62874L24.1993 5.42505L24.2816 6.06989C23.998 6.10021 23.8242 6.01558 23.5394 6.0361C23.1007 6.06784 23.1543 6.16794 22.9807 6.239L22.6703 6.70305C22.6637 6.70952 22.644 6.7392 22.6391 6.73005C22.6342 6.72089 22.6178 6.74805 22.6071 6.75689C22.5855 6.86631 22.6618 6.79162 22.4725 6.85052L21.8664 6.94494L21.8239 7.18794C21.8107 7.30146 21.8269 7.21415 21.8006 7.30178C21.7967 7.31536 21.7823 7.35152 21.779 7.34504C21.7759 7.3392 21.7614 7.3692 21.7521 7.38088L21.7957 7.57683L22.0683 7.66557L21.9644 8.0262C21.4229 7.98593 21.1682 7.78683 20.5926 8.06962C20.4422 8.33835 20.4135 8.90661 20.6005 9.18151C20.9308 9.47677 21.5577 9.38093 22.0618 9.33814C22.169 9.01509 22.3926 8.6753 22.6274 8.43056C22.6856 8.36993 22.7083 8.36235 22.7238 8.35209C22.8899 7.88425 23.0055 8.21235 23.3209 8.14841C23.4543 8.12157 23.6401 7.9013 23.8019 7.79725C23.9288 8.45441 25.0225 8.61498 24.9104 8.87819C24.8249 9.06814 24.9692 8.99772 24.6615 9.00988C24.5916 9.01256 24.4449 8.99251 24.358 8.99046C24.5204 9.40856 24.7996 9.36261 25.1974 9.17535C25.1921 8.72835 25.1751 8.85846 25.3141 8.62888C25.1211 8.45772 24.9112 8.34893 24.6626 8.21583C24.4706 8.11288 24.5016 8.17367 24.4203 7.94899C24.3749 7.82378 24.3326 7.6973 24.3134 7.57336C24.7105 7.57288 24.8409 7.50357 25.0611 7.71294L25.548 8.14193C25.7514 8.39188 25.5234 8.57946 25.7451 8.8583C25.8485 8.98825 26.0302 9.21056 26.1786 9.31824C26.4701 8.91561 26.1006 8.58088 26.7857 8.3682C26.8022 8.60441 26.802 8.90188 26.9092 9.06688C27.3141 9.64145 27.365 9.12593 27.6784 10.2385C27.8065 10.694 27.8603 10.5962 27.3565 10.5917C27.0814 10.5891 26.9673 10.4606 26.7481 10.2969C26.3253 9.98487 26.3022 10.088 25.72 10.1462L25.7202 10.5738C25.4342 10.5907 25.4804 10.5426 25.2867 10.4368L23.9932 10.1011C23.9855 9.94414 23.9879 9.79998 23.9894 9.64351C23.9899 9.58793 23.9923 9.4973 23.9866 9.44472L23.9582 9.32188C23.9567 9.3023 23.9507 9.29661 23.9444 9.28209L23.6401 9.30245C23.3576 9.3383 23.0135 9.35535 22.7209 9.37603C22.1958 9.41314 22.2964 9.54561 21.952 9.63908C21.643 9.72293 21.2593 9.60008 20.9654 9.66435C20.7332 9.71535 20.528 9.95929 20.2737 9.97666L20.211 10.0888C20.2089 10.156 20.1883 10.8631 20.1869 10.8659C20.1393 10.9618 19.0952 11.6183 18.8718 11.8169C18.5942 12.064 18.6113 11.8867 18.7802 12.4439C19.1144 12.4908 19.0957 12.416 19.0596 12.7125C19.0296 12.9579 18.8335 12.9912 18.8018 13.0475C18.7858 13.076 18.7396 14.2013 18.7504 14.2259C18.7516 14.2281 19.137 14.6165 19.1789 14.6649C19.4769 15.0081 19.8717 15.3686 20.0779 15.7589C20.2928 15.7564 20.5056 15.752 20.7203 15.7437C20.8064 15.6021 20.9276 15.6544 21.0912 15.662C21.5613 15.6725 21.5498 15.7442 21.9776 15.4946C22.3136 15.2986 22.6337 15.2941 22.9134 15.5798C23.1231 15.7943 23.624 15.7682 23.9157 15.8273C23.8834 16.3955 23.7222 16.7607 23.9778 17.2932C24.0648 17.4455 24.2226 17.7725 24.3117 17.8769C24.4384 18.0255 24.8024 18.6406 24.7567 18.8224C24.6539 19.2311 24.1012 19.6786 24.3578 20.2161C24.5076 20.5298 24.7731 20.3639 24.7397 21.148L24.7335 21.2921C24.7324 21.399 24.7239 21.5988 24.7422 21.6962C24.7783 21.8898 24.7869 21.792 24.8609 21.9828C25.2663 22.2768 25.3522 22.6672 25.2394 23.1509C25.152 23.5249 24.1004 24.4945 23.7705 24.7953C22.1088 26.2939 19.9367 27.4633 17.7573 27.9736C16.5274 28.2614 15.2713 28.3945 14.0086 28.3686C13.8278 28.3629 13.6494 28.3533 13.469 28.3426C13.1248 28.3203 12.8093 28.2843 12.4713 28.215L12.3708 28.1912C12.2202 28.1485 12.1179 28.1484 11.936 28.1027C11.4541 27.9818 11.1511 27.9913 10.6162 27.8133C8.6943 27.1738 7.63417 26.6978 6.00954 25.4359C5.52905 25.0628 5.08325 24.6753 4.6562 24.2418C4.39058 23.9645 4.13772 23.6784 3.88582 23.3888C3.68624 23.1588 3.49849 22.9311 3.31847 22.6854C1.91516 20.7243 1.32638 19.264 0.848099 16.9081C0.57554 15.4272 0.575067 14.5831 0.731445 13.0869C0.783466 12.6024 0.850779 12.1239 0.929125 11.6431C1.0628 10.994 1.4394 9.69451 1.75799 9.13698C1.85037 9.50393 1.57939 9.66008 2.01447 9.88335C2.55502 10.1606 2.30658 10.1136 2.34804 10.7677L2.36207 10.9889C2.40148 11.3838 2.60121 11.639 2.81323 11.9631C2.98222 12.2203 3.08485 12.1717 3.38641 12.1963C3.43386 11.7583 3.45246 11.8832 3.06183 11.288C2.81859 10.8558 2.83231 10.7136 2.79653 10.2334C3.29435 10.2274 3.10156 10.3614 3.20686 10.903C3.22735 11.0083 3.24706 11.0612 3.29545 11.1564C3.42204 11.378 3.77389 11.7558 3.82134 11.9728L3.99569 12.1243C3.97535 12.4127 3.88187 12.3448 3.83837 12.6463C3.93862 12.7052 3.93768 12.7504 3.99679 12.8423C4.01067 12.8638 4.07057 12.9585 4.0753 12.9676C4.1352 13.0859 4.10446 12.9736 4.12259 13.1052C4.27361 13.2024 4.19936 13.1263 4.25406 13.2839C4.32327 13.325 4.60749 13.3829 4.75252 13.4533C5.00726 13.4822 4.87075 13.456 4.91899 13.5234C5.28597 13.4797 5.26296 13.7124 5.57177 13.5238C5.58123 13.5181 5.59179 13.5067 5.60172 13.5015C5.73335 13.4333 5.78742 13.4822 6.03255 13.5072L6.00229 13.8789C6.35146 13.912 6.80577 14.0085 7.06099 14.1847C7.21264 14.3301 7.27396 14.4599 7.42057 14.6028C7.57868 14.7571 7.65845 14.8297 7.73522 15.0198L7.82854 15.0569C8.0453 15.0834 8.39935 15.064 8.5458 15.1564L8.86486 15.1494C8.93832 15.2481 9.07799 15.9086 8.94605 16.0227C8.86171 16.1715 8.7304 16.2323 8.58458 16.3322C8.42994 16.4383 8.30193 16.4636 8.27072 16.6663C8.25354 17.1634 8.19064 17.4319 8.13547 17.8744C8.14697 17.8826 8.16132 17.8944 8.16889 17.9007L8.78541 18.6258C9.043 18.9588 9.20647 19.015 9.26416 19.5626L9.25014 19.6088L9.35843 19.6425C9.71612 19.7216 9.78863 19.7554 10.0237 19.9271C10.1793 20.041 10.4514 20.2055 10.5078 20.3343C10.5773 20.3876 10.588 20.3662 10.5946 20.6266C10.597 20.7177 10.5898 20.8395 10.5894 20.9358C10.588 21.2921 10.5169 22.5968 10.6613 22.8289L10.8464 22.8329C10.9188 23.3858 10.5001 23.7592 10.8453 24.1898C11.2574 24.7039 11.1897 24.6087 11.1092 25.4198L11.103 25.8179C11.3839 26.1753 11.6961 26.9342 12.0366 27.1454C12.101 27.1854 11.9603 27.1443 12.1409 27.2337C12.6465 27.5449 12.2566 27.6253 13.1862 27.6321C13.4407 27.6291 13.5182 27.6019 13.4668 27.3291C13.4437 27.2319 12.9613 26.9002 12.867 26.8347C12.9187 26.6651 12.9707 26.4957 13.0231 26.3264L13.0288 25.9014L12.6203 25.9132L12.4471 25.6655C12.6005 25.4076 12.7532 25.461 12.8085 25.1061C12.6449 24.9753 12.4408 25.0536 12.4387 24.8541C12.4367 24.6608 12.7102 24.6749 12.8588 24.7094L13.1803 24.5864C13.2543 24.4465 13.6045 24.3865 13.775 24.2768C13.9587 24.1587 13.9871 23.9234 14.1275 23.7138C14.2486 23.5326 14.422 23.3389 14.552 23.1734C14.648 23.0514 14.8364 22.7557 14.9698 22.7013L14.9543 22.3093C14.8148 21.9482 14.7592 21.5217 15.0558 21.3425C15.1671 21.1995 14.9609 21.291 15.2611 21.2454C15.2669 21.2446 15.4433 21.2479 15.4622 21.2486C15.6323 21.2542 15.7884 21.2561 15.9586 21.2514C16.0078 21.1388 16.0807 21.1057 16.2038 21.0149C16.375 20.8886 16.3929 20.9441 16.4464 20.7367C16.5031 20.5172 16.4962 20.1185 16.543 19.8678C16.5851 19.1243 16.5764 19.18 16.9199 18.7327L17.1277 18.5134C17.1329 18.4946 17.1491 18.4947 17.1605 18.4864C17.1627 18.4755 17.1685 18.4608 17.1706 18.4546C17.1726 18.4485 17.1783 18.4303 17.181 18.4224L17.3013 17.8846C17.0951 17.7589 16.8734 17.7839 16.7177 17.5971C16.2279 17.0099 16.832 17.0863 15.6032 17.0765C15.2951 17.0779 15.0048 17.0967 14.8188 16.8973C14.6323 16.8905 14.401 16.8188 14.2465 16.6968C13.9998 16.4767 14.3775 16.1208 13.7744 15.4172L12.8866 15.3866L12.5593 14.8308C12.2562 14.5111 12.4289 14.599 11.944 14.3892L11.8993 14.5284C11.7932 14.6601 11.9611 14.5712 11.7084 14.6287C11.6816 14.6348 11.5279 14.6385 11.4856 14.6418C10.633 14.6852 11.1551 14.4555 10.7275 14.2392C10.5516 14.1501 9.95841 14.0667 9.81386 14.0851C9.75679 14.2479 9.79194 14.1694 9.70177 14.2199C9.67687 14.3688 9.67403 14.3391 9.55895 14.4586C9.44955 14.5725 9.45586 14.5707 9.36931 14.6787C9.21151 14.8756 9.16737 14.8911 8.87653 14.8404C8.65457 14.8262 8.34844 14.749 8.05633 14.7067L7.98492 13.7219L7.96537 13.4458C7.70527 13.3554 7.38211 13.3696 7.17339 13.2568C7.40465 12.7095 7.49482 12.9389 7.39929 12.3165C7.19656 12.3853 6.79269 12.6869 6.60179 12.8211C6.21904 13.0897 6.16465 13.027 5.61686 12.9408C5.53583 12.7591 5.39663 12.5585 5.40483 12.3443C5.41192 12.16 5.5177 11.851 5.61449 11.7653C5.73745 11.2668 5.98463 11.051 6.4782 10.9086C6.53369 10.8069 6.63883 10.7993 6.75769 10.7914C6.895 10.6671 7.36666 10.735 7.59555 10.7355C7.84683 10.7358 8.18418 10.7099 8.42489 10.753C8.42978 11.2652 8.37397 11.2289 8.7129 11.3732L8.98388 11.5422C9.06964 11.281 8.96717 10.9779 8.98404 10.8135C8.99712 10.6867 8.99176 10.7589 9.02109 10.6733L9.07169 10.5888C9.35497 10.1985 9.47651 10.1762 9.88795 9.90719C10.0388 9.80835 10.234 9.71377 10.2915 9.54782C10.3881 9.26882 10.2677 9.2063 10.5199 9.0784C10.5433 9.03672 11.039 8.50304 11.1552 8.45456C11.273 8.23051 11.3078 8.29146 11.6382 8.10025C12.0667 7.85251 12.0545 7.95736 12.1017 7.73836C12.1097 7.71767 12.3582 7.45446 12.4639 7.35294C12.7485 7.07947 12.7283 7.16157 13.0335 7.3392L13.2843 7.07978L12.7833 6.94068L12.8074 6.63515C13.1891 6.50347 13.3574 6.51326 13.4681 6.87436C14.6204 6.8022 13.9049 6.43573 14.3991 6.63752C14.5041 6.91162 14.3922 6.8371 14.279 6.98252C14.1474 7.15146 14.2394 7.10789 14.2472 7.29499C14.4956 7.33194 14.364 7.30036 14.4097 7.37141C14.6867 7.35499 14.8579 7.53167 15.2095 7.51478L15.2237 7.18446L14.9066 7.00636C14.6889 6.9462 14.6121 6.95283 14.5733 6.74726C14.7743 6.5911 15.0018 6.68047 15.08 6.44757L15.0912 6.05094C14.9151 5.93552 14.7432 5.83558 14.5632 5.72726L14.5317 4.92705C14.1739 4.96858 14.0422 5.25168 13.5283 5.25484L13.5808 4.61442L13.231 4.51874C13.0841 4.49506 12.7767 4.40458 12.6663 4.40237C11.9812 4.38864 12.1693 5.46784 12.149 5.66252C11.9064 5.73279 11.4954 5.78395 11.3583 5.98984C11.1084 6.36531 11.3356 6.49636 10.7896 6.56773L10.7595 5.765C9.94864 5.65179 9.71344 5.67831 9.60136 4.89184C10.1819 4.7049 10.4785 4.21622 11.4757 4.01443C11.4874 4.18937 11.4784 4.27195 11.5559 4.4109L11.8097 4.40095C11.9784 4.20879 11.776 4.28032 11.9928 4.18006C12.0905 4.13474 12.1239 4.18132 12.2544 4.10285C12.0832 3.89364 12.1542 4.16379 12.085 3.84848C12.2462 3.72343 12.1698 3.79716 12.4179 3.74664C12.5801 3.71364 12.5472 3.72817 12.6512 3.62396C12.8388 3.43606 12.7712 3.37717 13.1265 3.32727C13.8253 3.22906 13.8185 3.17506 14.1887 3.60201C14.015 3.69659 13.851 3.78311 13.6694 3.88038C13.5219 3.95948 13.2439 4.05785 13.2055 4.18985L14.5136 4.47185L14.7037 4.04016L15.2624 4.02958C15.3018 3.98522 15.374 3.88748 15.4023 3.82906C15.5333 3.56001 15.4217 3.61006 15.4179 3.60517L15.0793 3.52022L15.0568 2.98433C14.7898 2.97201 14.0832 2.50638 13.7671 2.45286C13.3194 2.37707 12.5609 2.58912 12.3156 2.83164L12.3437 3.46148C11.8526 3.39817 11.7654 3.49575 11.7453 2.97596C11.9217 2.87554 12.0697 2.76991 12.2051 2.55896L12.0288 2.53922L11.8403 2.53196L11.6571 2.51617L11.1388 2.5498C10.9624 2.63743 10.9922 2.6638 10.9318 2.90664L11.2727 2.96222L11.1691 3.30864C10.6832 3.35554 10.6662 3.21896 10.5002 3.58938L9.64029 3.58748L9.62106 3.13654C9.92909 3.05822 10.379 3.29506 10.7554 2.5738C10.2459 2.33365 10.4967 2.68212 10.0386 2.8138L9.99246 2.81206C9.5547 2.79628 9.47651 2.89196 9.14184 2.25801C8.27577 2.27522 8.41055 2.16707 7.707 2.71764C7.26151 3.06627 7.80048 2.76564 8.26016 2.93317C8.38107 3.26854 8.22201 3.10069 8.17945 3.31117C9.06349 3.29301 8.98309 3.2919 9.07799 3.62838C8.86297 3.6208 8.55085 3.63138 8.35033 3.60943C7.87646 3.55796 8.37918 3.45217 7.92155 3.31543C7.6017 3.23001 7.63196 3.28464 7.29509 3.12312C6.84802 2.9687 6.38346 3.22243 7.23124 2.67975C7.99343 2.19186 9.0698 1.71786 9.92941 1.42544L10.2035 1.33733C10.6558 1.19444 10.8198 1.12165 11.3258 1.01855C12.2726 0.8256 12.7262 0.691075 13.7285 0.649864C14.2874 0.62697 14.8448 0.633128 15.4028 0.670391C16.9403 0.782811 18.5301 1.11739 19.9376 1.75702ZM1.42128 20.7477C1.78795 21.562 2.15336 22.0012 2.58166 22.7422C4.55925 25.8139 8.30619 28.1893 11.9016 28.7777C15.0078 29.2239 17.448 29.0466 20.3599 27.8018C20.8932 27.5738 22.0968 26.9143 22.5748 26.5775C23.2593 26.0953 24.0421 25.4951 24.631 24.9016L24.7281 24.8037C24.9868 24.5493 25.0751 24.4835 25.3199 24.1816C27.5223 21.4546 28.4606 19.4508 28.9401 15.9619C29.2322 12.5446 28.457 9.35061 26.5861 6.4771C26.2104 5.90016 26.0164 5.528 25.5018 5.04058C25.4129 4.95642 25.3002 4.75748 25.1732 4.62248C21.559 1.09497 17.7066 -0.391289 12.6496 0.0872881C12.1236 0.137025 11.263 0.337866 10.7302 0.462128C10.0196 0.635812 9.35654 0.937231 8.67207 1.18939C7.68383 1.60733 6.3141 2.43201 5.4939 3.12548C3.80037 4.55869 2.70478 5.80716 1.6374 7.76883C0.852513 9.21119 0.386687 10.9423 0.151804 12.5625C-0.275872 15.5126 0.216594 18.0452 1.42128 20.7477Z" fill="#268AFF"/>
</svg>
