<svg width="32" height="28" viewBox="0 0 32 28" fill="none" xmlns="http://www.w3.org/2000/svg">
<path d="M8.56566 13.5755C8.53515 14.1031 8.72655 14.6207 9.09796 15.0149C9.46936 15.4091 9.99053 15.6479 10.5474 15.6791C10.5882 15.6791 10.6307 15.6791 10.6691 15.6791C11.0804 15.6788 11.4827 15.5644 11.8261 15.35C12.1696 15.1355 12.4392 14.8305 12.6016 14.4726C12.764 14.1146 12.8122 13.7194 12.7401 13.3358C12.668 12.9523 12.4788 12.5971 12.196 12.3142C11.9131 12.0313 11.5489 11.8331 11.1485 11.7441C10.748 11.6551 10.3288 11.6792 9.94259 11.8134C9.5564 11.9476 9.22018 12.186 8.97548 12.4991C8.73077 12.8123 8.58829 13.1865 8.56566 13.5755Z" fill="white"/>
<path d="M0.718102 13.0635C0.583837 13.0564 0.450355 13.0871 0.334528 13.1518C0.218702 13.2165 0.125733 13.3123 0.0673739 13.4271C0.00901499 13.5418 -0.0121135 13.6704 0.00665947 13.7965C0.0254324 13.9226 0.083264 14.0407 0.172843 14.1356C0.262422 14.2306 0.379727 14.2984 0.509928 14.3302C0.640129 14.3621 0.77738 14.3567 0.90433 14.3146C1.03128 14.2726 1.14223 14.1959 1.22315 14.0942C1.30407 13.9925 1.35134 13.8703 1.35896 13.7431C1.36414 13.6586 1.35166 13.574 1.32223 13.494C1.2928 13.4141 1.24701 13.3405 1.18747 13.2773C1.12794 13.2142 1.05583 13.1628 0.975285 13.1261C0.894741 13.0894 0.807343 13.0681 0.718102 13.0635Z" fill="white"/>
<path d="M8.43 2.00712C8.54967 1.94941 8.64863 1.85942 8.71438 1.74851C8.78013 1.63761 8.80974 1.51074 8.79947 1.38392C8.78921 1.25709 8.73952 1.13598 8.65669 1.03587C8.57385 0.935748 8.46157 0.861103 8.33401 0.821341C8.20645 0.781579 8.06931 0.778482 7.93989 0.81244C7.81047 0.846397 7.69456 0.915889 7.60678 1.01215C7.519 1.10842 7.46328 1.22714 7.44665 1.35336C7.43001 1.47958 7.4532 1.60764 7.5133 1.72139C7.55361 1.79722 7.60931 1.86478 7.67723 1.9202C7.74514 1.97562 7.82393 2.0178 7.90908 2.04434C7.99423 2.07088 8.08406 2.08126 8.17345 2.07487C8.26284 2.06849 8.35002 2.04546 8.43 2.00712Z" fill="white"/>
<path d="M10.563 5.53257C10.7486 5.44396 10.9022 5.30522 11.0046 5.13391C11.1069 4.96259 11.1533 4.76638 11.1379 4.57009C11.1225 4.37379 11.0461 4.18622 10.9181 4.0311C10.7902 3.87597 10.6166 3.76025 10.4193 3.69857C10.2219 3.63689 10.0097 3.63201 9.8094 3.68456C9.60912 3.73711 9.42979 3.84472 9.29408 3.99379C9.15837 4.14286 9.07237 4.32669 9.04695 4.52205C9.02154 4.71741 9.05784 4.91552 9.15129 5.09133C9.27682 5.32706 9.49603 5.50595 9.76074 5.58868C10.0254 5.67142 10.314 5.65123 10.563 5.53257Z" fill="white"/>
<path d="M3.37963 7.95923C3.5229 8.04813 3.69078 8.0948 3.86205 8.09332C4.03331 8.09184 4.20027 8.04229 4.3418 7.95092C4.48333 7.85956 4.59307 7.7305 4.65714 7.58006C4.72122 7.42962 4.73675 7.26455 4.70177 7.10575C4.66679 6.94695 4.58288 6.80154 4.46064 6.68791C4.3384 6.57428 4.18332 6.49755 4.01503 6.46741C3.84674 6.43726 3.67279 6.45507 3.51519 6.51858C3.35759 6.58208 3.22341 6.68843 3.12962 6.82418C3.00393 7.00611 2.95965 7.22788 3.00653 7.44073C3.05342 7.65357 3.18762 7.84008 3.37963 7.95923Z" fill="white"/>
<path d="M4.66249 12.7087C4.45479 12.6974 4.24823 12.7448 4.06895 12.8447C3.88967 12.9447 3.74571 13.0928 3.6553 13.2702C3.56488 13.4477 3.53207 13.6466 3.56101 13.8417C3.58994 14.0369 3.67933 14.2195 3.81787 14.3665C3.9564 14.5135 4.13785 14.6183 4.33928 14.6676C4.5407 14.7169 4.75304 14.7085 4.94943 14.6435C5.14583 14.5785 5.31746 14.4598 5.44261 14.3024C5.56777 14.145 5.64082 13.956 5.65253 13.7593C5.66823 13.4956 5.57276 13.2368 5.38712 13.0398C5.20147 12.8428 4.94083 12.7237 4.66249 12.7087Z" fill="white"/>
<path d="M3.49983 19.3968C3.34686 19.4698 3.22017 19.5841 3.1358 19.7252C3.05142 19.8664 3.01314 20.0281 3.02581 20.1899C3.03847 20.3517 3.10151 20.5063 3.20695 20.6341C3.31239 20.762 3.45549 20.8573 3.61815 20.9081C3.78081 20.9589 3.95573 20.9629 4.12077 20.9195C4.28581 20.8762 4.43357 20.7874 4.54535 20.6645C4.65713 20.5416 4.72792 20.39 4.74875 20.229C4.76958 20.068 4.73952 19.9047 4.66238 19.7599C4.61136 19.6636 4.54078 19.5778 4.45469 19.5075C4.36859 19.4371 4.26868 19.3835 4.16068 19.3498C4.05268 19.316 3.93871 19.3028 3.82531 19.3109C3.71191 19.319 3.6013 19.3482 3.49983 19.3968Z" fill="white"/>
<path d="M7.58228 10.647C7.78681 10.774 8.02652 10.8408 8.2711 10.8388C8.51568 10.8368 8.75415 10.7662 8.95635 10.6358C9.15854 10.5055 9.31539 10.3212 9.40706 10.1065C9.49872 9.89168 9.52109 9.65598 9.47133 9.42916C9.42157 9.20234 9.30192 8.99458 9.12751 8.83217C8.95309 8.66976 8.73175 8.55998 8.49146 8.51671C8.25118 8.47344 8.00274 8.49863 7.77757 8.58909C7.5524 8.67955 7.3606 8.83121 7.22643 9.02491C7.13722 9.15351 7.07566 9.29751 7.04526 9.44867C7.01487 9.59982 7.01623 9.75517 7.04928 9.90583C7.08233 10.0565 7.14642 10.1995 7.23788 10.3267C7.32933 10.4538 7.44637 10.5627 7.58228 10.647Z" fill="white"/>
<path d="M20.5375 5.45394C20.7114 5.56205 20.9153 5.61888 21.1233 5.61723C21.3313 5.61559 21.5342 5.55555 21.7062 5.44471C21.8781 5.33387 22.0116 5.17721 22.0896 4.99454C22.1675 4.81187 22.1866 4.6114 22.1442 4.41848C22.1019 4.22557 22.0001 4.04887 21.8518 3.91074C21.7034 3.77262 21.5152 3.67927 21.3108 3.6425C21.1064 3.60573 20.8951 3.62719 20.7036 3.70418C20.5121 3.78116 20.349 3.9102 20.235 4.07499C20.1592 4.18432 20.1069 4.30674 20.081 4.43523C20.0552 4.56373 20.0564 4.69579 20.0845 4.82385C20.1126 4.95192 20.167 5.07349 20.2448 5.18161C20.3225 5.28972 20.422 5.38226 20.5375 5.45394Z" fill="white"/>
<path d="M22.6983 1.94083C22.8107 2.01056 22.9425 2.04715 23.077 2.04597C23.2114 2.04479 23.3424 2.0059 23.4535 1.9342C23.5646 1.86251 23.6508 1.76123 23.7012 1.64316C23.7515 1.5251 23.7638 1.39555 23.7365 1.27087C23.7091 1.1462 23.6434 1.03201 23.5475 0.942715C23.4517 0.853423 23.33 0.793042 23.198 0.769202C23.0659 0.745362 22.9294 0.759132 22.8055 0.808773C22.6817 0.858413 22.5763 0.941697 22.5024 1.0481C22.4533 1.11887 22.4194 1.19812 22.4027 1.28132C22.3859 1.36451 22.3867 1.45002 22.4048 1.53294C22.423 1.61586 22.4583 1.69457 22.5087 1.76456C22.559 1.83455 22.6234 1.89445 22.6983 1.94083Z" fill="white"/>
<path d="M20.7044 11.6751C20.4285 11.6602 20.1522 11.697 19.8913 11.7832C19.6304 11.8695 19.39 12.0036 19.1838 12.1778C18.9776 12.3521 18.8096 12.5631 18.6896 12.7988C18.5695 13.0346 18.4996 13.2904 18.4839 13.5517C18.4682 13.813 18.507 14.0747 18.598 14.3219C18.6891 14.569 18.8307 14.7967 19.0147 14.992C19.1986 15.1873 19.4214 15.3463 19.6703 15.4601C19.9192 15.5738 20.1893 15.64 20.4652 15.6549C20.506 15.6549 20.5485 15.6549 20.586 15.6549C21.1339 15.6549 21.6601 15.4525 22.0529 15.0908C22.4456 14.7291 22.674 14.2366 22.6894 13.7179C22.7048 13.1992 22.5061 12.6953 22.1354 12.3133C21.7647 11.9312 21.2513 11.7011 20.7044 11.6719V11.6751Z" fill="white"/>
<path d="M11.2564 10.5098C11.4312 10.8399 11.6998 11.1172 12.0319 11.3105C12.3641 11.5038 12.7467 11.6054 13.1365 11.6039C13.4958 11.6038 13.849 11.5166 14.1626 11.3506C14.4763 11.1846 14.7398 10.9453 14.9281 10.6555C15.1164 10.3657 15.2232 10.0351 15.2384 9.69513C15.2536 9.35516 15.1767 9.01716 15.0149 8.71333C14.7637 8.24127 14.3248 7.88304 13.7948 7.71748C13.2647 7.55191 12.687 7.59255 12.1886 7.83047C11.6901 8.06839 11.3119 8.48409 11.1371 8.98613C10.9623 9.48817 11.0052 10.0354 11.2564 10.5075V10.5098Z" fill="white"/>
<path d="M27.7509 7.95724C27.9033 7.88375 28.0293 7.76914 28.1131 7.62789C28.1968 7.48663 28.2345 7.32505 28.2214 7.16353C28.2083 7.002 28.145 6.84777 28.0394 6.72029C27.9339 6.59282 27.7908 6.4978 27.6283 6.44723C27.4658 6.39666 27.2912 6.39281 27.1264 6.43615C26.9616 6.4795 26.814 6.5681 26.7023 6.69078C26.5906 6.81347 26.5198 6.96474 26.4988 7.12551C26.4777 7.28628 26.5074 7.44935 26.5841 7.59414C26.6354 7.69069 26.7063 7.7767 26.7927 7.84724C26.8792 7.91777 26.9795 7.97145 27.0879 8.00518C27.1963 8.03892 27.3106 8.05205 27.4244 8.04382C27.5382 8.03559 27.6491 8.00617 27.7509 7.95724Z" fill="white"/>
<path d="M22.418 8.58982C22.1997 8.69413 22.0189 8.85742 21.8985 9.05903C21.7781 9.26064 21.7236 9.49154 21.7417 9.72252C21.7598 9.95351 21.8498 10.1742 22.0004 10.3568C22.1509 10.5393 22.3552 10.6755 22.5875 10.748C22.8197 10.8206 23.0694 10.8264 23.3051 10.7645C23.5408 10.7027 23.7518 10.5761 23.9115 10.4007C24.0712 10.2253 24.1725 10.009 24.2024 9.77912C24.2324 9.54924 24.1897 9.31611 24.0798 9.1092C23.9319 8.8318 23.6739 8.6213 23.3623 8.52392C23.0508 8.42655 22.7112 8.45025 22.418 8.58982Z" fill="white"/>
<path d="M15.5441 1.63894C15.7149 1.64801 15.8847 1.60893 16.0321 1.52666C16.1795 1.44438 16.2979 1.32258 16.3722 1.17665C16.4466 1.03071 16.4737 0.867174 16.45 0.706681C16.4264 0.546187 16.353 0.395931 16.2393 0.27488C16.1255 0.153828 15.9765 0.0674071 15.8109 0.0265259C15.6454 -0.0143553 15.4707 -0.00786428 15.3091 0.0451797C15.1474 0.0982237 15.0059 0.195443 14.9026 0.324565C14.7992 0.453687 14.7385 0.608924 14.7282 0.770681C14.7212 0.878507 14.7368 0.986576 14.7741 1.08867C14.8114 1.19077 14.8696 1.28487 14.9454 1.36557C15.0212 1.44626 15.1132 1.51196 15.2159 1.55888C15.3187 1.6058 15.4302 1.63301 15.5441 1.63894Z" fill="white"/>
<path d="M15.5359 6.79799C15.78 6.81072 16.0227 6.75463 16.2332 6.6368C16.4437 6.51896 16.6125 6.34468 16.7185 6.13596C16.8244 5.92725 16.8627 5.69347 16.8284 5.46417C16.7941 5.23487 16.6889 5.02035 16.5259 4.84769C16.3629 4.67504 16.1496 4.55202 15.9128 4.49417C15.6761 4.43632 15.4265 4.44623 15.1957 4.52267C14.9649 4.5991 14.7632 4.73862 14.6161 4.92359C14.469 5.10856 14.3831 5.33069 14.3692 5.5619C14.36 5.71565 14.3828 5.86962 14.4365 6.01499C14.4901 6.16036 14.5735 6.29429 14.6819 6.4091C14.7903 6.52391 14.9215 6.61735 15.068 6.68408C15.2146 6.75081 15.3735 6.78952 15.5359 6.79799Z" fill="white"/>
<path d="M8.83209 18.7605C9.05054 18.6563 9.23146 18.4931 9.35197 18.2915C9.47248 18.0899 9.52717 17.859 9.50913 17.6279C9.49108 17.3969 9.40111 17.1761 9.2506 16.9935C9.10008 16.8109 8.89577 16.6747 8.66351 16.602C8.43124 16.5294 8.18146 16.5236 7.94574 16.5855C7.71001 16.6473 7.49894 16.7739 7.3392 16.9494C7.17947 17.1248 7.07825 17.3412 7.04834 17.5711C7.01844 17.801 7.06118 18.0342 7.17118 18.2411C7.31887 18.5185 7.57674 18.7289 7.88817 18.8263C8.19959 18.9237 8.53908 18.9 8.83209 18.7605Z" fill="white"/>
<path d="M16.3314 8.50805C16.0754 8.87861 15.9571 9.31945 15.9953 9.76082C16.0335 10.2022 16.226 10.6189 16.5424 10.945C16.8587 11.2711 17.2809 11.488 17.742 11.5613C18.2031 11.6346 18.6768 11.5603 19.0883 11.3499C19.4998 11.1396 19.8254 10.8053 20.0138 10.4C20.2021 9.99461 20.2423 9.54136 20.1281 9.11192C20.0139 8.68247 19.7518 8.30136 19.3833 8.02887C19.0147 7.75638 18.5607 7.60807 18.0931 7.60742C17.7436 7.60736 17.3996 7.68965 17.0921 7.84687C16.7846 8.00409 16.5231 8.2313 16.3314 8.50805Z" fill="white"/>
<path d="M19.997 16.8433C19.8098 16.491 19.5164 16.1992 19.154 16.0049C18.7916 15.8106 18.3765 15.7224 17.9612 15.7515C17.5459 15.7807 17.1491 15.9259 16.8209 16.1687C16.4927 16.4115 16.248 16.741 16.1176 17.1156C15.9872 17.4902 15.977 17.893 16.0884 18.2731C16.1997 18.6532 16.4276 18.9934 16.7432 19.2508C17.0587 19.5082 17.4478 19.6711 17.8611 19.719C18.2745 19.7669 18.6936 19.6976 19.0653 19.5199C19.3131 19.4032 19.534 19.2411 19.7152 19.043C19.8964 18.8449 20.0343 18.6147 20.121 18.3658C20.2076 18.1169 20.2413 17.8541 20.22 17.5928C20.1987 17.3315 20.123 17.0767 19.997 16.8433Z" fill="white"/>
<path d="M23.6649 16.7036C23.4604 16.5765 23.2207 16.5098 22.9761 16.5118C22.7315 16.5138 22.493 16.5844 22.2908 16.7147C22.0887 16.8451 21.9318 17.0293 21.8401 17.2441C21.7485 17.4589 21.7261 17.6946 21.7759 17.9214C21.8256 18.1482 21.9453 18.356 22.1197 18.5184C22.2941 18.6808 22.5154 18.7906 22.7557 18.8338C22.996 18.8771 23.2445 18.8519 23.4696 18.7615C23.6948 18.671 23.8866 18.5193 24.0208 18.3256C24.1099 18.197 24.1713 18.053 24.2017 17.9019C24.232 17.7507 24.2306 17.5954 24.1976 17.4448C24.1645 17.2942 24.1005 17.1512 24.0091 17.024C23.9177 16.8968 23.8007 16.7879 23.6649 16.7036Z" fill="white"/>
<path d="M27.6994 13.7092C27.7112 13.5125 27.6612 13.3168 27.5557 13.147C27.4501 12.9772 27.2938 12.8409 27.1064 12.7552C26.9191 12.6696 26.7091 12.6385 26.5031 12.6659C26.2971 12.6933 26.1042 12.778 25.949 12.9092C25.7938 13.0404 25.6832 13.2123 25.6311 13.4031C25.5791 13.5939 25.5879 13.795 25.6565 13.981C25.7252 14.167 25.8505 14.3296 26.0167 14.4481C26.1829 14.5667 26.3824 14.6358 26.5902 14.6469C26.8685 14.6618 27.1417 14.5714 27.3497 14.3955C27.5577 14.2197 27.6835 13.9728 27.6994 13.7092Z" fill="white"/>
<path d="M30.6087 13.001C30.4745 12.9939 30.341 13.0246 30.2252 13.0893C30.1093 13.154 30.0164 13.2498 29.958 13.3646C29.8996 13.4793 29.8785 13.6079 29.8973 13.734C29.9161 13.8601 29.9739 13.9782 30.0635 14.0731C30.153 14.1681 30.2704 14.2359 30.4006 14.2677C30.5308 14.2996 30.668 14.2942 30.795 14.2521C30.9219 14.2101 31.0329 14.1334 31.1138 14.0317C31.1947 13.93 31.242 13.8078 31.2496 13.6806C31.2596 13.51 31.1977 13.3427 31.0776 13.2153C30.9574 13.0878 30.7888 13.0108 30.6087 13.001Z" fill="white"/>
<path d="M27.8713 19.3917C27.728 19.3029 27.5601 19.2563 27.3889 19.2578C27.2177 19.2594 27.0508 19.309 26.9093 19.4003C26.7679 19.4917 26.6582 19.6207 26.5941 19.7711C26.5301 19.9215 26.5145 20.0865 26.5495 20.2453C26.5844 20.4041 26.6683 20.5495 26.7904 20.6631C26.9126 20.7767 27.0676 20.8535 27.2358 20.8837C27.4041 20.9139 27.578 20.8962 27.7356 20.8328C27.8932 20.7694 28.0274 20.6632 28.1213 20.5275C28.1836 20.4374 28.2266 20.3366 28.2478 20.2307C28.269 20.1248 28.268 20.016 28.2448 19.9105C28.2215 19.8051 28.1766 19.7049 28.1125 19.6159C28.0484 19.5269 27.9664 19.4507 27.8713 19.3917Z" fill="white"/>
<path d="M8.5534 25.4105C8.44098 25.3405 8.3092 25.3037 8.17471 25.3047C8.04021 25.3057 7.90905 25.3445 7.79781 25.4161C7.68656 25.4877 7.60024 25.5889 7.54974 25.707C7.49925 25.825 7.48685 25.9546 7.51413 26.0794C7.5414 26.2041 7.60712 26.3184 7.70296 26.4078C7.79881 26.4972 7.92049 26.5576 8.0526 26.5815C8.18472 26.6053 8.32134 26.5916 8.44519 26.5419C8.56905 26.4922 8.67456 26.4089 8.7484 26.3024C8.8472 26.1596 8.88215 25.9854 8.84559 25.8182C8.80903 25.651 8.70395 25.5044 8.5534 25.4105Z" fill="white"/>
<path d="M22.8207 25.3436C22.701 25.4013 22.6021 25.4913 22.5363 25.6022C22.4706 25.7131 22.4409 25.8399 22.4512 25.9668C22.4615 26.0936 22.5112 26.2147 22.594 26.3148C22.6768 26.4149 22.7891 26.4896 22.9167 26.5293C23.0442 26.5691 23.1814 26.5722 23.3108 26.5382C23.4402 26.5043 23.5561 26.4348 23.6439 26.3385C23.7317 26.2423 23.7874 26.1235 23.804 25.9973C23.8207 25.8711 23.7975 25.7431 23.7374 25.6293C23.6972 25.5533 23.6416 25.4856 23.5737 25.4301C23.5058 25.3745 23.427 25.3323 23.3418 25.3057C23.2566 25.2792 23.1667 25.2688 23.0773 25.2753C22.9878 25.2818 22.9006 25.305 22.8207 25.3436Z" fill="white"/>
<path d="M14.9189 18.8433C15.1756 18.4724 15.2943 18.0309 15.2562 17.5889C15.2182 17.1469 15.0256 16.7295 14.7089 16.4029C14.3922 16.0762 13.9695 15.8589 13.5077 15.7854C13.046 15.7119 12.5715 15.7863 12.1595 15.997C11.7474 16.2076 11.4213 16.5424 11.2328 16.9484C11.0443 17.3543 11.0041 17.8082 11.1186 18.2383C11.2331 18.6683 11.4957 19.0499 11.865 19.3226C12.2342 19.5953 12.689 19.7436 13.1572 19.7439C13.5069 19.7453 13.8514 19.6635 14.1592 19.5062C14.467 19.3489 14.7282 19.121 14.9189 18.8433Z" fill="white"/>
<path d="M10.7108 21.8977C10.5369 21.7896 10.333 21.7328 10.125 21.7344C9.91695 21.7361 9.71411 21.7961 9.54212 21.9069C9.37012 22.0178 9.2367 22.1744 9.15872 22.3571C9.08074 22.5398 9.0617 22.7402 9.10403 22.9332C9.14635 23.1261 9.24812 23.3028 9.39648 23.4409C9.54483 23.579 9.73311 23.6724 9.93748 23.7091C10.1419 23.7459 10.3532 23.7244 10.5446 23.6475C10.7361 23.5705 10.8992 23.4414 11.0133 23.2767C11.1662 23.0558 11.2202 22.7864 11.1635 22.5279C11.1067 22.2693 10.9439 22.0426 10.7108 21.8977Z" fill="white"/>
<path d="M15.6143 25.7123C15.4435 25.703 15.2736 25.742 15.1261 25.8242C14.9786 25.9063 14.8601 26.0281 14.7856 26.174C14.7111 26.3199 14.6839 26.4834 14.7075 26.644C14.731 26.8045 14.8043 26.9548 14.918 27.076C15.0317 27.1971 15.1807 27.2836 15.3463 27.3246C15.5119 27.3655 15.6866 27.3591 15.8483 27.3061C16.01 27.2531 16.1515 27.1558 16.2549 27.0267C16.3583 26.8976 16.4191 26.7423 16.4294 26.5805C16.4363 26.4728 16.4206 26.3648 16.3833 26.2628C16.3461 26.1608 16.2879 26.0668 16.2122 25.9861C16.1365 25.9055 16.0447 25.8398 15.9421 25.7928C15.8395 25.7458 15.7281 25.7184 15.6143 25.7123Z" fill="white"/>
<path d="M15.625 20.5526C15.3809 20.5398 15.1383 20.5959 14.9278 20.7137C14.7174 20.8315 14.5485 21.0058 14.4425 21.2144C14.3366 21.4231 14.2983 21.6568 14.3325 21.8861C14.3667 22.1154 14.4719 22.3299 14.6348 22.5026C14.7977 22.6752 15.0109 22.7983 15.2476 22.8563C15.4843 22.9142 15.7338 22.9044 15.9646 22.8281C16.1954 22.7518 16.3972 22.6124 16.5444 22.4275C16.6916 22.2426 16.7777 22.0206 16.7917 21.7894C16.8009 21.6356 16.7781 21.4816 16.7244 21.3362C16.6708 21.1908 16.5874 21.0568 16.479 20.9419C16.3707 20.8271 16.2395 20.7335 16.0929 20.6667C15.9464 20.5999 15.7874 20.5611 15.625 20.5526Z" fill="white"/>
<path d="M20.6844 21.8172C20.4992 21.9064 20.346 22.0455 20.2442 22.2171C20.1425 22.3886 20.0966 22.5849 20.1124 22.7811C20.1283 22.9773 20.2051 23.1647 20.3333 23.3196C20.4615 23.4745 20.6352 23.5899 20.8326 23.6514C21.0299 23.7129 21.2421 23.7176 21.4423 23.665C21.6425 23.6124 21.8218 23.5048 21.9575 23.3557C22.0932 23.2067 22.1792 23.023 22.2048 22.8277C22.2304 22.6324 22.1943 22.4343 22.1011 22.2584C22.039 22.1411 21.953 22.0366 21.848 21.9508C21.7431 21.8651 21.6213 21.7998 21.4896 21.7588C21.358 21.7178 21.219 21.7019 21.0809 21.7119C20.9427 21.7219 20.8079 21.7577 20.6844 21.8172Z" fill="white"/>
</svg>
