<svg width="30" height="28" viewBox="0 0 30 28" fill="none" xmlns="http://www.w3.org/2000/svg">
<path d="M8.11237 13.5775C8.08347 14.1051 8.26476 14.6226 8.61654 15.0168C8.96832 15.4111 9.46195 15.6499 9.9894 15.6811C10.0281 15.6811 10.0683 15.6811 10.1046 15.6811C10.4943 15.6808 10.8753 15.5663 11.2006 15.3519C11.5259 15.1375 11.7812 14.8325 11.935 14.4745C12.0889 14.1166 12.1345 13.7214 12.0662 13.3378C11.9979 12.9542 11.8188 12.599 11.5509 12.3162C11.2829 12.0333 10.938 11.8351 10.5587 11.7461C10.1794 11.6571 9.78232 11.6812 9.41654 11.8153C9.05076 11.9495 8.73231 12.1879 8.50053 12.5011C8.26875 12.8143 8.13381 13.1885 8.11237 13.5775Z" fill="#268AFF"/>
<path d="M0.680159 13.0635C0.552989 13.0564 0.426559 13.0871 0.316853 13.1518C0.207146 13.2165 0.119089 13.3123 0.0638141 13.4271C0.00853866 13.5418 -0.0114735 13.6704 0.0063076 13.7965C0.0240887 13.9226 0.0788646 14.0407 0.163711 14.1356C0.248557 14.2306 0.359663 14.2984 0.482985 14.3302C0.606306 14.3621 0.736305 14.3567 0.856547 14.3146C0.976789 14.2726 1.08188 14.1959 1.15852 14.0942C1.23517 13.9925 1.27993 13.8703 1.28716 13.7431C1.29206 13.6586 1.28024 13.574 1.25237 13.494C1.22449 13.4141 1.18112 13.3405 1.12473 13.2773C1.06834 13.2142 1.00004 13.1628 0.923753 13.1261C0.847465 13.0894 0.764685 13.0681 0.680159 13.0635Z" fill="#268AFF"/>
<path d="M7.98323 2.00712C8.09658 1.94941 8.19031 1.85942 8.25259 1.74851C8.31486 1.63761 8.34291 1.51074 8.33318 1.38392C8.32346 1.25709 8.2764 1.13598 8.19794 1.03587C8.11949 0.935748 8.01314 0.861103 7.89232 0.821341C7.77149 0.781579 7.6416 0.778482 7.51902 0.81244C7.39644 0.846397 7.28666 0.915889 7.20351 1.01215C7.12037 1.10842 7.0676 1.22714 7.05184 1.35336C7.03608 1.47958 7.05805 1.60764 7.11497 1.72139C7.15315 1.79722 7.20591 1.86478 7.27024 1.9202C7.33456 1.97562 7.40918 2.0178 7.48983 2.04434C7.57048 2.07088 7.65558 2.08126 7.74024 2.07487C7.82491 2.06849 7.90748 2.04546 7.98323 2.00712Z" fill="#268AFF"/>
<path d="M10.0059 5.53257C10.1817 5.44396 10.3272 5.30522 10.4242 5.13391C10.5211 4.96259 10.565 4.76638 10.5505 4.57009C10.5359 4.37379 10.4634 4.18622 10.3423 4.0311C10.2211 3.87597 10.0567 3.76025 9.86976 3.69857C9.68284 3.63689 9.48183 3.63201 9.29213 3.68456C9.10244 3.73711 8.93259 3.84472 8.80404 3.99379C8.6755 4.14286 8.59405 4.32669 8.56997 4.52205C8.5459 4.71741 8.58029 4.91552 8.6688 5.09133C8.7877 5.32706 8.99532 5.50595 9.24604 5.58868C9.49677 5.67142 9.77008 5.65123 10.0059 5.53257Z" fill="#268AFF"/>
<path d="M3.20271 7.95923C3.3384 8.04813 3.49741 8.0948 3.65963 8.09332C3.82185 8.09184 3.97998 8.04229 4.11403 7.95092C4.24808 7.85956 4.35203 7.7305 4.41272 7.58006C4.47341 7.42962 4.48812 7.26455 4.45499 7.10575C4.42186 6.94695 4.34237 6.80154 4.22659 6.68791C4.11081 6.57428 3.96393 6.49755 3.80453 6.46741C3.64513 6.43726 3.48038 6.45507 3.3311 6.51858C3.18182 6.58208 3.05473 6.68843 2.96591 6.82418C2.84685 7.00611 2.80491 7.22788 2.84932 7.44073C2.89372 7.65357 3.02083 7.84008 3.20271 7.95923Z" fill="#268AFF"/>
<path d="M4.41625 12.7087C4.21952 12.6974 4.02388 12.7448 3.85407 12.8447C3.68426 12.9447 3.54791 13.0928 3.46227 13.2702C3.37664 13.4477 3.34556 13.6466 3.37297 13.8417C3.40037 14.0369 3.48504 14.2195 3.61625 14.3665C3.74747 14.5135 3.91934 14.6183 4.11011 14.6676C4.30089 14.7169 4.50201 14.7085 4.68803 14.6435C4.87405 14.5785 5.03661 14.4598 5.15515 14.3024C5.27369 14.145 5.34289 13.956 5.35398 13.7593C5.36885 13.4956 5.27843 13.2368 5.10259 13.0398C4.92675 12.8428 4.67989 12.7237 4.41625 12.7087Z" fill="#268AFF"/>
<path d="M3.31451 19.3948C3.16962 19.4678 3.04962 19.5821 2.9697 19.7233C2.88979 19.8645 2.85353 20.0262 2.86553 20.1879C2.87752 20.3497 2.93723 20.5043 3.0371 20.6322C3.13696 20.76 3.2725 20.8554 3.42657 20.9062C3.58064 20.957 3.74631 20.9609 3.90263 20.9176C4.05896 20.8742 4.19891 20.7854 4.30478 20.6625C4.41066 20.5396 4.4777 20.3881 4.49743 20.227C4.51716 20.066 4.48869 19.9028 4.41563 19.7579C4.3673 19.6617 4.30045 19.5759 4.21891 19.5055C4.13736 19.4351 4.04273 19.3815 3.94044 19.3478C3.83814 19.3141 3.73019 19.3009 3.62278 19.3089C3.51537 19.317 3.41061 19.3462 3.31451 19.3948Z" fill="#268AFF"/>
<path d="M7.18166 10.647C7.37538 10.774 7.60243 10.8408 7.83409 10.8388C8.06574 10.8368 8.29161 10.7662 8.48312 10.6358C8.67464 10.5055 8.8232 10.3212 8.91002 10.1065C8.99684 9.89168 9.01803 9.65598 8.9709 9.42916C8.92377 9.20234 8.81044 8.99458 8.64524 8.83217C8.48004 8.66976 8.27039 8.55998 8.0428 8.51671C7.81521 8.47344 7.5799 8.49863 7.36663 8.58909C7.15335 8.67955 6.97169 8.83121 6.84461 9.02491C6.76012 9.15351 6.70181 9.29751 6.67302 9.44867C6.64423 9.59982 6.64552 9.75517 6.67682 9.90583C6.70813 10.0565 6.76883 10.1995 6.85545 10.3267C6.94208 10.4538 7.05293 10.5627 7.18166 10.647Z" fill="#268AFF"/>
<path d="M19.4538 5.45394C19.6185 5.56205 19.8116 5.61888 20.0087 5.61723C20.2057 5.61559 20.3978 5.55555 20.5607 5.44471C20.7236 5.33387 20.85 5.17721 20.9239 4.99454C20.9977 4.81187 21.0157 4.6114 20.9757 4.41848C20.9356 4.22557 20.8392 4.04887 20.6987 3.91074C20.5581 3.77262 20.3798 3.67927 20.1862 3.6425C19.9927 3.60573 19.7925 3.62719 19.6112 3.70418C19.4298 3.78116 19.2753 3.9102 19.1673 4.07499C19.0955 4.18432 19.0459 4.30674 19.0215 4.43523C18.997 4.56373 18.9981 4.69579 19.0247 4.82385C19.0513 4.95192 19.1029 5.07349 19.1766 5.18161C19.2502 5.28972 19.3444 5.38226 19.4538 5.45394Z" fill="#268AFF"/>
<path d="M21.4984 1.93888C21.6049 2.00861 21.7298 2.0452 21.8571 2.04402C21.9844 2.04284 22.1086 2.00394 22.2138 1.93225C22.319 1.86055 22.4006 1.75927 22.4483 1.64121C22.496 1.52315 22.5077 1.39359 22.4818 1.26892C22.4559 1.14425 22.3936 1.03005 22.3028 0.940761C22.212 0.85147 22.0968 0.791089 21.9717 0.767249C21.8466 0.743409 21.7173 0.757179 21.6 0.80682C21.4828 0.85646 21.3829 0.939744 21.3129 1.04615C21.2664 1.11692 21.2343 1.19617 21.2184 1.27936C21.2026 1.36256 21.2033 1.44806 21.2205 1.53098C21.2377 1.61391 21.2711 1.69261 21.3188 1.76261C21.3665 1.8326 21.4275 1.8925 21.4984 1.93888Z" fill="#268AFF"/>
<path d="M19.6103 11.6751C19.349 11.6602 19.0873 11.697 18.8402 11.7832C18.5931 11.8695 18.3654 12.0036 18.1701 12.1778C17.9748 12.3521 17.8157 12.5631 17.7019 12.7988C17.5882 13.0346 17.522 13.2904 17.5071 13.5517C17.4923 13.813 17.529 14.0747 17.6153 14.3219C17.7015 14.569 17.8356 14.7967 18.0099 14.992C18.1841 15.1873 18.3952 15.3463 18.6309 15.4601C18.8666 15.5738 19.1225 15.64 19.3838 15.6549C19.4224 15.6549 19.4627 15.6549 19.4982 15.6549C20.0171 15.6549 20.5155 15.4525 20.8875 15.0908C21.2596 14.7291 21.4759 14.2366 21.4905 13.7179C21.505 13.1992 21.3168 12.6953 20.9657 12.3133C20.6146 11.9312 20.1284 11.7011 19.6103 11.6719V11.6751Z" fill="#268AFF"/>
<path d="M10.6625 10.5098C10.828 10.8399 11.0824 11.1172 11.397 11.3105C11.7117 11.5038 12.074 11.6054 12.4432 11.6039C12.7835 11.6038 13.1181 11.5166 13.4152 11.3506C13.7122 11.1846 13.9618 10.9453 14.1402 10.6555C14.3185 10.3657 14.4197 10.0351 14.4341 9.69513C14.4485 9.35516 14.3756 9.01716 14.2224 8.71333C13.9845 8.24127 13.5688 7.88304 13.0667 7.71748C12.5647 7.55191 12.0174 7.59255 11.5454 7.83047C11.0733 8.06839 10.7151 8.48409 10.5495 8.98613C10.3839 9.48817 10.4246 10.0354 10.6625 10.5075V10.5098Z" fill="#268AFF"/>
<path d="M26.2859 7.95528C26.4303 7.88179 26.5497 7.76719 26.629 7.62594C26.7083 7.48468 26.744 7.3231 26.7316 7.16157C26.7192 7.00005 26.6592 6.84582 26.5592 6.71834C26.4593 6.59086 26.3238 6.49585 26.1699 6.44528C26.016 6.39471 25.8505 6.39085 25.6944 6.4342C25.5383 6.47754 25.3986 6.56615 25.2928 6.68883C25.187 6.81152 25.1199 6.96278 25.1 7.12355C25.0801 7.28432 25.1082 7.44739 25.1808 7.59219C25.2294 7.68874 25.2965 7.77475 25.3784 7.84528C25.4603 7.91582 25.5553 7.9695 25.658 8.00323C25.7606 8.03697 25.869 8.0501 25.9767 8.04187C26.0845 8.03364 26.1896 8.00421 26.2859 7.95528Z" fill="#268AFF"/>
<path d="M21.2337 8.58982C21.0269 8.69413 20.8556 8.85742 20.7416 9.05903C20.6276 9.26064 20.5759 9.49154 20.5931 9.72252C20.6102 9.95351 20.6955 10.1742 20.8381 10.3568C20.9807 10.5393 21.1742 10.6755 21.3941 10.748C21.6141 10.8206 21.8506 10.8264 22.0739 10.7645C22.2971 10.7027 22.497 10.5761 22.6482 10.4007C22.7995 10.2253 22.8954 10.009 22.9238 9.77912C22.9521 9.54924 22.9117 9.31611 22.8076 9.1092C22.6676 8.8318 22.4232 8.6213 22.1281 8.52392C21.833 8.42655 21.5113 8.45025 21.2337 8.58982Z" fill="#268AFF"/>
<path d="M14.7235 1.63894C14.8853 1.64801 15.0462 1.60893 15.1858 1.52666C15.3254 1.44438 15.4375 1.32258 15.5079 1.17665C15.5784 1.03071 15.604 0.867174 15.5816 0.706681C15.5592 0.546187 15.4897 0.395931 15.382 0.27488C15.2743 0.153828 15.1331 0.0674071 14.9763 0.0265259C14.8195 -0.0143553 14.6541 -0.00786428 14.5009 0.0451797C14.3478 0.0982237 14.2138 0.195443 14.1159 0.324565C14.018 0.453687 13.9605 0.608924 13.9508 0.770681C13.9441 0.878507 13.9589 0.986576 13.9942 1.08867C14.0295 1.19077 14.0847 1.28487 14.1565 1.36557C14.2283 1.44626 14.3154 1.51196 14.4127 1.55888C14.51 1.6058 14.6156 1.63301 14.7235 1.63894Z" fill="#268AFF"/>
<path d="M14.7163 6.79799C14.9476 6.81072 15.1774 6.75463 15.3768 6.6368C15.5761 6.51896 15.7361 6.34468 15.8364 6.13596C15.9368 5.92725 15.973 5.69347 15.9406 5.46417C15.9081 5.23487 15.8084 5.02035 15.654 4.84769C15.4997 4.67504 15.2976 4.55202 15.0734 4.49417C14.8491 4.43632 14.6128 4.44623 14.3942 4.52267C14.1755 4.5991 13.9845 4.73862 13.8451 4.92359C13.7058 5.10856 13.6244 5.33069 13.6113 5.5619C13.6025 5.71565 13.6242 5.86962 13.675 6.01499C13.7258 6.16036 13.8048 6.29429 13.9075 6.4091C14.0101 6.52391 14.1344 6.61735 14.2732 6.68408C14.412 6.75081 14.5626 6.78952 14.7163 6.79799Z" fill="#268AFF"/>
<path d="M8.36625 18.7605C8.57316 18.6563 8.74452 18.4931 8.85867 18.2915C8.97281 18.0899 9.02461 17.859 9.00752 17.6279C8.99043 17.3969 8.90522 17.1761 8.76265 16.9935C8.62008 16.8109 8.42657 16.6747 8.20658 16.602C7.98659 16.5294 7.75 16.5236 7.52673 16.5855C7.30347 16.6473 7.10355 16.7739 6.95225 16.9494C6.80096 17.1248 6.70509 17.3412 6.67676 17.5711C6.64843 17.801 6.68892 18.0342 6.79311 18.2411C6.93299 18.5185 7.17724 18.7289 7.47221 18.8263C7.76717 18.9237 8.08873 18.9 8.36625 18.7605Z" fill="#268AFF"/>
<path d="M15.4695 8.50805C15.227 8.87861 15.115 9.31945 15.1512 9.76082C15.1874 10.2022 15.3697 10.6189 15.6694 10.945C15.969 11.2711 16.3688 11.488 16.8056 11.5613C17.2423 11.6346 17.691 11.5603 18.0808 11.3499C18.4705 11.1396 18.7789 10.8053 18.9573 10.4C19.1357 9.99461 19.1738 9.54136 19.0657 9.11192C18.9575 8.68247 18.7092 8.30136 18.3601 8.02887C18.011 7.75638 17.581 7.60807 17.1382 7.60742C16.8071 7.60736 16.4813 7.68965 16.19 7.84687C15.8987 8.00409 15.6511 8.2313 15.4695 8.50805Z" fill="#268AFF"/>
<path d="M18.9388 16.8413C18.7614 16.4891 18.4835 16.1973 18.1403 16.0029C17.7971 15.8086 17.4039 15.7204 17.0106 15.7496C16.6172 15.7787 16.2413 15.9239 15.9305 16.1667C15.6197 16.4095 15.3878 16.7391 15.2643 17.1137C15.1408 17.4883 15.1312 17.8911 15.2367 18.2712C15.3421 18.6512 15.558 18.9915 15.8569 19.2488C16.1557 19.5062 16.5242 19.6692 16.9158 19.7171C17.3073 19.765 17.7042 19.6957 18.0563 19.518C18.291 19.4013 18.5002 19.2392 18.6719 19.0411C18.8435 18.843 18.9741 18.6128 19.0562 18.3638C19.1383 18.1149 19.1702 17.8522 19.15 17.5908C19.1299 17.3295 19.0581 17.0748 18.9388 16.8413Z" fill="#268AFF"/>
<path d="M22.4153 16.7036C22.2216 16.5765 21.9945 16.5098 21.7629 16.5118C21.5312 16.5138 21.3053 16.5844 21.1138 16.7147C20.9223 16.8451 20.7738 17.0293 20.6869 17.2441C20.6001 17.4589 20.5789 17.6946 20.6261 17.9214C20.6732 18.1482 20.7865 18.356 20.9517 18.5184C21.1169 18.6808 21.3266 18.7906 21.5542 18.8338C21.7817 18.8771 22.0171 18.8519 22.2303 18.7615C22.4436 18.671 22.6253 18.5193 22.7523 18.3256C22.8367 18.197 22.895 18.053 22.9237 17.9019C22.9524 17.7507 22.9511 17.5954 22.9198 17.4448C22.8885 17.2942 22.8278 17.1512 22.7413 17.024C22.6547 16.8968 22.5439 16.7879 22.4153 16.7036Z" fill="#268AFF"/>
<path d="M26.2368 13.7092C26.248 13.5125 26.2006 13.3168 26.1007 13.147C26.0007 12.9772 25.8526 12.8409 25.6752 12.7552C25.4977 12.6696 25.2988 12.6385 25.1037 12.6659C24.9085 12.6933 24.7259 12.778 24.5789 12.9092C24.4319 13.0404 24.3271 13.2123 24.2778 13.4031C24.2285 13.5939 24.2369 13.795 24.3019 13.981C24.3669 14.167 24.4856 14.3296 24.643 14.4481C24.8004 14.5667 24.9894 14.6358 25.1861 14.6469C25.4498 14.6618 25.7086 14.5714 25.9056 14.3955C26.1026 14.2197 26.2217 13.9728 26.2368 13.7092Z" fill="#268AFF"/>
<path d="M28.9927 13.001C28.8655 12.9939 28.7391 13.0246 28.6294 13.0893C28.5196 13.154 28.4316 13.2498 28.3763 13.3646C28.321 13.4793 28.301 13.6079 28.3188 13.734C28.3366 13.8601 28.3914 13.9782 28.4762 14.0731C28.5611 14.1681 28.6722 14.2359 28.7955 14.2677C28.9188 14.2996 29.0488 14.2942 29.169 14.2521C29.2893 14.2101 29.3944 14.1334 29.471 14.0317C29.5477 13.93 29.5924 13.8078 29.5997 13.6806C29.6091 13.51 29.5505 13.3427 29.4367 13.2153C29.3229 13.0878 29.1632 13.0108 28.9927 13.001Z" fill="#268AFF"/>
<path d="M26.3981 19.3917C26.2624 19.3029 26.1034 19.2563 25.9413 19.2578C25.7791 19.2594 25.621 19.309 25.487 19.4003C25.353 19.4917 25.2491 19.6207 25.1885 19.7711C25.1278 19.9215 25.1131 20.0865 25.1462 20.2453C25.1793 20.4041 25.2587 20.5495 25.3744 20.6631C25.4901 20.7767 25.6369 20.8535 25.7963 20.8837C25.9556 20.9139 26.1203 20.8962 26.2696 20.8328C26.4189 20.7694 26.546 20.6632 26.6349 20.5275C26.694 20.4374 26.7347 20.3366 26.7548 20.2307C26.7749 20.1248 26.7739 20.016 26.7519 19.9105C26.7299 19.8051 26.6873 19.7049 26.6266 19.6159C26.5659 19.5269 26.4883 19.4507 26.3981 19.3917Z" fill="#268AFF"/>
<path d="M8.10321 25.4124C7.99673 25.3425 7.87191 25.3057 7.74452 25.3067C7.61714 25.3077 7.4929 25.3464 7.38754 25.418C7.28218 25.4896 7.20041 25.5908 7.15258 25.7089C7.10476 25.827 7.09302 25.9566 7.11885 26.0813C7.14468 26.2061 7.20693 26.3204 7.29771 26.4097C7.38849 26.4991 7.50374 26.5595 7.62887 26.5834C7.75401 26.6073 7.88341 26.5935 8.00072 26.5438C8.11803 26.4942 8.21797 26.4108 8.28791 26.3043C8.38148 26.1615 8.41459 25.9874 8.37996 25.8202C8.34534 25.653 8.24581 25.5063 8.10321 25.4124Z" fill="#268AFF"/>
<path d="M21.6136 25.3436C21.5002 25.4013 21.4065 25.4913 21.3442 25.6022C21.2819 25.7131 21.2539 25.8399 21.2636 25.9668C21.2733 26.0936 21.3204 26.2147 21.3988 26.3148C21.4773 26.4149 21.5836 26.4896 21.7045 26.5293C21.8253 26.5691 21.9552 26.5722 22.0778 26.5382C22.2004 26.5043 22.3101 26.4348 22.3933 26.3385C22.4764 26.2423 22.5292 26.1235 22.545 25.9973C22.5607 25.8711 22.5387 25.7431 22.4818 25.6293C22.4438 25.5533 22.3911 25.4856 22.3268 25.4301C22.2625 25.3745 22.1879 25.3323 22.1072 25.3057C22.0265 25.2792 21.9413 25.2688 21.8566 25.2753C21.7719 25.2818 21.6893 25.305 21.6136 25.3436Z" fill="#268AFF"/>
<path d="M14.1288 18.8433C14.3719 18.4724 14.4843 18.0309 14.4483 17.5889C14.4123 17.1469 14.2298 16.7295 13.9299 16.4029C13.6299 16.0762 13.2296 15.8589 12.7922 15.7854C12.3548 15.7119 11.9055 15.7863 11.5152 15.997C11.1249 16.2076 10.816 16.5424 10.6375 16.9484C10.4589 17.3543 10.4208 17.8082 10.5293 18.2383C10.6377 18.6683 10.8865 19.0499 11.2362 19.3226C11.586 19.5953 12.0167 19.7436 12.4602 19.7439C12.7914 19.7453 13.1177 19.6635 13.4092 19.5062C13.7007 19.3489 13.9482 19.121 14.1288 18.8433Z" fill="#268AFF"/>
<path d="M10.1442 21.8977C9.97952 21.7896 9.78642 21.7328 9.58939 21.7344C9.39236 21.7361 9.20024 21.7961 9.03734 21.9069C8.87443 22.0178 8.74806 22.1744 8.6742 22.3571C8.60034 22.5398 8.58231 22.7402 8.62239 22.9332C8.66248 23.1261 8.75888 23.3028 8.89939 23.4409C9.03991 23.579 9.21824 23.6724 9.41181 23.7091C9.60539 23.7459 9.80552 23.7244 9.9869 23.6475C10.1683 23.5705 10.3227 23.4414 10.4308 23.2767C10.5756 23.0558 10.6267 22.7864 10.573 22.5279C10.5193 22.2693 10.3651 22.0426 10.1442 21.8977Z" fill="#268AFF"/>
<path d="M14.7887 25.7123C14.6268 25.703 14.4659 25.742 14.3262 25.8242C14.1865 25.9063 14.0743 26.0281 14.0037 26.174C13.9331 26.3199 13.9074 26.4834 13.9297 26.644C13.952 26.8045 14.0214 26.9548 14.1291 27.076C14.2368 27.1971 14.378 27.2836 14.5348 27.3246C14.6916 27.3655 14.8571 27.3591 15.0102 27.3061C15.1634 27.2531 15.2974 27.1558 15.3954 27.0267C15.4933 26.8976 15.5508 26.7423 15.5606 26.5805C15.5671 26.4728 15.5523 26.3648 15.517 26.2628C15.4817 26.1608 15.4266 26.0668 15.3549 25.9861C15.2832 25.9055 15.1962 25.8398 15.0991 25.7928C15.0019 25.7458 14.8964 25.7184 14.7887 25.7123Z" fill="#268AFF"/>
<path d="M14.7982 20.5526C14.567 20.5398 14.3373 20.5959 14.1379 20.7137C13.9386 20.8315 13.7786 21.0058 13.6783 21.2144C13.5779 21.4231 13.5416 21.6568 13.574 21.8861C13.6064 22.1154 13.7061 22.3299 13.8604 22.5026C14.0146 22.6752 14.2166 22.7983 14.4408 22.8563C14.665 22.9142 14.9013 22.9044 15.1199 22.8281C15.3385 22.7518 15.5296 22.6124 15.6691 22.4275C15.8085 22.2426 15.89 22.0206 15.9033 21.7894C15.9121 21.6356 15.8904 21.4816 15.8396 21.3362C15.7888 21.1908 15.7098 21.0568 15.6072 20.9419C15.5045 20.8271 15.3803 20.7335 15.2415 20.6667C15.1027 20.5999 14.952 20.5611 14.7982 20.5526Z" fill="#268AFF"/>
<path d="M19.5915 21.8172C19.4161 21.9064 19.271 22.0455 19.1746 22.2171C19.0782 22.3886 19.0348 22.5849 19.0498 22.7811C19.0648 22.9773 19.1376 23.1647 19.259 23.3196C19.3804 23.4745 19.5449 23.5899 19.7319 23.6514C19.9188 23.7129 20.1198 23.7176 20.3094 23.665C20.499 23.6124 20.6688 23.5048 20.7973 23.3557C20.9259 23.2067 21.0074 23.023 21.0316 22.8277C21.0558 22.6324 21.0216 22.4343 20.9334 22.2584C20.8745 22.1411 20.793 22.0366 20.6936 21.9508C20.5942 21.8651 20.4789 21.7998 20.3542 21.7588C20.2295 21.7178 20.0979 21.7019 19.967 21.7119C19.8361 21.7219 19.7085 21.7577 19.5915 21.8172Z" fill="#268AFF"/>
</svg>
