<svg width="16" height="16" viewBox="0 0 16 16" xmlns="http://www.w3.org/2000/svg">
<path d="M13.562 11.4365H12.4636C12.3886 11.4365 12.3182 11.4694 12.2714 11.5272C12.162 11.66 12.0448 11.7881 11.9214 11.91C11.4165 12.4153 10.8185 12.8181 10.1604 13.0959C9.47864 13.3839 8.74585 13.5316 8.00574 13.5303C7.25731 13.5303 6.53231 13.3834 5.85106 13.0959C5.19298 12.8181 4.59497 12.4153 4.09012 11.91C3.58436 11.4063 3.18108 10.8094 2.90262 10.1522C2.61356 9.47092 2.46824 8.74748 2.46824 7.99905C2.46824 7.25061 2.61512 6.52717 2.90262 5.84592C3.18074 5.18811 3.58074 4.59592 4.09012 4.08811C4.59949 3.5803 5.19168 3.1803 5.85106 2.90217C6.53231 2.61467 7.25731 2.4678 8.00574 2.4678C8.75418 2.4678 9.47918 2.61311 10.1604 2.90217C10.8198 3.1803 11.412 3.5803 11.9214 4.08811C12.0448 4.21155 12.1604 4.33967 12.2714 4.47092C12.3182 4.52873 12.3901 4.56155 12.4636 4.56155H13.562C13.6604 4.56155 13.7214 4.45217 13.6667 4.36936C12.4682 2.50686 10.3714 1.27405 7.98856 1.2803C4.24481 1.28967 1.24324 4.32874 1.28074 8.0678C1.31824 11.7475 4.31512 14.7178 8.00574 14.7178C10.3823 14.7178 12.4698 13.4865 13.6667 11.6287C13.7198 11.5459 13.6604 11.4365 13.562 11.4365ZM14.9511 7.90061L12.7339 6.15061C12.6511 6.08498 12.5307 6.14436 12.5307 6.24905V7.43655H7.62449C7.55574 7.43655 7.49949 7.4928 7.49949 7.56155V8.43655C7.49949 8.5053 7.55574 8.56155 7.62449 8.56155H12.5307V9.74905C12.5307 9.85373 12.6526 9.91311 12.7339 9.84748L14.9511 8.09748C14.966 8.08579 14.9781 8.07085 14.9864 8.0538C14.9947 8.03674 14.999 8.01802 14.999 7.99905C14.999 7.98008 14.9947 7.96135 14.9864 7.9443C14.9781 7.92724 14.966 7.9123 14.9511 7.90061Z" />
</svg>
