<svg width="16" height="17" viewBox="0 0 16 17" fill="none" xmlns="http://www.w3.org/2000/svg">
<path d="M10.3991 7.68704H9.88399V5.99007C9.88399 5.45446 9.4499 5.02037 8.91429 5.02037H7.03551C6.4999 5.02037 6.06581 5.45446 6.06581 5.99007V7.68704H5.55066C5.41657 7.68704 5.30823 7.79537 5.30823 7.92946V10.8386C5.30823 10.9726 5.41657 11.081 5.55066 11.081H10.3991C10.5332 11.081 10.6416 10.9726 10.6416 10.8386V7.92946C10.6416 7.79537 10.5332 7.68704 10.3991 7.68704ZM6.61126 5.99007C6.61126 5.75597 6.80142 5.56582 7.03551 5.56582H8.91429C9.14839 5.56582 9.33854 5.75597 9.33854 5.99007V7.68704H6.61126V5.99007ZM10.0961 10.5355H5.85369V8.23249H10.0961V10.5355ZM7.76278 9.48249V9.88401C7.76278 9.91734 7.79005 9.94461 7.82339 9.94461H8.12642C8.15975 9.94461 8.18702 9.91734 8.18702 9.88401V9.48249C8.24956 9.43759 8.29623 9.37401 8.32033 9.3009C8.34443 9.22778 8.34471 9.1489 8.32113 9.07562C8.29754 9.00234 8.25132 8.93843 8.1891 8.89309C8.12688 8.84775 8.05188 8.82333 7.9749 8.82333C7.89792 8.82333 7.82292 8.84775 7.7607 8.89309C7.69848 8.93843 7.65226 9.00234 7.62867 9.07562C7.60509 9.1489 7.60537 9.22778 7.62947 9.3009C7.65357 9.37401 7.70024 9.43759 7.76278 9.48249Z" fill="currentColor"/>
<path d="M2.62455 7.90547C2.64018 7.22266 2.7808 6.56016 3.04486 5.93672C3.31518 5.29609 3.70268 4.72266 4.19643 4.22734C4.69018 3.73203 5.26518 3.34453 5.9058 3.07422C6.5683 2.79453 7.27143 2.65234 7.99799 2.65234C8.72455 2.65234 9.42768 2.79453 10.0886 3.07422C10.7274 3.34398 11.3075 3.73565 11.7964 4.22734C11.9511 4.38203 12.0964 4.54609 12.2308 4.71797L11.2902 5.45234C11.2716 5.46674 11.2574 5.4861 11.2493 5.50819C11.2412 5.53028 11.2395 5.55421 11.2444 5.57723C11.2493 5.60024 11.2606 5.62141 11.277 5.63829C11.2934 5.65517 11.3142 5.66708 11.3371 5.67266L14.0824 6.34453C14.1605 6.36328 14.2371 6.30391 14.2371 6.22422L14.2496 3.39766C14.2496 3.29297 14.1292 3.23359 14.048 3.29922L13.1667 3.98828C11.9652 2.45078 10.0964 1.46484 7.99643 1.46484C4.41674 1.46484 1.50424 4.33359 1.43705 7.89922C1.43663 7.91589 1.43956 7.93249 1.44565 7.94801C1.45175 7.96354 1.46089 7.97769 1.47254 7.98963C1.48419 8.00157 1.49811 8.01106 1.51348 8.01754C1.52886 8.02402 1.54537 8.02735 1.56205 8.02734H2.49955C2.5683 8.02734 2.62299 7.97266 2.62455 7.90547ZM14.4371 8.02734H13.4996C13.4308 8.02734 13.3761 8.08203 13.3746 8.14922C13.3589 8.83203 13.2183 9.49453 12.9542 10.118C12.6839 10.7586 12.2964 11.3336 11.8027 11.8273C11.3043 12.3278 10.7118 12.7246 10.0594 12.9949C9.40689 13.2652 8.70736 13.4037 8.00111 13.4023C7.2951 13.4037 6.59582 13.2652 5.94361 12.9948C5.2914 12.7245 4.69918 12.3277 4.20111 11.8273C4.04643 11.6727 3.90111 11.5086 3.76674 11.3367L4.70736 10.6023C4.72597 10.5879 4.74014 10.5686 4.74824 10.5465C4.75634 10.5244 4.75804 10.5005 4.75314 10.4775C4.74825 10.4544 4.73695 10.4333 4.72056 10.4164C4.70417 10.3995 4.68335 10.3876 4.66049 10.382L1.91518 9.71016C1.83705 9.69141 1.76049 9.75078 1.76049 9.83047L1.74955 12.6586C1.74955 12.7633 1.86986 12.8227 1.95111 12.757L2.83236 12.068C4.03393 13.6039 5.90268 14.5898 8.00268 14.5898C11.5839 14.5898 14.4949 11.7195 14.5621 8.15547C14.5625 8.13879 14.5595 8.1222 14.5534 8.10667C14.5474 8.09114 14.5382 8.07699 14.5266 8.06505C14.5149 8.05311 14.501 8.04363 14.4856 8.03715C14.4702 8.03067 14.4537 8.02734 14.4371 8.02734Z" fill="currentColor"/>
</svg>
