<?xml version="1.0" encoding="UTF-8" standalone="no"?>
<!-- Svg Vector Icons : http://www.onlinewebfonts.com/icon -->

<svg
   version="1.1"
   x="0px"
   y="0px"
   viewBox="0 0 27.999996 27.999996"
   enable-background="new 0 0 1000 1000"
   xml:space="preserve"
   id="svg8"
   sodipodi:docname="safew_icon_pink.svg"
   width="27.999996"
   height="27.999996"
   inkscape:version="1.1.1 (3bf5ae0d25, 2021-09-20)"
   inkscape:export-filename="C:\Users\thier\Ergo\SAFEW\safew_icon_16.png"
   inkscape:export-xdpi="1.7910448"
   inkscape:export-ydpi="1.7910448"
   xmlns:inkscape="http://www.inkscape.org/namespaces/inkscape"
   xmlns:sodipodi="http://sodipodi.sourceforge.net/DTD/sodipodi-0.dtd"
   xmlns="http://www.w3.org/2000/svg"
   xmlns:svg="http://www.w3.org/2000/svg"><defs
   id="defs12" /><sodipodi:namedview
   id="namedview10"
   pagecolor="#ffffff"
   bordercolor="#666666"
   borderopacity="1.0"
   inkscape:pageshadow="2"
   inkscape:pageopacity="0.0"
   inkscape:pagecheckerboard="0"
   showgrid="false"
   fit-margin-top="0"
   fit-margin-left="0"
   fit-margin-right="0"
   fit-margin-bottom="0"
   inkscape:zoom="1.66"
   inkscape:cx="220.78313"
   inkscape:cy="146.08434"
   inkscape:window-width="1920"
   inkscape:window-height="1017"
   inkscape:window-x="1912"
   inkscape:window-y="-8"
   inkscape:window-maximized="1"
   inkscape:current-layer="svg8" />
<metadata
   id="metadata2"> Svg Vector Icons : http://www.onlinewebfonts.com/icon </metadata>
<g
   id="g6"
   transform="matrix(0.02856851,0,0,0.03264925,-0.2856851,-2.3246266)"
   style="fill:#333333"
   inkscape:export-filename="C:\Users\thier\Ergo\SAFEW\public\images\safew_icon_128.png"
   inkscape:export-xdpi="12.538775"
   inkscape:export-ydpi="12.538775"><path
     d="M 928.3,500 V 380.4 c 0,-68.2 -55.1,-124.1 -123,-125.3 V 194.5 C 805.3,126.7 748.9,71.2 679.9,71.2 H 135.4 C 66.4,71.2 10,126.6 10,194.4 c 0,0.6 0,1.2 0,1.8 v 0 607.2 c 0,68.9 56.4,125.4 125.4,125.4 H 803 c 68.9,0 125.4,-56.4 125.4,-125.4 V 683.5 c 34,-0.5 61.7,-28.5 61.7,-62.7 v -58.3 c -0.1,-34 -27.8,-62 -61.8,-62.5 z m -1,120.8 c 0,0 -0.1,0.1 -0.1,0.1 H 746.1 c 0,0 -0.1,-0.1 -0.1,-0.1 v -58 c 0,0 0.1,-0.1 0.1,-0.1 h 181.1 c 0,0 0.1,0.1 0.1,0.1 z M 90.8,152.1 c 12,-11.8 27.8,-18.2 44.6,-18.2 h 544.4 c 16.8,0 32.7,6.5 44.6,18.2 11.7,11.5 18.1,26.5 18.1,42.4 V 255 H 135.4 c -16.8,0 -32.7,-6.5 -44.6,-18.2 -11.7,-11.5 -18.1,-26.5 -18.1,-42.4 0,-15.8 6.4,-30.9 18.1,-42.3 z m 756.4,695.6 c -11.9,11.9 -27.6,18.5 -44.2,18.5 H 135.4 c -16.6,0 -32.3,-6.6 -44.2,-18.5 C 79.3,835.8 72.7,820.1 72.7,803.5 V 301.1 c 18.5,10.6 39.9,16.6 62.7,16.6 v 0 h 0.1 c 0,0 0,0 0,0 H 679.9 803 c 16.6,0 32.3,6.6 44.2,18.5 11.9,11.9 18.5,27.6 18.5,44.2 V 500 H 746 c -34.5,0 -62.7,28.2 -62.7,62.7 V 621 c 0,34.5 28.2,62.7 62.7,62.7 h 119.7 v 119.9 c -0.1,16.5 -6.6,32.2 -18.5,44.1 z"
     id="path4"
     style="fill:#333333" /></g>
<style
   type="text/css"
   id="style829">
	.st0{fill-rule:evenodd;clip-rule:evenodd;}
</style><g
   id="main"
   transform="matrix(0.27835987,0,0,0.27862642,2.3263196,8.9145056)"
   style="fill:#333333"
   inkscape:export-filename="C:\Users\thier\Ergo\SAFEW\public\images\safew_icon_128.png"
   inkscape:export-xdpi="12.538775"
   inkscape:export-ydpi="12.538775">
	<g
   id="Group-16"
   transform="translate(-70,-35)"
   style="fill:#333333">
		<g
   transform="translate(70,34)"
   id="g838"
   style="fill:#333333">
			<g
   id="Group-15"
   transform="translate(0,0.83028)"
   style="fill:#333333">
				<path
   id="Fill-9"
   class="st0"
   d="M 11.2,47.8 29.5,55.2 47.7,47.4 55,29.1 47.2,10.9 28.9,3.6 10.7,11.4 3.4,29.7 Z m 18.3,10.8 c -0.2,0 -0.4,0 -0.6,-0.1 L 9.3,50.6 C 8.9,50.4 8.6,50.1 8.4,49.7 L 0.1,30.3 C -0.1,29.9 -0.1,29.5 0.1,29 L 8,9.5 C 8.2,9.1 8.5,8.8 8.9,8.6 L 28.3,0.3 c 0.4,-0.2 0.8,-0.2 1.3,0 L 49.2,8.2 C 49.5,8.3 49.8,8.6 50,9 l 8.3,19.4 c 0.2,0.4 0.2,0.8 0,1.3 l -7.9,19.6 c -0.2,0.4 -0.5,0.7 -0.9,0.9 l -19.4,8.3 c -0.1,0.1 -0.4,0.1 -0.6,0.1 z"
   style="fill:#333333" />
				<polygon
   id="Fill-10"
   class="st0"
   points="28.3,29.1 20.5,21 20.5,17.3 38,17.3 38,21 25.8,21 33.4,29.1 25.6,37.7 38,37.7 38,41.5 20.5,41.5 20.5,37.7 "
   style="fill:#333333" />
			</g>
		</g>
	</g>
</g><path
   style="fill:#ffaaaa;stroke-width:0.0343388"
   d="M 3.1724946,25.877572 C 2.7195523,25.752222 2.2735176,25.361405 2.0483435,24.89259 1.7837783,24.341762 1.8027007,25.041224 1.8027007,15.81246 c 0,-4.544781 0.011589,-8.2579761 0.025753,-8.2515447 0.014164,0.00643 0.1222836,0.062007 0.2402655,0.1235006 0.252642,0.1316805 0.4908826,0.22307 0.7984336,0.3062803 0.2098194,0.056768 0.8197863,0.061469 10.1809662,0.078458 l 9.957775,0.018071 0.196572,0.07941 c 0.429223,0.1733937 0.797215,0.5354751 1.012267,0.9960068 0.208593,0.4467038 0.216153,0.5443132 0.216153,2.790929 v 2.023078 h -1.766673 c -1.157116,0 -1.829455,0.01309 -1.948634,0.03795 -0.706472,0.147341 -1.313689,0.813354 -1.452615,1.593269 -0.06901,0.387413 -0.06901,2.394106 0,2.78152 0.138926,0.779915 0.746143,1.445928 1.452615,1.593268 0.119179,0.02486 0.791518,0.03795 1.948634,0.03795 h 1.766673 v 2.023078 c 0,2.297475 -0.0059,2.366991 -0.243317,2.848581 -0.192409,0.390356 -0.497785,0.7002 -0.870856,0.883601 l -0.272913,0.134163 -9.856548,0.0057 c -7.8965268,0.0045 -9.8880085,-0.003 -10.0147574,-0.03812 z M 13.401696,24.034088 c 1.503994,-0.644576 2.762956,-1.189304 2.797692,-1.210508 0.03474,-0.0212 0.09157,-0.08491 0.126298,-0.141574 0.128732,-0.210035 2.276028,-5.598215 2.278624,-5.71772 0.003,-0.140358 -2.341731,-5.655265 -2.443694,-5.747549 -0.08227,-0.07447 -5.58542,-2.2924849 -5.739024,-2.3130894 -0.100981,-0.013546 -0.5712926,0.176624 -2.9017893,1.1733364 -1.9392244,0.829372 -2.8090862,1.217678 -2.8731343,1.282564 -0.1237156,0.125336 -2.3438855,5.600794 -2.3422115,5.776442 7.594e-4,0.07965 0.3925412,1.035373 1.1613763,2.833104 0.6381269,1.492101 1.1885204,2.759272 1.2230966,2.815934 0.034576,0.05666 0.09851,0.124949 0.1420747,0.15175 0.043565,0.0268 1.3153463,0.547891 2.8261813,1.157979 1.9093817,0.771025 2.7870692,1.109562 2.8784732,1.110269 0.09787,7.6e-4 0.830745,-0.298661 2.866037,-1.170938 z"
   id="path1212"
   inkscape:export-filename="C:\Users\thier\Ergo\SAFEW\public\images\safew_icon_128.png"
   inkscape:export-xdpi="12.538775"
   inkscape:export-ydpi="12.538775" /><path
   style="fill:#ffaaaa;stroke-width:0.0343388"
   d="m 21.031508,16.998627 v -0.927198 h 2.575287 2.575286 v 0.927198 0.927198 h -2.575286 -2.575287 z"
   id="path1251"
   inkscape:export-filename="C:\Users\thier\Ergo\SAFEW\public\images\safew_icon_128.png"
   inkscape:export-xdpi="12.538775"
   inkscape:export-ydpi="12.538775" /><path
   style="fill:#ffaaaa;stroke-width:0.0343388"
   d="M 3.1731591,5.9256688 C 2.6148931,5.7716502 2.0900373,5.2416082 1.9060276,4.6460165 1.5641471,3.5394379 2.2191825,2.3180264 3.2723041,2.0983891 c 0.2454901,-0.051199 15.8796499,-0.054004 16.1491069,-0.0029 0.435408,0.082582 0.857331,0.3717624 1.123837,0.7702622 0.321596,0.4808751 0.327052,0.5112722 0.340868,1.8990131 l 0.01205,1.2105082 -8.783732,-0.00307 C 5.1428666,5.9697676 3.2981992,5.9601665 3.1731571,5.9256688 Z"
   id="path1290"
   inkscape:export-filename="C:\Users\thier\Ergo\SAFEW\public\images\safew_icon_128.png"
   inkscape:export-xdpi="12.538775"
   inkscape:export-ydpi="12.538775" /><path
   style="fill:#ffffff;stroke-width:0.0344216"
   d="M 8.0033756,23.200657 C 6.6123641,22.637299 5.4619449,22.155276 5.4468885,22.129493 5.4318323,22.103711 4.9415089,20.971544 4.3572811,19.613566 l -1.0622325,-2.46905 1.0119645,-2.542344 1.0119644,-2.542343 2.5034954,-1.07295 c 1.3769227,-0.590122 2.5344741,-1.0715526 2.5723351,-1.0698449 0.03786,0.00171 1.191489,0.4548089 2.563615,1.0068909 l 2.494774,1.003786 1.081213,2.524121 1.081212,2.524121 -1.011705,2.53908 -1.011704,2.539079 -2.512653,1.078651 c -1.381958,0.593258 -2.520397,1.081695 -2.529862,1.085416 -0.0095,0.0037 -1.1553103,-0.454164 -2.5463224,-1.017522 z m 4.9212954,-3.303605 v -0.550454 l -1.701176,-0.0089 -1.701177,-0.0089 0.654482,-0.722892 c 0.359965,-0.39759 0.839636,-0.927613 1.065934,-1.177829 L 11.654186,16.97314 10.601115,15.853206 9.5480446,14.733273 h 1.6883134 1.688313 V 14.199656 13.666093 H 10.463648 8.0026257 v 0.525898 0.525897 l 1.0864666,1.127987 1.0864667,1.127987 -0.2395209,0.265221 C 9.8043016,17.384954 9.3161505,17.922548 8.851258,18.433735 l -0.8452592,0.929432 -0.00169,0.542169 -0.00169,0.542169 h 2.4610222 2.461023 z"
   id="path1535" /><path
   style="fill:#ffffff;stroke-width:0.0344216"
   d="M 8.0026257,23.201498 C 5.9208475,22.358806 5.4655466,22.162931 5.4320171,22.095597 5.4096069,22.050592 4.919214,20.917915 4.3422552,19.578536 l -1.0490158,-2.435234 1.0127989,-2.54275 1.012799,-2.54275 2.5035656,-1.072213 C 9.1993641,10.395871 10.348015,9.9135027 10.37496,9.9136584 c 0.05588,3.229e-4 4.990139,1.9576416 5.049569,2.0030616 0.02136,0.01632 0.523025,1.161919 1.114811,2.545766 l 1.075974,2.516088 -0.691174,1.731454 c -0.380146,0.952299 -0.834946,2.095601 -1.010668,2.54067 l -0.319493,0.809217 -2.513535,1.075367 c -1.382445,0.591452 -2.521281,1.078725 -2.530746,1.082829 -0.0095,0.0041 -1.155648,-0.453371 -2.5470723,-1.016613 z m 4.9220453,-3.304446 v -0.550454 l -1.702475,-0.0089 -1.7024748,-0.0089 0.4375436,-0.484434 c 0.2406492,-0.266438 0.7204372,-0.796151 1.0661952,-1.17714 l 0.628652,-0.692707 -1.044413,-1.112016 -1.0444126,-1.112016 1.6806926,-0.0089 1.680692,-0.0089 V 14.199332 13.666093 H 10.463648 8.0026257 l 1.143e-4,0.524957 1.142e-4,0.524957 1.0873514,1.128477 1.0873514,1.128478 -0.2231696,0.248459 C 9.8316379,17.358073 9.3431095,17.89587 8.8687627,18.416524 l -0.8624485,0.946643 -0.00183,0.542169 -0.00183,0.542169 h 2.4610218 2.461023 z"
   id="path1574" /></svg>
