<svg width="32" height="32" viewBox="0 0 32 32" fill="none" xmlns="http://www.w3.org/2000/svg">
<g clip-path="url(#clip0_3791_300033)">
<path d="M29.9822 15.998V11.5359C29.9822 8.99144 28.1832 6.90587 25.9663 6.8611V4.60018C25.9663 2.07064 24.1249 0 21.8721 0H4.09428C1.84144 0 0 2.06691 0 4.59645V4.66361V27.3175C0 29.8881 1.84144 31.9961 4.09428 31.9961H25.8912C28.1408 31.9961 29.9855 29.8919 29.9855 27.3175V22.8442C31.0956 22.8256 32 21.7809 32 20.5049V18.3298C31.9967 17.0613 31.0923 16.0167 29.9822 15.998V15.998ZM29.9496 20.5049L29.9463 20.5087H24.0335L24.0302 20.5049V18.341L24.0335 18.3373H29.9463L29.9496 18.341V20.5049ZM2.6381 3.01829C3.02989 2.57804 3.54576 2.33927 4.09428 2.33927H21.8688C22.4173 2.33927 22.9364 2.58177 23.325 3.01829C23.707 3.44734 23.9159 4.00697 23.9159 4.60018V6.85737H4.09428C3.54576 6.85737 3.02663 6.61486 2.6381 6.17835C2.2561 5.7493 2.04714 5.18966 2.04714 4.59645C2.04714 4.00697 2.2561 3.44361 2.6381 3.01829V3.01829ZM27.3344 28.9703C26.9458 29.4143 26.4332 29.6605 25.8912 29.6605H4.09428C3.55229 29.6605 3.03969 29.4143 2.65116 28.9703C2.26263 28.5264 2.04714 27.9406 2.04714 27.3213V8.57731C2.65116 8.97278 3.34986 9.19663 4.09428 9.19663H25.8912C26.4332 9.19663 26.9458 9.44287 27.3344 9.88685C27.7229 10.3308 27.9384 10.9166 27.9384 11.5359V15.998H24.0302C22.9038 15.998 21.9831 17.0501 21.9831 18.3373V20.5124C21.9831 21.7996 22.9038 22.8517 24.0302 22.8517H27.9384V27.325C27.9351 27.9406 27.7229 28.5264 27.3344 28.9703Z" fill="#333333"/>
<path fill-rule="evenodd" clip-rule="evenodd" d="M6.22149 25.3523L12.0432 27.7084L17.8331 25.2249L20.1554 19.3983L17.674 13.6034L11.8523 11.2791L6.06243 13.7626L3.74011 19.5893L6.22149 25.3523ZM12.0432 28.791C11.9796 28.791 11.9159 28.791 11.8523 28.7591L5.61705 26.2438C5.4898 26.1801 5.39437 26.0846 5.33074 25.9572L2.6903 19.7803C2.62667 19.653 2.62667 19.5256 2.6903 19.3664L5.20349 13.1577C5.26711 13.0303 5.36255 12.9348 5.4898 12.8711L11.6614 10.2284C11.7887 10.1647 11.9159 10.1647 12.075 10.2284L18.3103 12.7438C18.4057 12.7756 18.5011 12.8711 18.5648 12.9985L21.2052 19.1754C21.2688 19.3027 21.2688 19.4301 21.2052 19.5893L18.692 25.8299C18.6284 25.9572 18.533 26.0527 18.4057 26.1164L12.2341 28.7591C12.2023 28.791 12.1068 28.791 12.0432 28.791V28.791Z" fill="#333333"/>
<path fill-rule="evenodd" clip-rule="evenodd" d="M14.7469 22.1364V23.3463H9.17969V22.1364L11.6611 19.3982L9.17969 16.8192V15.6411H14.7469V16.8192H10.8658L13.2835 19.3982L10.8021 22.1364H14.7469Z" fill="#333333"/>
<path d="M3.62636 29.5715C3.10869 29.4283 2.59897 28.9817 2.34162 28.446C2.03926 27.8165 2.06089 28.6158 2.06089 18.0699C2.06089 12.8763 2.07413 8.63313 2.09032 8.64063C2.1065 8.64814 2.23007 8.71149 2.36491 8.78176C2.65364 8.93224 2.92593 9.03667 3.2774 9.13177C3.5172 9.19664 4.21429 9.20201 14.9128 9.22143L26.2932 9.24208L26.5178 9.33282C27.0084 9.53096 27.4289 9.94474 27.6747 10.471C27.9131 10.9815 27.9217 11.093 27.9217 13.6603V15.9721H25.9027C24.5803 15.9721 23.8119 15.9871 23.6757 16.0155C22.8683 16.1839 22.1743 16.9449 22.0155 17.8362C21.9367 18.2789 21.9367 20.572 22.0155 21.0147C22.1743 21.906 22.8683 22.667 23.6757 22.8354C23.8119 22.8638 24.5803 22.8788 25.9027 22.8788H27.9217V25.1906C27.9217 27.8161 27.915 27.8955 27.6437 28.4458C27.4238 28.8919 27.0748 29.246 26.6484 29.4555L26.3365 29.6089L15.072 29.6153C6.04731 29.6205 3.7713 29.6119 3.62666 29.5718L3.62636 29.5715ZM15.3169 27.4649C17.0358 26.7283 18.4746 26.1058 18.5143 26.0816C18.554 26.0574 18.6189 25.9846 18.6586 25.9198C18.8057 25.6798 21.2598 19.5224 21.2628 19.386C21.2662 19.2256 18.5865 12.9236 18.47 12.8181C18.3759 12.733 12.0866 10.1984 11.911 10.1749C11.7956 10.1594 11.2581 10.3767 8.59473 11.5157C6.37846 12.4635 5.38434 12.9072 5.31114 12.9813C5.16975 13.1246 2.63243 19.3817 2.63432 19.5825C2.63519 19.6735 3.08293 20.7656 3.9616 22.82C4.6909 24.5251 5.31989 25.9731 5.35943 26.0379C5.39897 26.1026 5.47201 26.1807 5.5218 26.2113C5.57159 26.2419 7.02506 26.8374 8.75171 27.5346C10.9339 28.4156 11.9369 28.8025 12.0415 28.8033C12.1534 28.8042 12.9909 28.462 15.3169 27.4652V27.4649Z" fill="#FFAAAA"/>
<path d="M24.0371 19.4253V18.3657H29.9235V20.4848H24.0371V19.4253Z" fill="#FFAAAA"/>
<path d="M3.6266 6.77166C2.9886 6.59566 2.38876 5.98996 2.17846 5.30935C1.78774 4.04482 2.53637 2.64905 3.73993 2.39807C4.02049 2.33956 21.8879 2.33636 22.1962 2.39476C22.6938 2.48913 23.176 2.8196 23.4805 3.27496C23.8481 3.82449 23.8543 3.85923 23.8701 5.44503L23.8839 6.82833L13.8454 6.82482C5.87789 6.82204 3.7697 6.81107 3.6267 6.77164L3.6266 6.77166Z" fill="#FFAAAA"/>
<path d="M9.14656 26.5121C7.55684 25.8683 6.24207 25.3175 6.22487 25.2881C6.20766 25.2586 5.64729 23.9648 4.97961 22.413L3.76562 19.5915L6.07869 13.7812L8.93982 12.5551C10.5134 11.8807 11.8364 11.3306 11.8796 11.3325C11.9229 11.3345 13.2413 11.8522 14.8095 12.4831L17.6607 13.6302L20.132 19.3991L17.8195 25.2023L14.9479 26.4349C13.3685 27.1128 12.0675 27.671 12.0567 27.6752C12.0458 27.6795 10.7363 27.1562 9.14659 26.5125L9.14656 26.5121ZM14.7708 22.7368V22.1078L10.8825 22.0874L11.6305 21.2613C12.0419 20.807 12.5901 20.2013 12.8487 19.9154L13.319 19.3955L10.912 16.8359H14.7708V15.6165H9.14561V16.8184L11.6289 19.3964L11.3552 19.6995C11.2047 19.8662 10.6468 20.4805 10.1155 21.0647L9.14946 22.1268L9.14753 22.7463L9.14561 23.3659H14.7708L14.7708 22.7368Z" fill="white"/>
<path d="M9.14582 26.5131C6.76663 25.5501 6.24629 25.3262 6.20799 25.2493C6.18238 25.1979 5.62193 23.9035 4.96254 22.373L3.76367 19.5901L6.07864 13.7788L8.93986 12.5536C10.5136 11.8797 11.8263 11.3285 11.8571 11.3286C11.921 11.329 17.56 13.5657 17.6279 13.6176C17.6523 13.6362 18.2257 14.9453 18.902 16.5267L20.1317 19.402L19.3417 21.3806C18.9073 22.4688 18.3875 23.7753 18.1867 24.2839L17.8216 25.2086L14.949 26.4375C13.369 27.1134 12.0675 27.6702 12.0567 27.6749C12.0459 27.6796 10.7359 27.1568 9.14572 26.5132L9.14582 26.5131ZM14.771 22.7368V22.1078L10.8795 22.0874L11.3796 21.5338C11.6546 21.2293 12.2029 20.624 12.5981 20.1886L13.3166 19.397L10.9293 16.8556L14.7709 16.8351V15.6164H9.14569L9.14582 16.2163L9.14595 16.8162L11.6313 19.3953L11.3763 19.6792C11.236 19.8354 10.6777 20.45 10.1355 21.0449L9.14988 22.1267L9.14778 22.7463L9.14569 23.3658H14.7709L14.771 22.7368Z" fill="white"/>
</g>
<defs>
<clipPath id="clip0_3791_300033">
<rect width="32" height="31.9967" fill="white"/>
</clipPath>
</defs>
</svg>
