<?xml version="1.0" encoding="UTF-8"?>
<!-- Svg Vector Icons : http://www.onlinewebfonts.com/icon -->
<svg width="28" height="28" enable-background="new 0 0 1000 1000" version="1.1" viewBox="0 0 28 28" xml:space="preserve" xmlns="http://www.w3.org/2000/svg">
<g transform="matrix(.028569 0 0 .032649 -.28569 -2.3246)" fill="#333"><path d="m928.3 500v-119.6c0-68.2-55.1-124.1-123-125.3v-60.6c0-67.8-56.4-123.3-125.4-123.3h-544.5c-69 0-125.4 55.4-125.4 123.2v1.8 607.2c0 68.9 56.4 125.4 125.4 125.4h667.6c68.9 0 125.4-56.4 125.4-125.4v-119.9c34-0.5 61.7-28.5 61.7-62.7v-58.3c-0.1-34-27.8-62-61.8-62.5zm-1 120.8-0.1 0.1h-181.1l-0.1-0.1v-58l0.1-0.1h181.1l0.1 0.1zm-836.5-468.7c12-11.8 27.8-18.2 44.6-18.2h544.4c16.8 0 32.7 6.5 44.6 18.2 11.7 11.5 18.1 26.5 18.1 42.4v60.5h-607.1c-16.8 0-32.7-6.5-44.6-18.2-11.7-11.5-18.1-26.5-18.1-42.4 0-15.8 6.4-30.9 18.1-42.3zm756.4 695.6c-11.9 11.9-27.6 18.5-44.2 18.5h-667.6c-16.6 0-32.3-6.6-44.2-18.5s-18.5-27.6-18.5-44.2v-502.4c18.5 10.6 39.9 16.6 62.7 16.6h667.6c16.6 0 32.3 6.6 44.2 18.5s18.5 27.6 18.5 44.2v119.6h-119.7c-34.5 0-62.7 28.2-62.7 62.7v58.3c0 34.5 28.2 62.7 62.7 62.7h119.7v119.9c-0.1 16.5-6.6 32.2-18.5 44.1z" fill="#333"/></g>
<style type="text/css">
	.st0{fill-rule:evenodd;clip-rule:evenodd;}
</style><g id="main" transform="matrix(.27836 0 0 .27863 2.3263 8.9145)" fill="#333">
	<g transform="translate(-70,-35)" fill="#333">
		<g transform="translate(70,34)" fill="#333">
			<g transform="translate(0 .83028)" fill="#333">
				<path class="st0" d="m11.2 47.8 18.3 7.4 18.2-7.8 7.3-18.3-7.8-18.2-18.3-7.3-18.2 7.8-7.3 18.3zm18.3 10.8c-0.2 0-0.4 0-0.6-0.1l-19.6-7.9c-0.4-0.2-0.7-0.5-0.9-0.9l-8.3-19.4c-0.2-0.4-0.2-0.8 0-1.3l7.9-19.5c0.2-0.4 0.5-0.7 0.9-0.9l19.4-8.3c0.4-0.2 0.8-0.2 1.3 0l19.6 7.9c0.3 0.1 0.6 0.4 0.8 0.8l8.3 19.4c0.2 0.4 0.2 0.8 0 1.3l-7.9 19.6c-0.2 0.4-0.5 0.7-0.9 0.9l-19.4 8.3c-0.1 0.1-0.4 0.1-0.6 0.1z"/>
				<polygon class="st0" points="28.3 29.1 20.5 21 20.5 17.3 38 17.3 38 21 25.8 21 33.4 29.1 25.6 37.7 38 37.7 38 41.5 20.5 41.5 20.5 37.7"/>
			</g>
		</g>
	</g>
</g><g fill="#faa" stroke-width=".034339"><path d="m3.1725 25.878c-0.45294-0.12535-0.89898-0.51617-1.1242-0.98498-0.26457-0.55083-0.24564 0.14863-0.24564-9.0801 0-4.5448 0.011589-8.258 0.025753-8.2515 0.014164 0.00643 0.12228 0.062007 0.24027 0.1235 0.25264 0.13168 0.49088 0.22307 0.79843 0.30628 0.20982 0.056768 0.81979 0.061469 10.181 0.078458l9.9578 0.018071 0.19657 0.07941c0.42922 0.17339 0.79722 0.53548 1.0123 0.99601 0.20859 0.4467 0.21615 0.54431 0.21615 2.7909v2.0231h-1.7667c-1.1571 0-1.8295 0.01309-1.9486 0.03795-0.70647 0.14734-1.3137 0.81335-1.4526 1.5933-0.06901 0.38741-0.06901 2.3941 0 2.7815 0.13893 0.77992 0.74614 1.4459 1.4526 1.5933 0.11918 0.02486 0.79152 0.03795 1.9486 0.03795h1.7667v2.0231c0 2.2975-0.0059 2.367-0.24332 2.8486-0.19241 0.39036-0.49778 0.7002-0.87086 0.8836l-0.27291 0.13416-9.8565 0.0057c-7.8965 0.0045-9.888-3e-3 -10.015-0.03812zm10.229-1.8435c1.504-0.64458 2.763-1.1893 2.7977-1.2105 0.03474-0.0212 0.09157-0.08491 0.1263-0.14157 0.12873-0.21004 2.276-5.5982 2.2786-5.7177 3e-3 -0.14036-2.3417-5.6553-2.4437-5.7475-0.08227-0.07447-5.5854-2.2925-5.739-2.3131-0.10098-0.013546-0.57129 0.17662-2.9018 1.1733-1.9392 0.82937-2.8091 1.2177-2.8731 1.2826-0.12372 0.12534-2.3439 5.6008-2.3422 5.7764 7.594e-4 0.07965 0.39254 1.0354 1.1614 2.8331 0.63813 1.4921 1.1885 2.7593 1.2231 2.8159 0.034576 0.05666 0.09851 0.12495 0.14207 0.15175 0.043565 0.0268 1.3153 0.54789 2.8262 1.158 1.9094 0.77102 2.7871 1.1096 2.8785 1.1103 0.09787 7.6e-4 0.83074-0.29866 2.866-1.1709z"/><path d="m21.032 16.999v-0.9272h5.1506v1.8544h-5.1506z"/><path d="m3.1732 5.9257c-0.55827-0.15402-1.0831-0.68406-1.2671-1.2797-0.34188-1.1066 0.31315-2.328 1.3663-2.5476 0.24549-0.051199 15.88-0.054004 16.149-0.0029 0.43541 0.082582 0.85733 0.37176 1.1238 0.77026 0.3216 0.48088 0.32705 0.51127 0.34087 1.899l0.01205 1.2105-8.7837-0.00307c-6.9716-0.002435-8.8162-0.012036-8.9413-0.046534z"/></g><path d="m8.0034 23.201c-1.391-0.56336-2.5414-1.0454-2.5565-1.0712-0.015056-0.025782-0.50538-1.1579-1.0896-2.5159l-1.0622-2.469 2.0239-5.0847 2.5035-1.073c1.3769-0.59012 2.5345-1.0716 2.5723-1.0698 0.03786 0.00171 1.1915 0.45481 2.5636 1.0069l2.4948 1.0038 2.1624 5.0482-2.0234 5.0782-2.5127 1.0787c-1.382 0.59326-2.5204 1.0817-2.5299 1.0854-0.0095 0.0037-1.1553-0.45416-2.5463-1.0175zm4.9213-3.3036v-0.55045l-3.4024-0.0178 0.65448-0.72289c0.35996-0.39759 0.83964-0.92761 1.0659-1.1778l0.41145-0.45494-2.1061-2.2399h3.3766v-1.0672h-4.922v1.0518l2.1729 2.256-0.23952 0.26522c-0.13174 0.14587-0.61989 0.68346-1.0848 1.1947l-0.84526 0.92943-0.00338 1.0843h4.922z" fill="#fff" stroke-width=".034422"/><path d="m8.0026 23.201c-2.0818-0.84269-2.5371-1.0386-2.5706-1.1059-0.02241-0.045005-0.5128-1.1777-1.0898-2.5171l-1.049-2.4352 2.0256-5.0855 2.5036-1.0722c1.377-0.58972 2.5256-1.0721 2.5526-1.0719 0.05588 3.229e-4 4.9901 1.9576 5.0496 2.0031 0.02136 0.01632 0.52302 1.1619 1.1148 2.5458l1.076 2.5161-0.69117 1.7315c-0.38015 0.9523-0.83495 2.0956-1.0107 2.5407l-0.31949 0.80922-2.5135 1.0754c-1.3824 0.59145-2.5213 1.0787-2.5307 1.0828-0.0095 0.0041-1.1556-0.45337-2.5471-1.0166zm4.922-3.3044v-0.55045l-3.4049-0.0178 0.43754-0.48443c0.24065-0.26644 0.72044-0.79615 1.0662-1.1771l0.62865-0.69271-2.0888-2.224 3.3614-0.0178v-1.0666h-4.922l1.143e-4 0.52496 1.142e-4 0.52496 2.1747 2.257-0.22317 0.24846c-0.12275 0.13665-0.61128 0.67445-1.0856 1.1951l-0.86245 0.94664-0.00366 1.0843h4.922z" fill="#fff" stroke-width=".034422"/></svg>
