<svg width="14" height="15" viewBox="0 0 14 15" fill="none" xmlns="http://www.w3.org/2000/svg">
<path fill-rule="evenodd" clip-rule="evenodd" d="M12.0687 2.72808L13.9583 7.29021C14.0139 7.42456 14.0139 7.57548 13.9583 7.70983L12.0687 12.2718C12.013 12.4062 11.9063 12.5129 11.7719 12.5686L7.20979 14.4582C7.14329 14.4858 7.07199 14.5 6.99998 14.5C6.92798 14.5 6.85668 14.4858 6.79017 14.4582L2.22817 12.5686C2.09383 12.5129 1.9871 12.4062 1.93144 12.2718L0.0418012 7.70983C0.0142047 7.64332 0 7.57202 0 7.50002C0 7.42801 0.0142047 7.35672 0.0418012 7.29021L1.93144 2.72808C1.9871 2.59374 2.09383 2.487 2.22817 2.43135L6.79017 0.541705C6.92452 0.486098 7.07545 0.486098 7.20979 0.541705L11.7719 2.43135C11.9063 2.487 12.013 2.59374 12.0687 2.72808ZM10.0234 5.21398L6.73281 9.77648C6.68681 9.84067 6.62618 9.89298 6.55594 9.92906C6.4857 9.96515 6.40787 9.98397 6.3289 9.98397C6.24993 9.98397 6.1721 9.96515 6.10186 9.92906C6.03162 9.89298 5.97099 9.84067 5.92499 9.77648L3.97656 7.07648C3.91718 6.99367 3.97656 6.87804 4.07812 6.87804H4.81093C4.97031 6.87804 5.12187 6.95461 5.21562 7.08586L6.32812 8.62961L8.78437 5.22336C8.87812 5.09367 9.02812 5.01554 9.18906 5.01554H9.92187C10.0234 5.01554 10.0828 5.13117 10.0234 5.21398Z" fill="currentColor"/>
</svg>
