<svg width="16" height="17" viewBox="0 0 16 17" fill="none" xmlns="http://www.w3.org/2000/svg">
<path d="M9.55823 12.5521H8.52742V9.18142C8.52742 9.12021 8.47734 9.07013 8.41613 9.07013H7.58146C7.52025 9.07013 7.47017 9.12021 7.47017 9.18142V12.5521H6.44214C6.34894 12.5521 6.29747 12.6592 6.3545 12.7315L7.91255 14.7027C7.92296 14.716 7.93626 14.7268 7.95144 14.7342C7.96663 14.7416 7.98329 14.7454 8.00019 14.7454C8.01708 14.7454 8.03374 14.7416 8.04893 14.7342C8.06411 14.7268 8.07741 14.716 8.08782 14.7027L9.64587 12.7315C9.7029 12.6592 9.65143 12.5521 9.55823 12.5521Z" fill="currentColor"/>
<path d="M5.30665 12.8067C5.32367 12.8153 5.34262 12.8194 5.36166 12.8185C5.38071 12.8177 5.39922 12.812 5.41542 12.8019C5.43162 12.7918 5.44496 12.7778 5.45417 12.7611C5.46338 12.7444 5.46815 12.7256 5.46801 12.7066L5.46802 11.8135C5.46802 11.737 5.42767 11.666 5.36368 11.6243C5.04998 11.4268 4.7597 11.1944 4.49841 10.9315C4.04352 10.4752 3.686 9.94521 3.43699 9.35538C3.17947 8.74477 3.04748 8.08859 3.04887 7.4259C3.04887 6.75678 3.17964 6.10713 3.43699 5.49643C3.68572 4.90745 4.04616 4.37222 4.49841 3.9203C4.94915 3.46691 5.48407 3.10589 6.07315 2.85749C6.68246 2.59874 7.33211 2.46798 7.99984 2.46798C8.66757 2.46798 9.31722 2.59874 9.92653 2.85749C10.5156 3.10589 11.0505 3.46692 11.5013 3.9203C11.9535 4.37222 12.314 4.90745 12.5627 5.49643C12.8202 6.10703 12.9522 6.76322 12.9508 7.4259C12.9508 8.09503 12.82 8.74468 12.5627 9.35538C12.3137 9.94521 11.9562 10.4752 11.5013 10.9315C11.237 11.1958 10.9476 11.4267 10.636 11.6243C10.5706 11.6646 10.5317 11.737 10.5317 11.8135V12.708C10.5317 12.7914 10.6193 12.8443 10.693 12.8081C12.6392 11.8288 13.9816 9.82418 14.0094 7.50102C14.0484 4.17905 11.3316 1.41908 8.01097 1.41212C4.68621 1.40517 1.99023 4.10114 1.99023 7.42729C1.99023 9.78106 3.33961 11.819 5.30665 12.8067Z" fill="currentColor"/>
</svg>
