<svg width="32" height="32" viewBox="0 0 32 32" fill="none" xmlns="http://www.w3.org/2000/svg">
<g clip-path="url(#clip0_350_25727)">
<path d="M28.285 15.9996V12.0948C28.285 9.86818 26.7107 8.04313 24.7707 8.00395V6.02545C24.7707 3.81187 23.1593 1.99988 21.1879 1.99988H5.63071C3.65928 1.99988 2.04785 3.80861 2.04785 6.02218V6.08095V25.9052C2.04785 28.1546 3.65928 29.9993 5.63071 29.9993H24.705C26.6736 29.9993 28.2879 28.1579 28.2879 25.9052V21.9906C29.2593 21.9743 30.0507 21.0601 30.0507 19.9435V18.0401C30.0479 16.9301 29.2564 16.0159 28.285 15.9996ZM28.2564 19.9435L28.2536 19.9468H23.0793L23.0764 19.9435V18.0499L23.0793 18.0466H28.2536L28.2564 18.0499V19.9435ZM4.35642 4.64115C4.69928 4.25589 5.15071 4.04694 5.63071 4.04694H21.185C21.665 4.04694 22.1193 4.25916 22.4593 4.64115C22.7936 5.01661 22.9764 5.50633 22.9764 6.02545V8.00069H5.63071C5.15071 8.00069 4.69642 7.78847 4.35642 7.40648C4.02214 7.03102 3.83928 6.54129 3.83928 6.02218C3.83928 5.50633 4.02214 5.01334 4.35642 4.64115ZM25.9679 27.3515C25.6279 27.74 25.1793 27.9555 24.705 27.9555H5.63071C5.15642 27.9555 4.70785 27.74 4.36785 27.3515C4.02785 26.963 3.83928 26.4504 3.83928 25.9084V9.50578C4.36785 9.85186 4.97928 10.0478 5.63071 10.0478H24.705C25.1793 10.0478 25.6279 10.2632 25.9679 10.6517C26.3079 11.0403 26.4964 11.5528 26.4964 12.0948V15.9996H23.0764C22.0907 15.9996 21.285 16.9203 21.285 18.0466V19.9501C21.285 21.0764 22.0907 21.9971 23.0764 21.9971H26.4964V25.9117C26.4936 26.4504 26.3079 26.963 25.9679 27.3515Z" fill="#333333"/>
<path fill-rule="evenodd" clip-rule="evenodd" d="M7.49247 24.1856L12.587 26.2474L17.6537 24.0741L19.6859 18.9753L17.5145 13.9043L12.4199 11.8703L7.35327 14.0436L5.32104 19.1424L7.49247 24.1856ZM12.587 27.1947C12.5313 27.1947 12.4756 27.1947 12.4199 27.1669L6.96353 24.9657C6.85217 24.91 6.76866 24.8264 6.71298 24.715L4.40235 19.3096C4.34668 19.1982 4.34668 19.0867 4.40235 18.9474L6.60162 13.5142C6.6573 13.4028 6.74082 13.3192 6.85217 13.2634L12.2529 10.9509C12.3643 10.8951 12.4756 10.8951 12.6148 10.9509L18.0712 13.152C18.1547 13.1799 18.2383 13.2634 18.2939 13.3749L20.6046 18.7802C20.6602 18.8917 20.6602 19.0031 20.6046 19.1424L18.4053 24.6035C18.3496 24.715 18.2661 24.7985 18.1547 24.8543L12.754 27.1669C12.7262 27.1947 12.6427 27.1947 12.587 27.1947Z" fill="#333333"/>
<path fill-rule="evenodd" clip-rule="evenodd" d="M14.9533 21.3715V22.4302H10.0815V21.3715L12.253 18.9753L10.0815 16.7184V15.6875H14.9533V16.7184H11.557L13.6728 18.9753L11.5013 21.3715H14.9533Z" fill="#333333"/>
<path d="M5.22081 27.8777C4.76781 27.7523 4.32175 27.3615 4.09655 26.8927C3.83196 26.3419 3.85088 27.0413 3.85088 17.8127C3.85088 13.2679 3.86247 9.55472 3.87664 9.56129C3.8908 9.56786 3.99893 9.62329 4.11693 9.68479C4.3696 9.81647 4.60787 9.90786 4.91544 9.99107C5.12528 10.0478 5.7353 10.0525 15.0974 10.0695L25.0563 10.0876L25.2529 10.167C25.6821 10.3404 26.0502 10.7025 26.2653 11.163C26.4739 11.6097 26.4814 11.7073 26.4814 13.9539V15.977H24.7146C23.5574 15.977 22.885 15.9901 22.7658 16.015C22.0592 16.1623 21.4519 16.8283 21.313 17.6082C21.244 17.9956 21.244 20.0023 21.313 20.3897C21.4519 21.1696 22.0592 21.8356 22.7658 21.983C22.8849 22.0078 23.5574 22.0209 24.7146 22.0209H26.4814V24.044C26.4814 26.3415 26.4755 26.411 26.2381 26.8926C26.0457 27.2829 25.7403 27.5928 25.3672 27.7762L25.0942 27.9104L15.2368 27.916C7.33936 27.9206 5.34764 27.913 5.22107 27.8779L5.22081 27.8777ZM15.4511 26.0342C16.9552 25.3896 18.2143 24.8449 18.2491 24.8237C18.2838 24.8025 18.3406 24.7388 18.3754 24.6821C18.5041 24.4721 20.6516 19.0838 20.6542 18.9644C20.6573 18.824 18.3123 13.3093 18.2103 13.217C18.128 13.1425 12.6243 10.9245 12.4706 10.9039C12.3696 10.8903 11.8992 11.0805 9.56858 12.0772C7.62915 12.9066 6.75921 13.2949 6.69515 13.3598C6.57142 13.4851 4.35103 18.9607 4.35269 19.1364C4.35345 19.216 4.74526 20.1717 5.51418 21.9695C6.15238 23.4616 6.70281 24.7288 6.73741 24.7854C6.77201 24.8421 6.83593 24.9104 6.87949 24.9372C6.92306 24.964 8.19498 25.4851 9.70595 26.0951C11.6155 26.8662 12.4933 27.2047 12.5848 27.2054C12.6827 27.2062 13.4156 26.9067 15.4511 26.0345V26.0342Z" fill="#FFAAAA"/>
<path d="M23.0818 18.9986V18.0714H28.2329V19.9258H23.0818V18.9986Z" fill="#FFAAAA"/>
<path d="M5.22151 7.92572C4.6632 7.77171 4.13829 7.24167 3.95426 6.64607C3.61234 5.53949 4.26746 4.31807 5.32069 4.09844C5.5662 4.04724 21.2018 4.04443 21.4715 4.09554C21.907 4.17812 22.329 4.46731 22.5955 4.8658C22.9171 5.34668 22.9226 5.37708 22.9364 6.7648L22.9485 7.97531L14.1639 7.97224C7.1916 7.9698 5.34674 7.9602 5.2216 7.9257L5.22151 7.92572Z" fill="#FFAAAA"/>
<path d="M10.0521 25.2005C8.66092 24.6371 7.51038 24.1551 7.49532 24.1293C7.48026 24.1036 6.98989 22.9714 6.4056 21.6134L5.34326 19.1444L7.3674 14.0598L9.87115 12.9869C11.2482 12.3967 12.4059 11.9153 12.4437 11.917C12.4816 11.9187 13.6353 12.3718 15.0076 12.9239L17.5027 13.9277L19.6653 18.976L17.6417 24.0543L15.1288 25.1329C13.7467 25.7262 12.6081 26.2146 12.5987 26.2183C12.5892 26.2221 11.4432 25.7642 10.0521 25.2008L10.0521 25.2005ZM14.9738 21.8968V21.3463L11.5712 21.3285L12.2257 20.6056C12.5857 20.208 13.0655 19.678 13.2918 19.4278L13.7033 18.9728L11.5969 16.733H14.9738V15.6659H10.0512V16.7177L12.2244 18.9736L11.9848 19.2388C11.8531 19.3847 11.3649 19.9223 10.8999 20.4335L10.0546 21.3629L10.0529 21.9051L10.0512 22.4473H14.9738L14.9738 21.8968Z" fill="white"/>
<path d="M10.0514 25.2015C7.96941 24.3588 7.51407 24.1629 7.48055 24.0956C7.45814 24.0505 6.9677 22.9179 6.39067 21.5785L5.34155 19.1433L7.36735 14.0578L9.87118 12.9856C11.2483 12.3959 12.397 11.9136 12.424 11.9137C12.4799 11.914 17.4146 13.8713 17.474 13.9168C17.4954 13.9331 17.9971 15.0787 18.5889 16.4625L19.665 18.9786L18.9738 20.7101C18.5936 21.6624 18.1387 22.8057 17.963 23.2507L17.6435 24.06L15.1297 25.1353C13.7471 25.7268 12.6081 26.214 12.5987 26.2182C12.5892 26.2223 11.4429 25.7648 10.0513 25.2016L10.0514 25.2015ZM14.974 21.8969V21.3464L11.5686 21.3286L12.0062 20.8442C12.2468 20.5777 12.7267 20.048 13.0725 19.667L13.7012 18.9743L11.6122 16.7503L14.9739 16.7324V15.6659H10.0513L10.0514 16.1909L10.0515 16.7158L12.2264 18.9728L12.0032 19.2212C11.8805 19.3579 11.3919 19.8957 10.9175 20.4164L10.055 21.363L10.0531 21.9052L10.0513 22.4474H14.9739L14.974 21.8969Z" fill="white"/>
</g>
<defs>
<clipPath id="clip0_350_25727">
<rect width="28.0029" height="28" fill="white" transform="translate(2.04785 2)"/>
</clipPath>
</defs>
</svg>
