<svg width="33" height="32" viewBox="0 0 33 32" fill="none" xmlns="http://www.w3.org/2000/svg">
  <style>
    .color {
      fill: #FF5135;
    }
  </style>
<path d="M16.0972 32C24.9338 32 32.0972 24.8366 32.0972 16C32.0972 7.16344 24.9338 0 16.0972 0C7.26064 0 0.0971985 7.16344 0.0971985 16C0.0971985 24.8366 7.26064 32 16.0972 32Z" class="color"/>
<path d="M11.477 23.6637C10.4997 23.5552 9.57666 23.2666 8.74157 22.8322C9.2786 23.5945 9.98556 24.2553 10.8461 24.7519L10.8455 24.753C11.7066 25.2499 12.6331 25.5313 13.5629 25.6146C12.7704 25.1092 12.0598 24.4549 11.477 23.6637ZM19.5868 9.24482C18.7358 9.24482 17.9222 9.40522 17.1747 9.69729C17.4275 9.89482 17.6678 10.1075 17.8945 10.3341C18.1705 10.6101 18.426 10.9068 18.6585 11.2213C19.0464 11.2653 19.4301 11.3381 19.8062 11.4389C20.1166 11.522 20.4217 11.6242 20.72 11.7448C20.5996 10.9504 20.332 10.165 19.9066 9.42746L19.9056 9.42808C19.8704 9.36732 19.8345 9.30744 19.7978 9.24817C19.7278 9.24607 19.6574 9.24482 19.5868 9.24482ZM15.97 10.3173C15.5828 10.5696 15.2236 10.8614 14.8981 11.1868L14.8812 11.204C15.2451 11.2375 15.6085 11.2966 15.9689 11.3823C16.3298 11.2965 16.6939 11.2372 17.0583 11.2037L17.0416 11.1868C16.7162 10.8614 16.357 10.5697 15.97 10.3173ZM14.0454 10.3341C14.2719 10.1075 14.5124 9.89488 14.7652 9.69729C14.0176 9.40515 13.2041 9.24482 12.3531 9.24482C12.2819 9.24482 12.2111 9.24607 12.1406 9.24831C12.1044 9.30669 12.0689 9.36576 12.0344 9.42564C11.6084 10.1636 11.3404 10.9497 11.22 11.7448C11.5183 11.6242 11.8235 11.5219 12.1338 11.4388C12.51 11.338 12.8937 11.2652 13.2814 11.2212C13.5139 10.9067 13.7694 10.6101 14.0454 10.3341ZM15.97 8.92164C16.8516 8.46209 17.8317 8.16522 18.8701 8.07106C18.055 7.24888 17.0507 6.66954 15.9697 6.36344C14.8878 6.66992 13.8832 7.24918 13.0683 8.07092C14.1073 8.16502 15.0878 8.46189 15.97 8.92164ZM12.0762 13.631C12.1825 13.275 12.3134 12.9296 12.4669 12.5968L12.4447 12.6027C11.9999 12.7219 11.5677 12.8869 11.1555 13.0958C11.1806 13.5577 11.2538 14.0151 11.373 14.4601L11.3793 14.4829C11.5898 14.1849 11.8223 13.9 12.0762 13.631ZM14.8817 20.5475L14.8982 20.5642C15.2237 20.8896 15.5829 21.1813 15.97 21.4338C16.3571 21.1813 16.7164 20.8896 17.0417 20.5642L17.0583 20.5475C16.6943 20.5139 16.3308 20.4547 15.9702 20.3689C15.6095 20.4547 15.2457 20.514 14.8817 20.5475ZM14.0454 21.4169C13.7695 21.141 13.5142 20.8445 13.2818 20.5301C12.8939 20.4862 12.5101 20.4134 12.1339 20.3127C11.8237 20.2295 11.5187 20.1273 11.2206 20.0068C11.3412 20.801 11.6089 21.5862 12.0345 22.3234L12.0358 22.3278C12.0699 22.387 12.1048 22.4451 12.1404 22.5027C12.2111 22.5049 12.2819 22.5062 12.3531 22.5062C13.2041 22.5062 14.0176 22.3458 14.7652 22.0536C14.5124 21.8561 14.2719 21.6434 14.0454 21.4169ZM12.4671 19.1546C12.3136 18.822 12.1828 18.4767 12.0765 18.1209C11.8225 17.8519 11.5899 17.5669 11.3793 17.2688L11.3731 17.2913C11.2539 17.7363 11.1808 18.1936 11.1557 18.6555C11.5679 18.8645 12.0002 19.0297 12.4448 19.1487L12.4671 19.1546ZM17.1747 22.0536C17.9222 22.3458 18.7358 22.5062 19.5868 22.5062C19.658 22.5062 19.7288 22.5049 19.7994 22.5027C19.8356 22.4444 19.8709 22.3855 19.9054 22.3256H19.9054C20.3314 21.5877 20.5994 20.8016 20.7197 20.0066C20.4215 20.1271 20.1163 20.2294 19.806 20.3125C19.4298 20.4133 19.046 20.4861 18.6581 20.53C18.4257 20.8445 18.1703 21.141 17.8944 21.4169C17.6678 21.6434 17.4275 21.8561 17.1747 22.0536ZM18.8718 23.6802C18.0567 24.5023 17.0519 25.0816 15.9697 25.388C14.8877 25.0816 13.8829 24.5021 13.0679 23.6802C14.1071 23.5861 15.0878 23.2891 15.9699 22.8293C16.8521 23.2891 17.8327 23.5861 18.8718 23.6802ZM21.2762 22.289C22.397 21.9945 23.4021 21.414 24.2083 20.6301C24.4834 19.5401 24.4838 18.3803 24.1791 17.2635C23.5779 18.1168 22.8305 18.818 21.9909 19.3523C21.9477 20.3452 21.7144 21.3423 21.2762 22.289ZM23.1985 22.8319C22.3635 23.2666 21.4402 23.5552 20.4628 23.6637C19.88 24.4549 19.1692 25.1094 18.3766 25.6146C19.3065 25.5315 20.2333 25.2499 21.0945 24.7532L21.0938 24.7522C21.9544 24.2553 22.6615 23.5945 23.1985 22.8319ZM25.6075 18.6568C25.999 17.811 26.2175 16.8687 26.2175 15.8755C26.2175 14.8821 25.999 13.9399 25.6075 13.0939C25.5659 14.033 25.3541 14.9755 24.9601 15.8755C25.3541 16.7755 25.5659 17.7178 25.6075 18.6568ZM24.2081 11.1205C23.4017 10.3368 22.397 9.75649 21.2761 9.46211C21.7144 10.4089 21.9479 11.406 21.991 12.3993C22.8305 12.9335 23.5781 13.6345 24.1791 14.4877C24.4838 13.3707 24.4834 12.2107 24.2081 11.1205ZM20.4644 8.08732C19.8818 7.29642 19.1709 6.64223 18.378 6.13694C19.3081 6.22032 20.2349 6.50209 21.096 6.9993C21.9558 7.49571 22.6624 8.15643 23.199 8.91917C22.3641 8.48482 21.4414 8.19625 20.4644 8.08732ZM10.2092 14.7711C10.1261 14.4609 10.0621 14.1456 10.0175 13.8272C9.38952 14.3286 8.84313 14.9531 8.41747 15.6903C8.382 15.7517 8.34775 15.8135 8.31445 15.8756C8.34742 15.9372 8.38146 15.9985 8.41659 16.0594L8.4176 16.0588C8.84357 16.7966 9.38996 17.4216 10.0176 17.9233C10.0623 17.6051 10.1263 17.2901 10.2093 16.9804C10.3103 16.6035 10.4393 16.2341 10.5954 15.8758C10.4393 15.5173 10.3102 15.1479 10.2092 14.7711ZM9.94884 12.3997C9.10985 12.9341 8.36245 13.6354 7.76123 14.4892C7.45626 13.3717 7.45646 12.2111 7.73194 11.1204C8.5381 10.3368 9.54293 9.75649 10.6637 9.46211C10.2253 10.409 9.99198 11.4064 9.94884 12.3997ZM19.4728 19.1545L19.4951 19.1486C19.9398 19.0296 20.3721 18.8642 20.7843 18.6552C20.7591 18.1935 20.686 17.7362 20.5668 17.2912L20.5604 17.268C20.35 17.5655 20.1177 17.8501 19.864 18.1188C19.7576 18.4754 19.6265 18.8213 19.4728 19.1545ZM21.9223 17.9232C21.8776 17.605 21.8137 17.2901 21.7307 16.9803C21.6297 16.6034 21.5006 16.2341 21.3447 15.8757C21.5008 15.5172 21.6299 15.148 21.7308 14.7712C21.8138 14.4614 21.8778 14.1464 21.9224 13.8283C22.55 14.33 23.0966 14.955 23.5225 15.6927L23.5236 15.6921C23.5586 15.7529 23.5924 15.8142 23.6255 15.8756C23.5926 15.9371 23.5586 15.9984 23.5234 16.0593L23.5223 16.0587C23.0964 16.7965 22.55 17.4215 21.9223 17.9232ZM11.4772 8.08712C10.4997 8.19588 9.57633 8.48445 8.74106 8.9191C9.27772 8.15649 9.98417 7.49589 10.8439 6.99956C11.7053 6.50229 12.6324 6.22038 13.5627 6.13712C12.7703 6.64223 12.0599 7.29635 11.4772 8.08712ZM9.94873 19.3521C9.99167 20.3452 10.2248 21.3421 10.6625 22.2886C9.54207 21.994 8.53749 21.4138 7.73164 20.6303C7.4565 19.5402 7.45626 18.3805 7.76079 17.2636C8.36175 18.1169 9.10928 18.818 9.94873 19.3521ZM20.5607 14.4829L20.567 14.4602C20.6862 14.0153 20.7593 13.558 20.7845 13.0962C20.3722 12.8872 19.94 12.7218 19.4952 12.6027L19.473 12.5968C19.6264 12.9296 19.7574 13.2748 19.8636 13.6306C20.1175 13.8997 20.3502 14.1847 20.5607 14.4829ZM6.97981 15.8756C6.58567 14.9755 6.37392 14.0329 6.33236 13.0938C5.94084 13.9397 5.72237 14.8821 5.72237 15.8755C5.72237 16.8688 5.94084 17.8111 6.3323 18.6569C6.37398 17.7179 6.58567 16.7756 6.97981 15.8756Z" fill="white"/>
</svg>
