<svg width="1000" height="1097" viewBox="0 0 1000 1097" fill="none" xmlns="http://www.w3.org/2000/svg">
<path d="M226.445 316.35C226.445 316.35 159.224 400.515 59.6969 353.589C59.6969 353.589 -54.5809 295.659 33.089 163.91C33.089 163.91 100.31 70.4729 181.317 126.693C181.317 126.693 275.102 185.872 250.532 271.045L226.445 316.35V316.35Z" fill="#C69C6D"/>
<path d="M645.333 236.971C645.333 236.971 740.521 287.382 813.111 204.685C813.111 204.685 894.842 106.01 761.934 20.1131C761.934 20.1131 663.064 -38.8026 611.164 45.034C611.164 45.034 548.743 136.673 605.202 205.014L645.333 236.971V236.971Z" fill="#C69C6D"/>
<path d="M180.284 279.543C180.284 279.543 147.561 320.508 99.1234 297.669C99.1234 297.669 43.4969 269.482 86.1702 205.35C86.1702 205.35 118.893 159.87 158.323 187.224C158.323 187.224 203.955 216.024 192.01 257.471L180.284 279.521V279.543Z" fill="#F8EBC9"/>
<path d="M678.851 180.749C678.851 180.749 725.184 205.276 760.515 165.034C760.515 165.034 800.296 117.011 735.595 75.2137C735.595 75.2137 687.464 46.5449 662.215 87.3563C662.215 87.3563 631.838 131.96 659.322 165.209L678.851 180.771V180.749Z" fill="#F8EBC9"/>
<path d="M341.203 586.828C341.203 586.828 253.534 721.712 248.514 805.461C248.514 805.461 212.351 798.053 192.296 798.535C192.296 798.535 126.807 711.454 47.7284 768.2C47.7284 768.2 -29.7061 823.083 13.3399 935.501C13.3399 935.501 65.5912 1082.83 221.183 1073.43C221.183 1073.43 256.449 1070.6 279.835 1052.85C279.835 1052.85 243.386 1058.09 378.924 1040.33C378.924 1040.33 505.015 1037.29 653.33 1040.12C697.669 1040.97 737.143 1057.5 806.293 1056.73C806.293 1056.73 937.14 1100.7 995.002 918.821C995.002 918.821 1023.56 832.858 944.153 770.765C944.153 770.765 886.971 732.386 823.344 805.658C823.344 805.658 784.287 805.702 767.893 810.458C767.893 810.458 729.603 668.363 694.93 610.653L341.225 586.828H341.203Z" fill="#C69C6D"/>
<path d="M376.562 719.008L354.426 922.956C354.426 922.956 491.542 998.793 683.626 913.203L640.602 688.279C640.602 688.279 489.942 738.274 376.562 718.987V719.008Z" fill="#F8EBC9"/>
<path d="M285.082 698.662C285.082 698.662 228.622 944.824 344.456 1063.55C344.456 1063.55 382.79 1106.29 448.082 1093.82C448.082 1093.82 501.1 1079.29 503.204 1032.04C506.207 964.397 448.959 930.577 423.644 859.935C423.644 859.935 386.603 753.326 403.063 712.975L285.082 698.662V698.662Z" fill="#C69C6D"/>
<path d="M693.356 651.627C693.356 651.627 812.018 907.083 717.707 1043.52C717.707 1043.52 687.066 1092.07 620.612 1090.71C620.612 1090.71 565.906 1085.25 555.934 1039.01C541.644 972.815 590.98 939.653 605.555 856.013C605.555 856.013 617.982 796.177 595.626 688.274L693.378 651.605L693.356 651.627Z" fill="#C69C6D"/>
<path d="M533.901 708.054C533.901 708.054 237.949 792.943 140.986 571.461C140.986 571.461 49.5245 356.226 235.889 181.429C235.889 181.429 408.708 32.8026 588.476 111.247C588.476 111.247 781.788 180.859 818.258 398.659C818.258 398.659 872.132 632.503 533.879 708.076L533.901 708.054Z" fill="#C69C6D"/>
<path d="M596.286 463.583C546.534 433.884 477.998 450.059 477.998 450.059C477.998 450.059 408.103 458.739 371.808 503.89C371.808 503.89 330.581 546.345 345.397 614.839C345.397 614.839 356.794 676.626 427.368 693.24C427.368 693.24 469.625 703.081 521.789 693.722C573.952 684.363 610.138 660.407 610.138 660.407C670.521 620.297 659.694 558.378 659.694 558.378C649.743 489.007 596.308 463.539 596.308 463.539L596.286 463.583Z" fill="#F8EBC9"/>
<path d="M300.306 533.688C327.299 533.688 349.182 511.805 349.182 484.811C349.182 457.817 327.299 435.934 300.306 435.934C273.312 435.934 251.43 457.817 251.43 484.811C251.43 511.805 273.312 533.688 300.306 533.688Z" fill="#534741"/>
<path d="M310.087 489.293C320.388 489.293 328.739 480.942 328.739 470.641C328.739 460.339 320.388 451.988 310.087 451.988C299.786 451.988 291.436 460.339 291.436 470.641C291.436 480.942 299.786 489.293 310.087 489.293Z" fill="white"/>
<path d="M644.493 464.444C671.487 464.444 693.369 442.561 693.369 415.567C693.369 388.573 671.487 366.689 644.493 366.689C617.5 366.689 595.617 388.573 595.617 415.567C595.617 442.561 617.5 464.444 644.493 464.444Z" fill="#534741"/>
<path d="M654.172 420.936C664.231 420.936 672.386 412.781 672.386 402.722C672.386 392.662 664.231 384.508 654.172 384.508C644.113 384.508 635.959 392.662 635.959 402.722C635.959 412.781 644.113 420.936 654.172 420.936Z" fill="white"/>
<path d="M532.473 518.1C522.939 494.363 495.016 498.505 487.586 500.084C480.047 501.179 452.431 506.922 451.663 532.5C451.663 532.5 450.655 551.197 466.348 563.208C466.348 563.208 477.482 573.093 498.172 570.375V570.462C498.83 570.353 499.444 570.221 500.057 570.112C500.671 570.024 501.285 569.915 501.92 569.805V569.717C520.046 565.509 528.813 552.928 528.813 552.928C539.706 536.446 532.473 518.122 532.473 518.122V518.1Z" fill="#534741"/>
<path d="M177.799 886.627C208.374 940.524 208.944 990.76 183.103 1015.13C152.222 1044.24 91.7733 1009.19 61.1765 955.296C30.6016 901.4 30.7112 840.599 67.4668 819.733C104.222 798.889 147.225 832.73 177.821 886.627H177.799Z" fill="#B2875B"/>
<path d="M826.587 892.533C800.703 948.841 804.407 998.946 832.242 1021.02C865.491 1047.41 922.739 1007.34 948.646 951.033C974.53 894.725 969.27 834.144 930.871 816.5C892.471 798.834 852.494 836.226 826.609 892.533H826.587Z" fill="#B2875B"/>
<path d="M493.738 639.304C462.702 639.304 444.401 624.597 443.503 623.852C439.755 620.783 439.229 615.26 442.297 611.512C445.366 607.764 450.889 607.238 454.637 610.306C455.448 610.942 475.875 626.92 510.658 620.06L511.491 619.906C546.274 613.046 559.117 590.536 559.643 589.594C561.989 585.385 567.293 583.829 571.523 586.131C575.753 588.432 577.331 593.714 575.051 597.944C574.372 599.194 558.131 628.586 514.866 637.112L514.033 637.266C506.778 638.69 499.984 639.304 493.738 639.304V639.304Z" fill="#534741"/>
<path d="M510.185 633.194C506.043 633.194 502.361 630.235 501.572 626.005L487.939 551.944C487.062 547.188 490.219 542.607 494.975 541.73C499.753 540.853 504.312 544.01 505.188 548.766L518.821 622.827C519.698 627.583 516.542 632.164 511.785 633.041C511.237 633.129 510.711 633.194 510.185 633.194Z" fill="#534741"/>
</svg>