<?xml version="1.0" standalone="no"?>
<!DOCTYPE svg PUBLIC "-//W3C//DTD SVG 20010904//EN"
 "http://www.w3.org/TR/2001/REC-SVG-20010904/DTD/svg10.dtd">
<svg version="1.0" xmlns="http://www.w3.org/2000/svg"
 width="260.000000pt" height="260.000000pt" viewBox="0 0 260.000000 260.000000"
 preserveAspectRatio="xMidYMid meet">
<metadata>
Created by potrace 1.14, written by Peter Selinger 2001-2017
</metadata>
<g transform="translate(0.000000,260.000000) scale(0.100000,-0.100000)"
fill="#000000" stroke="none">
<path d="M1655 2581 c-62 -29 -118 -100 -145 -186 -7 -22 -14 -43 -16 -46 -2
-4 -32 2 -66 13 -100 33 -262 33 -379 2 -100 -27 -244 -93 -329 -151 l-55 -38
-60 60 c-73 74 -133 105 -201 105 -133 0 -268 -137 -296 -300 -10 -60 -10 -77
5 -124 32 -101 139 -180 254 -188 l33 -2 -7 -56 c-22 -165 3 -345 65 -470 37
-76 160 -198 237 -235 33 -16 62 -30 64 -31 2 -2 -6 -27 -17 -56 -12 -29 -29
-83 -38 -121 l-17 -67 -31 5 c-17 3 -45 7 -63 9 -20 1 -47 17 -72 39 -144 130
-315 94 -395 -82 -26 -60 -28 -184 -2 -258 34 -102 127 -220 218 -279 58 -37
156 -66 233 -69 70 -2 100 4 164 32 18 8 48 17 65 19 17 3 41 7 54 10 15 3 31
-4 50 -23 90 -93 205 -117 304 -65 32 17 53 37 69 67 l23 42 55 -2 c72 -3 71
-3 71 -17 0 -20 42 -63 80 -84 71 -37 199 -13 262 50 25 25 31 27 85 22 80 -9
168 -16 232 -20 57 -4 136 15 180 42 57 35 124 116 164 199 74 154 61 291 -39
402 -43 48 -70 61 -134 66 -40 3 -121 -32 -159 -69 -32 -30 -44 -35 -103 -40
l-67 -5 -40 128 c-23 71 -54 161 -70 201 l-30 72 84 82 c69 67 90 96 124 166
46 99 60 166 56 264 -6 116 -56 271 -121 373 l-33 52 40 20 c136 71 192 229
126 357 -32 63 -114 139 -186 172 -71 33 -170 38 -226 13z"/>
</g>
</svg>
