<svg width="32" height="32" viewBox="0 0 32 32" fill="none" xmlns="http://www.w3.org/2000/svg">
<g clip-path="url(#clip0_3434_68389)">
<path d="M6.13788 4.92122L5.47913 4.24455C5.45576 4.54592 5.33121 4.83055 5.1257 5.05222C4.9202 5.2739 4.6458 5.4196 4.34705 5.46569L5.02484 6.09418L29.2332 28.6635L6.13788 4.92122ZM7.736 11.4627V24.9367C7.96617 24.6945 8.27905 24.5476 8.61249 24.5254C8.94593 24.5032 9.27553 24.6072 9.53579 24.8169V15.7765L24.1262 30H26.6396L7.736 11.4627ZM24.7289 8.34937C24.3814 8.35069 24.047 8.21646 23.7968 7.97519V17.0945L9.47585 2.87216H6.70531L25.5983 21.3697V8.02728C25.3566 8.23555 25.048 8.34987 24.7289 8.34937Z" fill="#349EA3"/>
<path d="M4.14372 2C3.71993 1.99967 3.30556 2.12502 2.95301 2.3602C2.60047 2.59538 2.32558 2.92982 2.16312 3.32124C2.00066 3.71265 1.95793 4.14345 2.04032 4.55916C2.12271 4.97486 2.32653 5.35679 2.626 5.65665C2.92547 5.95651 3.30714 6.16083 3.72273 6.24377C4.13833 6.3267 4.56919 6.28453 4.96081 6.12258C5.35244 5.96064 5.68724 5.68619 5.92289 5.33395C6.15853 4.98171 6.28442 4.56751 6.28464 4.14372C6.28449 3.5757 6.05897 3.03095 5.65759 2.62903C5.2562 2.22712 4.71174 2.00089 4.14372 2ZM4.34706 5.46177C4.27983 5.4726 4.21182 5.47785 4.14372 5.47745C3.87844 5.47778 3.61903 5.39943 3.39829 5.25231C3.17755 5.10518 3.00541 4.89589 2.90364 4.65092C2.80186 4.40594 2.77504 4.13628 2.82654 3.87606C2.87805 3.61583 3.00558 3.37672 3.193 3.18899C3.38043 3.00126 3.61932 2.87333 3.87946 2.82138C4.1396 2.76944 4.4093 2.79582 4.65445 2.89718C4.89959 2.99854 5.10917 3.17034 5.25666 3.39083C5.40416 3.61132 5.48294 3.8706 5.48306 4.13588V4.24063C5.4594 4.54254 5.33426 4.82755 5.12799 5.04928C4.92172 5.27101 4.64648 5.41639 4.34706 5.46177Z" fill="#349EA3"/>
<path d="M24.7289 4.868C24.1694 4.88079 23.6372 5.11203 23.246 5.51224C22.8549 5.91246 22.6359 6.44986 22.6359 7.00948C22.6359 7.5691 22.8549 8.1065 23.246 8.50671C23.6372 8.90692 24.1694 9.13816 24.7289 9.15096C25.0286 9.15193 25.3249 9.08891 25.5983 8.9661C26.0471 8.76713 26.4138 8.41995 26.6372 7.98275C26.8605 7.54554 26.9267 7.04488 26.8248 6.56463C26.723 6.08439 26.4591 5.65375 26.0776 5.34486C25.696 5.03598 25.2198 4.86762 24.7289 4.868ZM25.5983 8.02728C25.366 8.22548 25.073 8.33836 24.7678 8.34722C24.4625 8.35607 24.1635 8.26037 23.9201 8.07598C23.6767 7.89158 23.5037 7.62956 23.4296 7.33334C23.3555 7.03711 23.3849 6.72447 23.5128 6.44723C23.6408 6.16999 23.8596 5.94478 24.1331 5.80895C24.4065 5.67311 24.7182 5.63479 25.0164 5.70034C25.3147 5.76589 25.5815 5.93137 25.7728 6.16937C25.9641 6.40736 26.0683 6.70357 26.0682 7.00892C26.0682 7.20254 26.0261 7.39385 25.945 7.56966C25.8638 7.74547 25.7456 7.9016 25.5983 8.02728Z" fill="#349EA3"/>
<path d="M9.53858 23.8915C9.11456 23.712 8.64398 23.6739 8.1966 23.7828C7.74921 23.8917 7.34881 24.1419 7.05473 24.4962C6.76065 24.8505 6.58852 25.2901 6.56387 25.7499C6.53921 26.2097 6.66333 26.6652 6.91784 27.0489C7.17234 27.4326 7.54369 27.7241 7.97687 27.8803C8.41004 28.0364 8.88199 28.0488 9.32278 27.9157C9.76357 27.7826 10.1498 27.5111 10.4241 27.1413C10.6985 26.7715 10.8464 26.3231 10.846 25.8627C10.846 25.4418 10.722 25.0302 10.4895 24.6793C10.257 24.3284 9.92624 24.0538 9.53858 23.8898V23.8915ZM8.69835 27.2037C8.43365 27.2031 8.17504 27.1242 7.95519 26.9767C7.73535 26.8293 7.56412 26.62 7.46312 26.3754C7.36213 26.1307 7.33591 25.8616 7.38777 25.602C7.43963 25.3424 7.56724 25.104 7.75449 24.9169C7.94175 24.7298 8.18024 24.6024 8.43986 24.5508C8.69948 24.4991 8.96858 24.5256 9.21317 24.6268C9.45777 24.728 9.6669 24.8994 9.81414 25.1193C9.96139 25.3393 10.0402 25.598 10.0405 25.8627C10.0406 26.0387 10.0059 26.2131 9.93852 26.3757C9.87114 26.5383 9.77233 26.6861 9.64777 26.8105C9.52321 26.9349 9.37534 27.0335 9.21261 27.1007C9.04989 27.1679 8.87552 27.2023 8.69947 27.202L8.69835 27.2037Z" fill="#349EA3"/>
</g>
<defs>
<clipPath id="clip0_3434_68389">
<rect width="27.2331" height="28" fill="white" transform="translate(2 2)"/>
</clipPath>
</defs>
</svg>
