<svg width="37" height="33" viewBox="0 0 37 33" fill="none" xmlns="http://www.w3.org/2000/svg">
<g clip-path="url(#clip0_506_42101)">
<path d="M28.4431 25.0332L25.5255 27.0586L4.04059 12.2124C4.04059 12.1833 4.04059 12.1543 4.03205 12.1252V10.8006C4.03205 10.371 4.03205 9.94196 4.03205 9.51351V8.16494L28.4431 25.0332ZM22.4472 5.87288C21.1499 6.76167 19.8406 7.63337 18.5433 8.52217C18.4788 8.5809 18.3947 8.61345 18.3074 8.61345C18.2202 8.61345 18.1361 8.5809 18.0716 8.52217C16.4683 7.40605 14.8565 6.30018 13.2516 5.19261C11.5629 4.02008 9.8753 2.84414 8.18887 1.66478L5.79425 0H0C0.307659 0.215362 0.560624 0.396539 0.815297 0.572588L5.35669 3.72097C6.85397 4.76245 8.35067 5.80394 9.84681 6.84542C11.2552 7.8248 12.6602 8.80931 14.0703 9.78699C15.4086 10.7151 16.7503 11.6329 18.0887 12.5628C18.1427 12.6118 18.2131 12.6389 18.2861 12.6389C18.3591 12.6389 18.4294 12.6118 18.4835 12.5628C19.5637 11.8227 20.6559 11.0945 21.731 10.3544C24.4065 8.52103 27.0797 6.68476 29.7507 4.84564L35.5894 0.85461C35.9927 0.579425 36.3944 0.299113 36.8149 0H31.0035C28.1503 1.95649 25.2982 3.91411 22.4472 5.87288ZM4.06281 18.0391C4.05013 18.0637 4.03983 18.0895 4.03205 18.116V20.5499C4.03205 21.0354 4.03205 21.5208 4.03205 22.0045C4.03335 22.034 4.04031 22.063 4.05256 22.0899L18.3929 32.0034H18.4066L21.3242 29.9797L4.06281 18.0391ZM32.711 8.17349L22.0387 15.5539C22.0724 15.5994 22.1101 15.6417 22.1515 15.6804C23.0539 16.3196 23.957 16.956 24.8606 17.5896C24.8904 17.6056 24.9245 17.6116 24.958 17.6067L32.6854 12.2568C32.697 12.2341 32.7056 12.21 32.711 12.185V8.17349ZM32.7196 18.1946C31.5077 19.0304 30.3386 19.8389 29.1559 20.6576L31.9282 22.6232L32.7196 22.0746V18.1946Z" fill="url(#paint0_linear_506_42101)"/>
</g>
<defs>
<linearGradient id="paint0_linear_506_42101" x1="4.68155" y1="22.7155" x2="32.106" y2="-4.7089" gradientUnits="userSpaceOnUse">
<stop stop-color="#1A44B7"/>
<stop offset="1" stop-color="#4760FF"/>
</linearGradient>
<clipPath id="clip0_506_42101">
<rect width="37" height="33" fill="white"/>
</clipPath>
</defs>
</svg>
