<svg width="24" height="24" viewBox="0 0 24 24" fill="none" xmlns="http://www.w3.org/2000/svg">
<path fill-rule="evenodd" clip-rule="evenodd" d="M2.00385 2.59913C2.09328 2.68713 5.15481 4.94559 10.4276 8.81358C11.379 9.51153 12.23 10.1117 12.3188 10.1474C12.4116 10.1847 12.7381 10.0251 13.0878 9.77139C13.4221 9.52902 15.7891 7.81389 18.3478 5.95998C20.9066 4.10608 23 2.56917 23 2.54455C23 2.51994 22.2702 2.49989 21.3784 2.5L19.7567 2.50011L16.1441 5.11757C14.1571 6.55713 12.4763 7.73492 12.409 7.73492C12.2992 7.73492 11.4519 7.12319 6.571 3.52074L5.18863 2.50045L3.54573 2.50011C2.57881 2.49989 1.94441 2.54066 2.00385 2.59913ZM4.20151 8.5271L4.2316 9.78008L10.3991 14.3329C13.7913 16.8369 16.6206 18.9109 16.6865 18.9419C16.7975 18.994 18.4268 17.8837 18.4213 17.7597C18.419 17.7093 4.6813 7.58076 4.32294 7.36534C4.19481 7.28826 4.17598 7.46804 4.20151 8.5271ZM17.1825 9.57468C15.5327 10.8039 14.1543 11.8398 14.1192 11.8765C14.0842 11.9132 14.4371 12.225 14.9036 12.5693L15.7517 13.1953L17.9497 11.5625C19.1586 10.6645 20.1691 9.87119 20.1953 9.79979C20.2214 9.72828 20.2292 9.14551 20.2125 8.50471L20.1821 7.3395L17.1825 9.57468ZM4.17843 14.7329C4.17843 15.8423 4.19757 15.9567 4.41769 16.1641C4.63408 16.3679 12.2387 22.0647 12.5509 22.2568C12.6645 22.3267 14.2804 21.1987 14.2804 21.0494C14.2804 20.9875 4.3206 13.527 4.23787 13.527C4.20523 13.527 4.17843 14.0697 4.17843 14.7329ZM19.2533 14.2858C18.7425 14.6954 18.3311 15.0808 18.339 15.1421C18.3468 15.2034 18.6788 15.5185 19.0767 15.8424C19.7235 16.3687 19.8233 16.4161 20.0178 16.2889C20.2169 16.1587 20.2353 16.0357 20.2353 14.8368C20.2353 14.1164 20.2232 13.5301 20.2087 13.5339C20.1941 13.5377 19.7642 13.876 19.2533 14.2858Z" fill="#2F52C8"/>
</svg>
