<svg width="45" height="32" viewBox="0 0 45 32" fill="none" xmlns="http://www.w3.org/2000/svg">
<path d="M13.8418 25.5844C13.8147 25.5882 13.7894 25.605 13.7673 25.6399C13.679 25.7806 13.8983 27.1023 14.5278 27.8175C15.1573 28.5351 16.5497 28.2833 17.5182 28.4352C18.4865 28.5869 18.8603 29.3176 19.5119 30.2576C20.5154 31.8886 21.9321 31.9281 21.9321 31.9281C21.9321 31.9281 23.3487 31.8886 24.3522 30.2576C25.0039 29.3176 25.3778 28.5869 26.3461 28.4352C27.3144 28.2833 28.7074 28.5351 29.3369 27.8175C29.9664 27.1023 30.1855 25.7806 30.0972 25.6399C30.0091 25.4995 29.8698 25.6504 29.7653 25.7697C29.3138 26.2859 29.0848 26.6311 28.0535 26.9108C27.0224 27.1907 26.0016 26.9247 26.0016 26.9247C25.556 27.3184 25.1909 27.5925 24.3461 27.6212L21.9321 27.6289L19.5182 27.6212C18.6732 27.5925 18.3085 27.3184 17.8629 26.9247C17.8629 26.9247 16.8421 27.1907 15.811 26.9108C14.7799 26.6311 14.5507 26.2859 14.0992 25.7697C14.0209 25.6802 13.9232 25.5732 13.8418 25.5844Z" fill="url(#paint0_linear_505_42094)"/>
<path d="M3.99073 0.00532283C2.09819 -0.261541 -7.20097 9.56542 11.4396 16.1396C13.3665 16.8201 17.7092 18.0051 19.1585 20.4948C18.1403 20.7231 17.4742 20.8652 16.319 20.4525C14.6337 19.8505 15.0422 18.065 15.0771 18.0515L6.1689 14.6607C6.1689 14.6607 7.70411 16.4701 9.85838 18.0515C12.0127 19.6332 15.8611 21.2585 17.4181 22.1766C18.9752 23.0921 19.4108 24.6272 19.4108 24.6272C19.4108 24.6272 18.943 24.5383 17.9082 24.5096C16.8731 24.481 15.9034 23.8062 15.6774 23.1951C15.4515 22.5841 15.5949 21.714 15.5864 21.697L13.376 20.7101C13.376 20.7101 13.3762 22.2453 12.9282 22.7496C12.4802 23.2515 10.366 21.8479 9.81552 21.5544C9.65117 21.4669 9.48564 21.4915 9.51527 21.6893C9.54253 21.8684 10.5808 23.4007 11.5208 24.238C12.4583 25.0728 13.6656 24.7806 13.951 24.7696C14.416 24.7516 15.3944 24.7721 16.3534 25.3495C17.4598 26.0158 17.6038 26.4128 17.9957 26.7745C18.2754 27.0325 18.7305 27.4463 19.5099 27.4463L21.9321 27.4671L24.3542 27.4463C25.1336 27.4463 25.5891 27.0325 25.8689 26.7745C26.2606 26.4128 26.4048 26.0158 27.5111 25.3495C28.4701 24.7721 29.4485 24.7516 29.9135 24.7696C30.1989 24.7806 31.4062 25.0728 32.3437 24.238C33.2838 23.4007 34.3216 21.8684 34.3487 21.6893C34.3785 21.4915 34.2133 21.4669 34.049 21.5544C33.4985 21.8479 31.3843 23.2515 30.9363 22.7496C30.4883 22.2453 30.4883 20.7101 30.4883 20.7101L28.2781 21.697C28.2696 21.714 28.4131 22.5841 28.1871 23.1951C27.9611 23.8062 26.9908 24.481 25.956 24.5096C24.9211 24.5383 24.4537 24.6272 24.4537 24.6272C24.4537 24.6272 24.8893 23.0921 26.4462 22.1766C28.0034 21.2585 31.8517 19.6332 34.0061 18.0515C36.1604 16.4701 37.6952 14.6607 37.6952 14.6607L28.7874 18.0515C28.8223 18.065 29.2308 19.8505 27.5455 20.4525C26.3903 20.8652 25.7243 20.7231 24.706 20.4948C26.1553 18.0051 30.498 16.8201 32.4247 16.1396C51.6668 9.35347 41.1372 -0.898973 39.7148 0.0631994C39.2962 0.347249 39.5925 0.780236 39.5925 0.780236C39.5925 0.780236 41.0369 3.18932 39.9255 5.38764C38.814 7.58616 34.239 8.85115 32.6331 8.67732C31.0345 8.50606 30.3568 8.00058 30.3518 7.98834C29.7889 7.27347 29.1439 5.97866 28.0717 6.71782C26.8109 7.58952 25.3738 7.31357 24.2746 6.12384C23.173 4.93155 21.9321 4.46794 21.9321 4.46794C21.9321 4.46794 20.6912 4.93155 19.5893 6.12384C18.4903 7.31357 17.053 7.58952 15.7924 6.71782C14.7202 5.97866 14.0759 7.27347 13.5127 7.98834C13.5078 8.00058 12.83 8.50587 11.2314 8.67732C9.6255 8.85115 5.05048 7.58616 3.93898 5.38764C2.82767 3.18932 4.27201 0.780434 4.27201 0.780434C4.27201 0.780434 4.56792 0.347249 4.14935 0.0631994C4.10161 0.0319966 4.04734 0.0121937 3.99073 0.00532283ZM13.6723 10.595C13.6723 10.595 14.9333 10.5726 17.0876 11.214C19.2395 11.8558 21.9319 14.4257 21.9319 14.4257C21.9319 14.4257 24.6248 11.8558 26.7767 11.2142C28.931 10.5728 30.1918 10.595 30.1918 10.595C30.1918 10.595 27.3274 11.2142 24.9454 12.7026C22.5634 14.191 21.9319 16.0249 21.9319 16.0249C21.9319 16.0249 21.3004 14.191 18.9183 12.7026C16.5363 11.2142 13.6721 10.595 13.6721 10.595H13.6723Z" fill="url(#paint1_linear_505_42094)"/>
<path d="M3.64128 0.0454102C1.21007 0.753163 -6.2321 9.90714 11.4398 16.1396C13.3665 16.8201 17.7094 18.0053 19.1585 20.4948C18.1404 20.7233 17.4744 20.8652 16.3192 20.4525C14.6339 19.8504 15.0424 18.065 15.0771 18.0515L6.16909 14.6607C6.16909 14.6607 7.7041 16.4701 9.85837 18.0515C12.0128 19.6332 15.8613 21.2584 17.4183 22.1766C18.9752 23.0921 19.411 24.6271 19.411 24.6271C19.411 24.6271 18.9432 24.5382 17.9081 24.5096C16.8733 24.481 15.9036 23.8062 15.6776 23.195C15.4515 22.5839 15.5951 21.7138 15.5866 21.6966L13.3762 20.7101C13.3762 20.7101 13.3762 22.2451 12.9284 22.7496C12.4802 23.2515 10.3662 21.8479 9.8157 21.5543C9.65136 21.4668 9.48583 21.4915 9.51546 21.6893C9.54252 21.8684 10.5807 23.4007 11.521 24.238C12.4585 25.0728 13.6656 24.7806 13.951 24.7696C14.416 24.7514 15.3942 24.7719 16.353 25.3495C17.4596 26.0158 17.6039 26.4128 17.9958 26.7745C18.2754 27.0325 18.7307 27.4463 19.5101 27.4463L21.9145 27.467H21.9322L24.3364 27.4463C25.1158 27.4463 25.5712 27.0325 25.8507 26.7745C26.2426 26.4128 26.387 26.0158 27.4935 25.3495C28.4523 24.7719 29.4305 24.7514 29.8955 24.7696C30.1809 24.7806 31.3884 25.0728 32.3261 24.238C33.2662 23.4007 34.304 21.8684 34.3311 21.6893C34.3609 21.4915 34.1954 21.4668 34.031 21.5543C33.4805 21.8479 31.3663 23.2515 30.9183 22.7496C30.4703 22.2451 30.4703 20.7101 30.4703 20.7101L28.2601 21.6966C28.2515 21.7138 28.3951 22.5839 28.1691 23.195C27.9431 23.8062 26.9732 24.481 25.9384 24.5096C24.9035 24.5382 24.4356 24.6271 24.4356 24.6271C24.4356 24.6271 24.8717 23.0921 26.4286 22.1766C27.9858 21.2584 31.8337 19.6332 33.9881 18.0515C36.1424 16.4703 37.6774 14.6607 37.6774 14.6607L28.7694 18.0515C28.8043 18.065 29.2126 19.8504 27.5275 20.4525C26.3721 20.8652 25.7061 20.7233 24.688 20.4948C26.1371 18.0053 30.48 16.8201 32.4067 16.1396C50.0786 9.90714 42.6368 0.753163 40.2056 0.0454102C40.2056 0.0454102 42.671 3.25272 42.2943 6.39148C41.9291 9.53025 35.7199 12.6921 30.5152 13.9707C29.0475 14.3316 22.1663 17.2958 21.9259 20.642C21.6855 17.2958 14.799 14.3316 13.3314 13.9705C8.12681 12.6921 1.91802 9.53025 1.55259 6.39148C1.1759 3.25272 3.64128 0.0454102 3.64128 0.0454102Z" fill="url(#paint2_linear_505_42094)"/>
<path d="M19.5172 27.6211C19.3912 29.7491 21.932 31.0378 21.932 31.0378C21.932 31.0378 24.4733 29.7491 24.3471 27.6211L21.932 27.6288L19.5172 27.6211Z" fill="url(#paint3_linear_505_42094)"/>
<path fill-rule="evenodd" clip-rule="evenodd" d="M18.6744 23.8919C18.5545 23.6043 17.9042 22.4679 16.3915 22.025C16.2256 21.9764 15.9577 21.9452 15.891 22.3277C15.8323 22.6638 15.9443 23.1039 16.1503 23.3706C16.5272 23.8581 16.9568 24.0778 17.4846 24.1785C17.71 24.2214 18.0401 24.2909 18.3194 24.2716C18.4261 24.2657 18.5304 24.2373 18.6254 24.1882C18.7528 24.1234 18.732 24.0302 18.6744 23.8919ZM18.3684 20.0173C17.9668 19.5569 17.4074 18.7936 15.9362 18.2415C15.7742 18.1805 15.5024 18.1617 15.4356 18.5441C15.377 18.8803 15.489 19.3204 15.6952 19.5871C16.0719 20.0746 16.5007 20.299 17.0293 20.395C17.2664 20.4379 17.456 20.4884 17.8641 20.488C17.9781 20.4878 18.0938 20.4675 18.1995 20.4485C18.6038 20.376 18.5045 20.1734 18.3684 20.0173ZM25.1901 23.8919C25.31 23.6043 25.9603 22.4679 27.473 22.025C27.6391 21.9764 27.9068 21.9452 27.9735 22.3277C28.0322 22.6638 27.9204 23.1039 27.7142 23.3706C27.3375 23.8581 26.9076 24.0778 26.38 24.1785C26.1545 24.2214 25.8244 24.2909 25.5453 24.2716C25.4385 24.2657 25.3341 24.2373 25.2391 24.1882C25.1117 24.1234 25.1326 24.0302 25.1901 23.8919ZM25.4959 20.0173C25.8977 19.5569 26.4571 18.7936 27.9281 18.2415C28.0903 18.1805 28.3621 18.1617 28.4288 18.5441C28.4875 18.8803 28.3755 19.3204 28.1693 19.5871C27.7926 20.0746 27.3637 20.299 26.8351 20.395C26.5981 20.4379 26.4083 20.4884 26.0004 20.488C25.8864 20.4878 25.7707 20.4675 25.6648 20.4485C25.2606 20.376 25.36 20.1734 25.4959 20.0173Z" fill="#6E93E5"/>
<path d="M3.60079 4.41187C3.60079 4.41187 3.42222 9.33987 10.7103 9.93246C11.6036 10.0085 12.5734 9.90461 13.4303 9.01927C14.7236 7.68278 14.6027 7.33987 15.4669 7.6727C16.3334 8.00574 17.4696 8.41424 18.7795 7.25137C20.0889 6.09108 20.7986 5.82283 21.9321 5.82283C23.0655 5.82283 23.7756 6.09108 25.0852 7.25157C26.3951 8.41424 27.5311 8.00574 28.3978 7.6727C29.2618 7.33987 29.1411 7.68278 30.4344 9.01927C31.2913 9.90461 32.2609 10.0085 33.1544 9.93246C40.4423 9.33987 40.2635 4.41187 40.2635 4.41187C40.1955 4.75113 40.082 5.07965 39.9259 5.38846C38.8146 7.58678 34.244 8.241 32.6378 8.06935C31.0394 7.89848 31.0554 7.29364 30.5472 6.44367C30.0158 5.55517 29.1445 5.60633 28.0721 6.34569C26.8115 7.2172 25.3693 6.85019 24.27 5.66026C23.1684 4.46816 21.9321 4.46796 21.9321 4.46796C21.9321 4.46796 20.6961 4.46816 19.5945 5.66046C18.4954 6.85019 17.0532 7.217 15.7924 6.34569C14.72 5.60633 13.8487 5.55517 13.3173 6.44367C12.8091 7.29364 12.8249 7.89848 11.2265 8.06935C9.62035 8.2412 5.05008 7.58678 3.93857 5.38846C3.78239 5.07967 3.66877 4.75116 3.60079 4.41187Z" fill="url(#paint4_linear_505_42094)"/>
<defs>
<linearGradient id="paint0_linear_505_42094" x1="13.47" y1="28.8467" x2="30.434" y2="28.8467" gradientUnits="userSpaceOnUse">
<stop stop-color="#3B60B2"/>
<stop offset="0.497" stop-color="#3B60B2"/>
<stop offset="0.499" stop-color="#4A78DF"/>
<stop offset="1" stop-color="#4A78DF"/>
</linearGradient>
<linearGradient id="paint1_linear_505_42094" x1="39.9086" y1="9.69757" x2="3.92633" y2="9.69757" gradientUnits="userSpaceOnUse">
<stop stop-color="#253C70"/>
<stop offset="0.499" stop-color="#34549C"/>
<stop offset="0.5" stop-color="#3B60B2"/>
<stop offset="1" stop-color="#2C4886"/>
</linearGradient>
<linearGradient id="paint2_linear_505_42094" x1="36.4059" y1="17.728" x2="8.09541" y2="17.728" gradientUnits="userSpaceOnUse">
<stop stop-color="#34549C"/>
<stop offset="0.512" stop-color="#4A78DF"/>
<stop offset="1" stop-color="#3B60B2"/>
</linearGradient>
<linearGradient id="paint3_linear_505_42094" x1="19.1473" y1="28.559" x2="24.7891" y2="28.5882" gradientUnits="userSpaceOnUse">
<stop stop-color="#436CC9"/>
<stop offset="0.494" stop-color="#4A78DF"/>
<stop offset="1" stop-color="#4A78DF"/>
</linearGradient>
<linearGradient id="paint4_linear_505_42094" x1="4.71427" y1="4.46796" x2="39.0039" y2="4.46796" gradientUnits="userSpaceOnUse">
<stop stop-color="#1E3059"/>
<stop offset="0.502" stop-color="#253C70"/>
<stop offset="1" stop-color="#162443"/>
</linearGradient>
</defs>
</svg>
