<svg width="24" height="24" viewBox="0 0 24 24" fill="none" xmlns="http://www.w3.org/2000/svg">
<circle cx="12" cy="12" r="12" fill="#DBDBDB"/>
<path d="M12 3.25C7.16797 3.25 3.25 7.16797 3.25 12C3.25 16.832 7.16797 20.75 12 20.75C16.832 20.75 20.75 16.832 20.75 12C20.75 7.16797 16.832 3.25 12 3.25ZM12 19.2656C7.98828 19.2656 4.73438 16.0117 4.73438 12C4.73438 10.2617 5.3457 8.66406 6.36523 7.41406L16.5859 17.6348C15.3359 18.6543 13.7383 19.2656 12 19.2656ZM17.6348 16.5859L7.41406 6.36523C8.66406 5.3457 10.2617 4.73438 12 4.73438C16.0117 4.73438 19.2656 7.98828 19.2656 12C19.2656 13.7383 18.6543 15.3359 17.6348 16.5859Z" fill="#141414"/>
</svg>
