<svg width="24" height="24" viewBox="0 0 24 24" fill="none" xmlns="http://www.w3.org/2000/svg">
<path d="M23.9277 11.6402L20.6886 3.81886C20.5938 3.58922 20.4109 3.40497 20.1799 3.31017L12.3586 0.0710968C12.1289 -0.0236989 11.8699 -0.0236989 11.6389 0.0710968L3.81889 3.31017C3.58924 3.40497 3.40499 3.58788 3.3102 3.81886L0.0710973 11.6402C-0.0236991 11.8698 -0.0236991 12.1288 0.0710973 12.3598L3.3102 20.1811C3.40499 20.4108 3.58791 20.595 3.81889 20.6898L11.6403 23.9289C11.8699 24.0237 12.1289 24.0237 12.3599 23.9289L20.1813 20.6898C20.4109 20.595 20.5952 20.4121 20.69 20.1811L23.9291 12.3598C24.0239 12.1288 24.0239 11.8698 23.9277 11.6402Z" fill="#6100FB"/>
<path d="M11.9994 2.53178C11.9032 2.53178 11.8071 2.55048 11.715 2.58786L5.54519 5.14467C5.36361 5.21944 5.21941 5.36364 5.14331 5.54655L2.58781 11.715C2.51305 11.8965 2.51305 12.1008 2.58781 12.2824L5.14331 18.4521C5.21808 18.6337 5.36228 18.7779 5.54519 18.854L11.715 21.4095C11.8058 21.4469 11.9019 21.4656 11.9994 21.4656C12.0955 21.4656 12.1916 21.4469 12.2837 21.4095L18.4535 18.854C18.6351 18.7792 18.7793 18.635 18.8554 18.4521L21.4109 12.2824C21.4857 12.1008 21.4857 11.8965 21.4109 11.715L18.8554 5.54522C18.7806 5.36364 18.6364 5.21944 18.4535 5.14334L12.2824 2.58786C12.1916 2.55048 12.0955 2.53178 11.9994 2.53178Z" fill="#2D2D2D"/>
<path d="M13.0061 8.06199C12.8739 8.01526 12.735 7.97654 12.5882 7.94851V6.85902H11.3558V7.92314C11.1582 7.95251 10.97 7.99924 10.791 8.06199H13.0061Z" fill="white"/>
<path d="M10.7724 15.942C10.9526 16.0061 11.1476 16.0542 11.3545 16.0849V17.1103H12.5869V16.0983C12.8192 16.0662 13.0315 16.0128 13.2251 15.942H10.7724Z" fill="white"/>
<path fill-rule="evenodd" clip-rule="evenodd" d="M11.3986 14.4307H15.0622V16.1343H8.93652V14.5855L11.3465 11.9166L8.94721 9.41716V7.86438H15.0622V9.56803H11.476L13.7004 11.8965L11.3986 14.4307Z" fill="white"/>
</svg>
