<?xml version="1.0" encoding="utf-8"?><svg xmlns="http://www.w3.org/2000/svg" xmlns:xlink="http://www.w3.org/1999/xlink"><symbol fill="none" viewBox="0 0 24 24" id="token-ada" xmlns="http://www.w3.org/2000/svg"><circle cx="12" cy="12" r="12" fill="#DBDBDB"/><g clip-path="url(#aclip0)" fill="#0033AD"><path d="M7.483 11.935c-.043.722.528 1.34 1.269 1.382h.08c.747 0 1.35-.587 1.344-1.314 0-.728-.603-1.315-1.35-1.31-.714 0-1.306.546-1.343 1.242zM2.459 11.597a.428.428 0 00-.459.4c-.01.234.17.437.41.447a.431.431 0 00.46-.4.428.428 0 00-.411-.447zM7.397 4.32a.423.423 0 00.192-.572.445.445 0 00-.586-.187.417.417 0 00-.192.566.437.437 0 00.586.192s-.005 0 0 0zM8.763 6.642a.647.647 0 00.298-.878.681.681 0 00-.901-.291.647.647 0 00-.299.878c.166.322.571.452.902.29zM4.165 8.236a.567.567 0 00.768-.155.535.535 0 00-.16-.749.567.567 0 00-.768.156.53.53 0 00.16.748zM4.981 11.364a.664.664 0 00-.709.618.66.66 0 00.635.69.664.664 0 00.709-.617.663.663 0 00-.635-.691zM4.24 15.764a.535.535 0 00-.245.727c.138.265.469.374.746.239a.535.535 0 00.246-.727.565.565 0 00-.747-.24zM6.853 10.008a.798.798 0 001.094-.224.753.753 0 00-.23-1.065.798.798 0 00-1.093.224.755.755 0 00.23 1.065zM15.147 6.59c.309.197.73.114.933-.187a.649.649 0 00-.192-.91.688.688 0 00-.933.188.64.64 0 00.192.909zM16.523 4.278a.44.44 0 00.602-.125.415.415 0 00-.128-.587.444.444 0 00-.602.12.43.43 0 00.128.592zM15.248 10.683c-.741-.041-1.381.514-1.419 1.236-.042.723.528 1.346 1.27 1.382h.074c.742 0 1.344-.587 1.344-1.314.006-.69-.554-1.268-1.269-1.304zM9.205 9.914c.23.442.694.722 1.206.722.741 0 1.344-.587 1.344-1.314 0-.203-.048-.405-.144-.592a1.361 1.361 0 00-1.808-.582c-.667.333-.934 1.122-.598 1.766zM19.76 8.236A.535.535 0 0020 7.51a.563.563 0 00-.747-.234.535.535 0 00-.245.722.571.571 0 00.752.24zM16.347 8.652a.761.761 0 00-.352 1.034.8.8 0 001.061.343.761.761 0 00.352-1.034.806.806 0 00-1.061-.343zM11.947 4.08a.557.557 0 00.586-.509c.022-.296-.218-.55-.522-.571a.553.553 0 00-.587.504.554.554 0 00.523.577zM11.941 7.473a.778.778 0 00.832-.728.773.773 0 00-.746-.81.778.778 0 00-.832.727c-.022.426.309.79.746.81zM7.653 15.348a.761.761 0 00.352-1.034.801.801 0 00-1.061-.343.761.761 0 00-.352 1.034.801.801 0 001.061.343zM12.453 8.6a1.288 1.288 0 00.39 1.813c.624.395 1.456.229 1.861-.38a1.288 1.288 0 00-.39-1.812 1.363 1.363 0 00-.735-.213 1.36 1.36 0 00-1.126.592zM14.795 14.086a1.361 1.361 0 00-1.808-.582 1.293 1.293 0 00-.598 1.76c.336.65 1.147.91 1.808.583a1.29 1.29 0 00.603-1.75c0-.006 0-.006-.005-.011zM17.147 13.992a.798.798 0 00-1.094.224.753.753 0 00.23 1.065.798.798 0 001.093-.224.755.755 0 00-.23-1.065zM19.728 12.023a.66.66 0 00-.635-.69.664.664 0 00-.709.618.66.66 0 00.635.69.67.67 0 00.709-.618zM21.59 11.556a.428.428 0 00-.46.4c-.01.234.171.436.411.447a.431.431 0 00.459-.4.432.432 0 00-.41-.447zM19.835 15.764a.567.567 0 00-.768.155.535.535 0 00.16.748.567.567 0 00.768-.155.53.53 0 00-.16-.748zM7.472 19.722a.444.444 0 00-.603.12.418.418 0 00.123.587c.203.13.47.072.603-.12a.41.41 0 00-.123-.587zM16.603 19.68a.423.423 0 00-.192.572c.106.208.373.29.586.187a.417.417 0 00.192-.566.436.436 0 00-.586-.193s.005 0 0 0zM11.547 15.4a1.294 1.294 0 00-.39-1.818 1.372 1.372 0 00-1.866.38 1.29 1.29 0 00.389 1.817c.219.14.475.213.736.213.459.005.88-.218 1.13-.592zM8.853 17.41a.688.688 0 00-.933.187.649.649 0 00.192.91c.31.197.73.114.933-.188a.64.64 0 00-.192-.909zM11.995 19.92a.557.557 0 00-.587.509c-.021.296.219.55.523.571a.553.553 0 00.586-.504.554.554 0 00-.522-.576zM12 16.527a.778.778 0 00-.832.728c-.027.425.31.79.747.81.437.02.81-.301.832-.727a.776.776 0 00-.747-.81zM15.237 17.358a.648.648 0 00-.293.884c.17.322.576.451.907.285a.647.647 0 00.298-.878.69.69 0 00-.912-.29z"/></g><defs><clipPath id="aclip0"><path fill="#fff" transform="translate(2 3)" d="M0 0h20v18H0z"/></clipPath></defs></symbol><symbol fill="none" viewBox="0 0 24 24" id="token-empty" xmlns="http://www.w3.org/2000/svg"><circle cx="12" cy="12" r="12" fill="#DBDBDB"/><path d="M12 3.25a8.75 8.75 0 10.001 17.501A8.75 8.75 0 0012 3.25zm0 16.016A7.267 7.267 0 016.365 7.414l10.22 10.22A7.233 7.233 0 0112 19.267zm5.635-2.68L7.415 6.366a7.267 7.267 0 0110.22 10.22z" fill="#141414"/></symbol><symbol fill="none" viewBox="0 0 25 24" id="token-erdoge" xmlns="http://www.w3.org/2000/svg"><path d="M.639 11.999a.91.91 0 00.068.341l3.069 7.412c.089.217.264.392.48.481l7.412 3.069a.9.9 0 00.68 0l7.415-3.069a.889.889 0 00.481-.48l3.072-7.412a.91.91 0 00.068-.342.91.91 0 00-.068-.342l-3.072-7.411a.889.889 0 00-.48-.482L12.351.693a.899.899 0 00-.68 0L4.256 3.764a.889.889 0 00-.481.482L.704 11.657A.907.907 0 00.639 12z" fill="#5900FF"/><path d="M4.028 14.42c-.036-1.242-.472-3.618-.318-4.153.155-.535 1.004-2.308 1.004-2.308S3.018 2.743 4.68.79c1.054-1.236 3.006 2.263 4.11 3.582 0 0 1.887-.365 3.62-.33 1.73.036 3.665.925 3.665.925s2.902-4.352 4.132-3.56c1.625 1.046.903 5.698-.057 7.54 0 1.346.49 2.926-.665 4.916-1.156 1.988-3.104 4.566-3.104 4.566s-8.101.526-8.258.455c-.158-.072-4.094-4.465-4.094-4.465z" fill="#FFA100"/><path d="M19.796 9.138c.695 2.51-.968 4.162-3.116 4.162-2.145 0-2.175-3.348-4.723-3.357h-.012C9.395 9.955 9.369 13.3 7.22 13.3c-2.147 0-3.81-1.652-3.116-4.162 0 0-.82 1.66-.775 4.162.042 2.498 1.29 7.094 1.29 7.094l7.325 2.537v.003l.006-.003.006.003v-.003l7.806-2.698s.767-4.432.811-6.933c.042-2.498-.778-4.162-.778-4.162z" fill="#fff"/><path d="M4.257 20.566a.333.333 0 01-.321-.246c-2.195-8.178-.172-11.375 1.04-13.285l.071-.113a.335.335 0 01.46-.104.335.335 0 01.104.46l-.07.114c-.604.95-1.352 2.132-1.709 4.084-.196 1.07-.25 2.273-.16 3.574.107 1.524.413 3.238.912 5.097a.33.33 0 01-.327.419z" fill="#241F20"/><path d="M6.45 10.421a5.144 5.144 0 01-.007-.216c0-.91.276-1.66 1.156-1.777a1.791 1.791 0 00-1.863 2.528c.172-.226.419-.413.713-.534zM15.94 10.421a5.094 5.094 0 01-.006-.216c0-.91.276-1.66 1.156-1.777a1.791 1.791 0 00-1.863 2.528c.17-.226.419-.413.713-.534z" fill="#A5660C"/><path d="M7.299 11.999c.822 0 1.488-.389 1.488-.867 0-.48-.666-.868-1.488-.868s-1.489.388-1.489.868c0 .479.667.867 1.489.867zM16.76 11.999c.822 0 1.488-.389 1.488-.867 0-.48-.666-.868-1.488-.868s-1.488.388-1.488.868c0 .479.666.867 1.488.867z" fill="#fff"/><path d="M13.629 14.48c.826.825 1.491 4.473-1.358 4.473-2.848 0-2.471-3.648-1.645-4.474l1.56-.41 1.443.41z" fill="#FF5537"/><path d="M7.361 12.26a2.055 2.055 0 01-2.053-2.052c0-1.132.921-2.053 2.053-2.053s2.053.92 2.053 2.053c0 1.131-.921 2.052-2.053 2.052zm0-3.582c-.844 0-1.53.686-1.53 1.53 0 .843.686 1.53 1.53 1.53s1.53-.687 1.53-1.53c0-.844-.686-1.53-1.53-1.53z" fill="#241F20"/><path d="M8.918 11.304a.26.26 0 01-.262-.262c0-.098-.119-.22-.309-.315-.255-.127-.612-.199-.983-.199s-.728.075-.983.2c-.19.095-.31.216-.31.314a.26.26 0 01-.26.262.26.26 0 01-.262-.262c0-.59.781-1.036 1.815-1.036 1.034 0 1.815.445 1.815 1.036a.26.26 0 01-.261.262z" fill="#241F20"/><path d="M7.361 10.208c-.27 0-.526.038-.757.104.03.668.356 1.197.757 1.197s.728-.526.758-1.197a2.684 2.684 0 00-.758-.104zM16.76 12.26a2.055 2.055 0 01-2.053-2.052c0-1.132.921-2.053 2.053-2.053s2.053.92 2.053 2.053c0 1.131-.921 2.052-2.053 2.052zm0-3.582c-.844 0-1.53.686-1.53 1.53 0 .843.686 1.53 1.53 1.53s1.53-.687 1.53-1.53c0-.844-.686-1.53-1.53-1.53z" fill="#241F20"/><path d="M18.314 11.304a.26.26 0 01-.262-.262c0-.098-.119-.22-.309-.315-.255-.127-.612-.199-.983-.199s-.728.075-.983.2c-.19.095-.31.216-.31.314a.26.26 0 01-.26.262.26.26 0 01-.262-.262c0-.59.781-1.036 1.815-1.036 1.034 0 1.815.445 1.815 1.036a.26.26 0 01-.261.262z" fill="#241F20"/><path d="M16.76 10.208c-.27 0-.526.038-.758.104.033.671.36 1.197.758 1.197.401 0 .728-.526.757-1.197a2.684 2.684 0 00-.757-.104z" fill="#241F20"/><path d="M12.06 14.188l-1.28.232c-1.129.826-2.052 4.646 1.85 4.646.185 0 .28-.413.446-.428-3.327-.315-2.09-3.666-1.016-4.45z" fill="#DC5537"/><path d="M7.56 4.976c-.555-1.538-1.672-2.65-2.234-1.98-.407.483-.448 2.15.003 3.142.13.288.505.362.743.154L7.56 4.976z" fill="#A5660C"/><path d="M12.06 13.3c.83 0 1.504-.583 1.504-1.301 0-.719-.673-1.301-1.504-1.301-.83 0-1.503.582-1.503 1.3 0 .72.673 1.302 1.503 1.302z" fill="#9E3219"/><path d="M17.44 6.037c.556-1.539 1.673-2.65 2.234-1.981.407.484.449 2.15-.003 3.142a.473.473 0 01-.742.155L17.44 6.037z" fill="#A5660C"/><path d="M17.613 6.524a.338.338 0 01-.244-.104c-1.194-1.268-3.173-2.02-5.427-2.064-2.151-.042-4.144.582-5.202 1.625a.336.336 0 01-.472-.003.336.336 0 01.003-.473c1.18-1.164 3.357-1.86 5.68-1.815 2.432.045 4.583.874 5.9 2.273a.333.333 0 01-.016.469.303.303 0 01-.223.092zM19.763 20.566a.333.333 0 01-.318-.437c.208-.635.65-3.071.728-5.81.113-4.17-.674-6.12-1.351-7.02a.332.332 0 11.532-.401c.59.782 1.012 1.905 1.253 3.345.196 1.174.276 2.552.235 4.094-.078 2.843-.532 5.311-.76 6a.337.337 0 01-.319.229zM10.596 14.732c-.677 0-1.384-.339-2.029-.983a.31.31 0 11.44-.44c.704.707 1.473.96 2.112.698.395-.163.633-.487.633-.707a.309.309 0 11.617 0c0 .508-.418 1.034-1.015 1.28a1.96 1.96 0 01-.758.152z" fill="#241F20"/><path d="M13.525 14.732a1.97 1.97 0 01-.758-.152c-.597-.246-1.015-.775-1.015-1.28a.309.309 0 11.617 0c0 .22.238.544.633.707.636.264 1.405.009 2.112-.698a.31.31 0 11.44.44c-.645.644-1.355.983-2.03.983z" fill="#241F20"/><path d="M12.06 13.609c-1 0-1.812-.722-1.812-1.61 0-.888.814-1.61 1.813-1.61.998 0 1.812.722 1.812 1.61 0 .888-.811 1.61-1.813 1.61zm0-2.602c-.656 0-1.194.445-1.194.992 0 .546.535.992 1.194.992.657 0 1.195-.445 1.195-.992 0-.547-.538-.992-1.195-.992z" fill="#241F20"/><path d="M11.401 13.306c-.267 0-.73-.122-1.078-.861a.31.31 0 11.561-.265c.16.339.368.532.55.505a.262.262 0 00.214-.217c.023-.151-.092-.303-.321-.413a.311.311 0 01.273-.558c.481.238.728.636.66 1.07a.88.88 0 01-.737.733 1.44 1.44 0 01-.122.006z" fill="#241F20"/><path d="M12.717 13.306a.883.883 0 01-.856-.743c-.068-.43.179-.832.66-1.07a.312.312 0 01.416.143.312.312 0 01-.143.416c-.229.113-.344.262-.32.413.017.11.106.202.213.217.179.027.39-.166.55-.505a.313.313 0 01.413-.148c.154.074.22.258.148.412-.35.743-.814.865-1.081.865zM12.206 19.203c-1.1 0-1.916-.517-2.305-1.456-.238-.57-.31-1.283-.202-2.005.098-.663.335-1.239.639-1.542a.31.31 0 11.44.44c-.206.205-.387.674-.464 1.194-.092.612-.033 1.209.16 1.678.294.713.877 1.073 1.732 1.073.793 0 1.328-.315 1.586-.936.19-.46.226-1.075.101-1.726-.122-.63-.362-1.096-.546-1.28a.31.31 0 11.44-.44c.6.6 1.107 2.412.582 3.684-.253.6-.832 1.316-2.163 1.316z" fill="#241F20"/><path d="M12.206 17.408a.332.332 0 01-.333-.32l-.145-3.776a.332.332 0 11.665-.024l.146 3.776a.332.332 0 01-.321.344h-.012zM7.56 5.31a.328.328 0 01-.312-.22 4.823 4.823 0 00-.9-1.525c-.386-.427-.633-.499-.686-.493a.14.14 0 00-.024.045.33.33 0 01-.43.187.33.33 0 01-.188-.43c.12-.3.357-.47.657-.467.255.003.677.142 1.233.787a5.49 5.49 0 01.968 1.67.332.332 0 01-.318.445zM17.44 6.194a.332.332 0 01-.312-.446 5.41 5.41 0 01.921-1.597c.324-.38.817-.826 1.34-.776.341.033.778.28.936 1.269a.33.33 0 01-.277.38.33.33 0 01-.38-.276c-.068-.425-.199-.695-.341-.71-.131-.012-.413.122-.77.543a4.775 4.775 0 00-.802 1.394.335.335 0 01-.315.22z" fill="#241F20"/><path d="M8.665 7.617c.61 0 1.105-.392 1.105-.876s-.495-.876-1.105-.876-1.105.392-1.105.876.495.876 1.105.876zM15.334 7.617c.61 0 1.105-.392 1.105-.876s-.495-.876-1.105-.876-1.105.392-1.105.876.495.876 1.105.876z" fill="#fff"/><path d="M17.725 3.554a.62.62 0 01-.24-.048L12.11 1.281a.287.287 0 00-.199 0L7.584 3.072A.633.633 0 017.1 1.905L11.428.114a1.541 1.541 0 011.161 0l5.377 2.225a.63.63 0 01-.24 1.215zM12.004 24c-.199 0-.395-.039-.58-.113l-7.41-3.069a1.516 1.516 0 01-.824-.825L.12 12.58s0-.003-.003-.003a1.515 1.515 0 010-1.158c0-.003 0-.003.003-.006L3.19 4.002c.152-.371.452-.671.826-.823a.632.632 0 11.481 1.17.256.256 0 00-.136.137l-3.072 7.409a.27.27 0 000 .208l3.069 7.409a.273.273 0 00.136.14l7.415 3.068a.288.288 0 00.2 0l7.414-3.072a.272.272 0 00.14-.136l3.068-7.41a.27.27 0 000-.207l-2.484-5.989a.633.633 0 011.168-.484l2.483 5.992a1.515 1.515 0 01.003 1.164c0 .003 0 .003-.003.006l-3.071 7.409a1.506 1.506 0 01-.826.823l-7.415 3.071a1.562 1.562 0 01-.582.113z" fill="#241F20"/><path d="M18.54 3.294c.54-.54.846-1.108.684-1.269-.16-.161-.729.145-1.268.685-.54.54-.846 1.107-.685 1.268.161.162.73-.145 1.269-.684zM20.987 5.886c.048-.761-.098-1.39-.326-1.404-.228-.015-.45.591-.498 1.353-.047.761.099 1.39.326 1.404.228.014.45-.592.498-1.353z" fill="#FFA100"/><path d="M20.152 9.278a.33.33 0 01-.24-.561c.404-.42.7-1.58.775-3.034.071-1.414-.086-2.795-.404-3.514-.116-.264-.255-.43-.36-.43h-.002c-.657.017-1.756 1.179-2.199 1.678a21.494 21.494 0 00-1.375 1.738.333.333 0 01-.547-.38c.027-.036.63-.907 1.42-1.798 1.12-1.262 2-1.886 2.683-1.907.282-.009.683.13.992.826.362.82.538 2.281.46 3.814-.038.781-.21 2.686-.962 3.46a.317.317 0 01-.24.108z" fill="#241F20"/><path d="M3.823 3.916c0 .763.229 1.381.511 1.381.282 0 .615-.77.615-1.533 0-.763-.33-1.23-.615-1.23s-.51.619-.51 1.382zM7.859 3.588c.184-.135-.034-.743-.486-1.357-.452-.615-.968-1.004-1.151-.868-.184.135.034.742.486 1.357.452.614.967 1.003 1.15.868z" fill="#FFA100"/><path d="M4.711 8.292a.333.333 0 01-.24-.101c-.752-.776-.924-2.677-.963-3.458-.077-1.533.098-2.994.458-3.814.169-.387.481-.847.995-.832.692.018 1.574.713 2.694 2.118.787.986 1.39 1.955 1.417 1.993a.33.33 0 01-.107.458.33.33 0 01-.457-.107c-.006-.01-.612-.978-1.376-1.934C5.805.95 5.16.758 4.943.752c-.107-.003-.247.164-.365.434-.318.719-.476 2.1-.404 3.511.074 1.45.371 2.611.778 3.03a.33.33 0 01-.009.47.323.323 0 01-.232.095z" fill="#241F20"/></symbol><symbol fill="none" viewBox="0 0 24 24" id="token-erg" xmlns="http://www.w3.org/2000/svg"><circle cx="12" cy="12" r="12" fill="#FF5135"/><path d="M20.698 11.738l-2.362-5.703a.685.685 0 00-.371-.37l-5.703-2.363a.686.686 0 00-.524 0L6.035 5.664a.685.685 0 00-.37.371l-2.363 5.703a.684.684 0 000 .524l2.362 5.703c.07.168.203.301.371.37l5.703 2.363a.687.687 0 00.524 0l5.703-2.362a.685.685 0 00.37-.371l2.363-5.703a.686.686 0 000-.524zm-5.866-1.986h-3.316l2.056 2.153-2.128 2.342h3.387v1.574H9.17v-1.43l2.228-2.467-2.218-2.31V8.178h5.652l.001 1.573z" fill="#fff"/></symbol><symbol fill="none" viewBox="0 0 24 24" id="token-kushti" xmlns="http://www.w3.org/2000/svg"><path d="M23.278 11.66l-3.063-7.393a.892.892 0 00-.481-.482L12.34.723a.882.882 0 00-.68 0L4.267 3.785a.893.893 0 00-.482.482L.723 11.66a.882.882 0 000 .68l3.062 7.394c.091.217.263.39.482.481l7.393 3.063c.218.09.463.09.68 0l7.394-3.063a.892.892 0 00.481-.481l3.063-7.394a.895.895 0 000-.68z" fill="#5E0EFF"/><path d="M6.804 16.472V7.529c0-.883.715-1.599 1.598-1.599h.878c.884 0 1.599.716 1.599 1.599v4.255l2.796-4.895a1.901 1.901 0 011.65-.959c1.477 0 2.39 1.61 1.634 2.878l-1.789 2.993 1.875 3.241c.778 1.344-.192 3.027-1.746 3.027-.752 0-1.443-.42-1.79-1.088l-2.632-5.063v4.554c0 .883-.715 1.598-1.598 1.598H8.4a1.598 1.598 0 01-1.597-1.598z" fill="#fff"/><path d="M12 24c-.2 0-.4-.04-.59-.118l-7.394-3.063a1.534 1.534 0 01-.835-.835L.12 12.59a1.53 1.53 0 010-1.181L3.18 4.016c.158-.38.454-.677.835-.835L11.41.12a1.53 1.53 0 011.182 0l7.392 3.062c.381.158.677.454.835.835l3.063 7.394c.158.381.158.8 0 1.18l-3.063 7.394a1.534 1.534 0 01-.835.835l-7.394 3.063c-.19.08-.39.118-.59.118zm0-22.69c-.03 0-.06.006-.09.018L4.518 4.391a.229.229 0 00-.126.126l-3.063 7.394a.237.237 0 000 .179l3.063 7.393a.229.229 0 00.126.127l7.394 3.062a.237.237 0 00.179 0l7.393-3.062a.229.229 0 00.127-.127l3.062-7.393a.237.237 0 000-.18L19.61 4.518a.229.229 0 00-.127-.126L12.09 1.328A.226.226 0 0012 1.31z" fill="#FF5537"/></symbol><symbol fill="none" viewBox="0 0 24 24" id="token-sigrsv" xmlns="http://www.w3.org/2000/svg"><path d="M23.928 11.64l-3.24-7.821a.936.936 0 00-.508-.509L12.359.071a.946.946 0 00-.72 0l-7.82 3.24a.936.936 0 00-.509.508L.071 11.64a.946.946 0 000 .72l3.24 7.821c.094.23.277.414.508.509l7.821 3.239c.23.095.489.095.72 0l7.821-3.24a.936.936 0 00.509-.508l3.24-7.821a.94.94 0 00-.002-.72z" fill="#6100FB"/><path d="M12 2.532a.755.755 0 00-.285.056l-6.17 2.557a.741.741 0 00-.402.402l-2.555 6.168a.746.746 0 000 .567l2.555 6.17a.741.741 0 00.402.402l6.17 2.556a.744.744 0 00.569 0l6.17-2.556a.741.741 0 00.401-.402l2.556-6.17a.745.745 0 000-.567l-2.556-6.17a.741.741 0 00-.402-.402l-6.17-2.555a.743.743 0 00-.284-.056z" fill="#2D2D2D"/><path d="M13.006 8.062a2.861 2.861 0 00-.418-.113v-1.09h-1.232v1.064c-.198.03-.386.076-.565.139h2.215zM10.772 15.942c.18.064.376.112.582.143v1.025h1.233v-1.012a3.08 3.08 0 00.638-.156h-2.453z" fill="#fff"/><path fill-rule="evenodd" clip-rule="evenodd" d="M11.399 14.43h3.663v1.704H8.937v-1.549l2.41-2.668-2.4-2.5V7.864h6.115v1.704h-3.586l2.224 2.329L11.4 14.43z" fill="#fff"/></symbol><symbol fill="none" viewBox="0 0 24 24" id="token-sigusd" xmlns="http://www.w3.org/2000/svg"><path d="M23.928 11.64l-3.24-7.821a.936.936 0 00-.508-.509L12.358.071a.946.946 0 00-.72 0l-7.82 3.24a.936.936 0 00-.508.508L.071 11.64a.946.946 0 000 .72l3.24 7.821c.094.23.277.414.508.509l7.821 3.239c.23.095.489.095.72 0l7.821-3.24a.936.936 0 00.509-.508l3.239-7.821a.94.94 0 00-.001-.72z" fill="#6100FB"/><path d="M17.149 17.722l-4.883 2.022-5.476-2.268L4.522 12l2.269-5.476 5.475-2.269 4.883 2.023 1.572-1.134-6.17-2.555a.745.745 0 00-.569 0l-6.17 2.557a.741.741 0 00-.402.402l-2.555 6.168a.746.746 0 000 .567l2.555 6.17a.741.741 0 00.402.402l6.17 2.556a.744.744 0 00.569 0l6.17-2.556-1.572-1.132z" fill="#2D2D2D"/><path d="M19.397 7.811v.901c1.009.194 1.599.933 1.599 2.103v.096h-1.417v-.172c0-.59-.28-.901-.752-.901-.483 0-.718.29-.718.707 0 .505.558.73 1.18.966l.215.074c.784.29 1.696.708 1.696 1.867 0 .965-.58 1.824-1.803 1.996v.837H18.38v-.848c-1.074-.161-1.717-.858-1.717-1.974v-.247h1.406v.172c0 .59.268.912.858.912.558 0 .805-.343.805-.784 0-.462-.396-.59-.933-.784l-.44-.161c-.815-.29-1.706-.654-1.706-1.954 0-1.116.73-1.78 1.728-1.93v-.88h1.017v.004z" fill="#fff"/><path fill-rule="evenodd" clip-rule="evenodd" d="M11.665 14.43h3.666v1.704H9.204v-1.549l2.41-2.669-2.4-2.499V7.864h6.117v1.704h-3.588l2.224 2.329-2.302 2.534z" fill="#fff"/></symbol></svg>