<?xml version="1.0" encoding="utf-8"?><svg xmlns="http://www.w3.org/2000/svg"><defs><svg viewBox="0 0 0 0" id="sprite" xmlns="http://www.w3.org/2000/svg"><defs><svg viewBox="0 0 0 0" id="asprite" xmlns="http://www.w3.org/2000/svg"><defs><svg viewBox="0 0 0 0" id="aasprite" xmlns="http://www.w3.org/2000/svg"><defs><svg fill="none" viewBox="0 0 24 24" id="aaatoken-ada" xmlns="http://www.w3.org/2000/svg"><circle cx="12" cy="12" r="12" fill="#DBDBDB"/><g clip-path="url(#aaaaclip0)" fill="#0033AD"><path d="M7.483 11.935c-.043.722.528 1.34 1.269 1.382h.08c.747 0 1.35-.587 1.344-1.314 0-.728-.603-1.315-1.35-1.31-.714 0-1.306.546-1.343 1.242zm-5.024-.338a.428.428 0 00-.459.4c-.01.234.17.437.41.447a.431.431 0 00.46-.4.428.428 0 00-.411-.447zM7.397 4.32a.423.423 0 00.192-.572.445.445 0 00-.586-.187.417.417 0 00-.192.566.437.437 0 00.586.192s-.005 0 0 0zm1.366 2.322a.647.647 0 00.298-.878.681.681 0 00-.901-.291.647.647 0 00-.299.878.681.681 0 00.902.29zM4.165 8.236a.567.567 0 00.768-.155.535.535 0 00-.16-.749.567.567 0 00-.768.156.53.53 0 00.16.748zm.816 3.128a.664.664 0 00-.709.618.66.66 0 00.635.69.664.664 0 00.709-.617.663.663 0 00-.635-.691zm-.741 4.4a.535.535 0 00-.245.727.563.563 0 00.746.239.535.535 0 00.246-.727.565.565 0 00-.747-.24zm2.613-5.756a.798.798 0 001.094-.224.753.753 0 00-.23-1.065.798.798 0 00-1.093.224.755.755 0 00.23 1.065zm8.294-3.418c.309.197.73.114.933-.187a.649.649 0 00-.192-.91.688.688 0 00-.933.188.64.64 0 00.192.909zm1.376-2.312a.44.44 0 00.602-.125.415.415 0 00-.128-.587.444.444 0 00-.602.12.43.43 0 00.128.592zm-1.275 6.405c-.741-.041-1.381.514-1.419 1.236-.042.723.528 1.346 1.27 1.382h.074c.742 0 1.344-.587 1.344-1.314.006-.69-.554-1.268-1.269-1.304zm-6.043-.769c.23.442.694.722 1.206.722.741 0 1.344-.587 1.344-1.314 0-.203-.048-.405-.144-.592a1.361 1.361 0 00-1.808-.582c-.667.333-.934 1.122-.598 1.766zM19.76 8.236A.535.535 0 0020 7.51a.563.563 0 00-.747-.234.535.535 0 00-.245.722.571.571 0 00.752.24zm-3.413.416a.761.761 0 00-.352 1.034.8.8 0 001.061.343.761.761 0 00.352-1.034.806.806 0 00-1.061-.343zm-4.4-4.572a.557.557 0 00.586-.509c.022-.296-.218-.55-.522-.571a.553.553 0 00-.587.504.554.554 0 00.523.577zm-.006 3.393a.778.778 0 00.832-.728.773.773 0 00-.746-.81.778.778 0 00-.832.727.775.775 0 00.746.81zm-4.288 7.875a.761.761 0 00.352-1.034.801.801 0 00-1.061-.343.761.761 0 00-.352 1.034.801.801 0 001.061.343zm4.8-6.748a1.288 1.288 0 00.39 1.813c.624.395 1.456.229 1.861-.38a1.288 1.288 0 00-.39-1.812 1.363 1.363 0 00-.735-.213 1.36 1.36 0 00-1.126.592zm2.342 5.486a1.361 1.361 0 00-1.808-.582 1.293 1.293 0 00-.598 1.76c.336.65 1.147.91 1.808.583a1.29 1.29 0 00.603-1.75c0-.006 0-.006-.005-.011zm2.352-.094a.798.798 0 00-1.094.224.753.753 0 00.23 1.065.798.798 0 001.093-.224.755.755 0 00-.23-1.065zm2.581-1.969a.66.66 0 00-.635-.69.664.664 0 00-.709.618.66.66 0 00.635.69.67.67 0 00.709-.618zm1.862-.467a.428.428 0 00-.46.4.43.43 0 00.411.447.431.431 0 00.459-.4.432.432 0 00-.41-.447zm-1.755 4.208a.567.567 0 00-.768.155.535.535 0 00.16.748.567.567 0 00.768-.155.53.53 0 00-.16-.748zM7.472 19.722a.444.444 0 00-.603.12.418.418 0 00.123.587c.203.13.47.072.603-.12a.41.41 0 00-.123-.587zm9.131-.042a.423.423 0 00-.192.572c.106.208.373.29.586.187a.417.417 0 00.192-.566.436.436 0 00-.586-.193s.005 0 0 0zm-5.056-4.28a1.294 1.294 0 00-.39-1.818 1.372 1.372 0 00-1.866.38 1.29 1.29 0 00.389 1.817c.219.14.475.213.736.213.459.005.88-.218 1.13-.592zm-2.694 2.01a.688.688 0 00-.933.187.649.649 0 00.192.91c.31.197.73.114.933-.188a.64.64 0 00-.192-.909zm3.142 2.51a.557.557 0 00-.587.509c-.021.296.219.55.523.571a.553.553 0 00.586-.504.554.554 0 00-.522-.576zM12 16.527a.778.778 0 00-.832.728c-.027.425.31.79.747.81.437.02.81-.301.832-.727a.776.776 0 00-.747-.81zm3.237.831a.648.648 0 00-.293.884c.17.322.576.451.907.285a.647.647 0 00.298-.878.69.69 0 00-.912-.29z"/></g><defs><clipPath id="aaaaclip0"><path fill="#fff" transform="translate(2 3)" d="M0 0h20v18H0z"/></clipPath></defs></svg><svg fill="none" viewBox="0 0 24 24" id="aaatoken-erg" xmlns="http://www.w3.org/2000/svg"><circle cx="12" cy="12" r="12" fill="#DBDBDB"/><path d="M20.698 11.738l-2.362-5.703a.685.685 0 00-.371-.37l-5.703-2.363a.686.686 0 00-.524 0L6.035 5.664a.685.685 0 00-.37.371l-2.363 5.703a.684.684 0 000 .524l2.362 5.703c.07.168.203.301.371.37l5.703 2.363a.687.687 0 00.524 0l5.703-2.362a.685.685 0 00.37-.371l2.363-5.703a.686.686 0 000-.524zm-5.866-1.986h-3.316l2.056 2.153-2.128 2.342h3.387v1.574H9.17v-1.43l2.228-2.467-2.218-2.31V8.178h5.652l.001 1.573z" fill="#141414"/></svg><svg fill="none" viewBox="0 0 24 24" id="aaatoken-erg-orange" xmlns="http://www.w3.org/2000/svg"><circle cx="12" cy="12" r="12" fill="#DBDBDB"/><path d="M20.698 11.738l-2.362-5.703a.685.685 0 00-.371-.37l-5.703-2.363a.686.686 0 00-.524 0L6.035 5.664a.685.685 0 00-.37.371l-2.363 5.703a.684.684 0 000 .524l2.362 5.703c.07.168.203.301.371.37l5.703 2.363a.685.685 0 00.524 0l5.703-2.362a.685.685 0 00.37-.371l2.363-5.703a.686.686 0 000-.524zm-5.866-1.986h-3.316l2.056 2.153-2.128 2.342h3.387v1.574H9.17v-1.43l2.228-2.467-2.218-2.31V8.178h5.652l.001 1.573z" fill="#FF5135"/></svg></defs></svg><svg fill="none" viewBox="0 0 24 24" id="aatoken-ada" xmlns="http://www.w3.org/2000/svg"><circle cx="12" cy="12" r="12" fill="#DBDBDB"/><g clip-path="url(#aabclip0)" fill="#0033AD"><path d="M7.483 11.935c-.043.722.528 1.34 1.269 1.382h.08c.747 0 1.35-.587 1.344-1.314 0-.728-.603-1.315-1.35-1.31-.714 0-1.306.546-1.343 1.242zm-5.024-.338a.428.428 0 00-.459.4c-.01.234.17.437.41.447a.431.431 0 00.46-.4.428.428 0 00-.411-.447zM7.397 4.32a.423.423 0 00.192-.572.445.445 0 00-.586-.187.417.417 0 00-.192.566.437.437 0 00.586.192s-.005 0 0 0zm1.366 2.322a.647.647 0 00.298-.878.681.681 0 00-.901-.291.647.647 0 00-.299.878.681.681 0 00.902.29zM4.165 8.236a.567.567 0 00.768-.155.535.535 0 00-.16-.749.567.567 0 00-.768.156.53.53 0 00.16.748zm.816 3.128a.664.664 0 00-.709.618.66.66 0 00.635.69.664.664 0 00.709-.617.663.663 0 00-.635-.691zm-.741 4.4a.535.535 0 00-.245.727.563.563 0 00.746.239.535.535 0 00.246-.727.565.565 0 00-.747-.24zm2.613-5.756a.798.798 0 001.094-.224.753.753 0 00-.23-1.065.798.798 0 00-1.093.224.755.755 0 00.23 1.065zm8.294-3.418c.309.197.73.114.933-.187a.649.649 0 00-.192-.91.688.688 0 00-.933.188.64.64 0 00.192.909zm1.376-2.312a.44.44 0 00.602-.125.415.415 0 00-.128-.587.444.444 0 00-.602.12.43.43 0 00.128.592zm-1.275 6.405c-.741-.041-1.381.514-1.419 1.236-.042.723.528 1.346 1.27 1.382h.074c.742 0 1.344-.587 1.344-1.314.006-.69-.554-1.268-1.269-1.304zm-6.043-.769c.23.442.694.722 1.206.722.741 0 1.344-.587 1.344-1.314 0-.203-.048-.405-.144-.592a1.361 1.361 0 00-1.808-.582c-.667.333-.934 1.122-.598 1.766zM19.76 8.236A.535.535 0 0020 7.51a.563.563 0 00-.747-.234.535.535 0 00-.245.722.571.571 0 00.752.24zm-3.413.416a.761.761 0 00-.352 1.034.8.8 0 001.061.343.761.761 0 00.352-1.034.806.806 0 00-1.061-.343zm-4.4-4.572a.557.557 0 00.586-.509c.022-.296-.218-.55-.522-.571a.553.553 0 00-.587.504.554.554 0 00.523.577zm-.006 3.393a.778.778 0 00.832-.728.773.773 0 00-.746-.81.778.778 0 00-.832.727.775.775 0 00.746.81zm-4.288 7.875a.761.761 0 00.352-1.034.801.801 0 00-1.061-.343.761.761 0 00-.352 1.034.801.801 0 001.061.343zm4.8-6.748a1.288 1.288 0 00.39 1.813c.624.395 1.456.229 1.861-.38a1.288 1.288 0 00-.39-1.812 1.363 1.363 0 00-.735-.213 1.36 1.36 0 00-1.126.592zm2.342 5.486a1.361 1.361 0 00-1.808-.582 1.293 1.293 0 00-.598 1.76c.336.65 1.147.91 1.808.583a1.29 1.29 0 00.603-1.75c0-.006 0-.006-.005-.011zm2.352-.094a.798.798 0 00-1.094.224.753.753 0 00.23 1.065.798.798 0 001.093-.224.755.755 0 00-.23-1.065zm2.581-1.969a.66.66 0 00-.635-.69.664.664 0 00-.709.618.66.66 0 00.635.69.67.67 0 00.709-.618zm1.862-.467a.428.428 0 00-.46.4.43.43 0 00.411.447.431.431 0 00.459-.4.432.432 0 00-.41-.447zm-1.755 4.208a.567.567 0 00-.768.155.535.535 0 00.16.748.567.567 0 00.768-.155.53.53 0 00-.16-.748zM7.472 19.722a.444.444 0 00-.603.12.418.418 0 00.123.587c.203.13.47.072.603-.12a.41.41 0 00-.123-.587zm9.131-.042a.423.423 0 00-.192.572c.106.208.373.29.586.187a.417.417 0 00.192-.566.436.436 0 00-.586-.193s.005 0 0 0zm-5.056-4.28a1.294 1.294 0 00-.39-1.818 1.372 1.372 0 00-1.866.38 1.29 1.29 0 00.389 1.817c.219.14.475.213.736.213.459.005.88-.218 1.13-.592zm-2.694 2.01a.688.688 0 00-.933.187.649.649 0 00.192.91c.31.197.73.114.933-.188a.64.64 0 00-.192-.909zm3.142 2.51a.557.557 0 00-.587.509c-.021.296.219.55.523.571a.553.553 0 00.586-.504.554.554 0 00-.522-.576zM12 16.527a.778.778 0 00-.832.728c-.027.425.31.79.747.81.437.02.81-.301.832-.727a.776.776 0 00-.747-.81zm3.237.831a.648.648 0 00-.293.884c.17.322.576.451.907.285a.647.647 0 00.298-.878.69.69 0 00-.912-.29z"/></g><defs><clipPath id="aabclip0"><path fill="#fff" transform="translate(2 3)" d="M0 0h20v18H0z"/></clipPath></defs></svg><svg fill="none" viewBox="0 0 24 24" id="aatoken-erg" xmlns="http://www.w3.org/2000/svg"><circle cx="12" cy="12" r="12" fill="#DBDBDB"/><path d="M20.698 11.738l-2.362-5.703a.685.685 0 00-.371-.37l-5.703-2.363a.686.686 0 00-.524 0L6.035 5.664a.685.685 0 00-.37.371l-2.363 5.703a.684.684 0 000 .524l2.362 5.703c.07.168.203.301.371.37l5.703 2.363a.687.687 0 00.524 0l5.703-2.362a.685.685 0 00.37-.371l2.363-5.703a.686.686 0 000-.524zm-5.866-1.986h-3.316l2.056 2.153-2.128 2.342h3.387v1.574H9.17v-1.43l2.228-2.467-2.218-2.31V8.178h5.652l.001 1.573z" fill="#141414"/></svg><svg fill="none" viewBox="0 0 24 24" id="aatoken-erg-orange" xmlns="http://www.w3.org/2000/svg"><circle cx="12" cy="12" r="12" fill="#DBDBDB"/><path d="M20.698 11.738l-2.362-5.703a.685.685 0 00-.371-.37l-5.703-2.363a.686.686 0 00-.524 0L6.035 5.664a.685.685 0 00-.37.371l-2.363 5.703a.684.684 0 000 .524l2.362 5.703c.07.168.203.301.371.37l5.703 2.363a.685.685 0 00.524 0l5.703-2.362a.685.685 0 00.37-.371l2.363-5.703a.686.686 0 000-.524zm-5.866-1.986h-3.316l2.056 2.153-2.128 2.342h3.387v1.574H9.17v-1.43l2.228-2.467-2.218-2.31V8.178h5.652l.001 1.573z" fill="#FF5135"/></svg></defs></svg><svg fill="none" viewBox="0 0 24 24" id="atoken-ada" xmlns="http://www.w3.org/2000/svg"><circle cx="12" cy="12" r="12" fill="#DBDBDB"/><g clip-path="url(#abclip0)" fill="#0033AD"><path d="M7.483 11.935c-.043.722.528 1.34 1.269 1.382h.08c.747 0 1.35-.587 1.344-1.314 0-.728-.603-1.315-1.35-1.31-.714 0-1.306.546-1.343 1.242zm-5.024-.338a.428.428 0 00-.459.4c-.01.234.17.437.41.447a.431.431 0 00.46-.4.428.428 0 00-.411-.447zM7.397 4.32a.423.423 0 00.192-.572.445.445 0 00-.586-.187.417.417 0 00-.192.566.437.437 0 00.586.192s-.005 0 0 0zm1.366 2.322a.647.647 0 00.298-.878.681.681 0 00-.901-.291.647.647 0 00-.299.878.681.681 0 00.902.29zM4.165 8.236a.567.567 0 00.768-.155.535.535 0 00-.16-.749.567.567 0 00-.768.156.53.53 0 00.16.748zm.816 3.128a.664.664 0 00-.709.618.66.66 0 00.635.69.664.664 0 00.709-.617.663.663 0 00-.635-.691zm-.741 4.4a.535.535 0 00-.245.727.563.563 0 00.746.239.535.535 0 00.246-.727.565.565 0 00-.747-.24zm2.613-5.756a.798.798 0 001.094-.224.753.753 0 00-.23-1.065.798.798 0 00-1.093.224.755.755 0 00.23 1.065zm8.294-3.418c.309.197.73.114.933-.187a.649.649 0 00-.192-.91.688.688 0 00-.933.188.64.64 0 00.192.909zm1.376-2.312a.44.44 0 00.602-.125.415.415 0 00-.128-.587.444.444 0 00-.602.12.43.43 0 00.128.592zm-1.275 6.405c-.741-.041-1.381.514-1.419 1.236-.042.723.528 1.346 1.27 1.382h.074c.742 0 1.344-.587 1.344-1.314.006-.69-.554-1.268-1.269-1.304zm-6.043-.769c.23.442.694.722 1.206.722.741 0 1.344-.587 1.344-1.314 0-.203-.048-.405-.144-.592a1.361 1.361 0 00-1.808-.582c-.667.333-.934 1.122-.598 1.766zM19.76 8.236A.535.535 0 0020 7.51a.563.563 0 00-.747-.234.535.535 0 00-.245.722.571.571 0 00.752.24zm-3.413.416a.761.761 0 00-.352 1.034.8.8 0 001.061.343.761.761 0 00.352-1.034.806.806 0 00-1.061-.343zm-4.4-4.572a.557.557 0 00.586-.509c.022-.296-.218-.55-.522-.571a.553.553 0 00-.587.504.554.554 0 00.523.577zm-.006 3.393a.778.778 0 00.832-.728.773.773 0 00-.746-.81.778.778 0 00-.832.727.775.775 0 00.746.81zm-4.288 7.875a.761.761 0 00.352-1.034.801.801 0 00-1.061-.343.761.761 0 00-.352 1.034.801.801 0 001.061.343zm4.8-6.748a1.288 1.288 0 00.39 1.813c.624.395 1.456.229 1.861-.38a1.288 1.288 0 00-.39-1.812 1.363 1.363 0 00-.735-.213 1.36 1.36 0 00-1.126.592zm2.342 5.486a1.361 1.361 0 00-1.808-.582 1.293 1.293 0 00-.598 1.76c.336.65 1.147.91 1.808.583a1.29 1.29 0 00.603-1.75c0-.006 0-.006-.005-.011zm2.352-.094a.798.798 0 00-1.094.224.753.753 0 00.23 1.065.798.798 0 001.093-.224.755.755 0 00-.23-1.065zm2.581-1.969a.66.66 0 00-.635-.69.664.664 0 00-.709.618.66.66 0 00.635.69.67.67 0 00.709-.618zm1.862-.467a.428.428 0 00-.46.4.43.43 0 00.411.447.431.431 0 00.459-.4.432.432 0 00-.41-.447zm-1.755 4.208a.567.567 0 00-.768.155.535.535 0 00.16.748.567.567 0 00.768-.155.53.53 0 00-.16-.748zM7.472 19.722a.444.444 0 00-.603.12.418.418 0 00.123.587c.203.13.47.072.603-.12a.41.41 0 00-.123-.587zm9.131-.042a.423.423 0 00-.192.572c.106.208.373.29.586.187a.417.417 0 00.192-.566.436.436 0 00-.586-.193s.005 0 0 0zm-5.056-4.28a1.294 1.294 0 00-.39-1.818 1.372 1.372 0 00-1.866.38 1.29 1.29 0 00.389 1.817c.219.14.475.213.736.213.459.005.88-.218 1.13-.592zm-2.694 2.01a.688.688 0 00-.933.187.649.649 0 00.192.91c.31.197.73.114.933-.188a.64.64 0 00-.192-.909zm3.142 2.51a.557.557 0 00-.587.509c-.021.296.219.55.523.571a.553.553 0 00.586-.504.554.554 0 00-.522-.576zM12 16.527a.778.778 0 00-.832.728c-.027.425.31.79.747.81.437.02.81-.301.832-.727a.776.776 0 00-.747-.81zm3.237.831a.648.648 0 00-.293.884c.17.322.576.451.907.285a.647.647 0 00.298-.878.69.69 0 00-.912-.29z"/></g><defs><clipPath id="abclip0"><path fill="#fff" transform="translate(2 3)" d="M0 0h20v18H0z"/></clipPath></defs></svg><svg fill="none" viewBox="0 0 24 24" id="atoken-empty" xmlns="http://www.w3.org/2000/svg"><circle cx="12" cy="12" r="12" fill="#DBDBDB"/><path d="M12 3.25a8.75 8.75 0 10.001 17.501A8.75 8.75 0 0012 3.25zm0 16.016A7.267 7.267 0 016.365 7.414l10.22 10.22A7.233 7.233 0 0112 19.267zm5.635-2.68L7.415 6.366a7.267 7.267 0 0110.22 10.22z" fill="#141414"/></svg><svg fill="none" viewBox="0 0 24 24" id="atoken-erg" xmlns="http://www.w3.org/2000/svg"><circle cx="12" cy="12" r="12" fill="#DBDBDB"/><path d="M20.698 11.738l-2.362-5.703a.685.685 0 00-.371-.37l-5.703-2.363a.686.686 0 00-.524 0L6.035 5.664a.685.685 0 00-.37.371l-2.363 5.703a.684.684 0 000 .524l2.362 5.703c.07.168.203.301.371.37l5.703 2.363a.687.687 0 00.524 0l5.703-2.362a.685.685 0 00.37-.371l2.363-5.703a.686.686 0 000-.524zm-5.866-1.986h-3.316l2.056 2.153-2.128 2.342h3.387v1.574H9.17v-1.43l2.228-2.467-2.218-2.31V8.178h5.652l.001 1.573z" fill="#141414"/></svg><svg fill="none" viewBox="0 0 24 24" id="atoken-erg-orange" xmlns="http://www.w3.org/2000/svg"><circle cx="12" cy="12" r="12" fill="#DBDBDB"/><path d="M20.698 11.738l-2.362-5.703a.685.685 0 00-.371-.37l-5.703-2.363a.686.686 0 00-.524 0L6.035 5.664a.685.685 0 00-.37.371l-2.363 5.703a.684.684 0 000 .524l2.362 5.703c.07.168.203.301.371.37l5.703 2.363a.685.685 0 00.524 0l5.703-2.362a.685.685 0 00.37-.371l2.363-5.703a.686.686 0 000-.524zm-5.866-1.986h-3.316l2.056 2.153-2.128 2.342h3.387v1.574H9.17v-1.43l2.228-2.467-2.218-2.31V8.178h5.652l.001 1.573z" fill="#FF5135"/></svg></defs></svg><svg fill="none" viewBox="0 0 24 24" id="token-ada" xmlns="http://www.w3.org/2000/svg"><circle cx="12" cy="12" r="12" fill="#DBDBDB"/><g clip-path="url(#bclip0)" fill="#0033AD"><path d="M7.483 11.935c-.043.722.528 1.34 1.269 1.382h.08c.747 0 1.35-.587 1.344-1.314 0-.728-.603-1.315-1.35-1.31-.714 0-1.306.546-1.343 1.242zM2.459 11.597a.428.428 0 00-.459.4c-.01.234.17.437.41.447a.431.431 0 00.46-.4.428.428 0 00-.411-.447zM7.397 4.32a.423.423 0 00.192-.572.445.445 0 00-.586-.187.417.417 0 00-.192.566.437.437 0 00.586.192s-.005 0 0 0zM8.763 6.642a.647.647 0 00.298-.878.681.681 0 00-.901-.291.647.647 0 00-.299.878c.166.322.571.452.902.29zM4.165 8.236a.567.567 0 00.768-.155.535.535 0 00-.16-.749.567.567 0 00-.768.156.53.53 0 00.16.748zM4.981 11.364a.664.664 0 00-.709.618.66.66 0 00.635.69.664.664 0 00.709-.617.663.663 0 00-.635-.691zM4.24 15.764a.535.535 0 00-.245.727c.138.265.469.374.746.239a.535.535 0 00.246-.727.565.565 0 00-.747-.24zM6.853 10.008a.798.798 0 001.094-.224.753.753 0 00-.23-1.065.798.798 0 00-1.093.224.755.755 0 00.23 1.065zM15.147 6.59c.309.197.73.114.933-.187a.649.649 0 00-.192-.91.688.688 0 00-.933.188.64.64 0 00.192.909zM16.523 4.278a.44.44 0 00.602-.125.415.415 0 00-.128-.587.444.444 0 00-.602.12.43.43 0 00.128.592zM15.248 10.683c-.741-.041-1.381.514-1.419 1.236-.042.723.528 1.346 1.27 1.382h.074c.742 0 1.344-.587 1.344-1.314.006-.69-.554-1.268-1.269-1.304zM9.205 9.914c.23.442.694.722 1.206.722.741 0 1.344-.587 1.344-1.314 0-.203-.048-.405-.144-.592a1.361 1.361 0 00-1.808-.582c-.667.333-.934 1.122-.598 1.766zM19.76 8.236A.535.535 0 0020 7.51a.563.563 0 00-.747-.234.535.535 0 00-.245.722.571.571 0 00.752.24zM16.347 8.652a.761.761 0 00-.352 1.034.8.8 0 001.061.343.761.761 0 00.352-1.034.806.806 0 00-1.061-.343zM11.947 4.08a.557.557 0 00.586-.509c.022-.296-.218-.55-.522-.571a.553.553 0 00-.587.504.554.554 0 00.523.577zM11.941 7.473a.778.778 0 00.832-.728.773.773 0 00-.746-.81.778.778 0 00-.832.727c-.022.426.309.79.746.81zM7.653 15.348a.761.761 0 00.352-1.034.801.801 0 00-1.061-.343.761.761 0 00-.352 1.034.801.801 0 001.061.343zM12.453 8.6a1.288 1.288 0 00.39 1.813c.624.395 1.456.229 1.861-.38a1.288 1.288 0 00-.39-1.812 1.363 1.363 0 00-.735-.213 1.36 1.36 0 00-1.126.592zM14.795 14.086a1.361 1.361 0 00-1.808-.582 1.293 1.293 0 00-.598 1.76c.336.65 1.147.91 1.808.583a1.29 1.29 0 00.603-1.75c0-.006 0-.006-.005-.011zM17.147 13.992a.798.798 0 00-1.094.224.753.753 0 00.23 1.065.798.798 0 001.093-.224.755.755 0 00-.23-1.065zM19.728 12.023a.66.66 0 00-.635-.69.664.664 0 00-.709.618.66.66 0 00.635.69.67.67 0 00.709-.618zM21.59 11.556a.428.428 0 00-.46.4c-.01.234.171.436.411.447a.431.431 0 00.459-.4.432.432 0 00-.41-.447zM19.835 15.764a.567.567 0 00-.768.155.535.535 0 00.16.748.567.567 0 00.768-.155.53.53 0 00-.16-.748zM7.472 19.722a.444.444 0 00-.603.12.418.418 0 00.123.587c.203.13.47.072.603-.12a.41.41 0 00-.123-.587zM16.603 19.68a.423.423 0 00-.192.572c.106.208.373.29.586.187a.417.417 0 00.192-.566.436.436 0 00-.586-.193s.005 0 0 0zM11.547 15.4a1.294 1.294 0 00-.39-1.818 1.372 1.372 0 00-1.866.38 1.29 1.29 0 00.389 1.817c.219.14.475.213.736.213.459.005.88-.218 1.13-.592zM8.853 17.41a.688.688 0 00-.933.187.649.649 0 00.192.91c.31.197.73.114.933-.188a.64.64 0 00-.192-.909zM11.995 19.92a.557.557 0 00-.587.509c-.021.296.219.55.523.571a.553.553 0 00.586-.504.554.554 0 00-.522-.576zM12 16.527a.778.778 0 00-.832.728c-.027.425.31.79.747.81.437.02.81-.301.832-.727a.776.776 0 00-.747-.81zM15.237 17.358a.648.648 0 00-.293.884c.17.322.576.451.907.285a.647.647 0 00.298-.878.69.69 0 00-.912-.29z"/></g><defs><clipPath id="bclip0"><path fill="#fff" transform="translate(2 3)" d="M0 0h20v18H0z"/></clipPath></defs></svg><svg fill="none" viewBox="0 0 25 24" id="token-ada-disabled" xmlns="http://www.w3.org/2000/svg"><circle cx="12.199" cy="12" r="12" fill="#5A5A5A"/><g clip-path="url(#cclip0)" fill="#ACACAC"><path d="M7.682 11.935c-.043.722.528 1.34 1.27 1.382h.08c.746 0 1.349-.587 1.343-1.315 0-.727-.602-1.314-1.35-1.309-.714 0-1.306.546-1.343 1.242zM2.658 11.599a.428.428 0 00-.458.4c-.011.233.17.436.41.446a.431.431 0 00.459-.4.428.428 0 00-.41-.446zM7.597 4.32a.423.423 0 00.192-.57.445.445 0 00-.586-.188.417.417 0 00-.192.567.437.437 0 00.586.192s-.005 0 0 0zM8.963 6.642a.647.647 0 00.298-.878.681.681 0 00-.901-.29.647.647 0 00-.299.877c.166.322.57.452.902.291zM4.365 8.237a.567.567 0 00.768-.156.535.535 0 00-.16-.748.567.567 0 00-.768.156.53.53 0 00.16.748zM5.181 11.364a.664.664 0 00-.71.619.66.66 0 00.635.69.664.664 0 00.71-.618.662.662 0 00-.635-.69zM4.44 15.765a.535.535 0 00-.246.727c.139.265.47.374.747.24a.535.535 0 00.245-.728.565.565 0 00-.746-.239zM7.053 10.009a.798.798 0 001.093-.224.753.753 0 00-.23-1.065.798.798 0 00-1.093.224.755.755 0 00.23 1.065zM15.347 6.59c.309.197.73.114.933-.187a.649.649 0 00-.192-.91.688.688 0 00-.933.188.64.64 0 00.192.909zM16.723 4.278a.44.44 0 00.603-.125.415.415 0 00-.128-.587.444.444 0 00-.603.12.43.43 0 00.128.592zM15.448 10.684c-.741-.042-1.381.514-1.418 1.236-.043.722.528 1.346 1.269 1.382h.075c.74 0 1.344-.587 1.344-1.314.005-.691-.555-1.268-1.27-1.304zM9.405 9.915c.23.442.693.723 1.205.723.742 0 1.344-.587 1.344-1.315 0-.202-.048-.405-.144-.592a1.361 1.361 0 00-1.808-.582c-.666.333-.933 1.122-.597 1.767zM19.96 8.237a.535.535 0 00.24-.727.563.563 0 00-.747-.234.535.535 0 00-.245.722.571.571 0 00.752.239zM16.546 8.652a.761.761 0 00-.352 1.034.801.801 0 001.061.343.761.761 0 00.352-1.034.806.806 0 00-1.061-.343zM12.146 4.081a.557.557 0 00.587-.509c.021-.296-.219-.55-.523-.571a.553.553 0 00-.586.504.554.554 0 00.522.576zM12.14 7.473a.778.778 0 00.832-.728.773.773 0 00-.746-.81.778.778 0 00-.832.727c-.022.426.309.79.746.81zM7.853 15.35a.761.761 0 00.352-1.034.8.8 0 00-1.061-.343.761.761 0 00-.352 1.034.8.8 0 001.061.343zM12.653 8.6a1.288 1.288 0 00.39 1.813c.623.395 1.456.229 1.86-.38a1.287 1.287 0 00-.389-1.812 1.362 1.362 0 00-.736-.213 1.36 1.36 0 00-1.125.592zM14.994 14.087a1.361 1.361 0 00-1.808-.582 1.294 1.294 0 00-.597 1.76c.336.65 1.146.91 1.808.583a1.29 1.29 0 00.602-1.751c0-.005 0-.005-.005-.01zM17.346 13.994a.798.798 0 00-1.093.223.753.753 0 00.23 1.065.798.798 0 001.093-.223.755.755 0 00-.23-1.065zM19.927 12.024a.66.66 0 00-.634-.69.664.664 0 00-.71.617.66.66 0 00.635.691.67.67 0 00.71-.618zM21.79 11.558a.428.428 0 00-.46.4c-.01.233.171.436.411.446a.431.431 0 00.459-.4.432.432 0 00-.41-.446zM20.033 15.765a.567.567 0 00-.768.156.535.535 0 00.16.748.567.567 0 00.768-.156.53.53 0 00-.16-.748zM7.673 19.722a.444.444 0 00-.603.12.418.418 0 00.123.587c.202.13.469.073.602-.12a.41.41 0 00-.122-.587zM16.802 19.682a.423.423 0 00-.192.571c.107.208.374.291.587.187a.417.417 0 00.192-.566.437.437 0 00-.587-.192s.006 0 0 0zM11.745 15.401a1.294 1.294 0 00-.389-1.818 1.372 1.372 0 00-1.866.38 1.29 1.29 0 00.389 1.817c.219.14.475.213.736.213.458.006.88-.218 1.13-.592zM9.053 17.412a.688.688 0 00-.933.187.649.649 0 00.192.909c.309.197.73.114.933-.187a.64.64 0 00-.192-.91zM12.194 19.92a.557.557 0 00-.587.51c-.021.296.219.55.523.571a.553.553 0 00.586-.504.554.554 0 00-.522-.576zM12.199 16.529a.778.778 0 00-.832.727c-.027.426.31.79.746.81.438.021.811-.3.832-.727a.776.776 0 00-.746-.81zM15.436 17.358a.648.648 0 00-.293.884c.17.322.576.452.906.285a.648.648 0 00.3-.878.69.69 0 00-.913-.29z"/></g><defs><clipPath id="cclip0"><path fill="#fff" transform="translate(2.2 3)" d="M0 0h20v18H0z"/></clipPath></defs></svg><svg fill="none" viewBox="0 0 24 24" id="token-empty" xmlns="http://www.w3.org/2000/svg"><circle cx="12" cy="12" r="12" fill="#DBDBDB"/><path d="M12 3.25a8.75 8.75 0 10.001 17.501A8.75 8.75 0 0012 3.25zm0 16.016A7.267 7.267 0 016.365 7.414l10.22 10.22A7.233 7.233 0 0112 19.267zm5.635-2.68L7.415 6.366a7.267 7.267 0 0110.22 10.22z" fill="#141414"/></svg><svg fill="none" viewBox="0 0 24 24" id="token-erg" xmlns="http://www.w3.org/2000/svg"><circle cx="12" cy="12" r="12" fill="#DBDBDB"/><path d="M20.698 11.738l-2.362-5.703a.685.685 0 00-.371-.37l-5.703-2.363a.686.686 0 00-.524 0L6.035 5.664a.685.685 0 00-.37.371l-2.363 5.703a.684.684 0 000 .524l2.362 5.703c.07.168.203.301.371.37l5.703 2.363a.687.687 0 00.524 0l5.703-2.362a.685.685 0 00.37-.371l2.363-5.703a.686.686 0 000-.524zm-5.866-1.986h-3.316l2.056 2.153-2.128 2.342h3.387v1.574H9.17v-1.43l2.228-2.467-2.218-2.31V8.178h5.652l.001 1.573z" fill="#141414"/></svg><svg fill="none" viewBox="0 0 24 24" id="token-erg-orange" xmlns="http://www.w3.org/2000/svg"><circle cx="12" cy="12" r="12" fill="#DBDBDB"/><path d="M20.698 11.738l-2.362-5.703a.685.685 0 00-.371-.37l-5.703-2.363a.686.686 0 00-.524 0L6.035 5.664a.685.685 0 00-.37.371l-2.363 5.703a.684.684 0 000 .524l2.362 5.703c.07.168.203.301.371.37l5.703 2.363a.685.685 0 00.524 0l5.703-2.362a.685.685 0 00.37-.371l2.363-5.703a.686.686 0 000-.524zm-5.866-1.986h-3.316l2.056 2.153-2.128 2.342h3.387v1.574H9.17v-1.43l2.228-2.467-2.218-2.31V8.178h5.652l.001 1.573z" fill="#FF5135"/></svg><svg fill="none" viewBox="0 0 25 24" id="token-erg-orange-disabled" xmlns="http://www.w3.org/2000/svg"><circle cx="12.199" cy="12" r="12" fill="#5A5A5A"/><path d="M20.897 11.738l-2.362-5.703a.685.685 0 00-.37-.37L12.46 3.301a.686.686 0 00-.524 0L6.234 5.664a.685.685 0 00-.37.371L3.5 11.738a.684.684 0 000 .524l2.363 5.703c.07.168.203.301.37.37l5.703 2.363a.687.687 0 00.524 0l5.703-2.362a.685.685 0 00.371-.371l2.362-5.703a.686.686 0 000-.524zm-5.866-1.986h-3.315l2.055 2.153-2.127 2.342h3.386v1.574H9.368v-1.43l2.228-2.467-2.217-2.31V8.178h5.651l.001 1.573z" fill="#ACACAC"/></svg></defs></svg>
