<svg width="383" height="70" viewBox="0 0 383 70" fill="none" xmlns="http://www.w3.org/2000/svg">
<g clip-path="url(#clip0_1_230)">
<path d="M91.9215 54.0407C90.9702 55.0283 89.6286 55.5212 87.8969 55.5212C86.1652 55.5212 84.825 55.0283 83.8726 54.0407C82.9198 53.053 82.4457 51.6583 82.4457 49.8541V26.6724H76.9693C75.5118 26.6724 74.3466 26.2932 73.4723 25.5362C72.598 24.7792 72.1616 23.7193 72.1616 22.3581C72.1616 20.9968 72.5897 19.937 73.447 19.18C74.3044 18.423 75.4782 18.0437 76.9693 18.0437H98.823C100.314 18.0437 101.488 18.423 102.345 19.18C103.203 19.937 103.631 20.9968 103.631 22.3581C103.631 23.7193 103.195 24.7792 102.32 25.5362C101.446 26.2932 100.281 26.6724 98.823 26.6724H93.3469V49.8541C93.3469 51.6583 92.8713 53.0545 91.92 54.0407H91.9215Z" fill="white"/>
<path d="M116.44 55.5991C111.795 55.5991 108.16 54.3017 105.539 51.7055C102.916 49.111 101.606 45.5229 101.606 40.9449C101.606 36.3666 102.908 32.6856 105.514 30.0047C108.118 27.3239 111.65 25.9835 116.107 25.9835C120.564 25.9835 123.941 27.2128 126.597 29.6728C129.253 32.1328 130.582 35.2857 130.582 39.1322C130.582 40.3918 130.231 41.3532 129.527 42.0172C128.824 42.681 127.822 43.0131 126.519 43.0131H111.761V43.6769C111.761 45.0563 112.216 46.1911 113.123 47.0855C114.031 47.9788 115.188 48.426 116.594 48.426C117.742 48.426 118.766 48.2387 119.666 47.8649C120.565 47.4912 121.521 46.8608 122.532 45.9758C123.08 45.4994 123.589 45.1633 124.062 44.9675C124.534 44.7716 125.094 44.6742 125.746 44.6742C126.809 44.6742 127.717 44.9979 128.471 45.6454C129.225 46.2926 129.603 47.151 129.603 48.2233C129.603 49.0234 129.372 49.7901 128.909 50.5208C127.966 52.0875 126.377 53.3253 124.139 54.2351C121.902 55.1448 119.335 55.6003 116.439 55.6003L116.44 55.5991ZM111.915 37.3445H120.76C120.674 36.0845 120.224 35.076 119.41 34.319C118.595 33.562 117.572 33.183 116.338 33.183C115.104 33.183 114.126 33.5744 113.304 34.3579C112.481 35.1414 112.018 36.1374 111.915 37.3445Z" fill="white"/>
<path d="M145.342 55.292C141.845 55.292 139.129 54.0115 137.191 51.45C135.254 48.8886 134.286 45.3091 134.286 40.7142C134.286 36.1194 135.277 32.6508 137.256 30.1061C139.235 27.5614 141.991 26.289 145.522 26.289C147.544 26.289 149.297 26.7961 150.78 27.8087C152.262 28.8213 153.286 30.1451 153.851 31.7785H154.057V22.8165C154.057 21.0288 154.533 19.68 155.484 18.7702C156.435 17.8604 157.717 17.4048 159.328 17.4048C160.939 17.4048 162.221 17.8604 163.172 18.7702C164.123 19.6814 164.599 21.0385 164.599 22.8429V50.1096C164.599 51.8972 164.123 53.246 163.172 54.1557C162.221 55.0658 160.939 55.5213 159.328 55.5213C157.717 55.5213 156.435 55.0658 155.484 54.1557C154.533 53.246 154.057 51.8958 154.057 50.1096V50.0069H153.851C153.354 51.5223 152.33 52.7807 150.78 53.7849C149.228 54.7894 147.415 55.2906 145.341 55.2906L145.342 55.292ZM146.268 45.5271C147.056 46.6593 148.162 47.2245 149.585 47.2245C151.008 47.2245 152.117 46.6634 152.914 45.5398C153.712 44.4158 154.11 42.842 154.11 40.8169C154.11 38.7917 153.707 37.2082 152.902 36.0677C152.096 34.9276 150.989 34.3579 149.585 34.3579C148.181 34.3579 147.078 34.9329 146.281 36.0816C145.484 37.2306 145.085 38.8015 145.085 40.7921C145.085 42.7824 145.479 44.3964 146.268 45.5286V45.5271Z" fill="white"/>
<path d="M180.106 55.292C176.609 55.292 173.892 54.0115 171.955 51.45C170.018 48.8886 169.05 45.3091 169.05 40.7142C169.05 36.1194 170.04 32.6508 172.019 30.1061C173.999 27.5614 176.755 26.289 180.285 26.289C182.308 26.289 184.06 26.7961 185.543 27.8087C187.026 28.8213 188.05 30.1451 188.615 31.7785H188.821V22.8165C188.821 21.0288 189.296 19.68 190.248 18.7702C191.199 17.8604 192.48 17.4048 194.091 17.4048C195.703 17.4048 196.984 17.8604 197.935 18.7702C198.887 19.6814 199.362 21.0385 199.362 22.8429V50.1096C199.362 51.8972 198.887 53.246 197.935 54.1557C196.984 55.0658 195.703 55.5213 194.091 55.5213C192.48 55.5213 191.199 55.0658 190.248 54.1557C189.296 53.246 188.821 51.8958 188.821 50.1096V50.0069H188.615C188.119 51.5223 187.093 52.7807 185.543 53.7849C183.992 54.7894 182.179 55.2906 180.105 55.2906L180.106 55.292ZM181.032 45.5271C181.82 46.6593 182.926 47.2245 184.349 47.2245C185.771 47.2245 186.882 46.6634 187.678 45.5398C188.475 44.4158 188.874 42.842 188.874 40.8169C188.874 38.7917 188.471 37.2082 187.665 36.0677C186.86 34.9276 185.754 34.3579 184.349 34.3579C182.943 34.3579 181.842 34.9329 181.045 36.0816C180.247 37.2306 179.849 38.8015 179.849 40.7921C179.849 42.7824 180.243 44.3964 181.032 45.5286V45.5271Z" fill="white"/>
<path d="M211.245 65.2237C209.05 65.2237 207.376 64.8154 206.219 63.9985C205.062 63.1817 204.483 61.9982 204.483 60.4494C204.483 59.4285 204.818 58.6284 205.486 58.0494C206.155 57.47 207.063 57.1812 208.211 57.1812C208.332 57.1812 208.515 57.1853 208.764 57.1936C209.013 57.2018 209.196 57.2063 209.316 57.2063C210.654 57.2063 211.613 56.9673 212.197 56.4909L212.325 56.3879L203.969 34.1508C203.54 33.0272 203.325 31.9549 203.325 30.9339C203.325 29.538 203.852 28.3767 204.906 27.4489C205.96 26.521 207.275 26.057 208.852 26.057C210.291 26.057 211.398 26.389 212.168 27.053C212.939 27.7169 213.539 28.8407 213.969 30.4227L218.546 47.3758H218.751L223.328 30.3215C223.723 28.8573 224.335 27.7808 225.166 27.0919C225.997 26.4029 227.098 26.0584 228.471 26.0584C229.978 26.0584 231.209 26.4973 232.161 27.3738C233.112 28.2503 233.587 29.3699 233.587 30.7312C233.587 31.7354 233.382 32.8077 232.97 33.9482L225.926 53.9642C224.503 57.9812 222.655 60.8621 220.385 62.6068C218.114 64.3514 215.067 65.2237 211.245 65.2237Z" fill="white"/>
<path d="M252.899 55.5213C248.939 55.5213 245.7 54.9088 243.18 53.6834C240.661 52.4583 238.973 50.8751 238.115 48.9346C237.737 48.1177 237.55 47.2664 237.55 46.3814C237.55 45.0881 237.991 44.0326 238.875 43.2158C239.757 42.3989 240.875 41.9907 242.231 41.9907C243.294 41.9907 244.197 42.1865 244.943 42.5783C245.689 42.97 246.422 43.6671 247.14 44.6716C248.341 46.3731 250.303 47.2245 253.028 47.2245C254.639 47.2245 255.921 46.9316 256.872 46.3439C257.823 45.7563 258.299 45.0035 258.299 44.084C258.299 43.2326 257.892 42.5783 257.078 42.1184C256.264 41.6588 254.802 41.242 252.694 40.867L248.966 40.203C245.263 39.5558 242.435 38.318 240.481 36.4887C238.527 34.6594 237.55 32.323 237.55 29.481C237.55 27.0641 238.206 24.932 239.517 23.0859C240.827 21.2399 242.636 19.8314 244.941 18.8605C247.247 17.8909 249.865 17.4048 252.796 17.4048C256.48 17.4048 259.587 18.0257 262.116 19.2689C264.644 20.5121 266.388 22.2817 267.348 24.5792C267.657 25.3112 267.811 26.0682 267.811 26.8516C267.811 28.0767 267.395 29.0685 266.565 29.8256C265.732 30.5826 264.64 30.9702 263.286 30.9867C262.121 30.9867 261.143 30.7743 260.355 30.3492C259.566 29.9241 258.847 29.2171 258.195 28.2295C257.081 26.5446 255.324 25.7015 252.925 25.7015C251.467 25.7015 250.341 25.9821 249.544 26.5446C248.746 27.1058 248.348 27.8212 248.348 28.6893C248.348 29.5061 248.755 30.1451 249.569 30.6047C250.383 31.0646 251.741 31.4646 253.644 31.805L257.371 32.4688C261.382 33.1841 264.339 34.3969 266.241 36.1067C268.144 37.8168 269.095 40.1531 269.095 43.1143C269.095 46.9439 267.664 49.9694 264.801 52.1905C261.937 54.4115 257.97 55.5227 252.897 55.5227L252.899 55.5213Z" fill="white"/>
<path d="M284.733 55.5212C282.882 55.5212 281.433 55.074 280.388 54.1808C279.341 53.2875 278.527 51.8444 277.945 49.8526L273.368 33.9718C272.94 32.4912 272.726 31.3425 272.726 30.5256C272.726 29.2324 273.206 28.1642 274.166 27.3211C275.125 26.4779 276.334 26.0571 277.791 26.0571C279.111 26.0571 280.209 26.4571 281.083 27.2572C281.957 28.0573 282.531 29.1629 282.806 30.5755L285.712 45.7162H285.917L288.823 30.9076C289.132 29.3421 289.786 28.142 290.789 27.3072C291.792 26.4738 293.09 26.0557 294.685 26.0557C296.28 26.0557 297.556 26.4724 298.566 27.3072C299.579 28.142 300.238 29.3491 300.547 30.9324L303.477 45.7147H303.682L306.614 30.4728C306.869 29.1115 307.431 28.035 308.298 27.2433C309.163 26.4515 310.238 26.0557 311.525 26.0557C312.948 26.0557 314.121 26.4724 315.045 27.3072C315.972 28.142 316.435 29.1879 316.435 30.4477C316.435 31.2313 316.23 32.3632 315.818 33.844L311.242 49.8013C310.675 51.8096 309.855 53.2654 308.774 54.1669C307.692 55.0684 306.21 55.5198 304.323 55.5198C302.318 55.5198 300.77 55.0643 299.683 54.1545C298.596 53.2445 297.826 51.7763 297.381 49.7499L294.554 36.7291H294.348L291.545 49.8526C291.117 51.8444 290.366 53.2864 289.295 54.1808C288.224 55.074 286.702 55.5212 284.733 55.5212Z" fill="white"/>
<path d="M328.779 55.292C326.138 55.292 323.883 54.4796 322.018 52.8542C320.149 51.229 319.216 49.1735 319.216 46.6885C319.216 43.9993 320.223 41.9184 322.238 40.446C324.252 38.9737 327.169 38.1179 330.993 37.8805L337.213 37.4973V36.1179C337.213 35.1984 336.896 34.4845 336.263 33.9732C335.63 33.462 334.804 33.2077 333.794 33.2077C332.989 33.2077 332.303 33.3481 331.738 33.6287C331.171 33.9092 330.425 34.4677 329.501 35.301C328.265 36.425 326.887 36.986 325.36 36.986C324.109 36.986 323.084 36.6415 322.291 35.9527C321.492 35.2636 321.094 34.3747 321.094 33.2841C321.094 32.7065 321.162 32.187 321.299 31.7271C321.831 29.9226 323.257 28.5143 325.58 27.5017C327.903 26.4891 330.829 25.9821 334.359 25.9821C338.286 25.9821 341.456 26.8711 343.874 28.6504C346.289 30.4297 347.499 32.7481 347.499 35.6081V50.2623C347.499 52.0152 347.029 53.3309 346.084 54.2073C345.143 55.0838 343.874 55.5227 342.279 55.5227C340.841 55.5227 339.673 55.156 338.782 54.4253C337.891 53.6934 337.368 52.5875 337.213 51.1069H337.009C336.29 52.4347 335.173 53.4642 333.654 54.1961C332.136 54.9283 330.511 55.2935 328.782 55.2935L328.779 55.292ZM332.713 48.2968C333.928 48.2968 334.982 47.987 335.874 47.3649C336.765 46.7439 337.213 45.9315 337.213 44.927V43.0895L332.739 43.3963C331.744 43.4644 330.975 43.7199 330.425 44.1618C329.876 44.6049 329.602 45.1742 329.602 45.8731C329.602 46.6218 329.884 47.2136 330.452 47.6469C331.016 48.0803 331.771 48.2983 332.713 48.2983V48.2968Z" fill="white"/>
<path d="M361.782 63.6791C360.829 64.5888 359.548 65.0446 357.938 65.0446C356.325 65.0446 355.044 64.5888 354.094 63.6791C353.143 62.7678 352.668 61.4191 352.668 59.6329V31.4717C352.668 29.684 353.143 28.3351 354.094 27.4253C355.044 26.5155 356.325 26.0598 357.938 26.0598C359.548 26.0598 360.835 26.5155 361.794 27.4253C362.754 28.3365 363.232 29.6934 363.232 31.4979V31.7785H363.413C364.1 30.0421 365.175 28.6935 366.64 27.7323C368.107 26.7711 369.848 26.2891 371.871 26.2891C375.439 26.2891 378.178 27.5406 380.1 30.0421C382.02 32.544 382.979 36.1276 382.979 40.7906C382.979 45.4536 382.029 49.0163 380.127 51.5264C378.223 54.0377 375.516 55.292 372.002 55.292C369.928 55.292 368.146 54.828 366.654 53.9002C365.163 52.9725 364.085 51.6751 363.416 50.0069H363.208V59.6314C363.208 61.4191 362.733 62.7678 361.782 63.6776V63.6791ZM364.391 45.5008C365.196 46.6495 366.295 47.2245 367.682 47.2245C369.073 47.2245 370.169 46.6469 370.974 45.4884C371.779 44.3311 372.183 42.7659 372.183 40.7906C372.183 38.8153 371.776 37.2722 370.962 36.1055C370.148 34.9399 369.055 34.3564 367.682 34.3564C366.31 34.3564 365.217 34.9399 364.406 36.1055C363.592 37.2707 363.176 38.8419 363.158 40.8157C363.176 42.7907 363.586 44.3521 364.391 45.5008Z" fill="white"/>
<path d="M14.4522 20.0474C14.4522 20.0474 10.1621 25.3813 3.80997 22.4074C3.80997 22.4074 -3.48348 18.7362 2.11181 10.3867C2.11181 10.3867 6.402 4.46524 11.5721 8.02812C11.5721 8.02812 17.5576 11.7785 15.9896 17.1763L14.4522 20.0474Z" fill="#C69C6D"/>
<path d="M41.1853 15.0178C41.1853 15.0178 47.2603 18.2125 51.893 12.9717C51.893 12.9717 57.1095 6.71828 48.6269 1.27465C48.6269 1.27465 42.3169 -2.45907 39.0044 2.85398C39.0044 2.85398 35.0205 8.66153 38.6238 12.9926L41.1853 15.0178Z" fill="#C69C6D"/>
<path d="M11.5049 17.7167C11.5049 17.7167 9.41648 20.3128 6.32509 18.8654C6.32509 18.8654 2.77487 17.0791 5.49836 13.0148C5.49836 13.0148 7.58683 10.1325 10.1033 11.8661C10.1033 11.8661 13.0156 13.6913 12.2533 16.3179L11.5049 17.7153V17.7167Z" fill="#F8EBC9"/>
<path d="M43.3267 11.4549C43.3267 11.4549 46.2838 13.0092 48.5387 10.459C48.5387 10.459 51.0776 7.41557 46.9484 4.76668C46.9484 4.76668 43.8766 2.94984 42.2652 5.53621C42.2652 5.53621 40.3264 8.36289 42.0804 10.4701L43.3267 11.4563V11.4549Z" fill="#F8EBC9"/>
<path d="M21.7765 37.1896C21.7765 37.1896 16.1812 45.7377 15.8609 51.0453C15.8609 51.0453 13.5528 50.5756 12.2729 50.6063C12.2729 50.6063 8.09321 45.0875 3.04627 48.6838C3.04627 48.6838 -1.89578 52.1618 0.851505 59.2863C0.851505 59.2863 4.18629 68.6232 14.1165 68.0273C14.1165 68.0273 16.3673 67.8482 17.8598 66.7231C17.8598 66.7231 15.5336 67.055 24.1839 65.9299C24.1839 65.9299 32.2312 65.7369 41.6972 65.916C44.5269 65.9703 47.0461 67.0175 51.4596 66.9689C51.4596 66.9689 59.8106 69.7554 63.5034 58.2293C63.5034 58.2293 65.326 52.7813 60.258 48.8463C60.258 48.8463 56.6087 46.4141 52.5478 51.0576C52.5478 51.0576 50.055 51.0603 49.009 51.3618C49.009 51.3618 46.5652 42.3567 44.3522 38.6994L21.7779 37.1896H21.7765Z" fill="#C69C6D"/>
<path d="M24.0328 45.5669L22.62 58.4919C22.62 58.4919 31.3711 63.2979 43.6303 57.8735L40.8843 43.6193C40.8843 43.6193 31.2689 46.7876 24.0328 45.5654V45.5669Z" fill="#F8EBC9"/>
<path d="M18.1941 44.2763C18.1941 44.2763 14.5908 59.8766 21.9835 67.401C21.9835 67.401 24.4301 70.1097 28.5972 69.3191C28.5972 69.3191 31.981 68.3984 32.1153 65.4036C32.3069 61.117 28.6531 58.9736 27.0375 54.4967C27.0375 54.4967 24.6735 47.7407 25.724 45.1834L18.1941 44.2763Z" fill="#C69C6D"/>
<path d="M44.2515 41.2968C44.2515 41.2968 51.8247 57.4862 45.8055 66.1329C45.8055 66.1329 43.8498 69.2097 39.6087 69.1235C39.6087 69.1235 36.1173 68.7775 35.4807 65.8467C34.5686 61.6519 37.7174 59.5503 38.6476 54.2495C38.6476 54.2495 39.4408 50.4577 38.0139 43.6193L44.2527 41.2957L44.2515 41.2968Z" fill="#C69C6D"/>
<path d="M34.0737 44.8722C34.0737 44.8722 15.1852 50.252 8.99684 36.2158C8.99684 36.2158 3.15957 22.5755 15.0538 11.4979C15.0538 11.4979 26.0835 2.07888 37.5567 7.05024C37.5567 7.05024 49.8943 11.4618 52.2219 25.2646C52.2219 25.2646 55.6604 40.0841 34.0722 44.8737L34.0737 44.8722Z" fill="#C69C6D"/>
<path d="M38.0561 29.3776C34.8806 27.4955 30.5066 28.5206 30.5066 28.5206C30.5066 28.5206 26.0457 29.0706 23.7293 31.9322C23.7293 31.9322 21.0981 34.6225 22.0437 38.9634C22.0437 38.9634 22.7711 42.8789 27.2753 43.932C27.2753 43.932 29.9722 44.5556 33.3013 43.9624C36.6307 43.3695 38.9402 41.8511 38.9402 41.8511C42.794 39.3091 42.103 35.3851 42.103 35.3851C41.4678 30.9888 38.0573 29.3748 38.0573 29.3748L38.0561 29.3776Z" fill="#F8EBC9"/>
<path d="M19.1663 33.821C20.8891 33.821 22.2857 32.4342 22.2857 30.7236C22.2857 29.0128 20.8891 27.626 19.1663 27.626C17.4435 27.626 16.0469 29.0128 16.0469 30.7236C16.0469 32.4342 17.4435 33.821 19.1663 33.821Z" fill="#534741"/>
<path d="M19.7902 31.0082C20.4476 31.0082 20.9805 30.479 20.9805 29.8262C20.9805 29.1734 20.4476 28.6442 19.7902 28.6442C19.1327 28.6442 18.5997 29.1734 18.5997 29.8262C18.5997 30.479 19.1327 31.0082 19.7902 31.0082Z" fill="white"/>
<path d="M41.354 29.4999C43.0768 29.4999 44.4734 28.113 44.4734 26.4023C44.4734 24.6915 43.0768 23.3047 41.354 23.3047C39.6312 23.3047 38.2346 24.6915 38.2346 26.4023C38.2346 28.113 39.6312 29.4999 41.354 29.4999Z" fill="#534741"/>
<path d="M41.7518 26.6773C42.3938 26.6773 42.914 26.1605 42.914 25.523C42.914 24.8855 42.3938 24.3687 41.7518 24.3687C41.1098 24.3687 40.5893 24.8855 40.5893 25.523C40.5893 26.1605 41.1098 26.6773 41.7518 26.6773Z" fill="white"/>
<path d="M33.984 32.8349C33.3756 31.3307 31.5933 31.5932 31.1192 31.6932C30.6379 31.7626 28.8755 32.1266 28.8266 33.7476C28.8266 33.7476 28.7622 34.9323 29.7639 35.6937C29.7639 35.6937 30.4745 36.32 31.7948 36.1477V36.1533C31.837 36.1465 31.8759 36.1379 31.9151 36.1312C31.9543 36.1256 31.9935 36.1185 32.0342 36.1117V36.1061C33.1908 35.8394 33.7505 35.042 33.7505 35.042C34.4456 33.9974 33.984 32.8363 33.984 32.8363V32.8349Z" fill="#534741"/>
<path d="M11.3482 56.19C13.2996 59.6058 13.336 62.7894 11.6868 64.334C9.71581 66.1786 5.85786 63.9576 3.9051 60.5418C1.95374 57.1263 1.96073 53.2731 4.30655 51.9506C6.65238 50.6299 9.3969 52.7745 11.3497 56.19H11.3482Z" fill="#B2875B"/>
<path d="M52.7549 56.5638C51.1028 60.1323 51.3393 63.3077 53.1158 64.7062C55.2379 66.3786 58.8914 63.8395 60.545 60.271C62.1968 56.7027 61.8611 52.8633 59.4105 51.7453C56.9598 50.6258 54.4082 52.9952 52.7564 56.5638H52.7549Z" fill="#B2875B"/>
<path d="M31.5108 40.5163C29.5302 40.5163 28.3622 39.5841 28.3048 39.5369C28.0656 39.3425 28.032 38.9926 28.2279 38.7548C28.4237 38.5174 28.7762 38.484 29.0154 38.6784C29.0672 38.7189 30.3709 39.7316 32.5907 39.2968L32.6438 39.287C34.8639 38.8522 35.6836 37.4256 35.7172 37.366C35.8669 37.0993 36.2053 37.0005 36.4753 37.1465C36.7454 37.2923 36.8461 37.6271 36.7005 37.8952C36.6571 37.9743 35.6206 39.8369 32.8592 40.3773L32.8063 40.3871C32.3432 40.4773 31.9094 40.5163 31.5108 40.5163Z" fill="#534741"/>
<path d="M32.5636 40.1139C32.2992 40.1139 32.0642 39.9263 32.0137 39.6581L31.1436 34.9647C31.0877 34.6632 31.2891 34.373 31.5927 34.3172C31.8976 34.2618 32.1887 34.4618 32.2445 34.7633L33.1147 39.4566C33.1706 39.7581 32.9691 40.0484 32.6655 40.1042C32.6308 40.1095 32.5972 40.1139 32.5636 40.1139Z" fill="#534741"/>
</g>
<defs>
<clipPath id="clip0_1_230">
<rect width="383" height="69.4716" fill="white"/>
</clipPath>
</defs>
</svg>
