<svg width="32" height="32" viewBox="0 0 32 32" fill="none" xmlns="http://www.w3.org/2000/svg">
<path d="M30 16C30 8.26801 23.732 2 16 2C8.26801 2 2 8.26801 2 16C2 23.732 8.26801 30 16 30C23.732 30 30 23.732 30 16Z" fill="url(#paint0_linear_3435_68661)"/>
<path d="M21.0054 10.7628C21.5654 10.7628 22.0194 10.3005 22.0194 9.73016C22.0194 9.1598 21.5654 8.69748 21.0054 8.69748C20.4454 8.69748 19.9915 9.1598 19.9915 9.73016C19.9915 10.3005 20.4454 10.7628 21.0054 10.7628Z" fill="white"/>
<path d="M21.0054 23.3026C21.5654 23.3026 22.0194 22.8403 22.0194 22.27C22.0194 21.6996 21.5654 21.2372 21.0054 21.2372C20.4454 21.2372 19.9915 21.6996 19.9915 22.27C19.9915 22.8403 20.4454 23.3026 21.0054 23.3026Z" fill="white"/>
<path d="M16.4787 24.8148C17.0387 24.8148 17.4927 24.3524 17.4927 23.7821C17.4927 23.2118 17.0387 22.7494 16.4787 22.7494C15.9188 22.7494 15.4648 23.2118 15.4648 23.7821C15.4648 24.3524 15.9188 24.8148 16.4787 24.8148Z" fill="white"/>
<path d="M11.9882 23.3026C12.5482 23.3026 13.0022 22.8403 13.0022 22.27C13.0022 21.6996 12.5482 21.2372 11.9882 21.2372C11.4282 21.2372 10.9743 21.6996 10.9743 22.27C10.9743 22.8403 11.4282 23.3026 11.9882 23.3026Z" fill="white"/>
<path d="M9.23616 19.5037C9.79616 19.5037 10.2501 19.0414 10.2501 18.471C10.2501 17.9007 9.79616 17.4383 9.23616 17.4383C8.6762 17.4383 8.2222 17.9007 8.2222 18.471C8.2222 19.0414 8.6762 19.5037 9.23616 19.5037Z" fill="white"/>
<path d="M9.23616 14.5615C9.79616 14.5615 10.2501 14.0992 10.2501 13.5289C10.2501 12.9585 9.79616 12.4962 9.23616 12.4962C8.6762 12.4962 8.2222 12.9585 8.2222 13.5289C8.2222 14.0992 8.6762 14.5615 9.23616 14.5615Z" fill="white"/>
<path d="M11.9882 10.7628C12.5482 10.7628 13.0022 10.3005 13.0022 9.73016C13.0022 9.1598 12.5482 8.69748 11.9882 8.69748C11.4282 8.69748 10.9743 9.1598 10.9743 9.73016C10.9743 10.3005 11.4282 10.7628 11.9882 10.7628Z" fill="white"/>
<path d="M16.4787 9.25057C17.0387 9.25057 17.4927 8.7882 17.4927 8.21784C17.4927 7.64753 17.0387 7.18517 16.4787 7.18517C15.9188 7.18517 15.4648 7.64753 15.4648 8.21784C15.4648 8.7882 15.9188 9.25057 16.4787 9.25057Z" fill="white"/>
<path d="M16.4787 11.6848C16.7787 11.6848 17.0219 11.4371 17.0219 11.1316C17.0219 10.826 16.7787 10.5784 16.4787 10.5784C16.1787 10.5784 15.9355 10.826 15.9355 11.1316C15.9355 11.4371 16.1787 11.6848 16.4787 11.6848Z" fill="white"/>
<path d="M18.9051 12.3486C19.205 12.3486 19.4482 12.101 19.4482 11.7954C19.4482 11.4899 19.205 11.2422 18.9051 11.2422C18.6051 11.2422 18.3619 11.4899 18.3619 11.7954C18.3619 12.101 18.6051 12.3486 18.9051 12.3486Z" fill="white"/>
<path d="M18.9051 20.7578C19.205 20.7578 19.4482 20.5101 19.4482 20.2046C19.4482 19.899 19.205 19.6514 18.9051 19.6514C18.6051 19.6514 18.3619 19.899 18.3619 20.2046C18.3619 20.5101 18.6051 20.7578 18.9051 20.7578Z" fill="white"/>
<path d="M16.4787 21.4216C16.7787 21.4216 17.0219 21.1739 17.0219 20.8683C17.0219 20.5628 16.7787 20.3151 16.4787 20.3151C16.1787 20.3151 15.9355 20.5628 15.9355 20.8683C15.9355 21.1739 16.1787 21.4216 16.4787 21.4216Z" fill="white"/>
<path d="M14.0888 20.7578C14.3888 20.7578 14.632 20.5101 14.632 20.2046C14.632 19.899 14.3888 19.6514 14.0888 19.6514C13.7888 19.6514 13.5456 19.899 13.5456 20.2046C13.5456 20.5101 13.7888 20.7578 14.0888 20.7578Z" fill="white"/>
<path d="M12.3505 19.0243C12.6504 19.0243 12.8936 18.7766 12.8936 18.471C12.8936 18.1655 12.6504 17.9178 12.3505 17.9178C12.0505 17.9178 11.8073 18.1655 11.8073 18.471C11.8073 18.7766 12.0505 19.0243 12.3505 19.0243Z" fill="white"/>
<path d="M11.6986 16.553C11.9986 16.553 12.2418 16.3054 12.2418 15.9998C12.2418 15.6943 11.9986 15.4466 11.6986 15.4466C11.3986 15.4466 11.1554 15.6943 11.1554 15.9998C11.1554 16.3054 11.3986 16.553 11.6986 16.553Z" fill="white"/>
<path d="M12.3505 14.0822C12.6504 14.0822 12.8936 13.8345 12.8936 13.5289C12.8936 13.2234 12.6504 12.9757 12.3505 12.9757C12.0505 12.9757 11.8073 13.2234 11.8073 13.5289C11.8073 13.8345 12.0505 14.0822 12.3505 14.0822Z" fill="white"/>
<path d="M14.0888 12.3486C14.3888 12.3486 14.632 12.101 14.632 11.7954C14.632 11.4899 14.3888 11.2422 14.0888 11.2422C13.7888 11.2422 13.5456 11.4899 13.5456 11.7954C13.5456 12.101 13.7888 12.3486 14.0888 12.3486Z" fill="white"/>
<path d="M16.4787 13.6026C16.6387 13.6026 16.7684 13.4706 16.7684 13.3076C16.7684 13.1446 16.6387 13.0126 16.4787 13.0126C16.3187 13.0126 16.189 13.1446 16.189 13.3076C16.189 13.4706 16.3187 13.6026 16.4787 13.6026Z" fill="white"/>
<path d="M17.8186 13.9714C17.9786 13.9714 18.1084 13.8394 18.1084 13.6764C18.1084 13.5134 17.9786 13.3814 17.8186 13.3814C17.6586 13.3814 17.529 13.5134 17.529 13.6764C17.529 13.8394 17.6586 13.9714 17.8186 13.9714Z" fill="white"/>
<path d="M17.8186 18.6185C17.9786 18.6185 18.1084 18.4865 18.1084 18.3235C18.1084 18.1605 17.9786 18.0284 17.8186 18.0284C17.6586 18.0284 17.529 18.1605 17.529 18.3235C17.529 18.4865 17.6586 18.6185 17.8186 18.6185Z" fill="white"/>
<path d="M16.4787 18.9873C16.6387 18.9873 16.7684 18.8552 16.7684 18.6922C16.7684 18.5293 16.6387 18.3972 16.4787 18.3972C16.3187 18.3972 16.189 18.5293 16.189 18.6922C16.189 18.8552 16.3187 18.9873 16.4787 18.9873Z" fill="white"/>
<path d="M15.1389 18.6185C15.2989 18.6185 15.4286 18.4865 15.4286 18.3235C15.4286 18.1605 15.2989 18.0284 15.1389 18.0284C14.9789 18.0284 14.8492 18.1605 14.8492 18.3235C14.8492 18.4865 14.9789 18.6185 15.1389 18.6185Z" fill="white"/>
<path d="M14.1974 17.6597C14.3574 17.6597 14.4871 17.5276 14.4871 17.3646C14.4871 17.2017 14.3574 17.0696 14.1974 17.0696C14.0374 17.0696 13.9077 17.2017 13.9077 17.3646C13.9077 17.5276 14.0374 17.6597 14.1974 17.6597Z" fill="white"/>
<path d="M13.8353 16.295C13.9953 16.295 14.125 16.1628 14.125 15.9999C14.125 15.8369 13.9953 15.7048 13.8353 15.7048C13.6753 15.7048 13.5456 15.8369 13.5456 15.9999C13.5456 16.1628 13.6753 16.295 13.8353 16.295Z" fill="white"/>
<path d="M14.1974 14.9304C14.3574 14.9304 14.4871 14.7982 14.4871 14.6353C14.4871 14.4723 14.3574 14.3402 14.1974 14.3402C14.0374 14.3402 13.9077 14.4723 13.9077 14.6353C13.9077 14.7982 14.0374 14.9304 14.1974 14.9304Z" fill="white"/>
<path d="M15.1389 13.9714C15.2989 13.9714 15.4286 13.8394 15.4286 13.6764C15.4286 13.5134 15.2989 13.3814 15.1389 13.3814C14.9789 13.3814 14.8492 13.5134 14.8492 13.6764C14.8492 13.8394 14.9789 13.9714 15.1389 13.9714Z" fill="white"/>
<defs>
<linearGradient id="paint0_linear_3435_68661" x1="2" y1="2" x2="30" y2="30" gradientUnits="userSpaceOnUse">
<stop stop-color="#FF55A3"/>
<stop offset="1" stop-color="#633ABB"/>
</linearGradient>
</defs>
</svg>
