<svg width="24" height="24" viewBox="0 0 24 24" fill="none" xmlns="http://www.w3.org/2000/svg">
<path d="M11.9978 24C9.62459 23.9995 7.30482 23.2954 5.33176 21.9767C3.35871 20.658 1.82098 18.7838 0.913 16.5912C0.00502087 14.3985 -0.232434 11.9859 0.230659 9.65836C0.693751 7.33079 1.8366 5.1928 3.51469 3.5147C5.19279 1.8366 7.33079 0.693758 9.65835 0.230666C11.9859 -0.232427 14.3985 0.00502778 16.5912 0.913007C18.7838 1.82099 20.658 3.35872 21.9767 5.33177C23.2954 7.30482 23.9995 9.6246 24 11.9978C24.0003 13.574 23.69 15.1349 23.087 16.5912C22.4839 18.0475 21.5998 19.3707 20.4853 20.4853C19.3707 21.5998 18.0475 22.4839 16.5912 23.087C15.1349 23.69 13.574 24.0003 11.9978 24ZM11.9978 0.935731C9.81134 0.937469 7.6745 1.58735 5.85732 2.80325C4.04015 4.01914 2.62423 5.74646 1.78852 7.76688C0.952809 9.7873 0.734827 12.0101 1.16213 14.1544C1.58942 16.2987 2.64282 18.2681 4.18917 19.8139C5.73552 21.3596 7.70541 22.4122 9.84986 22.8387C11.9943 23.2651 14.217 23.0463 16.2371 22.2098C18.2572 21.3732 19.984 19.9566 21.1991 18.139C22.4143 16.3213 23.0634 14.1842 23.0642 11.9978C23.0648 10.5446 22.7789 9.10548 22.2229 7.76282C21.6669 6.42016 20.8517 5.20027 19.824 4.17289C18.7962 3.14551 17.576 2.3308 16.2331 1.77534C14.8902 1.21988 13.451 0.934576 11.9978 0.935731Z" fill="#282138"/>
</svg>
