<svg width="25" height="24" viewBox="0 0 25 24" fill="none" xmlns="http://www.w3.org/2000/svg">
<circle cx="12.1992" cy="12" r="12" fill="#5A5A5A"/>
<g clip-path="url(#clip0)">
<path d="M7.68193 11.9349C7.63927 12.657 8.20993 13.2752 8.95127 13.3168C8.97794 13.3168 9.0046 13.3168 9.03127 13.3168C9.77794 13.3168 10.3806 12.7298 10.3753 12.0025C10.3753 11.2752 9.7726 10.6882 9.02594 10.6934C8.31127 10.6934 7.71927 11.2388 7.68193 11.9349Z" fill="#ACACAC"/>
<path d="M2.65833 11.5986C2.41833 11.583 2.21033 11.7648 2.19967 11.9986C2.189 12.2323 2.37033 12.4349 2.61033 12.4453C2.85033 12.4609 3.053 12.2791 3.069 12.0453C3.085 11.8116 2.89833 11.6142 2.65833 11.5986Z" fill="#ACACAC"/>
<path d="M7.59743 4.32075C7.81077 4.21685 7.8961 3.95711 7.78943 3.74932C7.68277 3.54153 7.4161 3.45841 7.20277 3.56231C6.98943 3.6662 6.9041 3.92075 7.01077 4.12854C7.11743 4.34153 7.37877 4.42984 7.59743 4.32075C7.59743 4.32075 7.5921 4.32075 7.59743 4.32075Z" fill="#ACACAC"/>
<path d="M8.96253 6.64224C9.2932 6.4812 9.42653 6.0864 9.2612 5.76432C9.09586 5.44224 8.69053 5.31237 8.35986 5.47341C8.02919 5.63445 7.89586 6.02925 8.06119 6.35133C8.22653 6.67341 8.63186 6.80328 8.96253 6.64224Z" fill="#ACACAC"/>
<path d="M4.36522 8.23725C4.62122 8.39829 4.96255 8.33076 5.13322 8.08141C5.29855 7.83205 5.22922 7.49959 4.97322 7.33335C4.71722 7.17231 4.37589 7.23984 4.20522 7.4892C4.03455 7.73855 4.10922 8.07621 4.36522 8.23725Z" fill="#ACACAC"/>
<path d="M5.18117 11.3644C4.80784 11.3436 4.49317 11.6189 4.47184 11.9826C4.4505 12.3462 4.73317 12.6527 5.1065 12.6735C5.47984 12.6943 5.7945 12.4189 5.81584 12.0553C5.83717 11.6969 5.5545 11.3852 5.18117 11.3644Z" fill="#ACACAC"/>
<path d="M4.43971 15.7651C4.16771 15.9002 4.05571 16.2222 4.19438 16.4924C4.33304 16.7573 4.66371 16.8664 4.94104 16.7313C5.21304 16.5963 5.32504 16.2742 5.18638 16.0041C5.04771 15.7391 4.71171 15.63 4.43971 15.7651Z" fill="#ACACAC"/>
<path d="M7.0527 10.0087C7.4207 10.2425 7.91137 10.1438 8.14604 9.78532C8.38604 9.42688 8.2847 8.94895 7.9167 8.72038C7.5487 8.48662 7.05804 8.58532 6.82337 8.94376C6.58337 9.29701 6.6847 9.77493 7.0527 10.0087Z" fill="#ACACAC"/>
<path d="M15.3467 6.5899C15.656 6.7873 16.0773 6.70418 16.28 6.40288C16.4827 6.10158 16.3973 5.69119 16.088 5.49379C15.7787 5.29639 15.3573 5.37951 15.1547 5.6808C14.9467 5.9873 15.032 6.39249 15.3467 6.5899Z" fill="#ACACAC"/>
<path d="M16.7232 4.27777C16.9259 4.40764 17.1926 4.3505 17.3259 4.1531C17.4592 3.95569 17.4006 3.69595 17.1979 3.56608C16.9952 3.43621 16.7286 3.49336 16.5952 3.68556C16.4672 3.88297 16.5259 4.1479 16.7232 4.27777Z" fill="#ACACAC"/>
<path d="M15.4483 10.6838C14.7069 10.6423 14.0669 11.1981 14.0296 11.9202C13.9869 12.6423 14.5576 13.2656 15.2989 13.302C15.3256 13.302 15.3523 13.302 15.3736 13.302C16.1149 13.302 16.7176 12.715 16.7176 11.9877C16.7229 11.2968 16.1629 10.7202 15.4483 10.6838Z" fill="#ACACAC"/>
<path d="M9.40499 9.9155C9.63433 10.3571 10.0983 10.6376 10.6103 10.6376C11.3517 10.6376 11.9543 10.0506 11.9543 9.32329C11.9543 9.12069 11.9063 8.9181 11.8103 8.73108C11.4743 8.08173 10.6637 7.82199 10.0023 8.14927C9.33566 8.48173 9.06899 9.27134 9.40499 9.9155Z" fill="#ACACAC"/>
<path d="M19.9597 8.23699C20.2317 8.10192 20.3383 7.77465 20.1997 7.50971C20.061 7.24478 19.725 7.14088 19.453 7.27595C19.181 7.41101 19.0743 7.73309 19.2077 7.99803C19.3517 8.26296 19.6823 8.37205 19.9597 8.23699Z" fill="#ACACAC"/>
<path d="M16.546 8.65244C16.1567 8.84464 15.9967 9.30698 16.194 9.6862C16.3914 10.0654 16.866 10.2213 17.2554 10.0291C17.6447 9.83685 17.8047 9.37451 17.6073 8.99529C17.41 8.61607 16.9354 8.46542 16.546 8.65244Z" fill="#ACACAC"/>
<path d="M12.1465 4.08129C12.4505 4.09687 12.7118 3.8683 12.7332 3.5722C12.7545 3.27609 12.5145 3.02155 12.2105 3.00077C11.9065 2.98518 11.6452 3.20856 11.6238 3.50466C11.6078 3.80596 11.8425 4.06051 12.1465 4.08129Z" fill="#ACACAC"/>
<path d="M12.1402 7.4727C12.5775 7.49868 12.9509 7.1714 12.9722 6.74543C12.9989 6.31945 12.6629 5.95582 12.2256 5.93504C11.7882 5.90906 11.4149 6.23634 11.3936 6.66231C11.3722 7.08829 11.7029 7.45192 12.1402 7.4727Z" fill="#ACACAC"/>
<path d="M7.85301 15.3497C8.24234 15.1575 8.40234 14.6952 8.20501 14.3159C8.00768 13.9367 7.53301 13.7809 7.14368 13.9731C6.75435 14.1653 6.59435 14.6276 6.79168 15.0068C6.98901 15.3861 7.46368 15.5419 7.85301 15.3497Z" fill="#ACACAC"/>
<path d="M12.6532 8.60002C12.2479 9.20781 12.4185 10.0182 13.0425 10.413C13.6665 10.8078 14.4985 10.6416 14.9038 10.0338C15.3092 9.42599 15.1385 8.6156 14.5145 8.2208C14.2959 8.08054 14.0399 8.00781 13.7785 8.00781C13.3252 8.00781 12.9039 8.23119 12.6532 8.60002Z" fill="#ACACAC"/>
<path d="M14.9939 14.0866C14.6579 13.4372 13.8473 13.1775 13.1859 13.5047C12.5193 13.832 12.2526 14.6216 12.5886 15.2658C12.9246 15.9151 13.7353 16.1749 14.3966 15.8476C15.0579 15.5255 15.3299 14.7463 14.9993 14.0969C14.9993 14.0918 14.9993 14.0918 14.9939 14.0866Z" fill="#ACACAC"/>
<path d="M17.3464 13.9938C16.9784 13.7601 16.4877 13.8588 16.2531 14.2172C16.0131 14.5756 16.1144 15.0536 16.4824 15.2821C16.8504 15.5159 17.341 15.4172 17.5757 15.0588C17.8157 14.7055 17.7144 14.2276 17.3464 13.9938Z" fill="#ACACAC"/>
<path d="M19.9272 12.024C19.9485 11.6604 19.6658 11.3539 19.2925 11.3331C18.9192 11.3124 18.6045 11.5877 18.5832 11.9513C18.5618 12.315 18.8445 12.6214 19.2178 12.6422C19.5858 12.663 19.9058 12.3825 19.9272 12.024Z" fill="#ACACAC"/>
<path d="M21.7892 11.5576C21.5492 11.542 21.3412 11.7238 21.3305 11.9576C21.3199 12.1913 21.5012 12.3939 21.7412 12.4043C21.9812 12.4199 22.1839 12.2381 22.1999 12.0043C22.2105 11.7706 22.0292 11.5732 21.7892 11.5576Z" fill="#ACACAC"/>
<path d="M20.0334 15.765C19.7774 15.604 19.436 15.6715 19.2654 15.9208C19.1 16.1702 19.1694 16.5027 19.4254 16.6689C19.6814 16.8299 20.0227 16.7624 20.1934 16.513C20.364 16.2637 20.2894 15.926 20.0334 15.765Z" fill="#ACACAC"/>
<path d="M7.67257 19.7223C7.4699 19.5925 7.20324 19.6496 7.0699 19.8418C6.93657 20.0392 6.99524 20.299 7.19257 20.4288C7.39524 20.5587 7.6619 20.5016 7.79524 20.3093C7.9339 20.1171 7.87524 19.8522 7.67257 19.7223Z" fill="#ACACAC"/>
<path d="M16.8024 19.6816C16.589 19.7855 16.5037 20.0453 16.6104 20.2531C16.717 20.4609 16.9837 20.544 17.197 20.4401C17.4104 20.3362 17.4957 20.0817 17.389 19.8739C17.2824 19.6609 17.021 19.5726 16.8024 19.6816C16.8024 19.6816 16.8077 19.6816 16.8024 19.6816Z" fill="#ACACAC"/>
<path d="M11.7455 15.4012C12.1509 14.7934 11.9802 13.983 11.3562 13.583C10.7322 13.1882 9.90019 13.3545 9.48953 13.9623C9.07886 14.57 9.25486 15.3804 9.87886 15.7804C10.0975 15.9207 10.3535 15.9934 10.6149 15.9934C11.0735 15.9986 11.4949 15.7752 11.7455 15.4012Z" fill="#ACACAC"/>
<path d="M9.05303 17.4118C8.7437 17.2144 8.32236 17.2975 8.11969 17.5988C7.91703 17.9001 8.00236 18.3105 8.31169 18.5079C8.62103 18.7053 9.04236 18.6221 9.24503 18.3208C9.45303 18.0196 9.3677 17.6092 9.05303 17.4118Z" fill="#ACACAC"/>
<path d="M12.1935 19.9207C11.8895 19.9051 11.6281 20.1337 11.6068 20.4298C11.5855 20.7259 11.8255 20.9804 12.1295 21.0012C12.4335 21.0168 12.6948 20.7934 12.7161 20.4973C12.7321 20.196 12.4975 19.9415 12.1935 19.9207Z" fill="#ACACAC"/>
<path d="M12.1987 16.5288C11.7614 16.5028 11.3881 16.8301 11.3667 17.2561C11.3401 17.682 11.6761 18.0457 12.1134 18.0665C12.5507 18.0872 12.9241 17.7652 12.9454 17.3392C12.9721 16.9184 12.6361 16.5496 12.1987 16.5288Z" fill="#ACACAC"/>
<path d="M15.4361 17.3585C15.1054 17.5247 14.9721 17.9196 15.1428 18.2416C15.3134 18.5637 15.7188 18.6936 16.0494 18.5274C16.3801 18.3663 16.5134 17.9715 16.3481 17.6494C16.1774 17.3273 15.7721 17.1923 15.4361 17.3585Z" fill="#ACACAC"/>
</g>
<defs>
<clipPath id="clip0">
<rect width="20" height="18" fill="white" transform="translate(2.19922 3)"/>
</clipPath>
</defs>
</svg>
