<svg width="133" height="32" viewBox="0 0 133 32" fill="none" xmlns="http://www.w3.org/2000/svg">
<path d="M11.4018 24.7965C10.3527 24.6738 9.36189 24.3479 8.46549 23.8571C9.04197 24.7182 9.80082 25.4645 10.7246 26.0257L10.7239 26.0268C11.6482 26.5879 12.6428 26.9058 13.6409 27C12.7901 26.4291 12.0273 25.6901 11.4018 24.7965ZM20.1071 8.51033C19.1935 8.51033 18.3202 8.69152 17.5178 9.0214C17.7892 9.24452 18.0472 9.48474 18.2904 9.74067C18.5867 10.0524 18.861 10.3875 19.1106 10.7427C19.5269 10.7925 19.9388 10.8747 20.3426 10.9886C20.6757 11.0825 21.0032 11.1979 21.3234 11.3341C21.1942 10.4368 20.907 9.54963 20.4503 8.71664L20.4492 8.71734C20.4115 8.64872 20.3729 8.58107 20.3335 8.51414C20.2583 8.51176 20.1828 8.51033 20.1071 8.51033ZM16.2246 9.72166C15.809 10.0067 15.4235 10.3362 15.0741 10.7039L15.056 10.7232C15.4466 10.761 15.8367 10.8278 16.2235 10.9247C16.6109 10.8277 17.0017 10.7607 17.3929 10.7229L17.375 10.7039C17.0257 10.3362 16.6401 10.0068 16.2246 9.72166ZM14.1587 9.74067C14.4019 9.48474 14.6601 9.2446 14.9314 9.0214C14.129 8.69144 13.2556 8.51033 12.3422 8.51033C12.2658 8.51033 12.1898 8.51176 12.1141 8.51429C12.0753 8.58023 12.0372 8.64696 12.0001 8.7146C11.5428 9.54808 11.2552 10.4361 11.1259 11.3341C11.4461 11.1978 11.7737 11.0823 12.1068 10.9884C12.5106 10.8746 12.9225 10.7924 13.3387 10.7427C13.5882 10.3874 13.8625 10.0524 14.1587 9.74067ZM16.2246 8.14533C17.171 7.62625 18.223 7.29094 19.3377 7.18459C18.4628 6.25594 17.3847 5.60157 16.2244 5.25585C15.0631 5.602 13.9846 6.25629 13.1099 7.18444C14.2252 7.29073 15.2777 7.62604 16.2246 8.14533ZM12.045 13.4645C12.159 13.0624 12.2996 12.6723 12.4644 12.2964L12.4405 12.303C11.9631 12.4376 11.4991 12.6241 11.0566 12.86C11.0836 13.3818 11.1622 13.8983 11.2901 14.401L11.2969 14.4268C11.5228 14.0901 11.7724 13.7683 12.045 13.4645ZM15.0565 21.2766L15.0742 21.2955C15.4235 21.6631 15.8091 21.9926 16.2247 22.2777C16.6402 21.9926 17.0258 21.6631 17.3751 21.2955L17.3929 21.2766C17.0021 21.2387 16.6119 21.1719 16.2249 21.075C15.8377 21.1719 15.4472 21.2388 15.0565 21.2766ZM14.1587 22.2587C13.8626 21.947 13.5885 21.6122 13.339 21.2571C12.9227 21.2074 12.5108 21.1252 12.1069 21.0114C11.7739 20.9175 11.4465 20.802 11.1266 20.666C11.256 21.5629 11.5433 22.4499 12.0002 23.2826L12.0016 23.2876C12.0382 23.3543 12.0756 23.42 12.1139 23.4851C12.1897 23.4875 12.2658 23.489 12.3422 23.489C13.2557 23.489 14.129 23.3079 14.9314 22.978C14.6601 22.7547 14.4019 22.5145 14.1587 22.2587ZM12.4646 19.7034C12.2998 19.3277 12.1594 18.9377 12.0453 18.5359C11.7726 18.2319 11.523 17.9101 11.2969 17.5734L11.2902 17.5988C11.1622 18.1015 11.0838 18.6179 11.0569 19.1396C11.4994 19.3757 11.9634 19.5623 12.4406 19.6968L12.4646 19.7034ZM17.5178 22.978C18.3202 23.3079 19.1935 23.489 20.1071 23.489C20.1834 23.489 20.2594 23.4876 20.3353 23.4851C20.3741 23.4193 20.412 23.3527 20.449 23.2852L20.4491 23.285C20.9063 22.4516 21.1939 21.5637 21.3231 20.6657C21.003 20.8019 20.6754 20.9174 20.3423 21.0113C19.9385 21.1251 19.5266 21.2073 19.1101 21.2569C18.8607 21.6122 18.5865 21.947 18.2904 22.2586C18.0472 22.5145 17.7892 22.7547 17.5178 22.978ZM19.3395 24.8148C18.4646 25.7435 17.386 26.3979 16.2244 26.7441C15.0629 26.3979 13.9843 25.7433 13.1095 24.8148C14.225 24.7089 15.2777 24.3733 16.2246 23.854C17.1715 24.3733 18.2242 24.7087 19.3395 24.8148ZM21.9204 23.2437C23.1237 22.911 24.2025 22.2554 25.068 21.3699C25.3633 20.1388 25.3634 18.8288 25.0366 17.5675C24.3912 18.5312 23.5887 19.3232 22.6877 19.9267C22.6413 21.0482 22.3908 22.1744 21.9204 23.2437ZM23.984 23.8571C23.0875 24.3479 22.0966 24.6738 21.0474 24.7965C20.4217 25.6901 19.6588 26.4293 18.808 27C19.8062 26.9062 20.801 26.5881 21.7254 26.027L21.7247 26.0258C22.6485 25.4647 23.4075 24.7182 23.984 23.8571ZM26.57 19.1412C26.9901 18.1858 27.2246 17.1215 27.2246 15.9996C27.2246 14.8776 26.9899 13.8134 26.5698 12.8579C26.5251 13.9186 26.2978 14.9831 25.8747 15.9997C26.2978 17.0162 26.5251 18.0805 26.57 19.1412ZM25.0676 10.6289C24.2021 9.74376 23.1235 9.08826 21.9204 8.75578C22.3909 9.82518 22.6415 10.9514 22.6878 12.0733C23.5889 12.6767 24.3914 13.4684 25.0364 14.4322C25.3634 13.1705 25.3631 11.8603 25.0676 10.6289ZM21.0491 7.20296C20.4236 6.30964 19.6606 5.57075 18.8095 5C19.8079 5.09417 20.8027 5.41245 21.7271 5.97405C22.65 6.53473 23.4084 7.28101 23.9845 8.14252C23.0883 7.65194 22.0978 7.32599 21.0491 7.20296ZM10.0409 14.7522C9.95167 14.4019 9.88297 14.0458 9.83507 13.6861C9.16102 14.2524 8.57454 14.9578 8.11761 15.7905C8.07955 15.8599 8.04276 15.9297 8.00704 15.9998C8.04242 16.0693 8.07894 16.1386 8.11667 16.2074L8.11773 16.2067C8.575 17.0401 9.16149 17.7459 9.83527 18.3126C9.88317 17.9533 9.95187 17.5975 10.041 17.2476C10.1494 16.822 10.2879 16.4048 10.4555 16C10.2879 15.5952 10.1493 15.1779 10.0409 14.7522ZM9.76143 12.0738C8.86082 12.6774 8.05855 13.4695 7.41318 14.4339C7.08582 13.1717 7.08603 11.8608 7.38175 10.6288C8.2471 9.74368 9.3257 9.08826 10.5288 8.75578C10.0582 9.82526 9.80771 10.9518 9.76143 12.0738ZM19.9846 19.7033L20.0086 19.6966C20.4859 19.5622 20.9499 19.3753 21.3924 19.1393C21.3655 18.6178 21.2869 18.1013 21.159 17.5987L21.1521 17.5725C20.9263 17.9085 20.677 18.23 20.4046 18.5335C20.2904 18.9362 20.1497 19.3269 19.9846 19.7033ZM22.6139 18.3125C22.5661 17.9532 22.4974 17.5974 22.4083 17.2476C22.2999 16.8218 22.1614 16.4047 21.994 15.9999C22.1615 15.595 22.3001 15.178 22.4085 14.7524C22.4976 14.4024 22.5662 14.0467 22.6141 13.6874C23.2879 14.2541 23.8744 14.9599 24.3317 15.7932L24.3329 15.7926C24.3704 15.8612 24.4068 15.9304 24.4422 15.9998C24.4068 16.0693 24.3704 16.1384 24.3327 16.2073L24.3315 16.2066C23.8742 17.0399 23.2877 17.7459 22.6139 18.3125ZM11.402 7.20275C10.3527 7.32556 9.36156 7.65151 8.46496 8.14245C9.04102 7.28109 9.79935 6.53494 10.7222 5.97433C11.6469 5.41266 12.642 5.09424 13.6406 5.00021C12.7901 5.57075 12.0275 6.30957 11.402 7.20275ZM9.7613 19.9265C9.80739 21.0482 10.0576 22.1742 10.5275 23.2432C9.32477 22.9105 8.24644 22.2551 7.38141 21.3702C7.08609 20.1389 7.08583 18.829 7.41271 17.5676C8.05781 18.5314 8.86023 19.3232 9.7613 19.9265ZM21.1525 14.4267L21.1592 14.4011C21.2872 13.8985 21.3657 13.3821 21.3927 12.8605C20.9501 12.6244 20.4861 12.4376 20.0087 12.3031L19.9848 12.2964C20.1495 12.6722 20.2901 13.0622 20.4041 13.4641C20.6768 13.768 20.9265 14.0899 21.1525 14.4267ZM6.57438 15.9998C6.1513 14.9831 5.92401 13.9185 5.8794 12.8578C5.45913 13.8132 5.22461 14.8776 5.22461 15.9996C5.22461 17.1216 5.45913 18.1859 5.87933 19.1413C5.92408 18.0807 6.1513 17.0163 6.57438 15.9998Z" fill="currentColor"/>
<path d="M36.2246 23.4929V8.55005H46.1461V11.3747H39.5319V14.3073H45.4038V17.0673H39.5319V20.6682H46.6335V23.4929H36.2246Z" fill="currentColor"/>
<path d="M53.3835 8.3775C55.5882 8.3775 57.2769 8.78001 58.4503 9.58501C59.6233 10.3756 60.2098 11.6119 60.2098 13.2938C60.2098 14.3431 59.9694 15.1985 59.4889 15.8597C59.0226 16.5066 58.3443 17.0169 57.4538 17.3906C57.7505 17.7644 58.0613 18.1956 58.3864 18.6844C58.7118 19.1588 59.0295 19.6619 59.3404 20.1938C59.6654 20.7113 59.9767 21.2575 60.2734 21.8326C60.5701 22.3932 60.8457 22.9466 61.0999 23.4929H57.3902C57.1215 23.0041 56.8458 22.5082 56.5633 22.005C56.295 21.5019 56.012 21.0132 55.7153 20.5388C55.4328 20.0644 55.1499 19.6188 54.8674 19.2019C54.5848 18.7706 54.3019 18.3825 54.0194 18.0375H52.387V23.4929H49.0801V8.76561C49.8006 8.62185 50.5429 8.52126 51.3059 8.46374C52.0834 8.40622 52.7756 8.3775 53.3835 8.3775ZM53.5741 11.2453C53.3341 11.2453 53.1147 11.2525 52.9172 11.2669C52.7335 11.2813 52.5566 11.2956 52.387 11.31V15.3638H53.32C54.5634 15.3638 55.4539 15.2056 55.991 14.8894C56.5281 14.5732 56.7965 14.0341 56.7965 13.2722C56.7965 12.5391 56.5208 12.0216 55.9699 11.7197C55.4328 11.4034 54.6342 11.2453 53.5741 11.2453Z" fill="currentColor"/>
<path d="M70.0143 11.1377C68.4738 11.1377 67.357 11.5761 66.6645 12.453C65.9861 13.3155 65.6469 14.5014 65.6469 16.0108C65.6469 16.7439 65.7319 17.4124 65.9015 18.0161C66.0711 18.6055 66.3253 19.1158 66.6645 19.547C67.0037 19.9783 67.4278 20.3161 67.9366 20.5605C68.4454 20.7905 69.0388 20.9055 69.7172 20.9055C70.0847 20.9055 70.3956 20.8983 70.6502 20.884C70.9185 20.8695 71.1521 20.8408 71.3496 20.7977V15.6011H74.6569V22.9971C74.261 23.1552 73.6252 23.3205 72.7488 23.493C71.8725 23.6799 70.7914 23.7733 69.5055 23.7733C68.4029 23.7733 67.3995 23.6008 66.4949 23.2558C65.6048 22.9108 64.8414 22.4077 64.2055 21.7464C63.5697 21.0852 63.075 20.273 62.7217 19.3099C62.3825 18.3468 62.2129 17.2471 62.2129 16.0108C62.2129 14.7602 62.4035 13.6533 62.7852 12.6901C63.1669 11.727 63.6895 10.9148 64.3541 10.2536C65.0183 9.57794 65.7954 9.06766 66.6859 8.72264C67.5906 8.37765 68.5515 8.20514 69.569 8.20514C70.2616 8.20514 70.8833 8.25544 71.4346 8.35607C72 8.44231 72.4805 8.55012 72.8759 8.67952C73.286 8.79451 73.6183 8.91669 73.8725 9.04608C74.1408 9.17544 74.3319 9.27607 74.4448 9.34795L73.4908 12.0433C73.0387 11.7989 72.5157 11.5905 71.9219 11.418C71.3427 11.2311 70.7068 11.1377 70.0143 11.1377Z" fill="currentColor"/>
<path d="M80.5106 16.0108C80.5106 16.7439 80.5956 17.4052 80.7652 17.9946C80.949 18.5839 81.2032 19.0942 81.5282 19.5255C81.8674 19.9424 82.2774 20.2658 82.7578 20.4958C83.2383 20.7258 83.7896 20.8408 84.4113 20.8408C85.0192 20.8408 85.5632 20.7258 86.0437 20.4958C86.5383 20.2658 86.9483 19.9424 87.2734 19.5255C87.6125 19.0942 87.8667 18.5839 88.0363 17.9946C88.2201 17.4052 88.312 16.7439 88.312 16.0108C88.312 15.2777 88.2201 14.6164 88.0363 14.027C87.8667 13.4233 87.6125 12.913 87.2734 12.4961C86.9483 12.0648 86.5383 11.7342 86.0437 11.5042C85.5632 11.2742 85.0192 11.1592 84.4113 11.1592C83.7896 11.1592 83.2383 11.2814 82.7578 11.5258C82.2774 11.7558 81.8674 12.0864 81.5282 12.5177C81.2032 12.9345 80.949 13.4449 80.7652 14.0486C80.5956 14.638 80.5106 15.292 80.5106 16.0108ZM91.7253 16.0108C91.7253 17.2902 91.5343 18.4186 91.153 19.3961C90.7855 20.3592 90.2767 21.1715 89.6266 21.8327C88.9762 22.4796 88.199 22.9683 87.2944 23.2989C86.4043 23.6296 85.443 23.7949 84.4113 23.7949C83.4079 23.7949 82.4612 23.6296 81.5707 23.2989C80.6802 22.9683 79.9031 22.4796 79.2388 21.8327C78.5746 21.1715 78.0517 20.3592 77.67 19.3961C77.2883 18.4186 77.0977 17.2902 77.0977 16.0108C77.0977 14.7314 77.2956 13.6101 77.691 12.647C78.0869 11.6695 78.6167 10.8501 79.2809 10.1889C79.9593 9.52764 80.7369 9.03172 81.6132 8.7011C82.5037 8.37043 83.4362 8.20514 84.4113 8.20514C85.4147 8.20514 86.3618 8.37043 87.2523 8.7011C88.1424 9.03172 88.9199 9.52764 89.5841 10.1889C90.2484 10.8501 90.7713 11.6695 91.153 12.647C91.5343 13.6101 91.7253 14.7314 91.7253 16.0108Z" fill="currentColor"/>
<path d="M106.672 16.0108C106.672 17.3046 106.474 18.433 106.078 19.3962C105.682 20.3449 105.124 21.1356 104.403 21.7681C103.683 22.3862 102.82 22.8533 101.817 23.1696C100.814 23.4715 99.7114 23.6224 98.5101 23.6224C97.9163 23.6224 97.2593 23.5937 96.5385 23.5362C95.8318 23.4931 95.1886 23.3996 94.6094 23.2558V8.7658C95.1886 8.62204 95.8318 8.52863 96.5385 8.48551C97.2593 8.42799 97.9163 8.39923 98.5101 8.39923C99.7114 8.39923 100.814 8.55738 101.817 8.87361C102.82 9.17548 103.683 9.64268 104.403 10.2752C105.124 10.8933 105.682 11.684 106.078 12.6471C106.474 13.5958 106.672 14.7171 106.672 16.0108ZM98.6797 21.7896C100.63 21.7896 102.086 21.2865 103.047 20.2802C104.008 19.2596 104.488 17.8365 104.488 16.0108C104.488 14.1852 104.008 12.7692 103.047 11.763C102.086 10.7424 100.63 10.2321 98.6797 10.2321C98.1 10.2321 97.6479 10.2392 97.3229 10.2536C97.012 10.268 96.7927 10.2824 96.6656 10.2967V21.7249C96.7927 21.7393 97.012 21.7537 97.3229 21.7681C97.6479 21.7824 98.1 21.7896 98.6797 21.7896Z" fill="currentColor"/>
<path d="M109.723 23.4929V8.55005H118.69V10.3398H111.779V14.7816H117.927V16.5282H111.779V21.7032H119.22V23.4929H109.723Z" fill="currentColor"/>
<path d="M130.653 23.4929C130.441 23.0617 130.186 22.5873 129.89 22.0698C129.593 21.5379 129.268 20.9917 128.914 20.431C128.561 19.8561 128.194 19.2882 127.812 18.7276C127.43 18.1526 127.063 17.6136 126.71 17.1104C126.356 17.6136 125.989 18.1526 125.607 18.7276C125.226 19.2882 124.858 19.8561 124.505 20.431C124.166 20.9917 123.841 21.5379 123.53 22.0698C123.233 22.5873 122.978 23.0617 122.766 23.4929H120.498C121.134 22.2279 121.869 20.9414 122.703 19.6333C123.551 18.3251 124.449 16.981 125.395 15.601L120.689 8.55005H123.063L126.688 14.1132L130.271 8.55005H132.624L128.003 15.5148C128.964 16.9091 129.868 18.2676 130.716 19.5901C131.564 20.9126 132.313 22.2136 132.963 23.4929H130.653Z" fill="currentColor"/>
</svg>
