<svg width="146" height="32" viewBox="0 0 146 32" fill="none" xmlns="http://www.w3.org/2000/svg">
<path d="M7.95536 26.963L5.96289 25.4001L5.96289 6.60185L7.95536 5.03902L7.95536 26.963Z" fill="currentColor"/>
<path d="M17.2443 27L12.5991 25.4301L12.5991 6.56986L17.2443 5L17.2443 27Z" fill="currentColor"/>
<path d="M27.9629 27L19.2383 25.4987L19.2383 6.56986L27.9629 5L27.9629 27Z" fill="currentColor"/>
<path d="M43.3355 22.027C42.0925 22.027 40.991 21.8068 40.0312 21.3662C39.0714 20.9256 38.3161 20.2805 37.7654 19.4308C37.2304 18.5654 36.9629 17.519 36.9629 16.2917V15.7016H39.4883V16.2917C39.4883 17.456 39.8345 18.3293 40.5269 18.9115C41.2349 19.4937 42.1712 19.7848 43.3355 19.7848C44.5157 19.7848 45.4047 19.5409 46.0026 19.0531C46.6005 18.5496 46.8995 17.9045 46.8995 17.1177C46.8995 16.5985 46.7579 16.1736 46.4747 15.8432C46.1914 15.5128 45.7902 15.2531 45.2709 15.0643C44.7517 14.8598 44.1302 14.671 43.4063 14.4979L42.5331 14.2854C41.4788 14.0337 40.5583 13.7269 39.7716 13.365C39.0006 12.9873 38.4026 12.4917 37.9778 11.878C37.553 11.2643 37.3405 10.4776 37.3405 9.51777C37.3405 8.5422 37.5766 7.70825 38.0486 7.01591C38.5364 6.32357 39.2051 5.78858 40.0548 5.41094C40.9045 5.0333 41.9037 4.84448 43.0523 4.84448C44.201 4.84448 45.2237 5.04117 46.1206 5.43454C47.0333 5.82792 47.7492 6.41011 48.2684 7.18113C48.7877 7.95214 49.0473 8.91983 49.0473 10.0842V10.9339H46.5219V10.0842C46.5219 9.37615 46.3724 8.80182 46.0734 8.36124C45.7902 7.92066 45.389 7.5981 44.8697 7.39355C44.3504 7.18899 43.7447 7.08672 43.0523 7.08672C42.0453 7.08672 41.2585 7.29914 40.6921 7.72398C40.1413 8.13309 39.866 8.70741 39.866 9.44696C39.866 9.95048 39.984 10.3674 40.22 10.6979C40.4718 11.0126 40.8337 11.2722 41.3057 11.4768C41.7778 11.6813 42.3678 11.8623 43.0759 12.0196L43.9492 12.232C45.0192 12.4681 45.9633 12.7749 46.7815 13.1525C47.5997 13.5144 48.2448 14.0101 48.7169 14.6395C49.1889 15.2689 49.425 16.0792 49.425 17.0705C49.425 18.0618 49.1732 18.9273 48.6697 19.6668C48.1819 20.4063 47.4817 20.9885 46.5691 21.4134C45.6564 21.8225 44.5786 22.027 43.3355 22.027Z" fill="currentColor"/>
<path d="M52.1717 27.1555V10.0606H54.5555V11.7364H54.9332C55.2321 11.2171 55.6806 10.753 56.2785 10.3438C56.8922 9.93474 57.7655 9.73018 58.8984 9.73018C59.8739 9.73018 60.763 9.96621 61.5655 10.4383C62.3837 10.9103 63.0367 11.5948 63.5245 12.4917C64.028 13.3728 64.2797 14.4428 64.2797 15.7016V16.0556C64.2797 17.3144 64.0358 18.3923 63.5481 19.2892C63.0603 20.1703 62.4073 20.8469 61.5891 21.319C60.7708 21.791 59.8739 22.027 58.8984 22.027C58.1431 22.027 57.5058 21.9326 56.9866 21.7438C56.4673 21.555 56.0504 21.319 55.7357 21.0357C55.421 20.7368 55.1692 20.4299 54.9804 20.1152H54.6027V25.7279L52.1717 27.1555ZM58.1903 19.9028C59.2603 19.9028 60.1336 19.5645 60.8102 18.8879C61.4868 18.2113 61.8251 17.2436 61.8251 15.9848V15.7724C61.8251 14.5293 61.4789 13.5695 60.7866 12.8929C60.11 12.2163 59.2446 11.878 58.1903 11.878C57.1518 11.878 56.2864 12.2163 55.594 12.8929C54.9174 13.5695 54.5791 14.5293 54.5791 15.7724V15.9848C54.5791 17.2436 54.9174 18.2113 55.594 18.8879C56.2864 19.5645 57.1518 19.9028 58.1903 19.9028Z" fill="currentColor"/>
<path d="M72.6261 22.027C71.446 22.027 70.4154 21.7832 69.5342 21.2954C68.6531 20.7919 67.9607 20.0916 67.4572 19.1948C66.9694 18.2821 66.7255 17.2279 66.7255 16.032V15.7488C66.7255 14.5372 66.9694 13.483 67.4572 12.5861C67.945 11.6735 68.6216 10.9732 69.487 10.4855C70.3682 9.98194 71.3831 9.73018 72.5317 9.73018C73.6489 9.73018 74.6245 9.98194 75.4584 10.4855C76.3081 10.9732 76.969 11.6577 77.441 12.5389C77.9131 13.42 78.1491 14.4507 78.1491 15.6308V16.5513H69.2038C69.2353 17.5741 69.5736 18.3923 70.2187 19.0059C70.8796 19.6039 71.6978 19.9028 72.6733 19.9028C73.586 19.9028 74.2704 19.6983 74.7268 19.2892C75.1988 18.8801 75.5607 18.408 75.8125 17.873L77.8187 18.9115C77.5984 19.3521 77.2758 19.8163 76.851 20.3041C76.4419 20.7918 75.899 21.201 75.2224 21.5314C74.5458 21.8618 73.6804 22.027 72.6261 22.027ZM69.2274 14.6867H75.6708C75.6079 13.8055 75.2932 13.1211 74.7268 12.6333C74.1603 12.1298 73.4207 11.878 72.5081 11.878C71.5955 11.878 70.8481 12.1298 70.2659 12.6333C69.6994 13.1211 69.3533 13.8055 69.2274 14.6867Z" fill="currentColor"/>
<path d="M86.4804 22.027C85.3632 22.027 84.3483 21.791 83.4357 21.319C82.5388 20.8469 81.8228 20.1625 81.2878 19.2656C80.7686 18.3687 80.509 17.2908 80.509 16.032V15.7252C80.509 14.4664 80.7686 13.3964 81.2878 12.5153C81.8228 11.6184 82.5388 10.9339 83.4357 10.4619C84.3483 9.97408 85.3632 9.73018 86.4804 9.73018C87.5976 9.73018 88.5495 9.93474 89.3363 10.3438C90.123 10.753 90.7524 11.2958 91.2245 11.9724C91.7123 12.649 92.027 13.3964 92.1686 14.2146L89.8083 14.7103C89.7297 14.191 89.5644 13.719 89.3127 13.2942C89.0609 12.8693 88.7069 12.531 88.2506 12.2792C87.7943 12.0275 87.2199 11.9016 86.5276 11.9016C85.851 11.9016 85.2373 12.059 84.6866 12.3737C84.1516 12.6726 83.7268 13.1132 83.4121 13.6954C83.0974 14.2619 82.94 14.9542 82.94 15.7724V15.9848C82.94 16.803 83.0974 17.5032 83.4121 18.0854C83.7268 18.6676 84.1516 19.1082 84.6866 19.4072C85.2373 19.7061 85.851 19.8556 86.5276 19.8556C87.5504 19.8556 88.3292 19.596 88.8642 19.0767C89.3992 18.5418 89.7375 17.8651 89.8791 17.0469L92.2394 17.5898C92.0506 18.3923 91.7123 19.1318 91.2245 19.8084C90.7524 20.485 90.123 21.0279 89.3363 21.437C88.5495 21.8304 87.5976 22.027 86.4804 22.027Z" fill="currentColor"/>
<path d="M98.9718 21.6966C98.2637 21.6966 97.6972 21.4842 97.2724 21.0593C96.8633 20.6345 96.6587 20.068 96.6587 19.36V12.114H93.4488V10.0606H96.6587V6.87685L99.0898 5.47502V10.0606H102.559V12.114H99.0898V18.9351C99.0898 19.4072 99.3101 19.6432 99.7507 19.6432H102.182V21.6966H98.9718Z" fill="currentColor"/>
<path d="M105.415 21.6966V10.0606H107.799V11.4296H108.177C108.366 10.9418 108.665 10.5877 109.074 10.3675C109.499 10.1314 110.018 10.0134 110.632 10.0134H112.024V12.2084H110.537C109.75 12.2084 109.105 12.4287 108.602 12.8693C108.098 13.2941 107.846 13.955 107.846 14.8519V21.6966H105.415Z" fill="currentColor"/>
<path d="M119.004 21.909C118.123 21.909 117.336 21.7123 116.644 21.319C115.951 20.9256 115.408 20.367 115.015 19.6432C114.622 18.9194 114.425 18.054 114.425 17.0469V10.0606H116.856V16.8817C116.856 17.8888 117.108 18.6362 117.611 19.1239C118.115 19.596 118.815 19.832 119.712 19.832C120.703 19.832 121.498 19.5016 122.096 18.8407C122.709 18.1641 123.016 17.1964 123.016 15.9376V10.0606H125.447V21.6966H123.063V19.95H122.686C122.465 20.4221 122.072 20.8705 121.506 21.2954C120.939 21.7045 120.105 21.909 119.004 21.909Z" fill="currentColor"/>
<path d="M129.041 21.6966V10.0606H131.425V11.4296H131.802C132.023 11.0204 132.377 10.6585 132.864 10.3438C133.352 10.0292 134.013 9.8718 134.847 9.8718C135.713 9.8718 136.405 10.0527 136.924 10.4147C137.459 10.7608 137.86 11.2093 138.128 11.76H138.505C138.773 11.225 139.158 10.7766 139.662 10.4147C140.181 10.0527 140.913 9.8718 141.857 9.8718C142.612 9.8718 143.281 10.0292 143.863 10.3438C144.445 10.6428 144.91 11.0991 145.256 11.7128C145.602 12.3107 145.775 13.0581 145.775 13.955V21.6966H143.344V14.1438C143.344 13.4358 143.147 12.8929 142.754 12.5153C142.376 12.1219 141.833 11.9252 141.125 11.9252C140.37 11.9252 139.764 12.1691 139.308 12.6569C138.852 13.1447 138.623 13.8449 138.623 14.7575V21.6966H136.192V14.1438C136.192 13.4358 135.996 12.8929 135.602 12.5153C135.225 12.1219 134.682 11.9252 133.974 11.9252C133.219 11.9252 132.613 12.1691 132.156 12.6569C131.7 13.1447 131.472 13.8449 131.472 14.7575V21.6966H129.041Z" fill="currentColor"/>
</svg>
