<svg width="32" height="32" viewBox="0 0 32 32" fill="none" xmlns="http://www.w3.org/2000/svg">
<g clip-path="url(#clip0_505_42091)">
<path d="M5.13552 14.2004C4.97306 14.617 4.83398 15.0399 4.71706 15.4729C4.0756 17.8357 4.09885 20.3348 4.78414 22.6847C4.90106 23.0838 5.04014 23.4866 5.19952 23.8781C6.27278 26.5332 8.17263 28.7547 10.6063 30.2003C11.1773 30.5416 11.7738 30.8366 12.3903 31.0824C17.1374 32.9792 22.5441 31.8824 26.1983 28.2809C27.3219 27.1743 28.2355 25.8657 28.8931 24.4209C26.946 26.4893 24.4314 27.9095 21.6789 28.4955C21.562 28.5538 21.4414 28.6078 21.3214 28.6611C17.5737 30.3038 13.2229 29.591 10.1811 26.8353C10.0112 26.6822 9.84568 26.5216 9.68445 26.3559L9.61245 26.2781C8.14968 24.7459 7.18256 22.7935 6.84137 20.6838C6.8106 20.4943 6.78537 20.3048 6.76321 20.1141C6.72298 19.7346 6.70223 19.3532 6.70106 18.9715C6.69306 16.8947 7.29306 14.8617 8.42722 13.1294C8.71152 12.692 9.03029 12.2754 9.37675 11.887C10.3454 10.7985 11.5242 9.92581 12.8392 9.32375C14.1543 8.72169 15.5771 8.40325 17.0186 8.3884H17.2672C19.5495 8.40588 21.7637 9.18344 23.5724 10.6027C23.51 10.3685 23.4389 10.1368 23.3595 9.90807C23.2955 9.72611 23.2284 9.55168 23.1552 9.376C22.7405 8.37336 22.1578 7.45193 21.4334 6.65289L21.3915 6.62089C20.7835 6.40755 20.1608 6.24191 19.5263 6.1252C17.8866 5.8208 16.2052 5.83634 14.5712 6.17101C13.444 6.40024 12.3521 6.78307 11.3251 7.30919C10.6192 7.67087 9.94727 8.09764 9.31768 8.58416L9.26106 8.62683C8.86291 8.94055 8.48322 9.27686 8.1226 9.63325C7.31778 10.4276 6.61905 11.3265 6.04445 12.3068C5.71681 12.867 5.43226 13.4523 5.19337 14.0574L5.18722 14.2004H5.13368H5.13552ZM12.9355 4.29307C12.1577 4.29307 11.3792 4.36397 10.6137 4.5064C10.5145 4.52174 10.4159 4.54121 10.3183 4.56475C9.96137 4.63879 9.60014 4.73039 9.24383 4.83894C8.83386 4.96045 8.43025 5.10328 8.0346 5.26686C5.41177 6.33128 3.21158 8.25645 1.78168 10.7382C1.59695 11.0547 1.42652 11.3796 1.27091 11.712C1.14414 11.9786 1.02537 12.2484 0.918908 12.5201C-1.59432 18.8975 1.21122 26.1507 7.33983 29.116L7.51952 29.2026C5.47436 27.2448 4.06476 24.6965 3.47952 21.8992C3.41691 21.7806 3.36002 21.6589 3.30906 21.5346C3.21429 21.315 3.12937 21.091 3.04998 20.862C2.5919 19.5537 2.39421 18.1655 2.4685 16.7784C2.54278 15.3913 2.88753 14.0333 3.4826 12.7836C4.02571 11.6341 4.76881 10.5946 5.67583 9.71544C6.03086 9.36865 6.41101 9.04964 6.81306 8.7611C7.42794 8.31699 8.08795 7.9417 8.78168 7.64174C10.4132 6.38672 12.3005 5.5217 14.3041 5.11063C15.0475 4.95377 15.8032 4.85965 16.5626 4.82828L16.3921 4.77808C15.2678 4.45764 14.106 4.29447 12.9386 4.29307H12.9355ZM15.13 27.1885L15.3004 27.2362C17.1798 27.7601 19.1515 27.8499 21.0709 27.501L21.1244 27.4916C21.5727 27.4097 22.016 27.3022 22.4524 27.1697C22.8223 27.0593 23.1897 26.9313 23.5601 26.7832L23.6863 26.9551L23.6094 26.7625C25.1697 26.1283 26.5925 25.1872 27.7964 23.9929C28.6017 23.1968 29.3012 22.2965 29.8771 21.315C30.2094 20.7453 30.4986 20.1505 30.7411 19.5362C31.6747 17.1846 31.9114 14.6055 31.4221 12.1181C30.9327 9.63071 29.7387 7.34423 27.9878 5.54168C26.8926 4.40731 25.6028 3.48714 24.1823 2.82673C25.7734 4.35953 26.9842 6.2562 27.7146 8.36016C27.9177 8.94369 28.0844 9.54039 28.2131 10.1465C28.258 10.2331 28.3189 10.3674 28.3768 10.4997C28.7076 11.282 28.9436 12.1025 29.0795 12.943C29.1718 13.5159 29.2186 14.0931 29.2186 14.6741C29.2209 16.0832 28.9444 17.4783 28.4054 18.7759C27.8664 20.0734 27.0762 21.2467 26.082 22.2254L26.0081 22.2963C25.1018 23.1792 24.046 23.8872 22.8918 24.3857C21.7567 25.2469 20.4985 25.9252 19.1614 26.3967C18.5804 26.6037 17.9854 26.7725 17.3823 26.9018C16.6412 27.0582 15.8891 27.1543 15.1331 27.1892H15.1294L15.13 27.1885ZM10.2592 25.3802C10.8703 25.598 11.4961 25.7667 12.1343 25.8853C13.7824 26.2009 15.4751 26.1847 17.1171 25.8376C18.2325 25.6026 19.3137 25.222 20.3337 24.7051C22.8777 23.4178 24.9277 21.3018 26.1589 18.6923C26.2795 18.4332 26.3903 18.1809 26.4937 17.9218L26.5078 17.881C27.4097 15.615 27.6562 13.1331 27.218 10.7288V10.7225C27.2034 10.6289 27.1857 10.5357 27.1651 10.4433C27.0909 10.0735 26.9997 9.70752 26.8918 9.34651C26.7735 8.94146 26.6353 8.54274 26.4777 8.15185C25.4214 5.49152 23.5271 3.26512 21.0931 1.82344C20.5307 1.4884 19.9449 1.19605 19.3404 0.948785C13.018 -1.62499 5.80322 1.20478 2.86045 7.4146C2.83309 7.47119 2.80723 7.52852 2.78291 7.58652C4.30934 5.97135 6.18789 4.74603 8.26598 4.01009C8.84051 3.8067 9.42687 3.6399 10.0217 3.51064C10.1171 3.45856 10.2592 3.39143 10.4032 3.33182C10.6075 3.24523 10.8186 3.1599 11.0328 3.08398C11.6164 2.87712 12.2164 2.72137 12.826 2.61842C15.4217 2.19327 18.0796 2.76976 20.2808 4.23534C20.7103 4.51957 21.1195 4.83518 21.5023 5.18278C21.6931 5.35408 21.8777 5.53227 22.0568 5.71862C22.9274 6.63278 23.6278 7.70069 24.1238 8.87028C24.2161 9.09114 24.3035 9.312 24.3798 9.54164C24.5848 10.1252 24.7374 10.7263 24.8377 11.3386C25.1912 13.4757 24.8799 15.6719 23.9472 17.6194C23.5174 18.5268 22.9636 19.3676 22.3023 20.1166C21.329 21.2062 20.1465 22.0804 18.8281 22.6848C17.5098 23.2892 16.0837 23.611 14.6383 23.6303C14.1214 23.6384 13.6044 23.6052 13.0937 23.533C12.0167 23.3821 10.9691 23.0625 9.98783 22.5856C9.32159 22.2638 8.69008 21.872 8.10352 21.4167C8.49484 22.8958 9.23489 24.255 10.2592 25.3758H10.2611L10.2592 25.3802ZM7.81306 19.6987C8.57802 20.4856 9.47212 21.1298 10.4549 21.6024C10.6734 21.7078 10.8968 21.8057 11.122 21.8941C9.54663 20.2035 8.5697 18.0252 8.34598 15.7044C7.88808 16.9818 7.7067 18.345 7.81429 19.7006V19.6975L7.81306 19.6987ZM20.5497 10.1114C22.1167 11.8016 23.0942 13.9709 23.3312 16.2842C23.7891 15.018 23.9724 13.6677 23.8691 12.3244V12.3193C22.9294 11.3511 21.7982 10.598 20.5509 10.1101L20.5497 10.1114Z" fill="url(#paint0_radial_505_42091)"/>
</g>
<defs>
<radialGradient id="paint0_radial_505_42091" cx="0" cy="0" r="1" gradientUnits="userSpaceOnUse" gradientTransform="translate(15.8346 16.0012) scale(15.8357 15.9976)">
<stop stop-color="#FDC300"/>
<stop offset="0.09" stop-color="#FDC109"/>
<stop offset="0.25" stop-color="#FDBC21"/>
<stop offset="0.44" stop-color="#FEB348"/>
<stop offset="0.66" stop-color="#FEA77E"/>
<stop offset="0.91" stop-color="#FF98C3"/>
<stop offset="1" stop-color="#FF92DE"/>
</radialGradient>
<clipPath id="clip0_505_42091">
<rect width="32" height="32" fill="white"/>
</clipPath>
</defs>
</svg>
