<svg width="97" height="17" viewBox="0 0 97 17" fill="current" xmlns="http://www.w3.org/2000/svg">
<path d="M0.261719 15.7591V1.2832H10.1832V4.01963H3.56903V6.8605H9.44091V9.53429H3.56903V13.0227H10.6706V15.7591H0.261719Z" fill="current"/>
<path d="M17.4216 1.11621C19.6263 1.11621 21.315 1.50614 22.4884 2.28598C23.6614 3.05188 24.2479 4.24952 24.2479 5.87884C24.2479 6.89541 24.0075 7.72402 23.527 8.36461C23.0607 8.99124 22.3824 9.48561 21.4919 9.84768C21.7886 10.2098 22.0994 10.6275 22.4244 11.101C22.7499 11.5606 23.0676 12.048 23.3785 12.5632C23.7035 13.0646 24.0148 13.5938 24.3114 14.1508C24.6081 14.6939 24.8838 15.23 25.138 15.7592H21.4283C21.1596 15.2857 20.8839 14.8053 20.6014 14.3179C20.333 13.8305 20.0501 13.357 19.7534 12.8974C19.4709 12.4379 19.188 12.0062 18.9054 11.6024C18.6229 11.1846 18.34 10.8086 18.0575 10.4744H16.4251V15.7592H13.1182V1.49219C13.8386 1.35292 14.581 1.25547 15.3439 1.19975C16.1215 1.14403 16.8136 1.11621 17.4216 1.11621ZM17.6122 3.89441C17.3722 3.89441 17.1528 3.90136 16.9553 3.91527C16.7715 3.92922 16.5947 3.94313 16.4251 3.95708V7.88415H17.358C18.6015 7.88415 19.492 7.73098 20.0291 7.42459C20.5662 7.11825 20.8345 6.59602 20.8345 5.85794C20.8345 5.14772 20.5589 4.6464 20.008 4.35396C19.4709 4.04758 18.6723 3.89441 17.6122 3.89441Z" fill="current"/>
<path d="M34.0514 3.79009C32.5109 3.79009 31.3941 4.21483 30.7016 5.06431C30.0232 5.89984 29.684 7.04875 29.684 8.51095C29.684 9.22117 29.769 9.86871 29.9386 10.4536C30.1082 11.0246 30.3624 11.5189 30.7016 11.9367C31.0408 12.3545 31.465 12.6817 31.9737 12.9185C32.4825 13.1413 33.0759 13.2527 33.7543 13.2527C34.1218 13.2527 34.4327 13.2457 34.6873 13.2318C34.9556 13.2179 35.1892 13.19 35.3867 13.1482V8.11407H38.694V15.2789C38.2982 15.4321 37.6623 15.5922 36.786 15.7593C35.9096 15.9404 34.8285 16.0309 33.5426 16.0309C32.44 16.0309 31.4366 15.8638 30.532 15.5296C29.6419 15.1953 28.8785 14.7079 28.2426 14.0673C27.6068 13.4268 27.1121 12.64 26.7588 11.7069C26.4196 10.7739 26.25 9.70859 26.25 8.51095C26.25 7.29941 26.4406 6.22713 26.8223 5.29407C27.204 4.36105 27.7266 3.57424 28.3912 2.93366C29.0554 2.27912 29.8325 1.78479 30.723 1.45054C31.6277 1.11634 32.5886 0.949219 33.6061 0.949219C34.2987 0.949219 34.9204 0.997945 35.4717 1.09544C36.0372 1.17898 36.5176 1.28342 36.9131 1.40877C37.3231 1.52018 37.6554 1.63853 37.9096 1.76388C38.1779 1.88919 38.369 1.98669 38.4819 2.05632L37.5279 4.66743C37.0758 4.43068 36.5528 4.22874 35.959 4.06166C35.3798 3.88063 34.7439 3.79009 34.0514 3.79009Z" fill="current"/>
<path d="M44.5477 8.51095C44.5477 9.22117 44.6327 9.86176 44.8023 10.4327C44.9861 11.0037 45.2403 11.498 45.5653 11.9158C45.9045 12.3197 46.3145 12.633 46.795 12.8558C47.2754 13.0786 47.8267 13.19 48.4484 13.19C49.0564 13.19 49.6004 13.0786 50.0808 12.8558C50.5754 12.633 50.9854 12.3197 51.3105 11.9158C51.6497 11.498 51.9039 11.0037 52.0734 10.4327C52.2572 9.86176 52.3491 9.22117 52.3491 8.51095C52.3491 7.80074 52.2572 7.16015 52.0734 6.58919C51.9039 6.00429 51.6497 5.50992 51.3105 5.10608C50.9854 4.6883 50.5754 4.368 50.0808 4.1452C49.6004 3.9224 49.0564 3.811 48.4484 3.811C47.8267 3.811 47.2754 3.92935 46.795 4.16611C46.3145 4.38891 45.9045 4.7092 45.5653 5.12699C45.2403 5.53082 44.9861 6.02519 44.8023 6.61006C44.6327 7.18101 44.5477 7.81465 44.5477 8.51095ZM55.7624 8.51095C55.7624 9.75036 55.5714 10.8435 55.1901 11.7905C54.8226 12.7235 54.3138 13.5103 53.6638 14.1509C53.0133 14.7776 52.2362 15.251 51.3315 15.5713C50.4414 15.8917 49.4801 16.0518 48.4484 16.0518C47.445 16.0518 46.4983 15.8917 45.6078 15.5713C44.7173 15.251 43.9402 14.7776 43.276 14.1509C42.6117 13.5103 42.0888 12.7235 41.7071 11.7905C41.3254 10.8435 41.1348 9.75036 41.1348 8.51095C41.1348 7.27155 41.3327 6.18532 41.7281 5.2523C42.124 4.30533 42.6538 3.51157 43.318 2.87098C43.9964 2.23039 44.774 1.74997 45.6503 1.42968C46.5408 1.10935 47.4733 0.949219 48.4484 0.949219C49.4518 0.949219 50.3989 1.10935 51.2894 1.42968C52.1795 1.74997 52.957 2.23039 53.6213 2.87098C54.2855 3.51157 54.8084 4.30533 55.1901 5.2523C55.5714 6.18532 55.7624 7.27155 55.7624 8.51095Z" fill="current"/>
<path d="M70.7088 8.51047C70.7088 9.76378 70.5109 10.857 70.1154 11.79C69.7195 12.7091 69.1614 13.475 68.4405 14.0878C67.7196 14.6866 66.8575 15.1391 65.8541 15.4455C64.8507 15.738 63.7485 15.8842 62.5472 15.8842C61.9534 15.8842 61.2965 15.8564 60.5756 15.8006C59.8689 15.7589 59.2257 15.6683 58.6465 15.5291V1.49183C59.2257 1.35257 59.8689 1.26207 60.5756 1.2203C61.2965 1.16458 61.9534 1.13672 62.5472 1.13672C63.7485 1.13672 64.8507 1.28993 65.8541 1.59627C66.8575 1.88871 67.7196 2.34131 68.4405 2.95403C69.1614 3.55285 69.7195 4.31879 70.1154 5.25181C70.5109 6.17092 70.7088 7.25715 70.7088 8.51047ZM62.7168 14.1086C64.6669 14.1086 66.1228 13.6213 67.0837 12.6464C68.0446 11.6577 68.5255 10.2791 68.5255 8.51047C68.5255 6.74188 68.0446 5.37017 67.0837 4.39538C66.1228 3.40663 64.6669 2.91226 62.7168 2.91226C62.1371 2.91226 61.685 2.91922 61.36 2.93317C61.0491 2.94708 60.8298 2.96103 60.7027 2.97494V14.046C60.8298 14.0599 61.0491 14.0738 61.36 14.0878C61.685 14.1017 62.1371 14.1086 62.7168 14.1086Z" fill="current"/>
<path d="M73.7598 15.7591V1.2832H82.7269V3.01698H75.816V7.32006H81.9639V9.01206H75.816V14.0254H83.2571V15.7591H73.7598Z" fill="current"/>
<path d="M94.6888 15.7591C94.4767 15.3413 94.2225 14.8818 93.9259 14.3805C93.6288 13.8652 93.3037 13.336 92.9504 12.7929C92.597 12.2359 92.2299 11.6858 91.8482 11.1427C91.4665 10.5857 91.099 10.0635 90.7456 9.57606C90.3923 10.0635 90.0252 10.5857 89.6435 11.1427C89.2618 11.6858 88.8943 12.2359 88.5409 12.7929C88.2017 13.336 87.8767 13.8652 87.5658 14.3805C87.2691 14.8818 87.0146 15.3413 86.8025 15.7591H84.5342C85.1705 14.5336 85.9051 13.2873 86.7389 12.0201C87.5869 10.7528 88.4846 9.45071 89.4314 8.11385L84.7252 1.2832H87.0995L90.7246 6.67251L94.3071 1.2832H96.6604L92.0389 8.03027C93.0002 9.38108 93.9044 10.6971 94.7524 11.9782C95.6004 13.2594 96.3496 14.5197 96.9996 15.7591H94.6888Z" fill="current"/>
</svg>
