<svg width="26" height="24" viewBox="0 0 26 24" fill="none" xmlns="http://www.w3.org/2000/svg">
<path d="M24 5.70667V2.66667C24 1.2 22.8 0 21.3333 0H2.66667C1.18667 0 0 1.2 0 2.66667V21.3333C0 22.8 1.18667 24 2.66667 24H21.3333C22.8 24 24 22.8 24 21.3333V18.2933C24.7867 17.8267 25.3333 16.9867 25.3333 16V8C25.3333 7.01333 24.7867 6.17333 24 5.70667ZM22.6667 8V16H13.3333V8H22.6667ZM2.66667 21.3333V2.66667H21.3333V5.33333H13.3333C11.8667 5.33333 10.6667 6.53333 10.6667 8V16C10.6667 17.4667 11.8667 18.6667 13.3333 18.6667H21.3333V21.3333H2.66667Z" fill="#ACACAC"/>
</svg>
