<svg width="25" height="24" viewBox="0 0 25 24" fill="none" xmlns="http://www.w3.org/2000/svg">
<circle cx="12.1992" cy="12" r="12" fill="#5A5A5A"/>
<path d="M20.8971 11.7378L18.535 6.03509C18.4655 5.86717 18.3321 5.73375 18.1641 5.66419L12.4615 3.30213C12.2935 3.23262 12.1049 3.23262 11.9369 3.30213L6.23443 5.66419C6.06651 5.73375 5.93309 5.86717 5.86352 6.03509L3.50147 11.7378C3.46697 11.8209 3.44922 11.91 3.44922 12C3.44922 12.09 3.46697 12.1792 3.50147 12.2623L5.86352 17.9648C5.93309 18.1327 6.06651 18.2661 6.23443 18.3357L11.9369 20.6978C12.0201 20.7322 12.1092 20.75 12.1992 20.75C12.2892 20.75 12.3783 20.7322 12.4615 20.6978L18.1641 18.3357C18.3321 18.2661 18.4655 18.1327 18.535 17.9648L20.8971 12.2623C20.9666 12.0944 20.9666 11.9057 20.8971 11.7378ZM15.0312 9.75245H11.7158L13.7709 11.9047L11.6436 14.2474H15.0303V15.8212H9.36796V14.3907L11.5962 11.9241L9.37865 9.61326V8.17888H15.0304L15.0312 9.75245Z" fill="#ACACAC"/>
</svg>
