<svg width="24" height="24" viewBox="0 0 24 24" fill="none" xmlns="http://www.w3.org/2000/svg">
<circle cx="12" cy="12" r="12" fill="url(#paint0_linear_2233_69649)"/>
<path fill-rule="evenodd" clip-rule="evenodd" d="M20.9861 12.5049C20.9953 12.3378 21 12.1694 21 12C21 11.8306 20.9953 11.6622 20.9861 11.4951L21.4853 11.4675C21.4951 11.6438 21.5 11.8213 21.5 12C21.5 12.1787 21.4951 12.3562 21.4853 12.5325L20.9861 12.5049ZM20.8742 10.4917L21.3672 10.4085C21.3076 10.0551 21.2284 9.70833 21.1309 9.36926L20.6504 9.50747C20.7427 9.82855 20.8177 10.157 20.8742 10.4917ZM20.3171 8.55491L20.7789 8.36338C20.6422 8.03362 20.4874 7.71327 20.3159 7.40355L19.8785 7.64581C20.041 7.93919 20.1876 8.24262 20.3171 8.55491ZM19.3407 6.7916L19.7482 6.50193C19.5421 6.21196 19.3201 5.93408 19.0836 5.66956L18.7109 6.00286C18.9351 6.25354 19.1454 6.51685 19.3407 6.7916ZM17.9971 5.28912L18.3304 4.91641C18.0659 4.67986 17.788 4.4579 17.4981 4.25178L17.2084 4.65932C17.4831 4.85461 17.7465 5.06495 17.9971 5.28912ZM16.3542 4.1215L16.5964 3.6841C16.2867 3.51257 15.9664 3.35781 15.6366 3.22106L15.4451 3.68292C15.7574 3.81243 16.0608 3.95901 16.3542 4.1215ZM14.4925 3.34961L14.6307 2.86909C14.2917 2.77157 13.9449 2.69243 13.5915 2.6328L13.5083 3.12583C13.843 3.18231 14.1715 3.25727 14.4925 3.34961ZM12.5049 3.01392L12.5325 2.51469C12.3562 2.50494 12.1787 2.5 12 2.5C11.8213 2.5 11.6438 2.50494 11.4675 2.51469L11.4951 3.01392C11.6622 3.00468 11.8306 3 12 3C12.1694 3 12.3378 3.00468 12.5049 3.01392ZM10.4917 3.12583L10.4085 2.6328C10.0551 2.69243 9.70833 2.77157 9.36926 2.8691L9.50747 3.34961C9.82855 3.25727 10.157 3.18231 10.4917 3.12583ZM8.55491 3.68292L8.36338 3.22106C8.03362 3.35781 7.71327 3.51257 7.40355 3.6841L7.64581 4.1215C7.93919 3.95901 8.24261 3.81243 8.55491 3.68292ZM6.7916 4.65932L6.50193 4.25178C6.21196 4.4579 5.93408 4.67986 5.66956 4.91642L6.00286 5.28912C6.25354 5.06495 6.51685 4.85462 6.7916 4.65932ZM5.28912 6.00286L4.91641 5.66956C4.67986 5.93408 4.4579 6.21196 4.25178 6.50193L4.65932 6.79161C4.85461 6.51685 5.06495 6.25354 5.28912 6.00286ZM4.1215 7.64581L3.6841 7.40356C3.51257 7.71327 3.35781 8.03363 3.22106 8.36338L3.68292 8.55491C3.81243 8.24262 3.95901 7.93919 4.1215 7.64581ZM3.34961 9.50747L2.86909 9.36927C2.77157 9.70833 2.69243 10.0551 2.6328 10.4085L3.12583 10.4917C3.18231 10.157 3.25727 9.82855 3.34961 9.50747ZM3.01392 11.4951C3.00468 11.6622 3 11.8306 3 12C3 12.1694 3.00468 12.3378 3.01392 12.5049L2.51469 12.5325C2.50494 12.3562 2.5 12.1787 2.5 12C2.5 11.8213 2.50494 11.6438 2.51469 11.4675L3.01392 11.4951ZM3.12583 13.5083L2.6328 13.5915C2.69243 13.9449 2.77157 14.2917 2.8691 14.6307L3.34961 14.4925C3.25727 14.1715 3.18231 13.843 3.12583 13.5083ZM3.68292 15.4451L3.22106 15.6366C3.35781 15.9664 3.51257 16.2867 3.6841 16.5964L4.1215 16.3542C3.95901 16.0608 3.81243 15.7574 3.68292 15.4451ZM4.65932 17.2084L4.25178 17.4981C4.4579 17.788 4.67986 18.0659 4.91642 18.3304L5.28912 17.9971C5.06495 17.7465 4.85462 17.4831 4.65932 17.2084ZM6.00286 18.7109L5.66956 19.0836C5.93408 19.3201 6.21196 19.5421 6.50193 19.7482L6.79161 19.3407C6.51686 19.1454 6.25354 18.935 6.00286 18.7109ZM7.64581 19.8785L7.40356 20.3159C7.71327 20.4874 8.03363 20.6422 8.36338 20.7789L8.55491 20.3171C8.24262 20.1876 7.93919 20.041 7.64581 19.8785ZM9.50747 20.6504L9.36927 21.1309C9.70833 21.2284 10.0551 21.3076 10.4085 21.3672L10.4917 20.8742C10.157 20.8177 9.82855 20.7427 9.50747 20.6504ZM11.4951 20.9861L11.4675 21.4853C11.6438 21.4951 11.8213 21.5 12 21.5C12.1787 21.5 12.3562 21.4951 12.5325 21.4853L12.5049 20.9861C12.3378 20.9953 12.1694 21 12 21C11.8306 21 11.6622 20.9953 11.4951 20.9861ZM13.5083 20.8742L13.5915 21.3672C13.9449 21.3076 14.2917 21.2284 14.6307 21.1309L14.4925 20.6504C14.1715 20.7427 13.843 20.8177 13.5083 20.8742ZM15.4451 20.3171L15.6366 20.7789C15.9664 20.6422 16.2867 20.4874 16.5964 20.3159L16.3542 19.8785C16.0608 20.041 15.7574 20.1876 15.4451 20.3171ZM17.2084 19.3407L17.4981 19.7482C17.788 19.5421 18.0659 19.3201 18.3304 19.0836L17.9971 18.7109C17.7465 18.9351 17.4831 19.1454 17.2084 19.3407ZM18.7109 17.9971L19.0836 18.3304C19.3201 18.0659 19.5421 17.788 19.7482 17.4981L19.3407 17.2084C19.1454 17.4831 18.9351 17.7465 18.7109 17.9971ZM19.8785 16.3542L20.3159 16.5964C20.4874 16.2867 20.6422 15.9664 20.7789 15.6366L20.3171 15.4451C20.1876 15.7574 20.041 16.0608 19.8785 16.3542ZM20.6504 14.4925L21.1309 14.6307C21.2284 14.2917 21.3076 13.9449 21.3672 13.5915L20.8742 13.5083C20.8177 13.843 20.7427 14.1715 20.6504 14.4925Z" fill="url(#paint1_linear_2233_69649)"/>
<path fill-rule="evenodd" clip-rule="evenodd" d="M12 23.5C18.3513 23.5 23.5 18.3513 23.5 12C23.5 5.64873 18.3513 0.5 12 0.5C5.64873 0.5 0.5 5.64873 0.5 12C0.5 18.3513 5.64873 23.5 12 23.5ZM12 24C18.6274 24 24 18.6274 24 12C24 5.37258 18.6274 0 12 0C5.37258 0 0 5.37258 0 12C0 18.6274 5.37258 24 12 24Z" fill="url(#paint2_linear_2233_69649)"/>
<g clip-path="url(#clip0_2233_69649)">
<path d="M8.83786 12.0808C8.80799 12.5722 9.20746 12.9929 9.7264 13.0212C9.74506 13.0212 9.76373 13.0212 9.7824 13.0212C10.3051 13.0212 10.7269 12.6217 10.7232 12.1268C10.7232 11.6318 10.3013 11.2323 9.77866 11.2359C9.27839 11.2359 8.86399 11.6071 8.83786 12.0808Z" fill="white"/>
<path d="M5.32107 11.851C5.15307 11.8404 5.00747 11.9641 5 12.1232C4.99253 12.2823 5.11947 12.4202 5.28747 12.4273C5.45547 12.4379 5.59733 12.3141 5.60853 12.155C5.61973 11.996 5.48907 11.8616 5.32107 11.851Z" fill="white"/>
<path d="M8.77814 6.89798C8.92747 6.82727 8.98721 6.65051 8.91254 6.50909C8.83787 6.36768 8.65121 6.31111 8.50187 6.38182C8.35254 6.45253 8.29281 6.62576 8.36747 6.76717C8.44214 6.91212 8.62507 6.97222 8.77814 6.89798C8.77441 6.89798 8.77814 6.89798 8.77814 6.89798Z" fill="white"/>
<path d="M9.73387 8.47829C9.96533 8.36869 10.0587 8.10001 9.94293 7.88082C9.8272 7.66162 9.54347 7.57324 9.312 7.68284C9.08053 7.79243 8.9872 8.06112 9.10293 8.28031C9.21867 8.4995 9.5024 8.58788 9.73387 8.47829Z" fill="white"/>
<path d="M6.51574 9.56365C6.69493 9.67324 6.93387 9.62728 7.05333 9.45759C7.16907 9.28789 7.12053 9.06163 6.94133 8.94849C6.76213 8.8389 6.5232 8.88486 6.40374 9.05456C6.28427 9.22425 6.33654 9.45405 6.51574 9.56365Z" fill="white"/>
<path d="M7.08693 11.6919C6.8256 11.6778 6.60533 11.8652 6.5904 12.1126C6.57547 12.3601 6.77333 12.5687 7.03467 12.5828C7.296 12.597 7.51627 12.4096 7.5312 12.1621C7.54613 11.9182 7.34827 11.7061 7.08693 11.6919Z" fill="white"/>
<path d="M6.56801 14.6864C6.37761 14.7783 6.29921 14.9975 6.39627 15.1813C6.49334 15.3616 6.72481 15.4359 6.91894 15.3439C7.10934 15.252 7.18774 15.0328 7.09067 14.849C6.99361 14.6687 6.75841 14.5944 6.56801 14.6864Z" fill="white"/>
<path d="M8.39734 10.7692C8.65494 10.9283 8.99841 10.8611 9.16267 10.6172C9.33067 10.3732 9.25974 10.048 9.00214 9.89243C8.74454 9.73334 8.40107 9.80051 8.2368 10.0445C8.0688 10.2849 8.13974 10.6101 8.39734 10.7692Z" fill="white"/>
<path d="M14.2027 8.44293C14.4192 8.57727 14.7141 8.5207 14.856 8.31565C14.9979 8.1106 14.9381 7.83131 14.7216 7.69697C14.5051 7.56262 14.2101 7.61919 14.0683 7.82424C13.9227 8.03282 13.9824 8.30858 14.2027 8.44293Z" fill="white"/>
<path d="M15.1659 6.86971C15.3077 6.95809 15.4944 6.9192 15.5877 6.78486C15.6811 6.65051 15.64 6.47375 15.4981 6.38536C15.3563 6.29698 15.1696 6.33587 15.0763 6.46668C14.9867 6.60102 15.0277 6.78132 15.1659 6.86971Z" fill="white"/>
<path d="M14.2736 11.2288C13.7547 11.2005 13.3067 11.5788 13.2805 12.0702C13.2507 12.5616 13.6501 12.9859 14.1691 13.0106C14.1877 13.0106 14.2064 13.0106 14.2213 13.0106C14.7403 13.0106 15.1621 12.6111 15.1621 12.1162C15.1659 11.646 14.7739 11.2535 14.2736 11.2288Z" fill="white"/>
<path d="M10.0437 10.7056C10.2043 11.0061 10.5291 11.197 10.8875 11.197C11.4064 11.197 11.8283 10.7975 11.8283 10.3025C11.8283 10.1647 11.7947 10.0268 11.7275 9.8995C11.4923 9.45758 10.9248 9.28081 10.4619 9.50354C9.9952 9.7298 9.80854 10.2672 10.0437 10.7056Z" fill="white"/>
<path d="M17.432 9.56364C17.6224 9.47172 17.6971 9.249 17.6 9.06869C17.5029 8.88839 17.2677 8.81768 17.0773 8.9096C16.8869 9.00152 16.8123 9.22071 16.9056 9.40102C17.0064 9.58132 17.2379 9.65556 17.432 9.56364Z" fill="white"/>
<path d="M15.0427 9.84647C14.7701 9.97728 14.6581 10.2919 14.7963 10.55C14.9344 10.8081 15.2667 10.9141 15.5392 10.7833C15.8117 10.6525 15.9237 10.3379 15.7856 10.0798C15.6475 9.82172 15.3152 9.7192 15.0427 9.84647Z" fill="white"/>
<path d="M11.9627 6.73536C12.1755 6.74596 12.3584 6.59041 12.3733 6.38889C12.3883 6.18738 12.2203 6.01415 12.0075 6C11.7947 5.9894 11.6117 6.14142 11.5968 6.34293C11.5856 6.54798 11.7499 6.72122 11.9627 6.73536Z" fill="white"/>
<path d="M11.9589 9.04394C12.2651 9.06162 12.5264 8.83889 12.5413 8.54899C12.56 8.25909 12.3248 8.01162 12.0187 7.99748C11.7125 7.9798 11.4512 8.20253 11.4363 8.49243C11.4213 8.78233 11.6528 9.0298 11.9589 9.04394Z" fill="white"/>
<path d="M8.95733 14.4035C9.22986 14.2727 9.34186 13.9581 9.20373 13.7C9.06559 13.4419 8.73333 13.3359 8.4608 13.4667C8.18826 13.5975 8.07626 13.9121 8.2144 14.1702C8.35253 14.4283 8.6848 14.5344 8.95733 14.4035Z" fill="white"/>
<path d="M12.3173 9.81111C12.0336 10.2248 12.1531 10.7763 12.5899 11.045C13.0267 11.3136 13.6091 11.2005 13.8928 10.7869C14.1765 10.3732 14.0571 9.82172 13.6203 9.55303C13.4672 9.45758 13.288 9.40808 13.1051 9.40808C12.7877 9.40808 12.4928 9.5601 12.3173 9.81111Z" fill="white"/>
<path d="M13.9563 13.5444C13.7211 13.1025 13.1536 12.9258 12.6907 13.1485C12.224 13.3712 12.0373 13.9086 12.2725 14.347C12.5077 14.7889 13.0752 14.9657 13.5381 14.7429C14.0011 14.5237 14.1915 13.9934 13.96 13.5515C13.96 13.548 13.96 13.548 13.9563 13.5444Z" fill="white"/>
<path d="M15.6027 13.4808C15.3451 13.3217 15.0016 13.3889 14.8373 13.6328C14.6693 13.8768 14.7403 14.202 14.9979 14.3576C15.2555 14.5167 15.5989 14.4495 15.7632 14.2056C15.9312 13.9652 15.8603 13.6399 15.6027 13.4808Z" fill="white"/>
<path d="M17.4096 12.1409C17.4245 11.8934 17.2267 11.6849 16.9653 11.6707C16.704 11.6566 16.4837 11.8439 16.4688 12.0914C16.4539 12.3389 16.6517 12.5475 16.9131 12.5616C17.1707 12.5758 17.3947 12.3849 17.4096 12.1409Z" fill="white"/>
<path d="M18.7125 11.8227C18.5445 11.8121 18.3989 11.9359 18.3915 12.095C18.384 12.254 18.5109 12.3919 18.6789 12.399C18.8469 12.4096 18.9888 12.2859 19 12.1268C19.0075 11.9677 18.8805 11.8333 18.7125 11.8227Z" fill="white"/>
<path d="M17.4843 14.6864C17.3051 14.5768 17.0661 14.6227 16.9467 14.7924C16.8309 14.9621 16.8795 15.1884 17.0587 15.3015C17.2379 15.4111 17.4768 15.3652 17.5963 15.1955C17.7157 15.0258 17.6635 14.796 17.4843 14.6864Z" fill="white"/>
<path d="M8.8304 17.3803C8.68853 17.2919 8.50186 17.3308 8.40853 17.4616C8.3152 17.596 8.35626 17.7727 8.4944 17.8611C8.63626 17.9495 8.82293 17.9106 8.91626 17.7798C9.01333 17.649 8.97226 17.4687 8.8304 17.3803Z" fill="white"/>
<path d="M15.2219 17.352C15.0725 17.4227 15.0128 17.5995 15.0875 17.7409C15.1621 17.8823 15.3488 17.9389 15.4981 17.8682C15.6475 17.7975 15.7072 17.6243 15.6325 17.4828C15.5579 17.3379 15.3749 17.2778 15.2219 17.352C15.2256 17.352 15.2219 17.352 15.2219 17.352Z" fill="white"/>
<path d="M11.6827 14.4389C11.9664 14.0253 11.8469 13.4738 11.4101 13.2015C10.9733 12.9328 10.3909 13.046 10.1035 13.4596C9.816 13.8732 9.9392 14.4248 10.376 14.697C10.5291 14.7924 10.7083 14.8419 10.8912 14.8419C11.2123 14.8455 11.5072 14.6934 11.6827 14.4389Z" fill="white"/>
<path d="M9.79733 15.8071C9.5808 15.6727 9.28586 15.7293 9.144 15.9343C9.00213 16.1394 9.06186 16.4187 9.2784 16.553C9.49493 16.6874 9.78987 16.6308 9.93173 16.4258C10.0773 16.2207 10.0176 15.9414 9.79733 15.8071Z" fill="white"/>
<path d="M11.9963 17.5147C11.7835 17.504 11.6005 17.6596 11.5856 17.8611C11.5707 18.0626 11.7387 18.2359 11.9515 18.25C12.1643 18.2606 12.3472 18.1086 12.3621 17.9071C12.3733 17.702 12.2091 17.5288 11.9963 17.5147Z" fill="white"/>
<path d="M12 15.2061C11.6939 15.1884 11.4325 15.4111 11.4176 15.701C11.3989 15.9909 11.6341 16.2384 11.9403 16.2525C12.2464 16.2667 12.5077 16.0475 12.5227 15.7576C12.5413 15.4712 12.3061 15.2202 12 15.2061Z" fill="white"/>
<path d="M14.2661 15.7717C14.0347 15.8849 13.9413 16.1535 14.0608 16.3727C14.1803 16.5919 14.464 16.6803 14.6955 16.5672C14.9269 16.4576 15.0203 16.1889 14.9045 15.9697C14.7851 15.7505 14.5013 15.6586 14.2661 15.7717Z" fill="white"/>
</g>
<defs>
<linearGradient id="paint0_linear_2233_69649" x1="4" y1="3" x2="20" y2="22" gradientUnits="userSpaceOnUse">
<stop stop-color="#190A87"/>
<stop offset="1" stop-color="#431BEC"/>
</linearGradient>
<linearGradient id="paint1_linear_2233_69649" x1="5" y1="4" x2="19.5" y2="20.5" gradientUnits="userSpaceOnUse">
<stop stop-color="#34199C"/>
<stop offset="1" stop-color="#6844FB"/>
</linearGradient>
<linearGradient id="paint2_linear_2233_69649" x1="2.5" y1="3.5" x2="21.5" y2="20.5" gradientUnits="userSpaceOnUse">
<stop stop-color="#4628D7"/>
<stop offset="1" stop-color="#784DF8"/>
</linearGradient>
<clipPath id="clip0_2233_69649">
<rect width="14" height="12.25" fill="white" transform="translate(5 6)"/>
</clipPath>
</defs>
</svg>
