<svg width="24" height="24" viewBox="0 0 24 24" fill="none" xmlns="http://www.w3.org/2000/svg">
<path d="M23.9276 11.6402L20.6885 3.81886C20.5937 3.58922 20.4108 3.40497 20.1798 3.31017L12.3585 0.0710968C12.1288 -0.0236989 11.8698 -0.0236989 11.6388 0.0710968L3.81886 3.31017C3.58922 3.40497 3.40497 3.58788 3.31017 3.81886L0.0710968 11.6402C-0.0236989 11.8698 -0.0236989 12.1288 0.0710968 12.3598L3.31017 20.1811C3.40497 20.4108 3.58788 20.595 3.81886 20.6898L11.6402 23.9289C11.8698 24.0237 12.1288 24.0237 12.3598 23.9289L20.1811 20.6898C20.4108 20.595 20.595 20.4121 20.6898 20.1811L23.9289 12.3598C24.0237 12.1288 24.0237 11.8698 23.9276 11.6402Z" fill="#6100FB"/>
<path d="M17.149 17.7218L12.2663 19.7445L6.78956 17.4761L4.52248 11.9993L6.7909 6.52255L12.2663 4.25413L17.149 6.27688L18.7205 5.14334L12.5507 2.58786C12.4599 2.55048 12.3638 2.53178 12.2663 2.53178C12.1689 2.53178 12.0741 2.55048 11.982 2.58786L5.81223 5.14467C5.63065 5.21944 5.48646 5.36364 5.41035 5.54655L2.85487 11.715C2.78011 11.8965 2.78011 12.1008 2.85487 12.2824L5.41035 18.4521C5.48512 18.6337 5.62932 18.7779 5.81223 18.854L11.982 21.4095C12.0728 21.4469 12.1689 21.4656 12.2663 21.4656C12.3638 21.4656 12.4586 21.4469 12.5507 21.4095L18.7205 18.854L17.149 17.7218Z" fill="#2D2D2D"/>
<path d="M19.3974 7.81097V8.71219C20.4055 8.90579 20.9956 9.64546 20.9956 10.8151V10.9112H19.579V10.739C19.579 10.1488 19.2999 9.83772 18.8273 9.83772C18.344 9.83772 18.109 10.1275 18.109 10.5454C18.109 11.05 18.6671 11.2743 19.2893 11.5107L19.5042 11.5854C20.288 11.8752 21.1999 12.2931 21.1999 13.452C21.1999 14.4173 20.6204 15.2758 19.3974 15.448V16.2852H18.3787V15.4373C17.3052 15.2758 16.6617 14.5788 16.6617 13.4627V13.2157H18.0676V13.3879C18.0676 13.978 18.336 14.2998 18.9261 14.2998C19.4842 14.2998 19.7312 13.9567 19.7312 13.5161C19.7312 13.0541 19.3347 12.9259 18.7979 12.7323L18.3587 12.5708C17.5429 12.2811 16.6523 11.9166 16.6523 10.6175C16.6523 9.50127 17.3813 8.83636 18.38 8.68683V7.80696H19.3974V7.81097Z" fill="white"/>
<path fill-rule="evenodd" clip-rule="evenodd" d="M11.6655 14.4306H15.3305V16.1343H9.20352V14.5855L11.6148 11.9165L9.2142 9.41714V7.86436H15.3305V9.56802H11.743L13.9673 11.8965L11.6655 14.4306Z" fill="white"/>
</svg>
