<svg width="24" height="24" viewBox="0 0 24 24" fill="none" xmlns="http://www.w3.org/2000/svg">
<path d="M23.2777 11.6603L20.2151 4.26673C20.1243 4.04936 19.9524 3.876 19.7336 3.7852L12.34 0.722644C12.1226 0.63184 11.8777 0.63184 11.6603 0.722644L4.26673 3.7852C4.04936 3.876 3.876 4.04798 3.7852 4.26673L0.722644 11.6603C0.63184 11.8777 0.63184 12.1226 0.722644 12.34L3.7852 19.7336C3.876 19.951 4.04798 20.1243 4.26673 20.2151L11.6603 23.2777C11.8777 23.3685 12.1226 23.3685 12.34 23.2777L19.7336 20.2151C19.951 20.1243 20.1243 19.9524 20.2151 19.7336L23.2777 12.34C23.3671 12.1226 23.3671 11.8777 23.2777 11.6603Z" fill="#5E0EFF"/>
<path d="M6.80373 16.4716V7.52879C6.80373 6.64552 7.51915 5.9301 8.40242 5.9301H9.28019C10.1635 5.9301 10.8789 6.64552 10.8789 7.52879V11.7842L13.6745 6.88904C14.013 6.29607 14.6431 5.9301 15.3255 5.9301C16.8017 5.9301 17.7153 7.5398 16.9586 8.8083L15.17 11.8007L17.0453 15.0421C17.8226 16.3863 16.8527 18.0689 15.2994 18.0689C14.5468 18.0689 13.8561 17.6493 13.5094 16.9806L10.8775 11.9176V16.4716C10.8775 17.3548 10.1621 18.0703 9.27881 18.0703H8.40104C7.51915 18.0703 6.80373 17.3548 6.80373 16.4716Z" fill="white"/>
<path d="M12.0002 24C11.8007 24 11.5998 23.9601 11.4099 23.8817L4.01634 20.8191C3.63524 20.6609 3.33944 20.3651 3.18122 19.984L0.118664 12.5904C-0.0395546 12.2093 -0.0395546 11.7897 0.118664 11.4086L3.18122 4.01634C3.33944 3.63524 3.63524 3.33944 4.01634 3.18122L11.4099 0.118664C11.791 -0.0395546 12.2107 -0.0395546 12.5918 0.118664L19.984 3.18122C20.3651 3.33944 20.6609 3.63524 20.8191 4.01634L23.8817 11.4099C24.0399 11.791 24.0399 12.2107 23.8817 12.5904L20.8191 19.984C20.6609 20.3651 20.3651 20.6609 19.984 20.8191L12.5904 23.8817C12.4005 23.9615 12.1997 24 12.0002 24ZM12.0002 1.31012C11.9699 1.31012 11.9396 1.31562 11.9107 1.328L4.51713 4.39056C4.45935 4.41395 4.41395 4.45935 4.39056 4.51713L1.328 11.9107C1.30461 11.9685 1.30461 12.0318 1.328 12.0896L4.39056 19.4832C4.41395 19.541 4.45935 19.5864 4.51713 19.6098L11.9107 22.6723C11.9685 22.6957 12.0318 22.6957 12.0896 22.6723L19.4832 19.6098C19.541 19.5864 19.5864 19.541 19.6098 19.4832L22.6723 12.0896C22.6957 12.0318 22.6957 11.9685 22.6723 11.9107L19.6098 4.51713C19.5864 4.45935 19.541 4.41395 19.4832 4.39056L12.0896 1.328C12.0607 1.31562 12.0304 1.31012 12.0002 1.31012Z" fill="#FF5537"/>
</svg>
