<svg width="41" height="41" viewBox="0 0 41 41" fill="none" xmlns="http://www.w3.org/2000/svg">
<path d="M20.0233 40.0465C31.0818 40.0465 40.0465 31.0818 40.0465 20.0233C40.0465 8.96472 31.0818 0 20.0233 0C8.96472 0 0 8.96472 0 20.0233C0 31.0818 8.96472 40.0465 20.0233 40.0465Z" fill="#0033AD"/>
<path d="M12.4848 19.9162C12.4136 21.1209 13.3658 22.1525 14.6028 22.2219C14.6473 22.2219 14.6918 22.2219 14.7363 22.2219C15.9822 22.2219 16.9877 21.2424 16.9789 20.0288C16.9789 18.8152 15.9733 17.8358 14.7274 17.8444C13.5349 17.8444 12.5471 18.7547 12.4848 19.9162Z" fill="#DBDBDB"/>
<path d="M4.09586 19.346C3.69539 19.32 3.34832 19.6233 3.33052 20.0135C3.31273 20.4036 3.6153 20.7416 4.01576 20.7588C4.41623 20.7848 4.75441 20.4815 4.7811 20.0915C4.8078 19.7014 4.49632 19.372 4.09586 19.346Z" fill="#DBDBDB"/>
<path d="M12.3354 7.20636C12.6914 7.033 12.8337 6.59959 12.6558 6.25287C12.4778 5.90614 12.0328 5.76746 11.6768 5.94081C11.3209 6.11418 11.1785 6.53892 11.3565 6.88564C11.5344 7.24102 11.9705 7.38839 12.3354 7.20636C12.3354 7.20636 12.3265 7.20636 12.3354 7.20636Z" fill="#DBDBDB"/>
<path d="M14.6118 11.0772C15.1636 10.8085 15.3861 10.1497 15.1102 9.61232C14.8343 9.0749 14.158 8.8582 13.6062 9.12691C13.0544 9.39562 12.832 10.0544 13.1078 10.5918C13.3837 11.1292 14.0601 11.3459 14.6118 11.0772Z" fill="#DBDBDB"/>
<path d="M6.94022 13.7438C7.36738 14.0125 7.93694 13.8998 8.22171 13.4838C8.49759 13.0677 8.38189 12.5129 7.95473 12.2355C7.52757 11.9668 6.95802 12.0795 6.67324 12.4956C6.38848 12.9117 6.51305 13.4751 6.94022 13.7438Z" fill="#DBDBDB"/>
<path d="M8.3059 18.958C7.68296 18.9235 7.1579 19.3828 7.12231 19.9895C7.0867 20.5964 7.55837 21.1078 8.18131 21.1424C8.80427 21.1771 9.32931 20.7177 9.36492 20.111C9.40051 19.5128 8.92884 18.9927 8.3059 18.958Z" fill="#DBDBDB"/>
<path d="M7.06217 26.3047C6.60831 26.5301 6.42143 27.0676 6.65282 27.5183C6.8842 27.9605 7.43594 28.1425 7.89871 27.9171C8.35257 27.6916 8.53946 27.1542 8.30807 26.7035C8.07669 26.2615 7.51603 26.0794 7.06217 26.3047Z" fill="#DBDBDB"/>
<path d="M11.4297 16.694C12.0437 17.0841 12.8625 16.9194 13.254 16.3213C13.6545 15.7232 13.4854 14.9257 12.8714 14.5443C12.2573 14.1543 11.4386 14.319 11.047 14.9171C10.6465 15.5065 10.8156 16.304 11.4297 16.694Z" fill="#DBDBDB"/>
<path d="M25.2625 10.9913C25.7786 11.3207 26.4816 11.182 26.8198 10.6792C27.1581 10.1765 27.0156 9.49168 26.4995 9.1623C25.9834 8.83292 25.2802 8.97161 24.9422 9.47435C24.5951 9.98577 24.7374 10.6619 25.2625 10.9913Z" fill="#DBDBDB"/>
<path d="M27.5656 7.13699C27.9036 7.35369 28.3486 7.25833 28.5711 6.92895C28.7937 6.59956 28.6957 6.16616 28.3575 5.94946C28.0194 5.73276 27.5744 5.8281 27.352 6.14882C27.1384 6.47821 27.2362 6.92029 27.5656 7.13699Z" fill="#DBDBDB"/>
<path d="M25.4307 17.8229C24.1937 17.7536 23.1258 18.681 23.0634 19.8859C22.9923 21.0908 23.9444 22.1309 25.1816 22.1916C25.2259 22.1916 25.2705 22.1916 25.306 22.1916C26.5431 22.1916 27.5486 21.2122 27.5486 19.9986C27.5576 18.8457 26.6232 17.8836 25.4307 17.8229Z" fill="#DBDBDB"/>
<path d="M15.3548 16.5413C15.7374 17.2782 16.5116 17.7462 17.366 17.7462C18.6029 17.7462 19.6086 16.7668 19.6086 15.5532C19.6086 15.2151 19.5285 14.8771 19.3683 14.565C18.8077 13.4815 17.4549 13.0481 16.3515 13.5942C15.2391 14.1489 14.7941 15.4665 15.3548 16.5413Z" fill="#DBDBDB"/>
<path d="M32.9663 13.7392C33.4202 13.5138 33.5982 12.9677 33.3668 12.5256C33.1353 12.0836 32.5747 11.9102 32.1208 12.1356C31.667 12.3609 31.4891 12.8984 31.7115 13.3404C31.9518 13.7825 32.5036 13.9645 32.9663 13.7392Z" fill="#DBDBDB"/>
<path d="M27.2689 14.4361C26.6192 14.7568 26.3522 15.5283 26.6816 16.1611C27.0108 16.7938 27.8029 17.0539 28.4525 16.7332C29.1021 16.4124 29.3691 15.641 29.0398 15.0082C28.7106 14.3754 27.9185 14.1241 27.2689 14.4361Z" fill="#DBDBDB"/>
<path d="M19.9272 6.80726C20.4345 6.83326 20.8705 6.45187 20.906 5.95779C20.9418 5.4637 20.5413 5.03898 20.034 5.0043C19.5268 4.97829 19.0906 5.35102 19.0551 5.84511C19.0284 6.34785 19.42 6.77259 19.9272 6.80726Z" fill="#DBDBDB"/>
<path d="M19.9187 12.4709C20.6485 12.5142 21.2714 11.9681 21.307 11.2573C21.3515 10.5465 20.7909 9.93976 20.0612 9.90509C19.3313 9.86176 18.7084 10.4078 18.6729 11.1186C18.6372 11.8294 19.189 12.4362 19.9187 12.4709Z" fill="#DBDBDB"/>
<path d="M12.7647 25.6062C13.4143 25.2855 13.6813 24.5139 13.352 23.8812C13.0227 23.2484 12.2307 22.9883 11.5811 23.309C10.9314 23.6297 10.6645 24.4013 10.9937 25.034C11.323 25.6667 12.115 25.9269 12.7647 25.6062Z" fill="#DBDBDB"/>
<path d="M20.7723 14.3463C20.096 15.3605 20.3808 16.7127 21.4221 17.3715C22.4633 18.0302 23.8515 17.7529 24.5278 16.7387C25.2041 15.7245 24.9195 14.3723 23.8782 13.7135C23.5133 13.4795 23.0862 13.3582 22.6501 13.3582C21.8936 13.3582 21.1906 13.7309 20.7723 14.3463Z" fill="#DBDBDB"/>
<path d="M24.6787 23.5011C24.1181 22.4177 22.7653 21.9842 21.6619 22.5304C20.5494 23.0765 20.1044 24.394 20.665 25.4688C21.2257 26.5524 22.5784 26.9857 23.6819 26.4397C24.7855 25.9023 25.2394 24.6021 24.6875 23.5185C24.6875 23.5098 24.6875 23.5098 24.6787 23.5011Z" fill="#DBDBDB"/>
<path d="M28.604 23.3464C27.99 22.9564 27.1712 23.1211 26.7796 23.7191C26.3791 24.3171 26.5483 25.1147 27.1624 25.496C27.7764 25.8861 28.595 25.7214 28.9866 25.1234C29.3871 24.5339 29.2181 23.7365 28.604 23.3464Z" fill="#DBDBDB"/>
<path d="M32.9079 20.0634C32.9434 19.4565 32.4719 18.9452 31.8488 18.9105C31.2259 18.8758 30.7008 19.3352 30.6653 19.9421C30.6297 20.5488 31.1013 21.0602 31.7243 21.0949C32.3384 21.1294 32.8723 20.6614 32.9079 20.0634Z" fill="#DBDBDB"/>
<path d="M36.019 19.279C35.6185 19.2529 35.2714 19.5563 35.2537 19.9462C35.2359 20.3364 35.5384 20.6744 35.9389 20.6918C36.3393 20.7178 36.6776 20.4144 36.7043 20.0243C36.7221 19.6342 36.4194 19.3048 36.019 19.279Z" fill="#DBDBDB"/>
<path d="M33.0917 26.3032C32.6645 26.0345 32.0948 26.1472 31.8102 26.5633C31.5342 26.9793 31.65 27.5341 32.0772 27.8114C32.5043 28.0802 33.0738 27.9676 33.3586 27.5515C33.6433 27.1353 33.5188 26.572 33.0917 26.3032Z" fill="#DBDBDB"/>
<path d="M12.4612 32.906C12.123 32.6892 11.6781 32.7847 11.4556 33.1054C11.2331 33.4348 11.331 33.8681 11.6603 34.0848C11.9984 34.3014 12.4434 34.2062 12.6659 33.8854C12.8973 33.5647 12.7994 33.1227 12.4612 32.906Z" fill="#DBDBDB"/>
<path d="M27.6972 32.8395C27.3411 33.0129 27.1987 33.4464 27.3768 33.7931C27.5547 34.1398 27.9997 34.2785 28.3556 34.1051C28.7117 33.9318 28.854 33.5069 28.676 33.1602C28.4981 32.8048 28.0619 32.6575 27.6972 32.8395C27.706 32.8395 27.6972 32.8395 27.6972 32.8395Z" fill="#DBDBDB"/>
<path d="M19.2612 25.6962C19.9374 24.682 19.6526 23.3298 18.6114 22.6623C17.5702 22.0036 16.182 22.2811 15.4967 23.2952C14.8115 24.3094 15.1052 25.6615 16.1464 26.3289C16.5112 26.563 16.9385 26.6843 17.3745 26.6843C18.1399 26.693 18.8428 26.3203 19.2612 25.6962Z" fill="#DBDBDB"/>
<path d="M14.7581 29.0515C14.242 28.7221 13.5389 28.8607 13.2008 29.3635C12.8626 29.8663 13.005 30.551 13.5211 30.8804C14.0373 31.2098 14.7403 31.0711 15.0785 30.5684C15.4256 30.0656 15.2832 29.3809 14.7581 29.0515Z" fill="#DBDBDB"/>
<path d="M20.0072 33.2374C19.4999 33.2114 19.0637 33.5928 19.0282 34.0869C18.9927 34.581 19.3931 35.0056 19.9004 35.0403C20.4076 35.0664 20.8436 34.6936 20.8792 34.1995C20.9059 33.6968 20.5144 33.2721 20.0072 33.2374Z" fill="#DBDBDB"/>
<path d="M20.0145 27.5763C19.2849 27.5329 18.6618 28.0791 18.6263 28.7899C18.5817 29.5005 19.1424 30.1074 19.8722 30.1421C20.6019 30.1767 21.2248 29.6394 21.2605 28.9285C21.3049 28.2264 20.7442 27.611 20.0145 27.5763Z" fill="#DBDBDB"/>
<path d="M25.4164 28.9641C24.8647 29.2414 24.6421 29.9002 24.927 30.4376C25.2118 30.9751 25.8881 31.1917 26.4399 30.9143C26.9915 30.6457 27.2141 29.9868 26.9381 29.4495C26.6535 28.912 25.977 28.6866 25.4164 28.9641Z" fill="#DBDBDB"/>
</svg>
