<svg width="25" height="24" viewBox="0 0 25 24" fill="none" xmlns="http://www.w3.org/2000/svg">
<circle cx="12.5" cy="12" r="12" fill="#27A17B"/>
<circle cx="12.5" cy="12" r="8.75" fill="#27A17B"/>
<path fill-rule="evenodd" clip-rule="evenodd" d="M13.5331 12.2106C13.4774 12.2148 13.1895 12.232 12.5474 12.232C12.0367 12.232 11.6741 12.2167 11.5468 12.2106C9.57311 12.1238 8.0999 11.7802 8.0999 11.3689C8.0999 10.9575 9.57311 10.6144 11.5468 10.5262V11.8684C11.6759 11.8777 12.0455 11.8995 12.5562 11.8995C13.1691 11.8995 13.476 11.874 13.5312 11.8689V10.5271C15.5008 10.6148 16.9708 10.9584 16.9708 11.3689C16.9708 11.7793 15.5013 12.1229 13.5312 12.2102L13.5331 12.2106ZM13.5331 10.3883V9.18712H16.2817V7.35547H8.7982V9.18712H11.5464V10.3878C9.31264 10.4904 7.63281 10.9329 7.63281 11.4631C7.63281 11.9933 9.31264 12.4353 11.5464 12.5384V16.3874H13.5326V12.537C15.7613 12.4344 17.4383 11.9924 17.4383 11.4626C17.4383 10.9329 15.7627 10.4909 13.5326 10.3878L13.5331 10.3883Z" fill="white"/>
</svg>
