<svg width="24" height="24" viewBox="0 0 24 24" fill="none" xmlns="http://www.w3.org/2000/svg">
<path d="M12.0255 23.9695C18.6329 23.9695 23.9893 18.6131 23.9893 12.0057C23.9893 5.3983 18.6329 0.0419521 12.0255 0.0419521C5.41809 0.0419521 0.0617371 5.3983 0.0617371 12.0057C0.0617371 18.6131 5.41809 23.9695 12.0255 23.9695Z" fill="url(#paint0_radial_2232_55810)"/>
<path d="M8.25484 4.133C8.59135 3.90964 9.03161 3.76854 9.60102 3.76854C10.1675 3.76854 10.6079 3.89912 10.9473 4.10589C11.2863 4.31233 11.5126 4.58739 11.6628 4.85863C11.8124 5.12873 11.8875 5.39661 11.9255 5.59546C11.9445 5.69535 11.9545 5.77915 11.9598 5.8389C11.9624 5.86881 11.9638 5.8928 11.9645 5.90992C11.965 5.91847 11.9652 5.92532 11.9653 5.93034C11.9653 5.93126 11.9654 5.93212 11.9654 5.93292C11.9654 5.93429 11.9654 5.93548 11.9655 5.93648L11.9656 7.7639H13.4093C13.6643 7.7639 13.8697 7.55703 13.8697 7.30362V5.91766C13.4191 5.81706 13.0824 5.41494 13.0824 4.93419C13.0824 4.37766 13.5337 3.9265 14.0903 3.9265C14.647 3.9265 15.0982 4.37766 15.0982 4.93419C15.0982 5.41688 14.7588 5.82031 14.3055 5.91886V7.30362C14.3055 7.79653 13.9062 8.19967 13.4093 8.19967H11.5297V8.19133C11.1849 8.16602 10.8272 8.05197 10.5423 7.78268C10.2116 7.47002 10.0124 6.97965 10.0124 6.27687C10.0124 6.15654 10.1099 6.05898 10.2303 6.05898C10.3507 6.05898 10.4483 6.15654 10.4483 6.27687C10.4483 6.8977 10.6222 7.25852 10.8418 7.46604C11.0275 7.64165 11.2695 7.72989 11.5297 7.75411V5.94377L11.5296 5.94223C11.5296 5.94083 11.5296 5.93886 11.5294 5.93632C11.5294 5.93448 11.5293 5.93235 11.5292 5.92994C11.5286 5.91841 11.5276 5.90041 11.5255 5.87685C11.5214 5.82966 11.5133 5.76068 11.4973 5.67725C11.4653 5.50946 11.4026 5.28847 11.2815 5.0697C11.1609 4.85208 10.9836 4.63824 10.7206 4.47803C10.4581 4.31816 10.0983 4.2043 9.60102 4.2043C9.10673 4.2043 8.75253 4.32568 8.49586 4.49604C8.23795 4.66719 8.06502 4.89677 7.9485 5.13276C7.83154 5.36971 7.77354 5.60936 7.74511 5.79169C7.73097 5.88233 7.72438 5.95739 7.72133 6.00893C7.71981 6.03467 7.71915 6.0544 7.71886 6.06718C7.71872 6.07357 7.71872 6.07821 7.71872 6.08095V6.08625C7.71872 8.34323 9.45404 9.8801 11.1865 9.8801H16.1171C16.3297 9.8801 16.5026 9.71435 16.5141 9.50466C16.0503 9.41424 15.7003 9.00581 15.7003 8.51558C15.7003 7.95909 16.1515 7.50795 16.7081 7.50795C17.2648 7.50795 17.7161 7.95909 17.7161 8.51558C17.7161 8.98862 17.3901 9.38546 16.9505 9.494C16.9444 9.94942 16.5741 10.3159 16.1171 10.3159H11.1865C9.21593 10.3159 7.3076 8.59599 7.28309 6.13418C6.23971 6.20278 5.41416 7.0711 5.41416 8.13158C5.41416 9.23682 6.31088 10.1334 7.41636 10.1334C7.48474 10.1334 7.54978 10.1308 7.61293 10.1238C7.73257 10.1105 7.84031 10.1967 7.85358 10.3163C7.86685 10.4359 7.78071 10.5436 7.66108 10.5569C7.57711 10.5662 7.49511 10.5691 7.41636 10.5691C6.92799 10.5691 6.47309 10.4254 6.09166 10.1781C5.10685 10.2128 4.32181 11.0193 4.32181 12.0126C4.32181 13.0001 5.09782 13.8031 6.07463 13.8463C6.46008 13.5911 6.92225 13.4424 7.41905 13.4424C7.49779 13.4424 7.57987 13.4453 7.66376 13.4547C7.7834 13.4679 7.86961 13.5757 7.85634 13.6952C7.843 13.8149 7.73525 13.901 7.61569 13.8877C7.55253 13.8807 7.48742 13.8782 7.41905 13.8782C6.3136 13.8782 5.41689 14.7747 5.41689 15.88C5.41689 16.9404 6.24244 17.8087 7.28585 17.8773C7.31028 15.4155 9.21868 13.6957 11.1891 13.6957H16.1171C16.5747 13.6957 16.9455 14.0632 16.9505 14.5196C17.3915 14.6272 17.7187 15.0247 17.7187 15.4986C17.7187 16.0552 17.2675 16.5064 16.7109 16.5064C16.1542 16.5064 15.703 16.0552 15.703 15.4986C15.703 15.0094 16.0517 14.6015 16.5143 14.5101C16.5045 14.2989 16.3308 14.1314 16.1171 14.1314H11.1891C9.4568 14.1314 7.7214 15.6683 7.7214 17.9253V17.9305C7.7214 17.9333 7.72148 17.9379 7.72162 17.9443C7.72184 17.9571 7.72249 17.9769 7.72401 18.0026C7.72713 18.0541 7.73366 18.1291 7.7478 18.2198C7.77622 18.4021 7.8343 18.6418 7.95125 18.8787C8.06777 19.1147 8.2407 19.3443 8.49861 19.5155C8.75529 19.6858 9.10941 19.8072 9.60377 19.8072C10.101 19.8072 10.4609 19.6933 10.7234 19.5335C10.9863 19.3732 11.1637 19.1595 11.2842 18.9418C11.4054 18.7231 11.468 18.502 11.5001 18.3343C11.516 18.2508 11.5241 18.1819 11.5283 18.1347C11.5303 18.1111 11.5314 18.0931 11.5319 18.0816C11.5322 18.0758 11.5323 18.0716 11.5324 18.0693V16.2574C11.2722 16.2817 11.0303 16.3699 10.8445 16.5455C10.625 16.753 10.4509 17.1138 10.4509 17.7346C10.4509 17.8549 10.3534 17.9525 10.2331 17.9525C10.1127 17.9525 10.0151 17.8549 10.0151 17.7346C10.0151 17.0318 10.2143 16.5415 10.5451 16.2289C10.8299 15.9596 11.1877 15.8455 11.5324 15.8202V15.8146H13.412C13.9088 15.8146 14.3082 16.2177 14.3082 16.7106V18.0926C14.7615 18.1912 15.1009 18.5946 15.1009 19.0773C15.1009 19.6338 14.6497 20.085 14.0931 20.085C13.5364 20.085 13.0851 19.6338 13.0851 19.0773C13.0851 18.5965 13.4219 18.1944 13.8724 18.0938V16.7106C13.8724 16.4573 13.667 16.2503 13.412 16.2503H11.9682V18.0717L11.9682 18.0751C11.9682 18.0759 11.9682 18.077 11.9681 18.0782C11.9681 18.0791 11.9681 18.0801 11.9681 18.0811C11.968 18.0862 11.9677 18.093 11.9673 18.1016C11.9665 18.1187 11.9651 18.1427 11.9624 18.1726C11.9572 18.2324 11.9473 18.3161 11.9281 18.4161C11.8902 18.6149 11.8151 18.8828 11.6655 19.1529C11.5154 19.4241 11.289 19.6991 10.9501 19.9056C10.6106 20.1124 10.1703 20.243 9.60377 20.243C9.03437 20.243 8.5941 20.1019 8.25752 19.8785C7.92218 19.6559 7.70306 19.3605 7.56044 19.0716C7.42456 18.7964 7.35633 18.5237 7.32181 18.3156C6.02067 18.2644 4.98104 17.1933 4.98104 15.88C4.98104 15.2402 5.22777 14.6578 5.63127 14.2229C4.62955 13.9859 3.88596 13.0873 3.88596 12.0126C3.88596 10.9349 4.6336 10.0344 5.63947 9.80034C5.2295 9.36421 4.97831 8.77719 4.97831 8.13158C4.97831 6.81825 6.01795 5.74705 7.31906 5.69596C7.35357 5.48784 7.4218 5.21511 7.55768 4.93991C7.7003 4.65095 7.91949 4.35556 8.25484 4.133Z" fill="#111820"/>
<path d="M8.71298 10.5745C8.71298 10.4541 8.61538 10.3566 8.49502 10.3566C8.37466 10.3566 8.27713 10.4541 8.27713 10.5745C8.27713 10.9369 8.43832 11.3255 8.69289 11.6225C8.78556 11.7306 8.89352 11.8298 9.01432 11.9124C8.86684 12.0023 8.73661 12.1172 8.62749 12.2445C8.37292 12.5415 8.21173 12.93 8.21173 13.2925C8.21173 13.4129 8.30933 13.5104 8.42962 13.5104C8.54998 13.5104 8.64757 13.4129 8.64757 13.2925C8.64757 13.0504 8.76011 12.7594 8.95849 12.5281C9.15542 12.2983 9.41528 12.1514 9.69364 12.1514C9.70017 12.1514 9.70662 12.1511 9.713 12.1505C9.7283 12.1511 9.7436 12.1514 9.75897 12.1514V12.1541H13.0982C13.1937 12.6114 13.5991 12.9548 14.0848 12.9548C14.5705 12.9548 14.976 12.6114 15.0715 12.1541H18.1704C18.2659 12.6114 18.6714 12.9548 19.157 12.9548C19.7137 12.9548 20.165 12.5036 20.165 11.9471C20.165 11.3906 19.7137 10.9394 19.157 10.9394C18.6791 10.9394 18.2789 11.272 18.1752 11.7184H15.0667C14.963 11.272 14.5627 10.9394 14.0848 10.9394C13.6069 10.9394 13.2066 11.272 13.103 11.7184H9.79356C9.78232 11.7165 9.77079 11.7156 9.75904 11.7156C9.48069 11.7156 9.22082 11.5687 9.02382 11.3389C8.82551 11.1076 8.71298 10.8166 8.71298 10.5745Z" fill="#111820"/>
<defs>
<radialGradient id="paint0_radial_2232_55810" cx="0" cy="0" r="1" gradientUnits="userSpaceOnUse" gradientTransform="translate(12.0255 12.0057) rotate(-90.0001) scale(12.5582 14.4455)">
<stop offset="0.307292" stop-color="#62FDA9"/>
<stop offset="1" stop-color="#00C8B0"/>
</radialGradient>
</defs>
</svg>
