<svg width="25" height="24" viewBox="0 0 25 24" fill="none" xmlns="http://www.w3.org/2000/svg">
<path d="M0.638673 11.9989C0.638673 12.1147 0.662438 12.2306 0.706996 12.3405L3.7756 19.7521C3.86472 19.9689 4.03998 20.1442 4.25683 20.2333L11.6684 23.3019C11.8853 23.391 12.1318 23.391 12.3487 23.3019L19.7632 20.2333C19.9801 20.1442 20.1553 19.9689 20.2445 19.7521L23.316 12.3405C23.3606 12.2306 23.3843 12.1147 23.3843 11.9989C23.3843 11.883 23.3606 11.7672 23.316 11.6573L20.2445 4.24569C20.1553 4.02884 19.9801 3.85357 19.7632 3.76446L12.3516 0.692883C12.1348 0.603766 11.8882 0.603766 11.6714 0.692883L4.25683 3.76446C4.03998 3.85357 3.86472 4.02884 3.7756 4.24569L0.704026 11.6573C0.659467 11.7672 0.638673 11.883 0.638673 11.9989Z" fill="#5900FF"/>
<path d="M4.0281 14.4199C3.99245 13.1782 3.55578 10.8017 3.71025 10.267C3.86472 9.73234 4.7143 7.95891 4.7143 7.95891C4.7143 7.95891 3.0181 2.74258 4.67865 0.790914C5.73321 -0.444844 7.68487 3.05449 8.78993 4.37342C8.78993 4.37342 10.6762 4.00804 12.4081 4.04369C14.1399 4.07934 16.0738 4.96754 16.0738 4.96754C16.0738 4.96754 18.976 0.61565 20.2058 1.40879C21.8307 2.45443 21.1089 7.10635 20.1494 8.94811C20.1494 10.2938 20.6395 11.8741 19.484 13.8644C18.3284 15.8517 16.3797 18.4302 16.3797 18.4302C16.3797 18.4302 8.27899 18.956 8.12155 18.8847C7.96411 18.8134 4.0281 14.4199 4.0281 14.4199Z" fill="#FFA100"/>
<path d="M19.7959 9.13822C20.491 11.6484 18.8275 13.3 16.6798 13.3C14.535 13.3 14.5053 9.95216 11.9566 9.94325C11.9536 9.94325 11.9536 9.94325 11.9506 9.94325C11.9476 9.94325 11.9476 9.94325 11.9447 9.94325C9.39592 9.95513 9.36919 13.3 7.22146 13.3C5.07374 13.3 3.41022 11.6484 4.10533 9.13822C4.10533 9.13822 3.28545 10.7988 3.33001 13.3C3.3716 15.7982 4.61924 20.3937 4.61924 20.3937L11.9447 22.9306V22.9336L11.9506 22.9306L11.9566 22.9336V22.9306L19.7632 20.2333C19.7632 20.2333 20.5296 15.8012 20.5742 13.3C20.6158 10.8017 19.7959 9.13822 19.7959 9.13822Z" fill="white"/>
<path d="M4.25683 20.566C4.11127 20.566 3.97462 20.468 3.93601 20.3195C1.74075 12.1415 3.76371 8.94514 4.97571 7.03506L5.047 6.92218C5.14503 6.76771 5.35 6.72018 5.50744 6.81821C5.66191 6.91624 5.70944 7.12121 5.61141 7.27865L5.54012 7.39153C4.93709 8.34211 4.18851 9.5244 3.83204 11.4761C3.63598 12.5455 3.58251 13.7486 3.67163 15.0497C3.77857 16.5736 4.08454 18.2876 4.58359 20.1472C4.63112 20.3254 4.52715 20.5066 4.34892 20.5541C4.31327 20.5631 4.28653 20.566 4.25683 20.566Z" fill="#241F20"/>
<path d="M6.44911 10.4215C6.44614 10.3502 6.44317 10.2789 6.44317 10.2047C6.44317 9.29567 6.71944 8.54411 7.59873 8.42826C7.52149 8.41935 7.44128 8.41341 7.36108 8.41341C6.37188 8.41341 5.56982 9.21546 5.56982 10.2047C5.56982 10.472 5.62923 10.7275 5.73618 10.9562C5.90847 10.7305 6.15503 10.5433 6.44911 10.4215Z" fill="#A5660C"/>
<path d="M15.9401 10.4215C15.9371 10.3502 15.9342 10.2789 15.9342 10.2047C15.9342 9.29567 16.2104 8.54411 17.0897 8.42826C17.0125 8.41935 16.9323 8.41341 16.8521 8.41341C15.8629 8.41341 15.0608 9.21546 15.0608 10.2047C15.0608 10.472 15.1202 10.7275 15.2272 10.9562C15.3965 10.7305 15.646 10.5433 15.9401 10.4215Z" fill="#A5660C"/>
<path d="M7.2987 11.9989C8.12064 11.9989 8.78695 11.6105 8.78695 11.1315C8.78695 10.6524 8.12064 10.2641 7.2987 10.2641C6.47676 10.2641 5.81044 10.6524 5.81044 11.1315C5.81044 11.6105 6.47676 11.9989 7.2987 11.9989Z" fill="white"/>
<path d="M16.76 11.9989C17.5819 11.9989 18.2482 11.6105 18.2482 11.1315C18.2482 10.6524 17.5819 10.2641 16.76 10.2641C15.938 10.2641 15.2717 10.6524 15.2717 11.1315C15.2717 11.6105 15.938 11.9989 16.76 11.9989Z" fill="white"/>
<path d="M13.629 14.4793C14.4548 15.3051 15.1202 18.953 12.2714 18.953C9.42266 18.953 9.79992 15.3051 10.6257 14.4793L12.1853 14.0694L13.629 14.4793Z" fill="#FF5537"/>
<path d="M7.36108 12.2603C6.22929 12.2603 5.30841 11.3394 5.30841 10.2076C5.30841 9.07585 6.22929 8.15497 7.36108 8.15497C8.49287 8.15497 9.41374 9.07585 9.41374 10.2076C9.41374 11.3394 8.49287 12.2603 7.36108 12.2603ZM7.36108 8.67779C6.51744 8.67779 5.83123 9.36399 5.83123 10.2076C5.83123 11.0513 6.51744 11.7375 7.36108 11.7375C8.20472 11.7375 8.89092 11.0513 8.89092 10.2076C8.89092 9.36399 8.20472 8.67779 7.36108 8.67779Z" fill="#241F20"/>
<path d="M8.9176 11.3038C8.77204 11.3038 8.65619 11.1879 8.65619 11.0424C8.65619 10.9443 8.53737 10.8225 8.34725 10.7275C8.09178 10.5997 7.73531 10.5285 7.36399 10.5285C6.99267 10.5285 6.6362 10.6027 6.38073 10.7275C6.19061 10.8225 6.07179 10.9443 6.07179 11.0424C6.07179 11.1879 5.95594 11.3038 5.81038 11.3038C5.66482 11.3038 5.54897 11.1879 5.54897 11.0424C5.54897 10.4512 6.33023 10.0056 7.36399 10.0056C8.39775 10.0056 9.17901 10.4512 9.17901 11.0424C9.17901 11.1879 9.06316 11.3038 8.9176 11.3038Z" fill="#241F20"/>
<path d="M7.36102 10.2076C7.0907 10.2076 6.83523 10.2463 6.60352 10.3116C6.63323 10.98 6.95999 11.5087 7.36102 11.5087C7.76204 11.5087 8.08881 10.983 8.11851 10.3116C7.88681 10.2433 7.63134 10.2076 7.36102 10.2076Z" fill="#241F20"/>
<path d="M16.7599 12.2603C15.6281 12.2603 14.7072 11.3394 14.7072 10.2076C14.7072 9.07585 15.6281 8.15497 16.7599 8.15497C17.8917 8.15497 18.8126 9.07585 18.8126 10.2076C18.8126 11.3394 17.8917 12.2603 16.7599 12.2603ZM16.7599 8.67779C15.9163 8.67779 15.2301 9.36399 15.2301 10.2076C15.2301 11.0513 15.9163 11.7375 16.7599 11.7375C17.6036 11.7375 18.2898 11.0513 18.2898 10.2076C18.2898 9.36399 17.6036 8.67779 16.7599 8.67779Z" fill="#241F20"/>
<path d="M18.3135 11.3038C18.168 11.3038 18.0521 11.1879 18.0521 11.0424C18.0521 10.9443 17.9333 10.8225 17.7432 10.7275C17.4877 10.5997 17.1313 10.5285 16.7599 10.5285C16.3886 10.5285 16.0321 10.6027 15.7767 10.7275C15.5866 10.8225 15.4677 10.9443 15.4677 11.0424C15.4677 11.1879 15.3519 11.3038 15.2063 11.3038C15.0608 11.3038 14.9449 11.1879 14.9449 11.0424C14.9449 10.4512 15.7262 10.0056 16.7599 10.0056C17.7937 10.0056 18.575 10.4512 18.575 11.0424C18.575 11.1879 18.4591 11.3038 18.3135 11.3038Z" fill="#241F20"/>
<path d="M16.7599 10.2076C16.4896 10.2076 16.2341 10.2463 16.0024 10.3116C16.0351 10.983 16.3619 11.5087 16.7599 11.5087C17.161 11.5087 17.4877 10.983 17.5174 10.3116C17.2857 10.2433 17.0303 10.2076 16.7599 10.2076Z" fill="#241F20"/>
<path d="M12.0605 14.1882L10.7802 14.4199C9.65139 15.2457 8.72754 19.0659 12.6309 19.0659C12.815 19.0659 12.9101 18.653 13.0765 18.6381C9.74942 18.3232 10.9852 14.9724 12.0605 14.1882Z" fill="#DC5537"/>
<path d="M7.56011 4.97645C7.00461 3.4377 5.88768 2.3267 5.32624 2.99508C4.91927 3.47928 4.87768 5.14577 5.32921 6.13795C5.45992 6.42609 5.83421 6.50036 6.07185 6.29242L7.56011 4.97645Z" fill="#A5660C"/>
<path d="M12.0605 13.3C12.8907 13.3 13.5636 12.7175 13.5636 11.9989C13.5636 11.2803 12.8907 10.6978 12.0605 10.6978C11.2304 10.6978 10.5574 11.2803 10.5574 11.9989C10.5574 12.7175 11.2304 13.3 12.0605 13.3Z" fill="#9E3219"/>
<path d="M17.4402 6.03694C17.9957 4.49819 19.1127 3.38719 19.6741 4.05557C20.0811 4.53978 20.1227 6.20627 19.6711 7.19844C19.5404 7.48658 19.1661 7.56085 18.9285 7.35291L17.4402 6.03694Z" fill="#A5660C"/>
<path d="M17.6125 6.52412C17.5234 6.52412 17.4343 6.48847 17.3689 6.42015C16.1748 5.15171 14.1964 4.40016 11.9417 4.3556C9.79101 4.31401 7.79775 4.93783 6.74023 5.9805C6.60952 6.10824 6.39861 6.10824 6.26791 5.97753C6.14017 5.84683 6.14017 5.63592 6.27088 5.50521C7.45019 4.34075 9.62762 3.64563 11.9506 3.69019C14.3835 3.73475 16.5342 4.56354 17.8502 5.96268C17.9749 6.09636 17.969 6.30727 17.8353 6.43203C17.7759 6.49441 17.6957 6.52412 17.6125 6.52412Z" fill="#241F20"/>
<path d="M19.7632 20.566C19.7276 20.566 19.6949 20.5601 19.6593 20.5482C19.484 20.4918 19.3889 20.3016 19.4454 20.1293C19.6533 19.4936 20.0959 17.0578 20.1732 14.3189C20.286 10.1482 19.4988 8.19952 18.8215 7.29944C18.7116 7.15388 18.7384 6.94297 18.8869 6.83306C19.0325 6.72315 19.2434 6.74988 19.3533 6.89841C19.9444 7.67967 20.3662 8.80255 20.6069 10.2433C20.8029 11.4167 20.8831 12.795 20.8415 14.3367C20.7643 17.1796 20.3098 19.6481 20.0811 20.3373C20.0335 20.4769 19.9028 20.566 19.7632 20.566Z" fill="#241F20"/>
<path d="M10.596 14.7318C9.9187 14.7318 9.2117 14.3932 8.56709 13.7486C8.44529 13.6268 8.44529 13.4307 8.56709 13.3089C8.68888 13.1871 8.88494 13.1871 9.00673 13.3089C9.71076 14.0159 10.4801 14.2684 11.1188 14.007C11.5139 13.8436 11.7515 13.5198 11.7515 13.3C11.7515 13.1277 11.8912 12.9911 12.0605 12.9911C12.2328 12.9911 12.3694 13.1307 12.3694 13.3C12.3694 13.808 11.9506 14.3338 11.3535 14.5803C11.1099 14.6813 10.8574 14.7318 10.596 14.7318Z" fill="#241F20"/>
<path d="M13.5249 14.7318C13.2665 14.7318 13.011 14.6813 12.7674 14.5803C12.1703 14.3338 11.7515 13.805 11.7515 13.3C11.7515 13.1277 11.8911 12.9911 12.0604 12.9911C12.2327 12.9911 12.3694 13.1307 12.3694 13.3C12.3694 13.5198 12.607 13.8436 13.0021 14.007C13.6378 14.2714 14.4072 14.0159 15.1142 13.3089C15.236 13.1871 15.432 13.1871 15.5538 13.3089C15.6756 13.4307 15.6756 13.6268 15.5538 13.7486C14.9092 14.3932 14.1992 14.7318 13.5249 14.7318Z" fill="#241F20"/>
<path d="M12.0605 13.6089C11.0594 13.6089 10.2484 12.8871 10.2484 11.9989C10.2484 11.1107 11.0624 10.3888 12.0605 10.3888C13.0586 10.3888 13.8725 11.1107 13.8725 11.9989C13.8725 12.8871 13.0616 13.6089 12.0605 13.6089ZM12.0605 11.0067C11.404 11.0067 10.8663 11.4523 10.8663 11.9989C10.8663 12.5455 11.401 12.9911 12.0605 12.9911C12.717 12.9911 13.2547 12.5455 13.2547 11.9989C13.2547 11.4523 12.717 11.0067 12.0605 11.0067Z" fill="#241F20"/>
<path d="M11.401 13.3059C11.1337 13.3059 10.6702 13.1842 10.3227 12.4445C10.2484 12.29 10.3167 12.1058 10.4712 12.0316C10.6257 11.9573 10.8099 12.0256 10.8841 12.1801C11.0445 12.5187 11.2525 12.7118 11.4337 12.6851C11.5406 12.6702 11.6297 12.5782 11.6476 12.4682C11.6713 12.3167 11.5555 12.1652 11.3267 12.0553C11.1723 11.9811 11.1099 11.7939 11.1842 11.6395C11.2584 11.485 11.4456 11.4226 11.6 11.4969C12.0813 11.7345 12.3278 12.1326 12.2595 12.5663C12.2001 12.9465 11.8971 13.2465 11.5228 13.3C11.4872 13.303 11.4456 13.3059 11.401 13.3059Z" fill="#241F20"/>
<path d="M12.717 13.3059C12.6724 13.3059 12.6308 13.303 12.5982 13.297C12.2239 13.2436 11.9209 12.9406 11.8614 12.5633C11.7931 12.1326 12.0397 11.7315 12.5209 11.4939C12.6754 11.4196 12.8596 11.482 12.9368 11.6365C13.0111 11.7909 12.9487 11.9751 12.7942 12.0524C12.5655 12.1652 12.4496 12.3138 12.4734 12.4653C12.4912 12.5752 12.5803 12.6673 12.6873 12.6821C12.8655 12.7089 13.0764 12.5158 13.2368 12.1771C13.3111 12.0227 13.4953 11.9573 13.6497 12.0286C13.8042 12.1029 13.8696 12.287 13.7983 12.4415C13.4477 13.1841 12.9843 13.3059 12.717 13.3059Z" fill="#241F20"/>
<path d="M12.206 19.2025C11.1069 19.2025 10.29 18.6857 9.90087 17.747C9.66323 17.1766 9.59193 16.4637 9.69887 15.7418C9.7969 15.0794 10.0345 14.5031 10.3375 14.2001C10.4593 14.0783 10.6554 14.0783 10.7772 14.2001C10.899 14.3219 10.899 14.5179 10.7772 14.6397C10.5722 14.8447 10.391 15.3141 10.3138 15.8339C10.2217 16.4458 10.2811 17.0429 10.4742 17.5123C10.7683 18.2252 11.3505 18.5847 12.206 18.5847C12.9992 18.5847 13.5339 18.2698 13.7923 17.6489C13.9824 17.1885 14.0181 16.5736 13.8933 15.923C13.7715 15.2933 13.5309 14.8269 13.3467 14.6427C13.2249 14.5209 13.2249 14.3249 13.3467 14.2031C13.4685 14.0813 13.6646 14.0813 13.7864 14.2031C14.3864 14.8031 14.8944 16.6152 14.3686 17.8866C14.1161 18.4866 13.5369 19.2025 12.206 19.2025Z" fill="#241F20"/>
<path d="M12.206 17.4083C12.0278 17.4083 11.8793 17.2687 11.8733 17.0875L11.7278 13.3119C11.7218 13.1277 11.8644 12.9732 12.0486 12.9673C12.2328 12.9584 12.3872 13.1039 12.3932 13.2881L12.5387 17.0637C12.5447 17.2479 12.4021 17.4024 12.2179 17.4083C12.2149 17.4083 12.209 17.4083 12.206 17.4083Z" fill="#241F20"/>
<path d="M7.56011 5.30916C7.42346 5.30916 7.29573 5.22598 7.2482 5.08933C7.0462 4.53384 6.71944 3.97834 6.34811 3.56543C5.96194 3.13767 5.71538 3.06637 5.66191 3.07231C5.65597 3.07826 5.64706 3.09311 5.63815 3.11687C5.56982 3.28917 5.37674 3.37234 5.20741 3.30402C5.03512 3.2357 4.95195 3.04261 5.02027 2.87329C5.13909 2.57326 5.37674 2.40394 5.67676 2.40691C5.93223 2.40988 6.35406 2.54949 6.90955 3.19411C7.31355 3.66346 7.65814 4.25757 7.87796 4.86357C7.94034 5.03586 7.85122 5.22598 7.67893 5.28836C7.63437 5.30322 7.59873 5.30916 7.56011 5.30916Z" fill="#241F20"/>
<path d="M17.4402 6.19439C17.4016 6.19439 17.366 6.18845 17.3273 6.1736C17.1551 6.11121 17.0659 5.9211 17.1283 5.7488C17.3333 5.18143 17.669 4.59919 18.0492 4.15064C18.373 3.7704 18.8661 3.32482 19.3889 3.37532C19.7305 3.40799 20.1672 3.65455 20.3247 4.64375C20.3544 4.82496 20.2296 4.99725 20.0484 5.02398C19.8672 5.05369 19.6949 4.92893 19.6682 4.74772C19.5998 4.32293 19.4691 4.05261 19.3265 4.03775C19.1958 4.02587 18.9136 4.15955 18.5572 4.58137C18.2304 4.96754 17.9304 5.48739 17.7551 5.97457C17.7046 6.11121 17.5769 6.19439 17.4402 6.19439Z" fill="#241F20"/>
<path d="M8.66516 7.61729C9.27546 7.61729 9.77021 7.22495 9.77021 6.74097C9.77021 6.257 9.27546 5.86465 8.66516 5.86465C8.05486 5.86465 7.56011 6.257 7.56011 6.74097C7.56011 7.22495 8.05486 7.61729 8.66516 7.61729Z" fill="white"/>
<path d="M15.3341 7.61729C15.9445 7.61729 16.4392 7.22495 16.4392 6.74097C16.4392 6.257 15.9445 5.86465 15.3341 5.86465C14.7238 5.86465 14.2291 6.257 14.2291 6.74097C14.2291 7.22495 14.7238 7.61729 15.3341 7.61729Z" fill="white"/>
<path d="M17.7254 3.55355C17.6452 3.55355 17.562 3.53869 17.4848 3.50602L12.111 1.28106C12.0486 1.25729 11.9744 1.25729 11.912 1.28106L7.58387 3.07231C7.26008 3.20599 6.89173 3.05152 6.75805 2.7307C6.62438 2.40691 6.77885 2.03856 7.09967 1.90488L11.4278 0.113624C11.7991 -0.0378748 12.2209 -0.0378748 12.5893 0.113624L17.966 2.33858C18.2898 2.47226 18.4413 2.84061 18.3076 3.1644C18.2096 3.40502 17.972 3.55355 17.7254 3.55355Z" fill="#241F20"/>
<path d="M12.0041 24C11.8051 24 11.609 23.9614 11.4248 23.8871L4.01324 20.8185C3.64192 20.667 3.34189 20.364 3.1904 19.9927L0.118823 12.5811C0.118823 12.5811 0.118823 12.5781 0.115852 12.5781C0.0386175 12.391 0 12.1949 0 11.9989C0 11.8028 0.0386175 11.6068 0.115852 11.4196C0.115852 11.4167 0.115852 11.4167 0.118823 11.4137L3.1904 4.0021C3.34189 3.63078 3.64192 3.33075 4.01621 3.17925C4.34001 3.04558 4.70836 3.20005 4.84203 3.52384C4.97571 3.84763 4.82124 4.21598 4.49745 4.34966C4.43804 4.37342 4.38457 4.42689 4.3608 4.48631L1.28923 11.8949C1.27438 11.9306 1.26843 11.9662 1.26843 11.9989C1.26843 12.0316 1.27438 12.0672 1.28923 12.1029L4.35783 19.5115C4.38457 19.5738 4.43507 19.6243 4.49448 19.6511L11.909 22.7197C11.9714 22.7434 12.0457 22.7434 12.1081 22.7197L19.5226 19.6481C19.585 19.6214 19.6355 19.5709 19.6622 19.5115L22.7308 12.1029C22.7457 12.0672 22.7516 12.0316 22.7516 11.9989C22.7516 11.9662 22.7457 11.9306 22.7308 11.8949L20.2474 5.90624C20.1137 5.58245 20.2682 5.2141 20.589 5.08042C20.9128 4.94674 21.2812 5.10121 21.4149 5.42204L23.8983 11.4137C23.8983 11.4167 23.8983 11.4167 23.9012 11.4196C23.9785 11.6068 24.0171 11.8028 24.0171 11.9989C24.0171 12.1949 23.9785 12.391 23.9012 12.5781C23.9012 12.5811 23.9012 12.5811 23.8983 12.5841L20.8267 19.9927C20.6752 20.364 20.3752 20.664 20.0009 20.8155L12.5863 23.8871C12.4021 23.9614 12.2031 24 12.0041 24Z" fill="#241F20"/>
<path d="M18.5396 3.29368C19.0791 2.75425 19.3856 2.18623 19.2244 2.02498C19.0631 1.86373 18.4951 2.17031 17.9557 2.70974C17.4163 3.24917 17.1097 3.81719 17.2709 3.97844C17.4322 4.13969 18.0002 3.83311 18.5396 3.29368Z" fill="#FFA100"/>
<path d="M20.9872 5.88596C21.0347 5.12453 20.8886 4.49578 20.661 4.4816C20.4334 4.46741 20.2104 5.07318 20.163 5.83461C20.1155 6.59604 20.2616 7.2248 20.4892 7.23898C20.7168 7.25316 20.9398 6.64739 20.9872 5.88596Z" fill="#FFA100"/>
<path d="M20.1524 9.27784C20.0692 9.27784 19.986 9.24813 19.9207 9.18575C19.787 9.05802 19.784 8.84711 19.9118 8.7164C20.3157 8.29755 20.6128 7.13606 20.6871 5.68345C20.7584 4.26945 20.6009 2.88814 20.2831 2.16926C20.1672 1.90488 20.0276 1.73853 19.9236 1.73853H19.9207C19.2642 1.75635 18.1651 2.91784 17.7224 3.4169C16.959 4.27837 16.353 5.14577 16.3471 5.15468C16.2431 5.30618 16.0352 5.34183 15.8837 5.23786C15.7322 5.13389 15.6965 4.92595 15.8005 4.77445C15.8272 4.7388 16.4302 3.86843 17.2204 2.97725C18.3403 1.71476 19.2196 1.09094 19.9028 1.07015C20.185 1.06123 20.5861 1.20085 20.895 1.89597C21.2574 2.71584 21.4327 4.17737 21.3554 5.71018C21.3168 6.49144 21.1445 8.39558 20.393 9.1709C20.3276 9.24516 20.2385 9.27784 20.1524 9.27784Z" fill="#241F20"/>
<path d="M3.82313 3.91595C3.82313 4.67939 4.05186 5.29727 4.33406 5.29727C4.61627 5.29727 4.94897 4.52789 4.94897 3.76445C4.94897 3.00102 4.61924 2.53464 4.33406 2.53464C4.04889 2.53464 3.82313 3.15252 3.82313 3.91595Z" fill="#FFA100"/>
<path d="M7.85884 3.58788C8.04253 3.45274 7.82496 2.84504 7.37287 2.23054C6.92079 1.61604 6.4054 1.22744 6.22171 1.36258C6.03802 1.49772 6.25559 2.10542 6.70767 2.71992C7.15976 3.33442 7.67515 3.72302 7.85884 3.58788Z" fill="#FFA100"/>
<path d="M4.71133 8.29161C4.62518 8.29161 4.53606 8.25894 4.47071 8.19061C3.71916 7.41529 3.54686 5.51413 3.50825 4.73287C3.43101 3.20005 3.60627 1.73853 3.96571 0.918651C4.13504 0.532476 4.44695 0.0720376 4.96086 0.0868905C5.653 0.104714 6.53526 0.799828 7.65516 2.20491C8.44237 3.19114 9.04539 4.15955 9.07213 4.19816C9.17016 4.3556 9.12263 4.56057 8.96519 4.65563C8.80775 4.75366 8.60278 4.70613 8.50772 4.54869C8.50178 4.53978 7.89578 3.57137 7.13234 2.61485C5.8045 0.951327 5.15988 0.75824 4.94303 0.752299C4.83609 0.749328 4.69647 0.91568 4.57765 1.186C4.2598 1.90488 4.10236 3.2862 4.17365 4.69722C4.24792 6.14686 4.54497 7.30835 4.95194 7.7272C5.07968 7.85791 5.07671 8.06882 4.94303 8.19655C4.87768 8.26191 4.7945 8.29161 4.71133 8.29161Z" fill="#241F20"/>
</svg>
