<svg width="24" height="24" viewBox="0 0 24 24" fill="none" xmlns="http://www.w3.org/2000/svg">
<path d="M12.0255 23.9695C18.6329 23.9695 23.9893 18.6131 23.9893 12.0057C23.9893 5.3983 18.6329 0.041954 12.0255 0.041954C5.41809 0.041954 0.0617371 5.3983 0.0617371 12.0057C0.0617371 18.6131 5.41809 23.9695 12.0255 23.9695Z" fill="#00C8B0"/>
<path d="M8.25483 4.133C8.59133 3.90964 9.0316 3.76855 9.601 3.76855C10.1675 3.76855 10.6079 3.89913 10.9473 4.1059C11.2863 4.31233 11.5126 4.58739 11.6628 4.85863C11.8123 5.12873 11.8875 5.39661 11.9254 5.59546C11.9445 5.69536 11.9545 5.77915 11.9597 5.83891C11.9624 5.86882 11.9638 5.8928 11.9645 5.90992C11.965 5.91848 11.9652 5.92533 11.9653 5.93035C11.9653 5.93127 11.9654 5.93212 11.9654 5.93293C11.9654 5.9343 11.9654 5.93549 11.9655 5.93649L11.9655 7.7639H13.4093C13.6643 7.7639 13.8697 7.55704 13.8697 7.30362V5.91766C13.4191 5.81707 13.0824 5.41495 13.0824 4.93419C13.0824 4.37766 13.5337 3.9265 14.0903 3.9265C14.6469 3.9265 15.0982 4.37766 15.0982 4.93419C15.0982 5.41688 14.7588 5.82031 14.3055 5.91887V7.30362C14.3055 7.79653 13.9061 8.19967 13.4093 8.19967H11.5297V8.19133C11.1849 8.16603 10.8272 8.05197 10.5423 7.78268C10.2116 7.47003 10.0123 6.97965 10.0123 6.27687C10.0123 6.15654 10.1099 6.05899 10.2303 6.05899C10.3507 6.05899 10.4483 6.15654 10.4483 6.27687C10.4483 6.8977 10.6222 7.25852 10.8417 7.46604C11.0275 7.64165 11.2695 7.7299 11.5297 7.75411V5.94377L11.5296 5.94223C11.5296 5.94084 11.5296 5.93886 11.5294 5.93632C11.5293 5.93449 11.5293 5.93235 11.5292 5.92995C11.5286 5.91841 11.5276 5.90041 11.5255 5.87686C11.5214 5.82967 11.5132 5.76068 11.4973 5.67725C11.4652 5.50946 11.4026 5.28847 11.2814 5.0697C11.1609 4.85209 10.9836 4.63825 10.7206 4.47803C10.4581 4.31816 10.0983 4.2043 9.601 4.2043C9.10672 4.2043 8.75252 4.32569 8.49584 4.49604C8.23793 4.6672 8.065 4.89677 7.94848 5.13276C7.83153 5.36972 7.77352 5.60936 7.7451 5.7917C7.73096 5.88234 7.72436 5.9574 7.72131 6.00894C7.71979 6.03467 7.71914 6.05441 7.71885 6.06718C7.7187 6.07357 7.7187 6.07821 7.7187 6.08096V6.08625C7.7187 8.34324 9.45403 9.88011 11.1865 9.88011H16.117C16.3297 9.88011 16.5026 9.71436 16.5141 9.50466C16.0503 9.41425 15.7003 9.00581 15.7003 8.51559C15.7003 7.95909 16.1515 7.50795 16.7081 7.50795C17.2648 7.50795 17.716 7.95909 17.716 8.51559C17.716 8.98863 17.3901 9.38546 16.9505 9.49401C16.9443 9.94942 16.5741 10.3159 16.117 10.3159H11.1865C9.21591 10.3159 7.30759 8.596 7.28308 6.13419C6.2397 6.20279 5.41415 7.07111 5.41415 8.13159C5.41415 9.23682 6.31086 10.1334 7.41635 10.1334C7.48472 10.1334 7.54976 10.1308 7.61292 10.1238C7.73255 10.1105 7.8403 10.1967 7.85357 10.3163C7.86684 10.4359 7.7807 10.5436 7.66106 10.5569C7.5771 10.5662 7.49509 10.5691 7.41635 10.5691C6.92797 10.5691 6.47308 10.4254 6.09164 10.1781C5.10683 10.2128 4.32179 11.0193 4.32179 12.0126C4.32179 13.0001 5.0978 13.8031 6.07462 13.8463C6.46006 13.5911 6.92224 13.4424 7.41903 13.4424C7.49777 13.4424 7.57985 13.4453 7.66374 13.4547C7.78338 13.4679 7.86959 13.5757 7.85632 13.6952C7.84298 13.8149 7.73524 13.901 7.61567 13.8877C7.55252 13.8807 7.48741 13.8782 7.41903 13.8782C6.31359 13.8782 5.41687 14.7747 5.41687 15.88C5.41687 16.9404 6.24242 17.8087 7.28583 17.8773C7.31027 15.4156 9.21867 13.6957 11.1891 13.6957H16.117C16.5747 13.6957 16.9454 14.0632 16.9505 14.5196C17.3915 14.6272 17.7187 15.0247 17.7187 15.4986C17.7187 16.0552 17.2675 16.5064 16.7109 16.5064C16.1542 16.5064 15.7029 16.0552 15.7029 15.4986C15.7029 15.0094 16.0517 14.6015 16.5143 14.5101C16.5044 14.2989 16.3308 14.1314 16.117 14.1314H11.1891C9.45678 14.1314 7.72139 15.6683 7.72139 17.9253V17.9305C7.72139 17.9333 7.72146 17.9379 7.7216 17.9443C7.72182 17.9571 7.72247 17.9769 7.724 18.0026C7.72712 18.0541 7.73364 18.1291 7.74778 18.2199C7.7762 18.4021 7.83428 18.6418 7.95124 18.8787C8.06776 19.1147 8.24069 19.3443 8.4986 19.5155C8.75527 19.6858 9.1094 19.8072 9.60376 19.8072C10.101 19.8072 10.4609 19.6934 10.7233 19.5335C10.9863 19.3732 11.1637 19.1595 11.2842 18.9418C11.4054 18.7231 11.468 18.5021 11.5 18.3343C11.516 18.2508 11.5241 18.1819 11.5283 18.1347C11.5303 18.1111 11.5314 18.0931 11.5319 18.0816C11.5322 18.0758 11.5323 18.0716 11.5324 18.0693V16.2574C11.2722 16.2817 11.0303 16.3699 10.8445 16.5455C10.625 16.753 10.4509 17.1138 10.4509 17.7346C10.4509 17.8549 10.3533 17.9525 10.233 17.9525C10.1127 17.9525 10.0151 17.8549 10.0151 17.7346C10.0151 17.0318 10.2143 16.5415 10.545 16.2289C10.8299 15.9596 11.1877 15.8455 11.5324 15.8202V15.8146H13.412C13.9088 15.8146 14.3082 16.2177 14.3082 16.7106V18.0926C14.7615 18.1912 15.1009 18.5946 15.1009 19.0773C15.1009 19.6338 14.6497 20.085 14.0931 20.085C13.5363 20.085 13.0851 19.6338 13.0851 19.0773C13.0851 18.5965 13.4219 18.1944 13.8723 18.0938V16.7106C13.8723 16.4573 13.667 16.2503 13.412 16.2503H11.9682V18.0717L11.9682 18.0751C11.9682 18.0759 11.9682 18.077 11.9681 18.0782C11.9681 18.0791 11.9681 18.0801 11.9681 18.0811C11.9679 18.0862 11.9676 18.093 11.9673 18.1016C11.9665 18.1187 11.965 18.1427 11.9624 18.1727C11.9572 18.2324 11.9473 18.3161 11.9281 18.4161C11.8901 18.6149 11.8151 18.8828 11.6655 19.1529C11.5153 19.4241 11.289 19.6992 10.9501 19.9056C10.6106 20.1124 10.1703 20.243 9.60376 20.243C9.03435 20.243 8.59409 20.1019 8.25751 19.8785C7.92216 19.6559 7.70304 19.3605 7.56042 19.0716C7.42454 18.7964 7.35631 18.5237 7.3218 18.3156C6.02066 18.2644 4.98102 17.1933 4.98102 15.88C4.98102 15.2402 5.22775 14.6578 5.63126 14.2229C4.62953 13.9859 3.88594 13.0873 3.88594 12.0126C3.88594 10.9349 4.63359 10.0344 5.63946 9.80035C5.22948 9.36422 4.9783 8.7772 4.9783 8.13159C4.9783 6.81826 6.01793 5.74705 7.31904 5.69596C7.35356 5.48784 7.42179 5.21511 7.55767 4.93991C7.70029 4.65095 7.91948 4.35556 8.25483 4.133Z" fill="#111820"/>
<path d="M6.50124 10.2179C6.50124 10.0975 6.40365 10 6.28329 10C6.16292 10 6.0654 10.0975 6.0654 10.2179C6.0654 10.5803 6.22659 10.9689 6.48116 11.2659C6.57382 11.374 6.68179 11.4732 6.80259 11.5558C6.65511 11.6457 6.52488 11.7606 6.41576 11.8879C6.16118 12.1849 6 12.5734 6 12.9359C6 13.0563 6.0976 13.1538 6.21789 13.1538C6.33825 13.1538 6.43584 13.0563 6.43584 12.9359C6.43584 12.6938 6.54837 12.4028 6.74676 12.1715C6.94369 11.9417 7.20355 11.7948 7.48191 11.7948C7.48844 11.7948 7.49489 11.7945 7.50127 11.7939C7.51657 11.7945 7.53187 11.7948 7.54724 11.7948V11.7975H10.8865C10.9819 12.2548 11.3874 12.5982 11.8731 12.5982C12.3588 12.5982 12.7642 12.2548 12.8597 11.7975H15.9587C16.0542 12.2548 16.4597 12.5982 16.9453 12.5982C17.5019 12.5982 17.9532 12.147 17.9532 11.5905C17.9532 11.034 17.5019 10.5828 16.9453 10.5828C16.4674 10.5828 16.0672 10.9154 15.9635 11.3618H12.8549C12.7513 10.9154 12.351 10.5828 11.8731 10.5828C11.3951 10.5828 10.9949 10.9154 10.8913 11.3618H7.58183C7.57059 11.36 7.55906 11.359 7.54731 11.359C7.26895 11.359 7.00909 11.2121 6.81208 10.9823C6.61378 10.751 6.50124 10.46 6.50124 10.2179Z" fill="#111820"/>
</svg>
