<svg width="24" height="24" viewBox="0 0 24 24" fill="none" xmlns="http://www.w3.org/2000/svg">
<path d="M8.74156 12.4842C8.74156 13.1919 9.25892 13.768 9.8868 13.768C10.5247 13.768 11.032 13.1919 11.032 12.4842C11.042 11.7816 10.5297 11.2004 9.8868 11.2004C9.24888 11.2004 8.74156 11.7766 8.74156 12.4842Z" fill="currentColor"/>
<path d="M12.9759 12.4842C12.9759 13.1919 13.4932 13.768 14.1211 13.768C14.764 13.768 15.2663 13.1919 15.2663 12.4842C15.2763 11.7816 14.764 11.2004 14.1211 11.2004C13.4832 11.2004 12.9759 11.7766 12.9759 12.4842Z" fill="currentColor"/>
<path fill-rule="evenodd" clip-rule="evenodd" d="M1.5 12C1.5 6.20156 6.20156 1.5 12 1.5C17.7984 1.5 22.5 6.20156 22.5 12C22.5 17.7984 17.7984 22.5 12 22.5C6.20156 22.5 1.5 17.7984 1.5 12ZM16.416 7.95033C16.4232 7.95326 16.4291 7.95864 16.4326 7.9655C17.8717 10.0813 18.5824 12.468 18.3166 15.2157C18.3161 15.2215 18.3144 15.2271 18.3115 15.2321C18.3087 15.2372 18.3048 15.2416 18.3001 15.245C17.3369 15.9583 16.259 16.502 15.1129 16.8527C15.1048 16.8552 15.0962 16.8551 15.0881 16.8524C15.0801 16.8496 15.0731 16.8445 15.0682 16.8376C14.8258 16.5013 14.6084 16.1477 14.4178 15.7796C14.4151 15.7746 14.4136 15.769 14.4133 15.7633C14.413 15.7576 14.4139 15.7518 14.4159 15.7465C14.418 15.7412 14.4211 15.7363 14.4252 15.7323C14.4292 15.7282 14.4341 15.7251 14.4394 15.7231C14.7837 15.5936 15.1164 15.4354 15.434 15.25C15.4397 15.2465 15.4445 15.2417 15.448 15.236C15.4515 15.2302 15.4534 15.2237 15.4538 15.217C15.4541 15.2103 15.4528 15.2036 15.45 15.1976C15.4471 15.1915 15.4428 15.1862 15.4375 15.1822C15.3702 15.1322 15.3034 15.0796 15.2396 15.027C15.2338 15.0223 15.2268 15.0194 15.2194 15.0185C15.2121 15.0176 15.2046 15.0188 15.1979 15.022C13.1371 15.9738 10.8793 15.9738 8.79379 15.022C8.78709 15.019 8.77969 15.0179 8.77241 15.0189C8.76514 15.0199 8.75828 15.0229 8.75262 15.0275C8.68883 15.0801 8.622 15.1322 8.55521 15.1822C8.54986 15.1863 8.5456 15.1916 8.5428 15.1977C8.54 15.2038 8.53874 15.2105 8.53914 15.2172C8.53953 15.2239 8.54157 15.2303 8.54507 15.2361C8.54858 15.2418 8.55343 15.2466 8.55921 15.25C8.87754 15.4338 9.20993 15.5922 9.55327 15.7236C9.55861 15.7255 9.56349 15.7286 9.56756 15.7326C9.57164 15.7365 9.57482 15.7413 9.57691 15.7466C9.57899 15.7519 9.57993 15.7576 9.57967 15.7633C9.5794 15.769 9.57793 15.7746 9.57535 15.7796C9.38783 16.1498 9.17011 16.5038 8.92439 16.8381C8.91932 16.8449 8.91232 16.8499 8.90433 16.8525C8.89634 16.8551 8.88773 16.8552 8.87968 16.8528C7.73562 16.5009 6.65965 15.9572 5.69769 15.245C5.69307 15.2414 5.68922 15.2369 5.68637 15.2318C5.68352 15.2266 5.68173 15.221 5.68111 15.2152C5.4591 12.8385 5.91165 10.4321 7.56369 7.965C7.56773 7.95847 7.5737 7.95335 7.58077 7.95035C8.40687 7.57095 9.27881 7.30063 10.1746 7.14617C10.1828 7.14489 10.1911 7.14609 10.1985 7.1496C10.206 7.15312 10.2122 7.1588 10.2163 7.16589C10.3378 7.38074 10.4473 7.60214 10.5443 7.82906C11.5099 7.68248 12.4921 7.68248 13.4576 7.82906C13.554 7.60271 13.6618 7.38137 13.7805 7.16589C13.7845 7.15864 13.7907 7.15283 13.7982 7.14929C13.8057 7.14575 13.8141 7.14466 13.8222 7.14617C14.718 7.30095 15.5898 7.57126 16.416 7.95033Z" fill="currentColor"/>
</svg>
