<svg width="24" height="24" viewBox="0 0 24 24" fill="none" xmlns="http://www.w3.org/2000/svg">
<path clip-rule="evenodd" d="M12 1.5C17.7951 1.5 22.5 6.2049 22.5 12C22.5 17.7951 17.7951 22.5 12 22.5C6.2049 22.5 1.5 17.7951 1.5 12C1.5 6.2049 6.2049 1.5 12 1.5ZM18.1293 17.5338V17.3271L17.17 16.3852C17.0853 16.3207 17.0433 16.2146 17.0609 16.1096V9.18945C17.0433 9.0844 17.0853 8.9783 17.17 8.91374L18.1523 7.97194V7.76518H14.7517L12.3274 13.8124L9.57007 7.76518H6.00274V7.97194L7.15167 9.35597C7.2645 9.45761 7.32205 9.60694 7.30675 9.758V15.1965C7.34017 15.3926 7.27836 15.5931 7.14022 15.7363L5.84766 17.3041V17.5108H9.51265V17.3041L8.22012 15.7363C8.08092 15.5933 8.01525 15.3942 8.04203 15.1965V10.4931L11.259 17.5108H11.6324L14.3955 10.4931V16.0866C14.3955 16.2359 14.3955 16.2646 14.2978 16.3622L13.304 17.3271V17.5338H18.1293Z" fill="currentColor"/>
</svg>
