<svg width="24" height="24" viewBox="0 0 24 24" fill="none" xmlns="http://www.w3.org/2000/svg">
<path d="M13.6875 12.8438C13.6875 13.0675 13.7764 13.2821 13.9346 13.4404C14.0929 13.5986 14.3075 13.6875 14.5312 13.6875C14.755 13.6875 14.9696 13.5986 15.1279 13.4404C15.2861 13.2821 15.375 13.0675 15.375 12.8438C15.375 12.62 15.2861 12.4054 15.1279 12.2471C14.9696 12.0889 14.755 12 14.5312 12C14.3075 12 14.0929 12.0889 13.9346 12.2471C13.7764 12.4054 13.6875 12.62 13.6875 12.8438ZM17.0625 10.3125C16.9028 10.3124 16.7464 10.3577 16.6115 10.4432C16.4766 10.5287 16.3688 10.6508 16.3008 10.7953C16.7414 11.1305 17.107 11.5148 17.3766 11.9391C17.5588 11.8664 17.71 11.7324 17.8041 11.5603C17.8982 11.3881 17.9294 11.1885 17.8922 10.9959C17.855 10.8033 17.7518 10.6296 17.6003 10.5049C17.4489 10.3801 17.2587 10.3121 17.0625 10.3125V10.3125ZM12 1.5C6.20156 1.5 1.5 6.20156 1.5 12C1.5 17.7984 6.20156 22.5 12 22.5C17.7984 22.5 22.5 17.7984 22.5 12C22.5 6.20156 17.7984 1.5 12 1.5ZM17.7422 12.7008C17.85 13.0172 17.9062 13.3477 17.9062 13.6875C17.9062 16.0172 15.2625 17.9062 12 17.9062C8.7375 17.9062 6.09375 16.0172 6.09375 13.6875C6.09375 13.3477 6.15 13.0172 6.25781 12.7008C5.90361 12.5446 5.61386 12.2714 5.43713 11.927C5.26039 11.5826 5.20742 11.188 5.28708 10.8092C5.36674 10.4303 5.5742 10.0904 5.87468 9.84639C6.17517 9.60235 6.5504 9.46902 6.9375 9.46875C7.57266 9.46875 8.12344 9.81797 8.41172 10.3359C9.26016 9.87188 10.2914 9.56719 11.4141 9.48984L12.7828 6.41719C12.8836 6.1875 13.1391 6.07031 13.3805 6.14062L15.5273 6.76172C15.661 6.5135 15.8737 6.31698 16.1317 6.20332C16.3897 6.08965 16.6783 6.06533 16.9517 6.13422C17.2251 6.2031 17.4676 6.36125 17.641 6.5836C17.8143 6.80595 17.9085 7.07979 17.9086 7.36172C17.9086 8.06016 17.3414 8.62734 16.643 8.62734C16.0922 8.62734 15.6234 8.27344 15.45 7.78125L13.5234 7.22578L12.5156 9.4875C13.6664 9.55781 14.7234 9.86484 15.5906 10.3383C15.8789 9.82031 16.4297 9.47109 17.0648 9.47109C17.9977 9.47109 18.7523 10.2258 18.7523 11.1586C18.75 11.8453 18.3352 12.4383 17.7422 12.7008ZM13.7273 14.6461C13.3781 14.9203 12.6891 15.2156 12 15.2156C11.3109 15.2156 10.6195 14.9203 10.2727 14.6461C10.0547 14.475 9.74062 14.5125 9.56953 14.7305C9.39844 14.9484 9.43594 15.2625 9.65391 15.4336C10.2562 15.9117 11.1773 16.2188 12 16.2188C12.8227 16.2188 13.7438 15.9117 14.3484 15.4336C14.5664 15.2625 14.6039 14.9461 14.4328 14.7305C14.3504 14.6259 14.2298 14.5582 14.0975 14.5424C13.9653 14.5266 13.8321 14.5639 13.7273 14.6461ZM6.9375 10.3125C6.7413 10.3121 6.55111 10.3801 6.39968 10.5049C6.24824 10.6296 6.14504 10.8033 6.10784 10.9959C6.07065 11.1885 6.10179 11.3881 6.1959 11.5603C6.29001 11.7324 6.4412 11.8664 6.62344 11.9391C6.89297 11.5148 7.25859 11.1305 7.69922 10.7953C7.63116 10.6508 7.52339 10.5287 7.38851 10.4432C7.25362 10.3577 7.0972 10.3124 6.9375 10.3125V10.3125ZM8.625 12.8438C8.625 13.0675 8.71389 13.2821 8.87213 13.4404C9.03036 13.5986 9.24497 13.6875 9.46875 13.6875C9.69253 13.6875 9.90714 13.5986 10.0654 13.4404C10.2236 13.2821 10.3125 13.0675 10.3125 12.8438C10.3125 12.62 10.2236 12.4054 10.0654 12.2471C9.90714 12.0889 9.69253 12 9.46875 12C9.24497 12 9.03036 12.0889 8.87213 12.2471C8.71389 12.4054 8.625 12.62 8.625 12.8438Z" fill="currentColor"/>
</svg>
