<svg width="24" height="24" viewBox="0 0 24 24" fill="none" xmlns="http://www.w3.org/2000/svg">
<path d="M12 1.5C6.20101 1.5 1.5 6.20101 1.5 12C1.5 17.799 6.20101 22.5 12 22.5C17.799 22.5 22.5 17.799 22.5 12C22.5 6.20101 17.799 1.5 12 1.5ZM17.4575 8.14191L15.5926 17.0449C15.57 17.1526 15.5208 17.2529 15.4493 17.3366C15.3779 17.4202 15.2866 17.4846 15.1838 17.5238C15.081 17.563 14.97 17.5757 14.861 17.5608C14.752 17.5458 14.6484 17.5037 14.5599 17.4384L11.8473 15.4343L10.2039 16.9847C10.1824 17.005 10.1571 17.0208 10.1294 17.0312C10.1017 17.0416 10.0722 17.0464 10.0427 17.0453C10.0131 17.0441 9.98408 17.0371 9.95726 17.0247C9.93044 17.0122 9.90637 16.9945 9.88647 16.9727L9.85115 16.9339L10.1367 14.1704L15.2835 9.46794C15.309 9.44472 15.3248 9.41281 15.3279 9.3785C15.3309 9.34419 15.3211 9.30996 15.3001 9.28259C15.2792 9.25521 15.2488 9.23666 15.2149 9.2306C15.181 9.22454 15.146 9.23142 15.1169 9.24986L8.53479 13.4158L5.7 12.4638C5.62462 12.4384 5.55893 12.3904 5.51193 12.3263C5.46493 12.2621 5.43893 12.185 5.43749 12.1055C5.43605 12.026 5.45925 11.948 5.5039 11.8822C5.54855 11.8164 5.61246 11.7661 5.68687 11.738L16.7783 7.55981C16.8639 7.52762 16.9565 7.51899 17.0465 7.53485C17.1366 7.55071 17.2207 7.59046 17.2901 7.64994C17.3595 7.70943 17.4117 7.78648 17.4411 7.87302C17.4706 7.95956 17.4762 8.05243 17.4575 8.14191Z" fill="currentColor"/>
</svg>
